0
SECTION
2
HEADER
9
$INSUNITS
70
4
9
$ACADVER
1
AC1014
9
$HANDSEED
5
FFFF
0
ENDSEC
0
SECTION
2
TABLES
0
TABLE
2
VPORT
5
8
100
AcDbSymbolTable
0
ENDTAB
0
TABLE
2
LTYPE
5
5
100
AcDbSymbolTable
0
LTYPE
5
14
100
AcDbSymbolTableRecord
100
AcDbLinetypeTableRecord
2
BYBLOCK
70
0
0
LTYPE
5
15
100
AcDbSymbolTableRecord
100
AcDbLinetypeTableRecord
2
BYLAYER
70
0
0
ENDTAB
0
TABLE
2
LAYER
5
2
100
AcDbSymbolTable
70
2
0
LAYER
5
50
100
AcDbSymbolTableRecord
100
AcDbLayerTableRecord
2
0
70
0
6
CONTINUOUS
0
ENDTAB
0
TABLE
2
STYLE
5
3
100
AcDbSymbolTable
70
1
0
STYLE
5
11
100
AcDbSymbolTableRecord
100
AcDbTextStyleTableRecord
2
STANDARD
70
0
0
ENDTAB
0
TABLE
2
VIEW
5
6
100
AcDbSymbolTable
70
0
0
ENDTAB
0
TABLE
2
UCS
5
7
100
AcDbSymbolTable
70
0
0
ENDTAB
0
TABLE
2
APPID
5
9
100
AcDbSymbolTable
70
2
0
APPID
5
12
100
AcDbSymbolTableRecord
100
AcDbRegAppTableRecord
2
ACAD
70
0
0
ENDTAB
0
TABLE
2
DIMSTYLE
5
A
100
AcDbSymbolTable
70
1
0
ENDTAB
0
TABLE
2
BLOCK_RECORD
5
1
100
AcDbSymbolTable
70
1
0
BLOCK_RECORD
5
1F
100
AcDbSymbolTableRecord
100
AcDbBlockTableRecord
2
*MODEL_SPACE
0
BLOCK_RECORD
5
1B
100
AcDbSymbolTableRecord
100
AcDbBlockTableRecord
2
*PAPER_SPACE
0
ENDTAB
0
ENDSEC
0
SECTION
2
BLOCKS
0
BLOCK
5
20
100
AcDbEntity
100
AcDbBlockBegin
2
*MODEL_SPACE
0
ENDBLK
5
21
100
AcDbEntity
100
AcDbBlockEnd
0
BLOCK
5
1C
100
AcDbEntity
100
AcDbBlockBegin
2
*PAPER_SPACE
0
ENDBLK
5
1D
100
AcDbEntity
100
AcDbBlockEnd
0
ENDSEC
0
SECTION
2
ENTITIES
0
CIRCLE
5
100
100
AcDbEntity
8
0
100
AcDbCircle
10
-328.30000000000007
20
43.500000000000021
30
0
40
2.2500000000000142
210
0
220
0
230
1
0
CIRCLE
5
101
100
AcDbEntity
8
0
100
AcDbCircle
10
-316.30000000000001
20
16.499999999999993
30
0
40
2.7499999999999858
210
0
220
0
230
1
0
CIRCLE
5
102
100
AcDbEntity
8
0
100
AcDbCircle
10
-383.30000000000013
20
40.999999999999659
30
0
40
5.4999999999999716
210
0
220
0
230
1
0
LWPOLYLINE
5
103
100
AcDbEntity
8
0
100
AcDbPolyline
90
4
70
1
43
0.0
10
-407.79999999999984
20
5.9999999999999112
10
-419.7999999999999
20
6.0000000000000222
10
-419.7999999999999
20
17.999999999999932
10
-407.79999999999984
20
17.99999999999994
0
CIRCLE
5
104
100
AcDbEntity
8
0
100
AcDbCircle
10
-413.80000000000001
20
40.999999999999659
30
0
40
3.9999999999999858
210
0
220
0
230
1
0
CIRCLE
5
105
100
AcDbEntity
8
0
100
AcDbCircle
10
-453.70000000000005
20
24.999999999999996
30
0
40
3.2500000000000284
210
0
220
0
230
1
0
CIRCLE
5
106
100
AcDbEntity
8
0
100
AcDbCircle
10
-491.95000000000005
20
37.499999999999993
30
0
40
3.2500000000000284
210
0
220
0
230
1
0
CIRCLE
5
107
100
AcDbEntity
8
0
100
AcDbCircle
10
-383.30000000000007
20
13.499999999999998
30
0
40
3.2500000000000284
210
0
220
0
230
1
0
CIRCLE
5
108
100
AcDbEntity
8
0
100
AcDbCircle
10
-517.45000000000005
20
37.499999999999993
30
0
40
3.2500000000000284
210
0
220
0
230
1
0
CIRCLE
5
109
100
AcDbEntity
8
0
100
AcDbCircle
10
-466.45000000000005
20
37.499999999999993
30
0
40
3.2500000000000284
210
0
220
0
230
1
0
CIRCLE
5
110
100
AcDbEntity
8
0
100
AcDbCircle
10
-453.70000000000005
20
12.499999999999996
30
0
40
3.2500000000000284
210
0
220
0
230
1
0
CIRCLE
5
111
100
AcDbEntity
8
0
100
AcDbCircle
10
-308.30000000000007
20
43.5
30
0
40
2.2500000000000142
210
0
220
0
230
1
0
CIRCLE
5
112
100
AcDbEntity
8
0
100
AcDbCircle
10
-517.45000000000005
20
12.499999999999996
30
0
40
3.2500000000000284
210
0
220
0
230
1
0
LWPOLYLINE
5
113
100
AcDbEntity
8
0
100
AcDbPolyline
90
4
70
1
43
0.0
10
-423.99999999999915
20
13.22857142857143
10
-428.20000000000005
20
13.228571428571428
10
-428.20000000000005
20
26.457142857142848
10
-423.99999999999915
20
26.457142857142841
0
CIRCLE
5
114
100
AcDbEntity
8
0
100
AcDbCircle
10
-517.45000000000005
20
24.999999999999996
30
0
40
3.2500000000000284
210
0
220
0
230
1
0
CIRCLE
5
115
100
AcDbEntity
8
0
100
AcDbCircle
10
-466.45000000000005
20
24.999999999999996
30
0
40
3.2500000000000284
210
0
220
0
230
1
0
CIRCLE
5
116
100
AcDbEntity
8
0
100
AcDbCircle
10
-308.46558590254506
20
63.499314520974906
30
0
40
1.7500000000000071
210
0
220
0
230
1
0
CIRCLE
5
117
100
AcDbEntity
8
0
100
AcDbCircle
10
-466.45000000000005
20
12.499999999999996
30
0
40
3.2500000000000284
210
0
220
0
230
1
0
CIRCLE
5
118
100
AcDbEntity
8
0
100
AcDbCircle
10
-440.95000000000005
20
12.499999999999996
30
0
40
3.2500000000000284
210
0
220
0
230
1
0
CIRCLE
5
119
100
AcDbEntity
8
0
100
AcDbCircle
10
-440.95000000000005
20
24.999999999999996
30
0
40
3.2500000000000284
210
0
220
0
230
1
0
CIRCLE
5
120
100
AcDbEntity
8
0
100
AcDbCircle
10
-351.30000000000001
20
40.999999999999652
30
0
40
3.2500000000000284
210
0
220
0
230
1
0
CIRCLE
5
121
100
AcDbEntity
8
0
100
AcDbCircle
10
-453.70000000000005
20
37.499999999999993
30
0
40
3.2500000000000284
210
0
220
0
230
1
0
CIRCLE
5
122
100
AcDbEntity
8
0
100
AcDbCircle
10
-440.95000000000005
20
37.499999999999993
30
0
40
3.2500000000000284
210
0
220
0
230
1
0
CIRCLE
5
123
100
AcDbEntity
8
0
100
AcDbCircle
10
-479.2000000000001
20
12.499999999999996
30
0
40
3.2500000000000284
210
0
220
0
230
1
0
CIRCLE
5
124
100
AcDbEntity
8
0
100
AcDbCircle
10
-504.70000000000005
20
24.999999999999996
30
0
40
3.2500000000000284
210
0
220
0
230
1
0
CIRCLE
5
125
100
AcDbEntity
8
0
100
AcDbCircle
10
-504.70000000000005
20
37.499999999999993
30
0
40
3.2500000000000284
210
0
220
0
230
1
0
CIRCLE
5
126
100
AcDbEntity
8
0
100
AcDbCircle
10
-491.95000000000005
20
24.999999999999996
30
0
40
3.2500000000000284
210
0
220
0
230
1
0
CIRCLE
5
127
100
AcDbEntity
8
0
100
AcDbCircle
10
-479.2000000000001
20
24.999999999999996
30
0
40
3.2500000000000284
210
0
220
0
230
1
0
CIRCLE
5
128
100
AcDbEntity
8
0
100
AcDbCircle
10
-504.70000000000005
20
12.499999999999996
30
0
40
3.2500000000000284
210
0
220
0
230
1
0
CIRCLE
5
129
100
AcDbEntity
8
0
100
AcDbCircle
10
-479.2000000000001
20
37.499999999999993
30
0
40
3.2500000000000284
210
0
220
0
230
1
0
CIRCLE
5
130
100
AcDbEntity
8
0
100
AcDbCircle
10
-351.30000000000001
20
13.499999999999996
30
0
40
3.2500000000000284
210
0
220
0
230
1
0
CIRCLE
5
131
100
AcDbEntity
8
0
100
AcDbCircle
10
-413.80000000000001
20
65.481553005090703
30
0
40
7.2500000000000133
210
0
220
0
230
1
0
CIRCLE
5
132
100
AcDbEntity
8
0
100
AcDbCircle
10
-328.30000000000007
20
63.499314520974906
30
0
40
1.7499999999999716
210
0
220
0
230
1
0
CIRCLE
5
133
100
AcDbEntity
8
0
100
AcDbCircle
10
-491.95000000000005
20
12.499999999999996
30
0
40
3.2500000000000284
210
0
220
0
230
1
0
LWPOLYLINE
5
134
100
AcDbEntity
8
0
100
AcDbPolyline
90
60
70
1
43
0.0
10
-526.20000000000005
20
20.160000000000021
10
-526.20000000000005
20
10.080000000000023
10
-530.40000000000009
20
10.08000000000002
10
-530.40000000000009
20
0
10
-428.20000000000005
20
0
10
-428.20000000000005
20
4.2000000000000002
10
-409.85714285714295
20
4.2000000000000002
10
-409.85714285714295
20
0
10
-391.51428571428585
20
0
10
-391.51428571428585
20
4.2000000000000002
10
-373.17142857142875
20
4.2000000000000002
10
-373.17142857142875
20
0
10
-354.82857142857119
20
0
10
-354.82857142857119
20
4.2000000000000002
10
-336.4857142857141
20
4.2000000000000002
10
-336.4857142857141
20
0
10
-318.14285714285711
20
0
10
-318.14285714285711
20
4.2000000000000002
10
-299.80000000000007
20
4.2000000000000002
10
-299.80000000000007
20
13.228571428571417
10
-304.00000000000097
20
13.228571428571419
10
-304.00000000000097
20
26.457142857142856
10
-299.80000000000007
20
26.457142857142841
10
-299.80000000000007
20
39.685714285714241
10
-304.00000000000097
20
39.685714285714241
10
-304.00000000000097
20
52.914285714285647
10
-299.80000000000007
20
52.914285714285647
10
-299.80000000000007
20
66.142857142857125
10
-304.00000000000097
20
66.142857142857153
10
-304.00000000000097
20
79.371428571428524
10
-299.80000000000007
20
79.371428571428524
10
-299.80000000000007
20
88.400000000000006
10
-318.14285714285711
20
88.400000000000006
10
-318.14285714285711
20
92.599999999999994
10
-336.4857142857141
20
92.599999999999994
10
-336.4857142857141
20
88.400000000000006
10
-354.82857142857119
20
88.400000000000006
10
-354.82857142857119
20
92.599999999999994
10
-373.17142857142875
20
92.599999999999994
10
-373.17142857142875
20
88.400000000000006
10
-391.51428571428585
20
88.400000000000006
10
-391.51428571428585
20
92.599999999999994
10
-409.85714285714295
20
92.599999999999994
10
-409.85714285714295
20
88.400000000000006
10
-428.20000000000005
20
88.400000000000006
10
-428.20000000000005
20
79.371428571428581
10
-423.99999999999915
20
79.371428571428538
10
-423.99999999999915
20
66.14285714285711
10
-428.20000000000005
20
66.142857142857125
10
-428.20000000000005
20
52.914285714285697
10
-423.99999999999915
20
52.914285714285668
10
-423.99999999999915
20
39.685714285714255
10
-428.20000000000005
20
39.685714285714276
10
-428.20000000000005
20
50.40000000000002
10
-530.40000000000009
20
50.40000000000002
10
-530.40000000000009
20
40.320000000000022
10
-526.20000000000005
20
40.320000000000022
10
-526.20000000000005
20
30.240000000000016
10
-530.40000000000009
20
30.240000000000016
10
-530.40000000000009
20
20.160000000000018
0
ENDSEC
0
SECTION
2
OBJECTS
0
DICTIONARY
5
C
100
AcDbDictionary
3
ACAD_GROUP
350
D
3
ACAD_MLINESTYLE
350
17
0
DICTIONARY
5
D
100
AcDbDictionary
0
DICTIONARY
5
1A
330
C
100
AcDbDictionary
0
DICTIONARY
5
17
100
AcDbDictionary
0
ENDSEC
0
EOF
