0
SECTION
2
HEADER
9
$EXTMIN
10
0
20
0
9
$EXTMAX
10
750
20
975
0
ENDSEC
0
SECTION
2
TABLES
0
TABLE
2
VPORT
70
1
0
VPORT
2
*ACTIVE
70
0
10
0
20
0
11
1
21
1
12
0
22
0
13
0
23
0
14
1
24
1
15
0
25
0
16
0
26
0
36
1
17
0
27
0
37
0
40
300
41
2.12
42
50
43
0
44
0
50
0
51
0
71
0
72
100
73
1
74
1
75
0
76
0
77
0
78
0
0
ENDTAB
0
ENDSEC
0
SECTION
2
ENTITIES
0
POLYLINE
8
1
66
1
70
0
0
VERTEX
8
1
10
516.00
20
516.00
0
VERTEX
8
1
10
520.33
20
516.00
0
VERTEX
8
1
10
520.33
20
512.00
0
VERTEX
8
1
10
528.65
20
512.00
0
VERTEX
8
1
10
528.65
20
516.00
0
VERTEX
8
1
10
536.98
20
516.00
0
VERTEX
8
1
10
536.98
20
512.00
0
VERTEX
8
1
10
545.31
20
512.00
0
VERTEX
8
1
10
545.31
20
516.00
0
VERTEX
8
1
10
553.63
20
516.00
0
VERTEX
8
1
10
553.63
20
512.00
0
VERTEX
8
1
10
561.96
20
512.00
0
VERTEX
8
1
10
561.96
20
516.00
0
VERTEX
8
1
10
570.29
20
516.00
0
VERTEX
8
1
10
570.29
20
512.00
0
VERTEX
8
1
10
578.61
20
512.00
0
VERTEX
8
1
10
578.61
20
516.00
0
VERTEX
8
1
10
586.94
20
516.00
0
VERTEX
8
1
10
586.94
20
512.00
0
VERTEX
8
1
10
595.26
20
512.00
0
VERTEX
8
1
10
595.26
20
516.00
0
VERTEX
8
1
10
603.59
20
516.00
0
VERTEX
8
1
10
603.59
20
512.00
0
VERTEX
8
1
10
611.92
20
512.00
0
VERTEX
8
1
10
611.92
20
516.00
0
VERTEX
8
1
10
620.25
20
516.00
0
VERTEX
8
1
10
620.25
20
512.00
0
VERTEX
8
1
10
628.57
20
512.00
0
VERTEX
8
1
10
628.57
20
516.00
0
VERTEX
8
1
10
636.90
20
516.00
0
VERTEX
8
1
10
636.90
20
512.00
0
VERTEX
8
1
10
645.22
20
512.00
0
VERTEX
8
1
10
645.22
20
516.00
0
VERTEX
8
1
10
653.55
20
516.00
0
VERTEX
8
1
10
653.55
20
512.00
0
VERTEX
8
1
10
661.88
20
512.00
0
VERTEX
8
1
10
661.88
20
516.00
0
VERTEX
8
1
10
670.20
20
516.00
0
VERTEX
8
1
10
670.20
20
512.00
0
VERTEX
8
1
10
678.53
20
512.00
0
VERTEX
8
1
10
678.53
20
516.00
0
VERTEX
8
1
10
686.86
20
516.00
0
VERTEX
8
1
10
686.86
20
512.00
0
VERTEX
8
1
10
695.18
20
512.00
0
VERTEX
8
1
10
695.18
20
516.00
0
VERTEX
8
1
10
703.51
20
516.00
0
VERTEX
8
1
10
703.51
20
512.00
0
VERTEX
8
1
10
711.84
20
512.00
0
VERTEX
8
1
10
711.84
20
516.00
0
VERTEX
8
1
10
720.16
20
516.00
0
VERTEX
8
1
10
720.16
20
512.00
0
VERTEX
8
1
10
728.49
20
512.00
0
VERTEX
8
1
10
728.49
20
516.00
0
VERTEX
8
1
10
736.82
20
516.00
0
VERTEX
8
1
10
736.82
20
512.00
0
VERTEX
8
1
10
745.14
20
512.00
0
VERTEX
8
1
10
745.14
20
516.00
0
VERTEX
8
1
10
753.47
20
516.00
0
VERTEX
8
1
10
753.47
20
512.00
0
VERTEX
8
1
10
761.80
20
512.00
0
VERTEX
8
1
10
761.80
20
516.00
0
VERTEX
8
1
10
770.12
20
516.00
0
VERTEX
8
1
10
770.12
20
512.00
0
VERTEX
8
1
10
778.45
20
512.00
0
VERTEX
8
1
10
778.45
20
516.00
0
VERTEX
8
1
10
786.78
20
516.00
0
VERTEX
8
1
10
786.78
20
512.00
0
VERTEX
8
1
10
795.10
20
512.00
0
VERTEX
8
1
10
795.10
20
516.00
0
VERTEX
8
1
10
803.43
20
516.00
0
VERTEX
8
1
10
803.43
20
512.00
0
VERTEX
8
1
10
811.75
20
512.00
0
VERTEX
8
1
10
811.75
20
516.00
0
VERTEX
8
1
10
820.08
20
516.00
0
VERTEX
8
1
10
820.08
20
512.00
0
VERTEX
8
1
10
828.41
20
512.00
0
VERTEX
8
1
10
828.41
20
516.00
0
VERTEX
8
1
10
836.74
20
516.00
0
VERTEX
8
1
10
836.74
20
512.00
0
VERTEX
8
1
10
845.06
20
512.00
0
VERTEX
8
1
10
845.06
20
516.00
0
VERTEX
8
1
10
853.39
20
516.00
0
VERTEX
8
1
10
853.39
20
512.00
0
VERTEX
8
1
10
861.71
20
512.00
0
VERTEX
8
1
10
861.71
20
516.00
0
VERTEX
8
1
10
870.04
20
516.00
0
VERTEX
8
1
10
870.04
20
512.00
0
VERTEX
8
1
10
878.37
20
512.00
0
VERTEX
8
1
10
878.37
20
516.00
0
VERTEX
8
1
10
886.69
20
516.00
0
VERTEX
8
1
10
886.69
20
512.00
0
VERTEX
8
1
10
895.02
20
512.00
0
VERTEX
8
1
10
895.02
20
516.00
0
VERTEX
8
1
10
903.35
20
516.00
0
VERTEX
8
1
10
903.35
20
512.00
0
VERTEX
8
1
10
911.67
20
512.00
0
VERTEX
8
1
10
911.67
20
516.00
0
VERTEX
8
1
10
916.00
20
516.00
0
VERTEX
8
1
10
916.00
20
524.20
0
VERTEX
8
1
10
920.00
20
524.20
0
VERTEX
8
1
10
920.00
20
532.39
0
VERTEX
8
1
10
916.00
20
532.39
0
VERTEX
8
1
10
916.00
20
540.59
0
VERTEX
8
1
10
920.00
20
540.59
0
VERTEX
8
1
10
920.00
20
548.79
0
VERTEX
8
1
10
916.00
20
548.79
0
VERTEX
8
1
10
916.00
20
556.98
0
VERTEX
8
1
10
920.00
20
556.98
0
VERTEX
8
1
10
920.00
20
565.18
0
VERTEX
8
1
10
916.00
20
565.18
0
VERTEX
8
1
10
916.00
20
573.38
0
VERTEX
8
1
10
920.00
20
573.38
0
VERTEX
8
1
10
920.00
20
581.57
0
VERTEX
8
1
10
916.00
20
581.57
0
VERTEX
8
1
10
916.00
20
589.77
0
VERTEX
8
1
10
920.00
20
589.77
0
VERTEX
8
1
10
920.00
20
597.97
0
VERTEX
8
1
10
916.00
20
597.97
0
VERTEX
8
1
10
916.00
20
606.16
0
VERTEX
8
1
10
920.00
20
606.16
0
VERTEX
8
1
10
920.00
20
614.36
0
VERTEX
8
1
10
916.00
20
614.36
0
VERTEX
8
1
10
916.00
20
622.56
0
VERTEX
8
1
10
920.00
20
622.56
0
VERTEX
8
1
10
920.00
20
630.75
0
VERTEX
8
1
10
916.00
20
630.75
0
VERTEX
8
1
10
916.00
20
638.95
0
VERTEX
8
1
10
920.00
20
638.95
0
VERTEX
8
1
10
920.00
20
647.15
0
VERTEX
8
1
10
916.00
20
647.15
0
VERTEX
8
1
10
916.00
20
655.34
0
VERTEX
8
1
10
920.00
20
655.34
0
VERTEX
8
1
10
920.00
20
663.54
0
VERTEX
8
1
10
916.00
20
663.54
0
VERTEX
8
1
10
916.00
20
671.74
0
VERTEX
8
1
10
920.00
20
671.74
0
VERTEX
8
1
10
920.00
20
679.93
0
VERTEX
8
1
10
916.00
20
679.93
0
VERTEX
8
1
10
916.00
20
688.13
0
VERTEX
8
1
10
920.00
20
688.13
0
VERTEX
8
1
10
920.00
20
696.33
0
VERTEX
8
1
10
916.00
20
696.33
0
VERTEX
8
1
10
916.00
20
704.52
0
VERTEX
8
1
10
920.00
20
704.52
0
VERTEX
8
1
10
920.00
20
712.72
0
VERTEX
8
1
10
916.00
20
712.72
0
VERTEX
8
1
10
916.00
20
720.92
0
VERTEX
8
1
10
920.00
20
720.92
0
VERTEX
8
1
10
920.00
20
729.12
0
VERTEX
8
1
10
916.00
20
729.12
0
VERTEX
8
1
10
916.00
20
737.31
0
VERTEX
8
1
10
920.00
20
737.31
0
VERTEX
8
1
10
920.00
20
745.51
0
VERTEX
8
1
10
916.00
20
745.51
0
VERTEX
8
1
10
916.00
20
753.71
0
VERTEX
8
1
10
920.00
20
753.71
0
VERTEX
8
1
10
920.00
20
761.90
0
VERTEX
8
1
10
916.00
20
761.90
0
VERTEX
8
1
10
916.00
20
770.10
0
VERTEX
8
1
10
920.00
20
770.10
0
VERTEX
8
1
10
920.00
20
778.29
0
VERTEX
8
1
10
916.00
20
778.29
0
VERTEX
8
1
10
916.00
20
786.49
0
VERTEX
8
1
10
920.00
20
786.49
0
VERTEX
8
1
10
920.00
20
794.69
0
VERTEX
8
1
10
916.00
20
794.69
0
VERTEX
8
1
10
916.00
20
802.88
0
VERTEX
8
1
10
920.00
20
802.88
0
VERTEX
8
1
10
920.00
20
811.08
0
VERTEX
8
1
10
916.00
20
811.08
0
VERTEX
8
1
10
916.00
20
819.28
0
VERTEX
8
1
10
920.00
20
819.28
0
VERTEX
8
1
10
920.00
20
827.48
0
VERTEX
8
1
10
916.00
20
827.48
0
VERTEX
8
1
10
916.00
20
835.67
0
VERTEX
8
1
10
920.00
20
835.67
0
VERTEX
8
1
10
920.00
20
843.87
0
VERTEX
8
1
10
916.00
20
843.87
0
VERTEX
8
1
10
916.00
20
852.07
0
VERTEX
8
1
10
920.00
20
852.07
0
VERTEX
8
1
10
920.00
20
860.26
0
VERTEX
8
1
10
916.00
20
860.26
0
VERTEX
8
1
10
916.00
20
868.46
0
VERTEX
8
1
10
920.00
20
868.46
0
VERTEX
8
1
10
920.00
20
876.66
0
VERTEX
8
1
10
916.00
20
876.66
0
VERTEX
8
1
10
916.00
20
884.85
0
VERTEX
8
1
10
920.00
20
884.85
0
VERTEX
8
1
10
920.00
20
893.05
0
VERTEX
8
1
10
916.00
20
893.05
0
VERTEX
8
1
10
916.00
20
901.25
0
VERTEX
8
1
10
920.00
20
901.25
0
VERTEX
8
1
10
920.00
20
909.44
0
VERTEX
8
1
10
916.00
20
909.44
0
VERTEX
8
1
10
916.00
20
917.64
0
VERTEX
8
1
10
920.00
20
917.64
0
VERTEX
8
1
10
920.00
20
925.84
0
VERTEX
8
1
10
916.00
20
925.84
0
VERTEX
8
1
10
916.00
20
934.03
0
VERTEX
8
1
10
920.00
20
934.03
0
VERTEX
8
1
10
920.00
20
942.23
0
VERTEX
8
1
10
916.00
20
942.23
0
VERTEX
8
1
10
916.00
20
950.43
0
VERTEX
8
1
10
920.00
20
950.43
0
VERTEX
8
1
10
920.00
20
958.62
0
VERTEX
8
1
10
916.00
20
958.62
0
VERTEX
8
1
10
916.00
20
966.82
0
VERTEX
8
1
10
920.00
20
966.82
0
VERTEX
8
1
10
920.00
20
975.02
0
VERTEX
8
1
10
916.00
20
975.02
0
VERTEX
8
1
10
916.00
20
983.21
0
VERTEX
8
1
10
920.00
20
983.21
0
VERTEX
8
1
10
920.00
20
991.41
0
VERTEX
8
1
10
916.00
20
991.41
0
VERTEX
8
1
10
916.00
20
999.61
0
VERTEX
8
1
10
920.00
20
999.61
0
VERTEX
8
1
10
920.00
20
1007.80
0
VERTEX
8
1
10
916.00
20
1007.80
0
VERTEX
8
1
10
916.00
20
1016.00
0
VERTEX
8
1
10
911.67
20
1016.00
0
VERTEX
8
1
10
911.67
20
1020.00
0
VERTEX
8
1
10
903.35
20
1020.00
0
VERTEX
8
1
10
903.35
20
1016.00
0
VERTEX
8
1
10
895.02
20
1016.00
0
VERTEX
8
1
10
895.02
20
1020.00
0
VERTEX
8
1
10
886.69
20
1020.00
0
VERTEX
8
1
10
886.69
20
1016.00
0
VERTEX
8
1
10
878.37
20
1016.00
0
VERTEX
8
1
10
878.37
20
1020.00
0
VERTEX
8
1
10
870.04
20
1020.00
0
VERTEX
8
1
10
870.04
20
1016.00
0
VERTEX
8
1
10
861.71
20
1016.00
0
VERTEX
8
1
10
861.71
20
1020.00
0
VERTEX
8
1
10
853.39
20
1020.00
0
VERTEX
8
1
10
853.39
20
1016.00
0
VERTEX
8
1
10
845.06
20
1016.00
0
VERTEX
8
1
10
845.06
20
1020.00
0
VERTEX
8
1
10
836.74
20
1020.00
0
VERTEX
8
1
10
836.74
20
1016.00
0
VERTEX
8
1
10
828.41
20
1016.00
0
VERTEX
8
1
10
828.41
20
1020.00
0
VERTEX
8
1
10
820.08
20
1020.00
0
VERTEX
8
1
10
820.08
20
1016.00
0
VERTEX
8
1
10
811.75
20
1016.00
0
VERTEX
8
1
10
811.75
20
1020.00
0
VERTEX
8
1
10
803.43
20
1020.00
0
VERTEX
8
1
10
803.43
20
1016.00
0
VERTEX
8
1
10
795.10
20
1016.00
0
VERTEX
8
1
10
795.10
20
1020.00
0
VERTEX
8
1
10
786.78
20
1020.00
0
VERTEX
8
1
10
786.78
20
1016.00
0
VERTEX
8
1
10
778.45
20
1016.00
0
VERTEX
8
1
10
778.45
20
1020.00
0
VERTEX
8
1
10
770.12
20
1020.00
0
VERTEX
8
1
10
770.12
20
1016.00
0
VERTEX
8
1
10
761.80
20
1016.00
0
VERTEX
8
1
10
761.80
20
1020.00
0
VERTEX
8
1
10
753.47
20
1020.00
0
VERTEX
8
1
10
753.47
20
1016.00
0
VERTEX
8
1
10
745.14
20
1016.00
0
VERTEX
8
1
10
745.14
20
1020.00
0
VERTEX
8
1
10
736.82
20
1020.00
0
VERTEX
8
1
10
736.82
20
1016.00
0
VERTEX
8
1
10
728.49
20
1016.00
0
VERTEX
8
1
10
728.49
20
1020.00
0
VERTEX
8
1
10
720.16
20
1020.00
0
VERTEX
8
1
10
720.16
20
1016.00
0
VERTEX
8
1
10
711.84
20
1016.00
0
VERTEX
8
1
10
711.84
20
1020.00
0
VERTEX
8
1
10
703.51
20
1020.00
0
VERTEX
8
1
10
703.51
20
1016.00
0
VERTEX
8
1
10
695.18
20
1016.00
0
VERTEX
8
1
10
695.18
20
1020.00
0
VERTEX
8
1
10
686.86
20
1020.00
0
VERTEX
8
1
10
686.86
20
1016.00
0
VERTEX
8
1
10
678.53
20
1016.00
0
VERTEX
8
1
10
678.53
20
1020.00
0
VERTEX
8
1
10
670.20
20
1020.00
0
VERTEX
8
1
10
670.20
20
1016.00
0
VERTEX
8
1
10
661.88
20
1016.00
0
VERTEX
8
1
10
661.88
20
1020.00
0
VERTEX
8
1
10
653.55
20
1020.00
0
VERTEX
8
1
10
653.55
20
1016.00
0
VERTEX
8
1
10
645.22
20
1016.00
0
VERTEX
8
1
10
645.22
20
1020.00
0
VERTEX
8
1
10
636.90
20
1020.00
0
VERTEX
8
1
10
636.90
20
1016.00
0
VERTEX
8
1
10
628.57
20
1016.00
0
VERTEX
8
1
10
628.57
20
1020.00
0
VERTEX
8
1
10
620.25
20
1020.00
0
VERTEX
8
1
10
620.25
20
1016.00
0
VERTEX
8
1
10
611.92
20
1016.00
0
VERTEX
8
1
10
611.92
20
1020.00
0
VERTEX
8
1
10
603.59
20
1020.00
0
VERTEX
8
1
10
603.59
20
1016.00
0
VERTEX
8
1
10
595.26
20
1016.00
0
VERTEX
8
1
10
595.26
20
1020.00
0
VERTEX
8
1
10
586.94
20
1020.00
0
VERTEX
8
1
10
586.94
20
1016.00
0
VERTEX
8
1
10
578.61
20
1016.00
0
VERTEX
8
1
10
578.61
20
1020.00
0
VERTEX
8
1
10
570.29
20
1020.00
0
VERTEX
8
1
10
570.29
20
1016.00
0
VERTEX
8
1
10
561.96
20
1016.00
0
VERTEX
8
1
10
561.96
20
1020.00
0
VERTEX
8
1
10
553.63
20
1020.00
0
VERTEX
8
1
10
553.63
20
1016.00
0
VERTEX
8
1
10
545.31
20
1016.00
0
VERTEX
8
1
10
545.31
20
1020.00
0
VERTEX
8
1
10
536.98
20
1020.00
0
VERTEX
8
1
10
536.98
20
1016.00
0
VERTEX
8
1
10
528.65
20
1016.00
0
VERTEX
8
1
10
528.65
20
1020.00
0
VERTEX
8
1
10
520.33
20
1020.00
0
VERTEX
8
1
10
520.33
20
1016.00
0
VERTEX
8
1
10
516.00
20
1016.00
0
VERTEX
8
1
10
516.00
20
1007.80
0
VERTEX
8
1
10
512.00
20
1007.80
0
VERTEX
8
1
10
512.00
20
999.61
0
VERTEX
8
1
10
516.00
20
999.61
0
VERTEX
8
1
10
516.00
20
991.41
0
VERTEX
8
1
10
512.00
20
991.41
0
VERTEX
8
1
10
512.00
20
983.21
0
VERTEX
8
1
10
516.00
20
983.21
0
VERTEX
8
1
10
516.00
20
975.02
0
VERTEX
8
1
10
512.00
20
975.02
0
VERTEX
8
1
10
512.00
20
966.82
0
VERTEX
8
1
10
516.00
20
966.82
0
VERTEX
8
1
10
516.00
20
958.62
0
VERTEX
8
1
10
512.00
20
958.62
0
VERTEX
8
1
10
512.00
20
950.43
0
VERTEX
8
1
10
516.00
20
950.43
0
VERTEX
8
1
10
516.00
20
942.23
0
VERTEX
8
1
10
512.00
20
942.23
0
VERTEX
8
1
10
512.00
20
934.03
0
VERTEX
8
1
10
516.00
20
934.03
0
VERTEX
8
1
10
516.00
20
925.84
0
VERTEX
8
1
10
512.00
20
925.84
0
VERTEX
8
1
10
512.00
20
917.64
0
VERTEX
8
1
10
516.00
20
917.64
0
VERTEX
8
1
10
516.00
20
909.44
0
VERTEX
8
1
10
512.00
20
909.44
0
VERTEX
8
1
10
512.00
20
901.25
0
VERTEX
8
1
10
516.00
20
901.25
0
VERTEX
8
1
10
516.00
20
893.05
0
VERTEX
8
1
10
512.00
20
893.05
0
VERTEX
8
1
10
512.00
20
884.85
0
VERTEX
8
1
10
516.00
20
884.85
0
VERTEX
8
1
10
516.00
20
876.66
0
VERTEX
8
1
10
512.00
20
876.66
0
VERTEX
8
1
10
512.00
20
868.46
0
VERTEX
8
1
10
516.00
20
868.46
0
VERTEX
8
1
10
516.00
20
860.26
0
VERTEX
8
1
10
512.00
20
860.26
0
VERTEX
8
1
10
512.00
20
852.07
0
VERTEX
8
1
10
516.00
20
852.07
0
VERTEX
8
1
10
516.00
20
843.87
0
VERTEX
8
1
10
512.00
20
843.87
0
VERTEX
8
1
10
512.00
20
835.67
0
VERTEX
8
1
10
516.00
20
835.67
0
VERTEX
8
1
10
516.00
20
827.48
0
VERTEX
8
1
10
512.00
20
827.48
0
VERTEX
8
1
10
512.00
20
819.28
0
VERTEX
8
1
10
516.00
20
819.28
0
VERTEX
8
1
10
516.00
20
811.08
0
VERTEX
8
1
10
512.00
20
811.08
0
VERTEX
8
1
10
512.00
20
802.88
0
VERTEX
8
1
10
516.00
20
802.88
0
VERTEX
8
1
10
516.00
20
794.69
0
VERTEX
8
1
10
512.00
20
794.69
0
VERTEX
8
1
10
512.00
20
786.49
0
VERTEX
8
1
10
516.00
20
786.49
0
VERTEX
8
1
10
516.00
20
778.29
0
VERTEX
8
1
10
512.00
20
778.29
0
VERTEX
8
1
10
512.00
20
770.10
0
VERTEX
8
1
10
516.00
20
770.10
0
VERTEX
8
1
10
516.00
20
761.90
0
VERTEX
8
1
10
512.00
20
761.90
0
VERTEX
8
1
10
512.00
20
753.71
0
VERTEX
8
1
10
516.00
20
753.71
0
VERTEX
8
1
10
516.00
20
745.51
0
VERTEX
8
1
10
512.00
20
745.51
0
VERTEX
8
1
10
512.00
20
737.31
0
VERTEX
8
1
10
516.00
20
737.31
0
VERTEX
8
1
10
516.00
20
729.12
0
VERTEX
8
1
10
512.00
20
729.12
0
VERTEX
8
1
10
512.00
20
720.92
0
VERTEX
8
1
10
516.00
20
720.92
0
VERTEX
8
1
10
516.00
20
712.72
0
VERTEX
8
1
10
512.00
20
712.72
0
VERTEX
8
1
10
512.00
20
704.52
0
VERTEX
8
1
10
516.00
20
704.52
0
VERTEX
8
1
10
516.00
20
696.33
0
VERTEX
8
1
10
512.00
20
696.33
0
VERTEX
8
1
10
512.00
20
688.13
0
VERTEX
8
1
10
516.00
20
688.13
0
VERTEX
8
1
10
516.00
20
679.93
0
VERTEX
8
1
10
512.00
20
679.93
0
VERTEX
8
1
10
512.00
20
671.74
0
VERTEX
8
1
10
516.00
20
671.74
0
VERTEX
8
1
10
516.00
20
663.54
0
VERTEX
8
1
10
512.00
20
663.54
0
VERTEX
8
1
10
512.00
20
655.34
0
VERTEX
8
1
10
516.00
20
655.34
0
VERTEX
8
1
10
516.00
20
647.15
0
VERTEX
8
1
10
512.00
20
647.15
0
VERTEX
8
1
10
512.00
20
638.95
0
VERTEX
8
1
10
516.00
20
638.95
0
VERTEX
8
1
10
516.00
20
630.75
0
VERTEX
8
1
10
512.00
20
630.75
0
VERTEX
8
1
10
512.00
20
622.56
0
VERTEX
8
1
10
516.00
20
622.56
0
VERTEX
8
1
10
516.00
20
614.36
0
VERTEX
8
1
10
512.00
20
614.36
0
VERTEX
8
1
10
512.00
20
606.16
0
VERTEX
8
1
10
516.00
20
606.16
0
VERTEX
8
1
10
516.00
20
597.97
0
VERTEX
8
1
10
512.00
20
597.97
0
VERTEX
8
1
10
512.00
20
589.77
0
VERTEX
8
1
10
516.00
20
589.77
0
VERTEX
8
1
10
516.00
20
581.57
0
VERTEX
8
1
10
512.00
20
581.57
0
VERTEX
8
1
10
512.00
20
573.38
0
VERTEX
8
1
10
516.00
20
573.38
0
VERTEX
8
1
10
516.00
20
565.18
0
VERTEX
8
1
10
512.00
20
565.18
0
VERTEX
8
1
10
512.00
20
556.98
0
VERTEX
8
1
10
516.00
20
556.98
0
VERTEX
8
1
10
516.00
20
548.79
0
VERTEX
8
1
10
512.00
20
548.79
0
VERTEX
8
1
10
512.00
20
540.59
0
VERTEX
8
1
10
516.00
20
540.59
0
VERTEX
8
1
10
516.00
20
532.39
0
VERTEX
8
1
10
512.00
20
532.39
0
VERTEX
8
1
10
512.00
20
524.20
0
VERTEX
8
1
10
516.00
20
524.20
0
VERTEX
8
1
10
516.00
20
516.00
0
SEQEND
0
POLYLINE
8
1
66
1
70
0
0
VERTEX
8
1
10
516.00
20
0.00
0
VERTEX
8
1
10
524.16
20
0.00
0
VERTEX
8
1
10
524.16
20
4.00
0
VERTEX
8
1
10
532.33
20
4.00
0
VERTEX
8
1
10
532.33
20
0.00
0
VERTEX
8
1
10
540.49
20
0.00
0
VERTEX
8
1
10
540.49
20
4.00
0
VERTEX
8
1
10
548.65
20
4.00
0
VERTEX
8
1
10
548.65
20
0.00
0
VERTEX
8
1
10
556.82
20
0.00
0
VERTEX
8
1
10
556.82
20
4.00
0
VERTEX
8
1
10
564.98
20
4.00
0
VERTEX
8
1
10
564.98
20
0.00
0
VERTEX
8
1
10
573.14
20
0.00
0
VERTEX
8
1
10
573.14
20
4.00
0
VERTEX
8
1
10
581.31
20
4.00
0
VERTEX
8
1
10
581.31
20
0.00
0
VERTEX
8
1
10
589.47
20
0.00
0
VERTEX
8
1
10
589.47
20
4.00
0
VERTEX
8
1
10
597.63
20
4.00
0
VERTEX
8
1
10
597.63
20
0.00
0
VERTEX
8
1
10
605.80
20
0.00
0
VERTEX
8
1
10
605.80
20
4.00
0
VERTEX
8
1
10
613.96
20
4.00
0
VERTEX
8
1
10
613.96
20
0.00
0
VERTEX
8
1
10
622.12
20
0.00
0
VERTEX
8
1
10
622.12
20
4.00
0
VERTEX
8
1
10
630.29
20
4.00
0
VERTEX
8
1
10
630.29
20
0.00
0
VERTEX
8
1
10
638.45
20
0.00
0
VERTEX
8
1
10
638.45
20
4.00
0
VERTEX
8
1
10
646.61
20
4.00
0
VERTEX
8
1
10
646.61
20
0.00
0
VERTEX
8
1
10
654.78
20
0.00
0
VERTEX
8
1
10
654.78
20
4.00
0
VERTEX
8
1
10
662.94
20
4.00
0
VERTEX
8
1
10
662.94
20
0.00
0
VERTEX
8
1
10
671.10
20
0.00
0
VERTEX
8
1
10
671.10
20
4.00
0
VERTEX
8
1
10
679.26
20
4.00
0
VERTEX
8
1
10
679.26
20
0.00
0
VERTEX
8
1
10
687.43
20
0.00
0
VERTEX
8
1
10
687.43
20
4.00
0
VERTEX
8
1
10
695.59
20
4.00
0
VERTEX
8
1
10
695.59
20
0.00
0
VERTEX
8
1
10
703.75
20
0.00
0
VERTEX
8
1
10
703.75
20
4.00
0
VERTEX
8
1
10
711.92
20
4.00
0
VERTEX
8
1
10
711.92
20
0.00
0
VERTEX
8
1
10
720.08
20
0.00
0
VERTEX
8
1
10
720.08
20
4.00
0
VERTEX
8
1
10
728.25
20
4.00
0
VERTEX
8
1
10
728.25
20
0.00
0
VERTEX
8
1
10
736.41
20
0.00
0
VERTEX
8
1
10
736.41
20
4.00
0
VERTEX
8
1
10
744.57
20
4.00
0
VERTEX
8
1
10
744.57
20
0.00
0
VERTEX
8
1
10
752.74
20
0.00
0
VERTEX
8
1
10
752.74
20
4.00
0
VERTEX
8
1
10
760.90
20
4.00
0
VERTEX
8
1
10
760.90
20
0.00
0
VERTEX
8
1
10
769.06
20
0.00
0
VERTEX
8
1
10
769.06
20
4.00
0
VERTEX
8
1
10
777.22
20
4.00
0
VERTEX
8
1
10
777.22
20
0.00
0
VERTEX
8
1
10
785.39
20
0.00
0
VERTEX
8
1
10
785.39
20
4.00
0
VERTEX
8
1
10
793.55
20
4.00
0
VERTEX
8
1
10
793.55
20
0.00
0
VERTEX
8
1
10
801.71
20
0.00
0
VERTEX
8
1
10
801.71
20
4.00
0
VERTEX
8
1
10
809.88
20
4.00
0
VERTEX
8
1
10
809.88
20
0.00
0
VERTEX
8
1
10
818.04
20
0.00
0
VERTEX
8
1
10
818.04
20
4.00
0
VERTEX
8
1
10
826.20
20
4.00
0
VERTEX
8
1
10
826.20
20
0.00
0
VERTEX
8
1
10
834.37
20
0.00
0
VERTEX
8
1
10
834.37
20
4.00
0
VERTEX
8
1
10
842.53
20
4.00
0
VERTEX
8
1
10
842.53
20
0.00
0
VERTEX
8
1
10
850.69
20
0.00
0
VERTEX
8
1
10
850.69
20
4.00
0
VERTEX
8
1
10
858.86
20
4.00
0
VERTEX
8
1
10
858.86
20
0.00
0
VERTEX
8
1
10
867.02
20
0.00
0
VERTEX
8
1
10
867.02
20
4.00
0
VERTEX
8
1
10
875.18
20
4.00
0
VERTEX
8
1
10
875.18
20
0.00
0
VERTEX
8
1
10
883.35
20
0.00
0
VERTEX
8
1
10
883.35
20
4.00
0
VERTEX
8
1
10
891.51
20
4.00
0
VERTEX
8
1
10
891.51
20
0.00
0
VERTEX
8
1
10
899.67
20
0.00
0
VERTEX
8
1
10
899.67
20
4.00
0
VERTEX
8
1
10
907.84
20
4.00
0
VERTEX
8
1
10
907.84
20
0.00
0
VERTEX
8
1
10
916.00
20
0.00
0
VERTEX
8
1
10
920.00
20
0.00
0
VERTEX
8
1
10
920.00
20
8.33
0
VERTEX
8
1
10
916.00
20
8.33
0
VERTEX
8
1
10
916.00
20
16.66
0
VERTEX
8
1
10
920.00
20
16.66
0
VERTEX
8
1
10
920.00
20
24.98
0
VERTEX
8
1
10
916.00
20
24.98
0
VERTEX
8
1
10
916.00
20
33.31
0
VERTEX
8
1
10
920.00
20
33.31
0
VERTEX
8
1
10
920.00
20
41.64
0
VERTEX
8
1
10
916.00
20
41.64
0
VERTEX
8
1
10
916.00
20
49.97
0
VERTEX
8
1
10
920.00
20
49.97
0
VERTEX
8
1
10
920.00
20
58.30
0
VERTEX
8
1
10
916.00
20
58.30
0
VERTEX
8
1
10
916.00
20
66.62
0
VERTEX
8
1
10
920.00
20
66.62
0
VERTEX
8
1
10
920.00
20
74.95
0
VERTEX
8
1
10
916.00
20
74.95
0
VERTEX
8
1
10
916.00
20
83.28
0
VERTEX
8
1
10
920.00
20
83.28
0
VERTEX
8
1
10
920.00
20
91.61
0
VERTEX
8
1
10
916.00
20
91.61
0
VERTEX
8
1
10
916.00
20
99.93
0
VERTEX
8
1
10
920.00
20
99.93
0
VERTEX
8
1
10
920.00
20
108.26
0
VERTEX
8
1
10
916.00
20
108.26
0
VERTEX
8
1
10
916.00
20
116.59
0
VERTEX
8
1
10
920.00
20
116.59
0
VERTEX
8
1
10
920.00
20
124.92
0
VERTEX
8
1
10
916.00
20
124.92
0
VERTEX
8
1
10
916.00
20
133.25
0
VERTEX
8
1
10
920.00
20
133.25
0
VERTEX
8
1
10
920.00
20
141.57
0
VERTEX
8
1
10
916.00
20
141.57
0
VERTEX
8
1
10
916.00
20
149.90
0
VERTEX
8
1
10
920.00
20
149.90
0
VERTEX
8
1
10
920.00
20
158.23
0
VERTEX
8
1
10
916.00
20
158.23
0
VERTEX
8
1
10
916.00
20
166.56
0
VERTEX
8
1
10
920.00
20
166.56
0
VERTEX
8
1
10
920.00
20
174.88
0
VERTEX
8
1
10
916.00
20
174.88
0
VERTEX
8
1
10
916.00
20
183.21
0
VERTEX
8
1
10
920.00
20
183.21
0
VERTEX
8
1
10
920.00
20
191.54
0
VERTEX
8
1
10
916.00
20
191.54
0
VERTEX
8
1
10
916.00
20
199.87
0
VERTEX
8
1
10
920.00
20
199.87
0
VERTEX
8
1
10
920.00
20
208.20
0
VERTEX
8
1
10
916.00
20
208.20
0
VERTEX
8
1
10
916.00
20
216.53
0
VERTEX
8
1
10
920.00
20
216.53
0
VERTEX
8
1
10
920.00
20
224.85
0
VERTEX
8
1
10
916.00
20
224.85
0
VERTEX
8
1
10
916.00
20
233.18
0
VERTEX
8
1
10
920.00
20
233.18
0
VERTEX
8
1
10
920.00
20
241.51
0
VERTEX
8
1
10
916.00
20
241.51
0
VERTEX
8
1
10
916.00
20
249.84
0
VERTEX
8
1
10
920.00
20
249.84
0
VERTEX
8
1
10
920.00
20
258.16
0
VERTEX
8
1
10
916.00
20
258.16
0
VERTEX
8
1
10
916.00
20
266.49
0
VERTEX
8
1
10
920.00
20
266.49
0
VERTEX
8
1
10
920.00
20
274.82
0
VERTEX
8
1
10
916.00
20
274.82
0
VERTEX
8
1
10
916.00
20
283.15
0
VERTEX
8
1
10
920.00
20
283.15
0
VERTEX
8
1
10
920.00
20
291.48
0
VERTEX
8
1
10
916.00
20
291.48
0
VERTEX
8
1
10
916.00
20
299.80
0
VERTEX
8
1
10
920.00
20
299.80
0
VERTEX
8
1
10
920.00
20
308.13
0
VERTEX
8
1
10
916.00
20
308.13
0
VERTEX
8
1
10
916.00
20
316.46
0
VERTEX
8
1
10
920.00
20
316.46
0
VERTEX
8
1
10
920.00
20
324.79
0
VERTEX
8
1
10
916.00
20
324.79
0
VERTEX
8
1
10
916.00
20
333.12
0
VERTEX
8
1
10
920.00
20
333.12
0
VERTEX
8
1
10
920.00
20
341.44
0
VERTEX
8
1
10
916.00
20
341.44
0
VERTEX
8
1
10
916.00
20
349.77
0
VERTEX
8
1
10
920.00
20
349.77
0
VERTEX
8
1
10
920.00
20
358.10
0
VERTEX
8
1
10
916.00
20
358.10
0
VERTEX
8
1
10
916.00
20
366.43
0
VERTEX
8
1
10
920.00
20
366.43
0
VERTEX
8
1
10
920.00
20
374.75
0
VERTEX
8
1
10
916.00
20
374.75
0
VERTEX
8
1
10
916.00
20
383.08
0
VERTEX
8
1
10
920.00
20
383.08
0
VERTEX
8
1
10
920.00
20
391.41
0
VERTEX
8
1
10
916.00
20
391.41
0
VERTEX
8
1
10
916.00
20
399.74
0
VERTEX
8
1
10
920.00
20
399.74
0
VERTEX
8
1
10
920.00
20
408.07
0
VERTEX
8
1
10
916.00
20
408.07
0
VERTEX
8
1
10
916.00
20
416.39
0
VERTEX
8
1
10
920.00
20
416.39
0
VERTEX
8
1
10
920.00
20
424.72
0
VERTEX
8
1
10
916.00
20
424.72
0
VERTEX
8
1
10
916.00
20
433.05
0
VERTEX
8
1
10
920.00
20
433.05
0
VERTEX
8
1
10
920.00
20
441.38
0
VERTEX
8
1
10
916.00
20
441.38
0
VERTEX
8
1
10
916.00
20
449.70
0
VERTEX
8
1
10
920.00
20
449.70
0
VERTEX
8
1
10
920.00
20
458.03
0
VERTEX
8
1
10
916.00
20
458.03
0
VERTEX
8
1
10
916.00
20
466.36
0
VERTEX
8
1
10
920.00
20
466.36
0
VERTEX
8
1
10
920.00
20
474.69
0
VERTEX
8
1
10
916.00
20
474.69
0
VERTEX
8
1
10
916.00
20
483.02
0
VERTEX
8
1
10
920.00
20
483.02
0
VERTEX
8
1
10
920.00
20
491.34
0
VERTEX
8
1
10
916.00
20
491.34
0
VERTEX
8
1
10
916.00
20
499.67
0
VERTEX
8
1
10
920.00
20
499.67
0
VERTEX
8
1
10
920.00
20
508.00
0
VERTEX
8
1
10
911.67
20
508.00
0
VERTEX
8
1
10
911.67
20
504.00
0
VERTEX
8
1
10
903.35
20
504.00
0
VERTEX
8
1
10
903.35
20
508.00
0
VERTEX
8
1
10
895.02
20
508.00
0
VERTEX
8
1
10
895.02
20
504.00
0
VERTEX
8
1
10
886.69
20
504.00
0
VERTEX
8
1
10
886.69
20
508.00
0
VERTEX
8
1
10
878.37
20
508.00
0
VERTEX
8
1
10
878.37
20
504.00
0
VERTEX
8
1
10
870.04
20
504.00
0
VERTEX
8
1
10
870.04
20
508.00
0
VERTEX
8
1
10
861.71
20
508.00
0
VERTEX
8
1
10
861.71
20
504.00
0
VERTEX
8
1
10
853.39
20
504.00
0
VERTEX
8
1
10
853.39
20
508.00
0
VERTEX
8
1
10
845.06
20
508.00
0
VERTEX
8
1
10
845.06
20
504.00
0
VERTEX
8
1
10
836.74
20
504.00
0
VERTEX
8
1
10
836.74
20
508.00
0
VERTEX
8
1
10
828.41
20
508.00
0
VERTEX
8
1
10
828.41
20
504.00
0
VERTEX
8
1
10
820.08
20
504.00
0
VERTEX
8
1
10
820.08
20
508.00
0
VERTEX
8
1
10
811.75
20
508.00
0
VERTEX
8
1
10
811.75
20
504.00
0
VERTEX
8
1
10
803.43
20
504.00
0
VERTEX
8
1
10
803.43
20
508.00
0
VERTEX
8
1
10
795.10
20
508.00
0
VERTEX
8
1
10
795.10
20
504.00
0
VERTEX
8
1
10
786.78
20
504.00
0
VERTEX
8
1
10
786.78
20
508.00
0
VERTEX
8
1
10
778.45
20
508.00
0
VERTEX
8
1
10
778.45
20
504.00
0
VERTEX
8
1
10
770.12
20
504.00
0
VERTEX
8
1
10
770.12
20
508.00
0
VERTEX
8
1
10
761.80
20
508.00
0
VERTEX
8
1
10
761.80
20
504.00
0
VERTEX
8
1
10
753.47
20
504.00
0
VERTEX
8
1
10
753.47
20
508.00
0
VERTEX
8
1
10
745.14
20
508.00
0
VERTEX
8
1
10
745.14
20
504.00
0
VERTEX
8
1
10
736.82
20
504.00
0
VERTEX
8
1
10
736.82
20
508.00
0
VERTEX
8
1
10
728.49
20
508.00
0
VERTEX
8
1
10
728.49
20
504.00
0
VERTEX
8
1
10
720.16
20
504.00
0
VERTEX
8
1
10
720.16
20
508.00
0
VERTEX
8
1
10
711.84
20
508.00
0
VERTEX
8
1
10
711.84
20
504.00
0
VERTEX
8
1
10
703.51
20
504.00
0
VERTEX
8
1
10
703.51
20
508.00
0
VERTEX
8
1
10
695.18
20
508.00
0
VERTEX
8
1
10
695.18
20
504.00
0
VERTEX
8
1
10
686.86
20
504.00
0
VERTEX
8
1
10
686.86
20
508.00
0
VERTEX
8
1
10
678.53
20
508.00
0
VERTEX
8
1
10
678.53
20
504.00
0
VERTEX
8
1
10
670.20
20
504.00
0
VERTEX
8
1
10
670.20
20
508.00
0
VERTEX
8
1
10
661.88
20
508.00
0
VERTEX
8
1
10
661.88
20
504.00
0
VERTEX
8
1
10
653.55
20
504.00
0
VERTEX
8
1
10
653.55
20
508.00
0
VERTEX
8
1
10
645.22
20
508.00
0
VERTEX
8
1
10
645.22
20
504.00
0
VERTEX
8
1
10
636.90
20
504.00
0
VERTEX
8
1
10
636.90
20
508.00
0
VERTEX
8
1
10
628.57
20
508.00
0
VERTEX
8
1
10
628.57
20
504.00
0
VERTEX
8
1
10
620.25
20
504.00
0
VERTEX
8
1
10
620.25
20
508.00
0
VERTEX
8
1
10
611.92
20
508.00
0
VERTEX
8
1
10
611.92
20
504.00
0
VERTEX
8
1
10
603.59
20
504.00
0
VERTEX
8
1
10
603.59
20
508.00
0
VERTEX
8
1
10
595.26
20
508.00
0
VERTEX
8
1
10
595.26
20
504.00
0
VERTEX
8
1
10
586.94
20
504.00
0
VERTEX
8
1
10
586.94
20
508.00
0
VERTEX
8
1
10
578.61
20
508.00
0
VERTEX
8
1
10
578.61
20
504.00
0
VERTEX
8
1
10
570.29
20
504.00
0
VERTEX
8
1
10
570.29
20
508.00
0
VERTEX
8
1
10
561.96
20
508.00
0
VERTEX
8
1
10
561.96
20
504.00
0
VERTEX
8
1
10
553.63
20
504.00
0
VERTEX
8
1
10
553.63
20
508.00
0
VERTEX
8
1
10
545.31
20
508.00
0
VERTEX
8
1
10
545.31
20
504.00
0
VERTEX
8
1
10
536.98
20
504.00
0
VERTEX
8
1
10
536.98
20
508.00
0
VERTEX
8
1
10
528.65
20
508.00
0
VERTEX
8
1
10
528.65
20
504.00
0
VERTEX
8
1
10
520.33
20
504.00
0
VERTEX
8
1
10
520.33
20
508.00
0
VERTEX
8
1
10
512.00
20
508.00
0
VERTEX
8
1
10
512.00
20
499.67
0
VERTEX
8
1
10
516.00
20
499.67
0
VERTEX
8
1
10
516.00
20
491.34
0
VERTEX
8
1
10
512.00
20
491.34
0
VERTEX
8
1
10
512.00
20
483.02
0
VERTEX
8
1
10
516.00
20
483.02
0
VERTEX
8
1
10
516.00
20
474.69
0
VERTEX
8
1
10
512.00
20
474.69
0
VERTEX
8
1
10
512.00
20
466.36
0
VERTEX
8
1
10
516.00
20
466.36
0
VERTEX
8
1
10
516.00
20
458.03
0
VERTEX
8
1
10
512.00
20
458.03
0
VERTEX
8
1
10
512.00
20
449.70
0
VERTEX
8
1
10
516.00
20
449.70
0
VERTEX
8
1
10
516.00
20
441.38
0
VERTEX
8
1
10
512.00
20
441.38
0
VERTEX
8
1
10
512.00
20
433.05
0
VERTEX
8
1
10
516.00
20
433.05
0
VERTEX
8
1
10
516.00
20
424.72
0
VERTEX
8
1
10
512.00
20
424.72
0
VERTEX
8
1
10
512.00
20
416.39
0
VERTEX
8
1
10
516.00
20
416.39
0
VERTEX
8
1
10
516.00
20
408.07
0
VERTEX
8
1
10
512.00
20
408.07
0
VERTEX
8
1
10
512.00
20
399.74
0
VERTEX
8
1
10
516.00
20
399.74
0
VERTEX
8
1
10
516.00
20
391.41
0
VERTEX
8
1
10
512.00
20
391.41
0
VERTEX
8
1
10
512.00
20
383.08
0
VERTEX
8
1
10
516.00
20
383.08
0
VERTEX
8
1
10
516.00
20
374.75
0
VERTEX
8
1
10
512.00
20
374.75
0
VERTEX
8
1
10
512.00
20
366.43
0
VERTEX
8
1
10
516.00
20
366.43
0
VERTEX
8
1
10
516.00
20
358.10
0
VERTEX
8
1
10
512.00
20
358.10
0
VERTEX
8
1
10
512.00
20
349.77
0
VERTEX
8
1
10
516.00
20
349.77
0
VERTEX
8
1
10
516.00
20
341.44
0
VERTEX
8
1
10
512.00
20
341.44
0
VERTEX
8
1
10
512.00
20
333.12
0
VERTEX
8
1
10
516.00
20
333.12
0
VERTEX
8
1
10
516.00
20
324.79
0
VERTEX
8
1
10
512.00
20
324.79
0
VERTEX
8
1
10
512.00
20
316.46
0
VERTEX
8
1
10
516.00
20
316.46
0
VERTEX
8
1
10
516.00
20
308.13
0
VERTEX
8
1
10
512.00
20
308.13
0
VERTEX
8
1
10
512.00
20
299.80
0
VERTEX
8
1
10
516.00
20
299.80
0
VERTEX
8
1
10
516.00
20
291.48
0
VERTEX
8
1
10
512.00
20
291.48
0
VERTEX
8
1
10
512.00
20
283.15
0
VERTEX
8
1
10
516.00
20
283.15
0
VERTEX
8
1
10
516.00
20
274.82
0
VERTEX
8
1
10
512.00
20
274.82
0
VERTEX
8
1
10
512.00
20
266.49
0
VERTEX
8
1
10
516.00
20
266.49
0
VERTEX
8
1
10
516.00
20
258.16
0
VERTEX
8
1
10
512.00
20
258.16
0
VERTEX
8
1
10
512.00
20
249.84
0
VERTEX
8
1
10
516.00
20
249.84
0
VERTEX
8
1
10
516.00
20
241.51
0
VERTEX
8
1
10
512.00
20
241.51
0
VERTEX
8
1
10
512.00
20
233.18
0
VERTEX
8
1
10
516.00
20
233.18
0
VERTEX
8
1
10
516.00
20
224.85
0
VERTEX
8
1
10
512.00
20
224.85
0
VERTEX
8
1
10
512.00
20
216.53
0
VERTEX
8
1
10
516.00
20
216.53
0
VERTEX
8
1
10
516.00
20
208.20
0
VERTEX
8
1
10
512.00
20
208.20
0
VERTEX
8
1
10
512.00
20
199.87
0
VERTEX
8
1
10
516.00
20
199.87
0
VERTEX
8
1
10
516.00
20
191.54
0
VERTEX
8
1
10
512.00
20
191.54
0
VERTEX
8
1
10
512.00
20
183.21
0
VERTEX
8
1
10
516.00
20
183.21
0
VERTEX
8
1
10
516.00
20
174.88
0
VERTEX
8
1
10
512.00
20
174.88
0
VERTEX
8
1
10
512.00
20
166.56
0
VERTEX
8
1
10
516.00
20
166.56
0
VERTEX
8
1
10
516.00
20
158.23
0
VERTEX
8
1
10
512.00
20
158.23
0
VERTEX
8
1
10
512.00
20
149.90
0
VERTEX
8
1
10
516.00
20
149.90
0
VERTEX
8
1
10
516.00
20
141.57
0
VERTEX
8
1
10
512.00
20
141.57
0
VERTEX
8
1
10
512.00
20
133.25
0
VERTEX
8
1
10
516.00
20
133.25
0
VERTEX
8
1
10
516.00
20
124.92
0
VERTEX
8
1
10
512.00
20
124.92
0
VERTEX
8
1
10
512.00
20
116.59
0
VERTEX
8
1
10
516.00
20
116.59
0
VERTEX
8
1
10
516.00
20
108.26
0
VERTEX
8
1
10
512.00
20
108.26
0
VERTEX
8
1
10
512.00
20
99.93
0
VERTEX
8
1
10
516.00
20
99.93
0
VERTEX
8
1
10
516.00
20
91.61
0
VERTEX
8
1
10
512.00
20
91.61
0
VERTEX
8
1
10
512.00
20
83.28
0
VERTEX
8
1
10
516.00
20
83.28
0
VERTEX
8
1
10
516.00
20
74.95
0
VERTEX
8
1
10
512.00
20
74.95
0
VERTEX
8
1
10
512.00
20
66.62
0
VERTEX
8
1
10
516.00
20
66.62
0
VERTEX
8
1
10
516.00
20
58.30
0
VERTEX
8
1
10
512.00
20
58.30
0
VERTEX
8
1
10
512.00
20
49.97
0
VERTEX
8
1
10
516.00
20
49.97
0
VERTEX
8
1
10
516.00
20
41.64
0
VERTEX
8
1
10
512.00
20
41.64
0
VERTEX
8
1
10
512.00
20
33.31
0
VERTEX
8
1
10
516.00
20
33.31
0
VERTEX
8
1
10
516.00
20
24.98
0
VERTEX
8
1
10
512.00
20
24.98
0
VERTEX
8
1
10
512.00
20
16.66
0
VERTEX
8
1
10
516.00
20
16.66
0
VERTEX
8
1
10
516.00
20
8.33
0
VERTEX
8
1
10
512.00
20
8.33
0
VERTEX
8
1
10
512.00
20
0.00
0
VERTEX
8
1
10
516.00
20
0.00
0
SEQEND
0
POLYLINE
8
1
66
1
70
0
0
VERTEX
8
1
10
516.00
20
1532.00
0
VERTEX
8
1
10
524.16
20
1532.00
0
VERTEX
8
1
10
524.16
20
1528.00
0
VERTEX
8
1
10
532.33
20
1528.00
0
VERTEX
8
1
10
532.33
20
1532.00
0
VERTEX
8
1
10
540.49
20
1532.00
0
VERTEX
8
1
10
540.49
20
1528.00
0
VERTEX
8
1
10
548.65
20
1528.00
0
VERTEX
8
1
10
548.65
20
1532.00
0
VERTEX
8
1
10
556.82
20
1532.00
0
VERTEX
8
1
10
556.82
20
1528.00
0
VERTEX
8
1
10
564.98
20
1528.00
0
VERTEX
8
1
10
564.98
20
1532.00
0
VERTEX
8
1
10
573.14
20
1532.00
0
VERTEX
8
1
10
573.14
20
1528.00
0
VERTEX
8
1
10
581.31
20
1528.00
0
VERTEX
8
1
10
581.31
20
1532.00
0
VERTEX
8
1
10
589.47
20
1532.00
0
VERTEX
8
1
10
589.47
20
1528.00
0
VERTEX
8
1
10
597.63
20
1528.00
0
VERTEX
8
1
10
597.63
20
1532.00
0
VERTEX
8
1
10
605.80
20
1532.00
0
VERTEX
8
1
10
605.80
20
1528.00
0
VERTEX
8
1
10
613.96
20
1528.00
0
VERTEX
8
1
10
613.96
20
1532.00
0
VERTEX
8
1
10
622.12
20
1532.00
0
VERTEX
8
1
10
622.12
20
1528.00
0
VERTEX
8
1
10
630.29
20
1528.00
0
VERTEX
8
1
10
630.29
20
1532.00
0
VERTEX
8
1
10
638.45
20
1532.00
0
VERTEX
8
1
10
638.45
20
1528.00
0
VERTEX
8
1
10
646.61
20
1528.00
0
VERTEX
8
1
10
646.61
20
1532.00
0
VERTEX
8
1
10
654.78
20
1532.00
0
VERTEX
8
1
10
654.78
20
1528.00
0
VERTEX
8
1
10
662.94
20
1528.00
0
VERTEX
8
1
10
662.94
20
1532.00
0
VERTEX
8
1
10
671.10
20
1532.00
0
VERTEX
8
1
10
671.10
20
1528.00
0
VERTEX
8
1
10
679.26
20
1528.00
0
VERTEX
8
1
10
679.26
20
1532.00
0
VERTEX
8
1
10
687.43
20
1532.00
0
VERTEX
8
1
10
687.43
20
1528.00
0
VERTEX
8
1
10
695.59
20
1528.00
0
VERTEX
8
1
10
695.59
20
1532.00
0
VERTEX
8
1
10
703.75
20
1532.00
0
VERTEX
8
1
10
703.75
20
1528.00
0
VERTEX
8
1
10
711.92
20
1528.00
0
VERTEX
8
1
10
711.92
20
1532.00
0
VERTEX
8
1
10
720.08
20
1532.00
0
VERTEX
8
1
10
720.08
20
1528.00
0
VERTEX
8
1
10
728.25
20
1528.00
0
VERTEX
8
1
10
728.25
20
1532.00
0
VERTEX
8
1
10
736.41
20
1532.00
0
VERTEX
8
1
10
736.41
20
1528.00
0
VERTEX
8
1
10
744.57
20
1528.00
0
VERTEX
8
1
10
744.57
20
1532.00
0
VERTEX
8
1
10
752.74
20
1532.00
0
VERTEX
8
1
10
752.74
20
1528.00
0
VERTEX
8
1
10
760.90
20
1528.00
0
VERTEX
8
1
10
760.90
20
1532.00
0
VERTEX
8
1
10
769.06
20
1532.00
0
VERTEX
8
1
10
769.06
20
1528.00
0
VERTEX
8
1
10
777.22
20
1528.00
0
VERTEX
8
1
10
777.22
20
1532.00
0
VERTEX
8
1
10
785.39
20
1532.00
0
VERTEX
8
1
10
785.39
20
1528.00
0
VERTEX
8
1
10
793.55
20
1528.00
0
VERTEX
8
1
10
793.55
20
1532.00
0
VERTEX
8
1
10
801.71
20
1532.00
0
VERTEX
8
1
10
801.71
20
1528.00
0
VERTEX
8
1
10
809.88
20
1528.00
0
VERTEX
8
1
10
809.88
20
1532.00
0
VERTEX
8
1
10
818.04
20
1532.00
0
VERTEX
8
1
10
818.04
20
1528.00
0
VERTEX
8
1
10
826.20
20
1528.00
0
VERTEX
8
1
10
826.20
20
1532.00
0
VERTEX
8
1
10
834.37
20
1532.00
0
VERTEX
8
1
10
834.37
20
1528.00
0
VERTEX
8
1
10
842.53
20
1528.00
0
VERTEX
8
1
10
842.53
20
1532.00
0
VERTEX
8
1
10
850.69
20
1532.00
0
VERTEX
8
1
10
850.69
20
1528.00
0
VERTEX
8
1
10
858.86
20
1528.00
0
VERTEX
8
1
10
858.86
20
1532.00
0
VERTEX
8
1
10
867.02
20
1532.00
0
VERTEX
8
1
10
867.02
20
1528.00
0
VERTEX
8
1
10
875.18
20
1528.00
0
VERTEX
8
1
10
875.18
20
1532.00
0
VERTEX
8
1
10
883.35
20
1532.00
0
VERTEX
8
1
10
883.35
20
1528.00
0
VERTEX
8
1
10
891.51
20
1528.00
0
VERTEX
8
1
10
891.51
20
1532.00
0
VERTEX
8
1
10
899.67
20
1532.00
0
VERTEX
8
1
10
899.67
20
1528.00
0
VERTEX
8
1
10
907.84
20
1528.00
0
VERTEX
8
1
10
907.84
20
1532.00
0
VERTEX
8
1
10
916.00
20
1532.00
0
VERTEX
8
1
10
920.00
20
1532.00
0
VERTEX
8
1
10
920.00
20
1523.67
0
VERTEX
8
1
10
916.00
20
1523.67
0
VERTEX
8
1
10
916.00
20
1515.34
0
VERTEX
8
1
10
920.00
20
1515.34
0
VERTEX
8
1
10
920.00
20
1507.02
0
VERTEX
8
1
10
916.00
20
1507.02
0
VERTEX
8
1
10
916.00
20
1498.69
0
VERTEX
8
1
10
920.00
20
1498.69
0
VERTEX
8
1
10
920.00
20
1490.36
0
VERTEX
8
1
10
916.00
20
1490.36
0
VERTEX
8
1
10
916.00
20
1482.03
0
VERTEX
8
1
10
920.00
20
1482.03
0
VERTEX
8
1
10
920.00
20
1473.70
0
VERTEX
8
1
10
916.00
20
1473.70
0
VERTEX
8
1
10
916.00
20
1465.38
0
VERTEX
8
1
10
920.00
20
1465.38
0
VERTEX
8
1
10
920.00
20
1457.05
0
VERTEX
8
1
10
916.00
20
1457.05
0
VERTEX
8
1
10
916.00
20
1448.72
0
VERTEX
8
1
10
920.00
20
1448.72
0
VERTEX
8
1
10
920.00
20
1440.39
0
VERTEX
8
1
10
916.00
20
1440.39
0
VERTEX
8
1
10
916.00
20
1432.07
0
VERTEX
8
1
10
920.00
20
1432.07
0
VERTEX
8
1
10
920.00
20
1423.74
0
VERTEX
8
1
10
916.00
20
1423.74
0
VERTEX
8
1
10
916.00
20
1415.41
0
VERTEX
8
1
10
920.00
20
1415.41
0
VERTEX
8
1
10
920.00
20
1407.08
0
VERTEX
8
1
10
916.00
20
1407.08
0
VERTEX
8
1
10
916.00
20
1398.75
0
VERTEX
8
1
10
920.00
20
1398.75
0
VERTEX
8
1
10
920.00
20
1390.43
0
VERTEX
8
1
10
916.00
20
1390.43
0
VERTEX
8
1
10
916.00
20
1382.10
0
VERTEX
8
1
10
920.00
20
1382.10
0
VERTEX
8
1
10
920.00
20
1373.77
0
VERTEX
8
1
10
916.00
20
1373.77
0
VERTEX
8
1
10
916.00
20
1365.44
0
VERTEX
8
1
10
920.00
20
1365.44
0
VERTEX
8
1
10
920.00
20
1357.12
0
VERTEX
8
1
10
916.00
20
1357.12
0
VERTEX
8
1
10
916.00
20
1348.79
0
VERTEX
8
1
10
920.00
20
1348.79
0
VERTEX
8
1
10
920.00
20
1340.46
0
VERTEX
8
1
10
916.00
20
1340.46
0
VERTEX
8
1
10
916.00
20
1332.13
0
VERTEX
8
1
10
920.00
20
1332.13
0
VERTEX
8
1
10
920.00
20
1323.80
0
VERTEX
8
1
10
916.00
20
1323.80
0
VERTEX
8
1
10
916.00
20
1315.47
0
VERTEX
8
1
10
920.00
20
1315.47
0
VERTEX
8
1
10
920.00
20
1307.15
0
VERTEX
8
1
10
916.00
20
1307.15
0
VERTEX
8
1
10
916.00
20
1298.82
0
VERTEX
8
1
10
920.00
20
1298.82
0
VERTEX
8
1
10
920.00
20
1290.49
0
VERTEX
8
1
10
916.00
20
1290.49
0
VERTEX
8
1
10
916.00
20
1282.16
0
VERTEX
8
1
10
920.00
20
1282.16
0
VERTEX
8
1
10
920.00
20
1273.84
0
VERTEX
8
1
10
916.00
20
1273.84
0
VERTEX
8
1
10
916.00
20
1265.51
0
VERTEX
8
1
10
920.00
20
1265.51
0
VERTEX
8
1
10
920.00
20
1257.18
0
VERTEX
8
1
10
916.00
20
1257.18
0
VERTEX
8
1
10
916.00
20
1248.85
0
VERTEX
8
1
10
920.00
20
1248.85
0
VERTEX
8
1
10
920.00
20
1240.53
0
VERTEX
8
1
10
916.00
20
1240.53
0
VERTEX
8
1
10
916.00
20
1232.20
0
VERTEX
8
1
10
920.00
20
1232.20
0
VERTEX
8
1
10
920.00
20
1223.87
0
VERTEX
8
1
10
916.00
20
1223.87
0
VERTEX
8
1
10
916.00
20
1215.54
0
VERTEX
8
1
10
920.00
20
1215.54
0
VERTEX
8
1
10
920.00
20
1207.21
0
VERTEX
8
1
10
916.00
20
1207.21
0
VERTEX
8
1
10
916.00
20
1198.88
0
VERTEX
8
1
10
920.00
20
1198.88
0
VERTEX
8
1
10
920.00
20
1190.56
0
VERTEX
8
1
10
916.00
20
1190.56
0
VERTEX
8
1
10
916.00
20
1182.23
0
VERTEX
8
1
10
920.00
20
1182.23
0
VERTEX
8
1
10
920.00
20
1173.90
0
VERTEX
8
1
10
916.00
20
1173.90
0
VERTEX
8
1
10
916.00
20
1165.57
0
VERTEX
8
1
10
920.00
20
1165.57
0
VERTEX
8
1
10
920.00
20
1157.25
0
VERTEX
8
1
10
916.00
20
1157.25
0
VERTEX
8
1
10
916.00
20
1148.92
0
VERTEX
8
1
10
920.00
20
1148.92
0
VERTEX
8
1
10
920.00
20
1140.59
0
VERTEX
8
1
10
916.00
20
1140.59
0
VERTEX
8
1
10
916.00
20
1132.26
0
VERTEX
8
1
10
920.00
20
1132.26
0
VERTEX
8
1
10
920.00
20
1123.93
0
VERTEX
8
1
10
916.00
20
1123.93
0
VERTEX
8
1
10
916.00
20
1115.61
0
VERTEX
8
1
10
920.00
20
1115.61
0
VERTEX
8
1
10
920.00
20
1107.28
0
VERTEX
8
1
10
916.00
20
1107.28
0
VERTEX
8
1
10
916.00
20
1098.95
0
VERTEX
8
1
10
920.00
20
1098.95
0
VERTEX
8
1
10
920.00
20
1090.62
0
VERTEX
8
1
10
916.00
20
1090.62
0
VERTEX
8
1
10
916.00
20
1082.30
0
VERTEX
8
1
10
920.00
20
1082.30
0
VERTEX
8
1
10
920.00
20
1073.97
0
VERTEX
8
1
10
916.00
20
1073.97
0
VERTEX
8
1
10
916.00
20
1065.64
0
VERTEX
8
1
10
920.00
20
1065.64
0
VERTEX
8
1
10
920.00
20
1057.31
0
VERTEX
8
1
10
916.00
20
1057.31
0
VERTEX
8
1
10
916.00
20
1048.98
0
VERTEX
8
1
10
920.00
20
1048.98
0
VERTEX
8
1
10
920.00
20
1040.66
0
VERTEX
8
1
10
916.00
20
1040.66
0
VERTEX
8
1
10
916.00
20
1032.33
0
VERTEX
8
1
10
920.00
20
1032.33
0
VERTEX
8
1
10
920.00
20
1024.00
0
VERTEX
8
1
10
911.67
20
1024.00
0
VERTEX
8
1
10
911.67
20
1028.00
0
VERTEX
8
1
10
903.35
20
1028.00
0
VERTEX
8
1
10
903.35
20
1024.00
0
VERTEX
8
1
10
895.02
20
1024.00
0
VERTEX
8
1
10
895.02
20
1028.00
0
VERTEX
8
1
10
886.69
20
1028.00
0
VERTEX
8
1
10
886.69
20
1024.00
0
VERTEX
8
1
10
878.37
20
1024.00
0
VERTEX
8
1
10
878.37
20
1028.00
0
VERTEX
8
1
10
870.04
20
1028.00
0
VERTEX
8
1
10
870.04
20
1024.00
0
VERTEX
8
1
10
861.71
20
1024.00
0
VERTEX
8
1
10
861.71
20
1028.00
0
VERTEX
8
1
10
853.39
20
1028.00
0
VERTEX
8
1
10
853.39
20
1024.00
0
VERTEX
8
1
10
845.06
20
1024.00
0
VERTEX
8
1
10
845.06
20
1028.00
0
VERTEX
8
1
10
836.74
20
1028.00
0
VERTEX
8
1
10
836.74
20
1024.00
0
VERTEX
8
1
10
828.41
20
1024.00
0
VERTEX
8
1
10
828.41
20
1028.00
0
VERTEX
8
1
10
820.08
20
1028.00
0
VERTEX
8
1
10
820.08
20
1024.00
0
VERTEX
8
1
10
811.75
20
1024.00
0
VERTEX
8
1
10
811.75
20
1028.00
0
VERTEX
8
1
10
803.43
20
1028.00
0
VERTEX
8
1
10
803.43
20
1024.00
0
VERTEX
8
1
10
795.10
20
1024.00
0
VERTEX
8
1
10
795.10
20
1028.00
0
VERTEX
8
1
10
786.78
20
1028.00
0
VERTEX
8
1
10
786.78
20
1024.00
0
VERTEX
8
1
10
778.45
20
1024.00
0
VERTEX
8
1
10
778.45
20
1028.00
0
VERTEX
8
1
10
770.12
20
1028.00
0
VERTEX
8
1
10
770.12
20
1024.00
0
VERTEX
8
1
10
761.80
20
1024.00
0
VERTEX
8
1
10
761.80
20
1028.00
0
VERTEX
8
1
10
753.47
20
1028.00
0
VERTEX
8
1
10
753.47
20
1024.00
0
VERTEX
8
1
10
745.14
20
1024.00
0
VERTEX
8
1
10
745.14
20
1028.00
0
VERTEX
8
1
10
736.82
20
1028.00
0
VERTEX
8
1
10
736.82
20
1024.00
0
VERTEX
8
1
10
728.49
20
1024.00
0
VERTEX
8
1
10
728.49
20
1028.00
0
VERTEX
8
1
10
720.16
20
1028.00
0
VERTEX
8
1
10
720.16
20
1024.00
0
VERTEX
8
1
10
711.84
20
1024.00
0
VERTEX
8
1
10
711.84
20
1028.00
0
VERTEX
8
1
10
703.51
20
1028.00
0
VERTEX
8
1
10
703.51
20
1024.00
0
VERTEX
8
1
10
695.18
20
1024.00
0
VERTEX
8
1
10
695.18
20
1028.00
0
VERTEX
8
1
10
686.86
20
1028.00
0
VERTEX
8
1
10
686.86
20
1024.00
0
VERTEX
8
1
10
678.53
20
1024.00
0
VERTEX
8
1
10
678.53
20
1028.00
0
VERTEX
8
1
10
670.20
20
1028.00
0
VERTEX
8
1
10
670.20
20
1024.00
0
VERTEX
8
1
10
661.88
20
1024.00
0
VERTEX
8
1
10
661.88
20
1028.00
0
VERTEX
8
1
10
653.55
20
1028.00
0
VERTEX
8
1
10
653.55
20
1024.00
0
VERTEX
8
1
10
645.22
20
1024.00
0
VERTEX
8
1
10
645.22
20
1028.00
0
VERTEX
8
1
10
636.90
20
1028.00
0
VERTEX
8
1
10
636.90
20
1024.00
0
VERTEX
8
1
10
628.57
20
1024.00
0
VERTEX
8
1
10
628.57
20
1028.00
0
VERTEX
8
1
10
620.25
20
1028.00
0
VERTEX
8
1
10
620.25
20
1024.00
0
VERTEX
8
1
10
611.92
20
1024.00
0
VERTEX
8
1
10
611.92
20
1028.00
0
VERTEX
8
1
10
603.59
20
1028.00
0
VERTEX
8
1
10
603.59
20
1024.00
0
VERTEX
8
1
10
595.26
20
1024.00
0
VERTEX
8
1
10
595.26
20
1028.00
0
VERTEX
8
1
10
586.94
20
1028.00
0
VERTEX
8
1
10
586.94
20
1024.00
0
VERTEX
8
1
10
578.61
20
1024.00
0
VERTEX
8
1
10
578.61
20
1028.00
0
VERTEX
8
1
10
570.29
20
1028.00
0
VERTEX
8
1
10
570.29
20
1024.00
0
VERTEX
8
1
10
561.96
20
1024.00
0
VERTEX
8
1
10
561.96
20
1028.00
0
VERTEX
8
1
10
553.63
20
1028.00
0
VERTEX
8
1
10
553.63
20
1024.00
0
VERTEX
8
1
10
545.31
20
1024.00
0
VERTEX
8
1
10
545.31
20
1028.00
0
VERTEX
8
1
10
536.98
20
1028.00
0
VERTEX
8
1
10
536.98
20
1024.00
0
VERTEX
8
1
10
528.65
20
1024.00
0
VERTEX
8
1
10
528.65
20
1028.00
0
VERTEX
8
1
10
520.33
20
1028.00
0
VERTEX
8
1
10
520.33
20
1024.00
0
VERTEX
8
1
10
512.00
20
1024.00
0
VERTEX
8
1
10
512.00
20
1032.33
0
VERTEX
8
1
10
516.00
20
1032.33
0
VERTEX
8
1
10
516.00
20
1040.66
0
VERTEX
8
1
10
512.00
20
1040.66
0
VERTEX
8
1
10
512.00
20
1048.98
0
VERTEX
8
1
10
516.00
20
1048.98
0
VERTEX
8
1
10
516.00
20
1057.31
0
VERTEX
8
1
10
512.00
20
1057.31
0
VERTEX
8
1
10
512.00
20
1065.64
0
VERTEX
8
1
10
516.00
20
1065.64
0
VERTEX
8
1
10
516.00
20
1073.97
0
VERTEX
8
1
10
512.00
20
1073.97
0
VERTEX
8
1
10
512.00
20
1082.30
0
VERTEX
8
1
10
516.00
20
1082.30
0
VERTEX
8
1
10
516.00
20
1090.62
0
VERTEX
8
1
10
512.00
20
1090.62
0
VERTEX
8
1
10
512.00
20
1098.95
0
VERTEX
8
1
10
516.00
20
1098.95
0
VERTEX
8
1
10
516.00
20
1107.28
0
VERTEX
8
1
10
512.00
20
1107.28
0
VERTEX
8
1
10
512.00
20
1115.61
0
VERTEX
8
1
10
516.00
20
1115.61
0
VERTEX
8
1
10
516.00
20
1123.93
0
VERTEX
8
1
10
512.00
20
1123.93
0
VERTEX
8
1
10
512.00
20
1132.26
0
VERTEX
8
1
10
516.00
20
1132.26
0
VERTEX
8
1
10
516.00
20
1140.59
0
VERTEX
8
1
10
512.00
20
1140.59
0
VERTEX
8
1
10
512.00
20
1148.92
0
VERTEX
8
1
10
516.00
20
1148.92
0
VERTEX
8
1
10
516.00
20
1157.25
0
VERTEX
8
1
10
512.00
20
1157.25
0
VERTEX
8
1
10
512.00
20
1165.57
0
VERTEX
8
1
10
516.00
20
1165.57
0
VERTEX
8
1
10
516.00
20
1173.90
0
VERTEX
8
1
10
512.00
20
1173.90
0
VERTEX
8
1
10
512.00
20
1182.23
0
VERTEX
8
1
10
516.00
20
1182.23
0
VERTEX
8
1
10
516.00
20
1190.56
0
VERTEX
8
1
10
512.00
20
1190.56
0
VERTEX
8
1
10
512.00
20
1198.88
0
VERTEX
8
1
10
516.00
20
1198.88
0
VERTEX
8
1
10
516.00
20
1207.21
0
VERTEX
8
1
10
512.00
20
1207.21
0
VERTEX
8
1
10
512.00
20
1215.54
0
VERTEX
8
1
10
516.00
20
1215.54
0
VERTEX
8
1
10
516.00
20
1223.87
0
VERTEX
8
1
10
512.00
20
1223.87
0
VERTEX
8
1
10
512.00
20
1232.20
0
VERTEX
8
1
10
516.00
20
1232.20
0
VERTEX
8
1
10
516.00
20
1240.53
0
VERTEX
8
1
10
512.00
20
1240.53
0
VERTEX
8
1
10
512.00
20
1248.85
0
VERTEX
8
1
10
516.00
20
1248.85
0
VERTEX
8
1
10
516.00
20
1257.18
0
VERTEX
8
1
10
512.00
20
1257.18
0
VERTEX
8
1
10
512.00
20
1265.51
0
VERTEX
8
1
10
516.00
20
1265.51
0
VERTEX
8
1
10
516.00
20
1273.84
0
VERTEX
8
1
10
512.00
20
1273.84
0
VERTEX
8
1
10
512.00
20
1282.16
0
VERTEX
8
1
10
516.00
20
1282.16
0
VERTEX
8
1
10
516.00
20
1290.49
0
VERTEX
8
1
10
512.00
20
1290.49
0
VERTEX
8
1
10
512.00
20
1298.82
0
VERTEX
8
1
10
516.00
20
1298.82
0
VERTEX
8
1
10
516.00
20
1307.15
0
VERTEX
8
1
10
512.00
20
1307.15
0
VERTEX
8
1
10
512.00
20
1315.47
0
VERTEX
8
1
10
516.00
20
1315.47
0
VERTEX
8
1
10
516.00
20
1323.80
0
VERTEX
8
1
10
512.00
20
1323.80
0
VERTEX
8
1
10
512.00
20
1332.13
0
VERTEX
8
1
10
516.00
20
1332.13
0
VERTEX
8
1
10
516.00
20
1340.46
0
VERTEX
8
1
10
512.00
20
1340.46
0
VERTEX
8
1
10
512.00
20
1348.79
0
VERTEX
8
1
10
516.00
20
1348.79
0
VERTEX
8
1
10
516.00
20
1357.12
0
VERTEX
8
1
10
512.00
20
1357.12
0
VERTEX
8
1
10
512.00
20
1365.44
0
VERTEX
8
1
10
516.00
20
1365.44
0
VERTEX
8
1
10
516.00
20
1373.77
0
VERTEX
8
1
10
512.00
20
1373.77
0
VERTEX
8
1
10
512.00
20
1382.10
0
VERTEX
8
1
10
516.00
20
1382.10
0
VERTEX
8
1
10
516.00
20
1390.43
0
VERTEX
8
1
10
512.00
20
1390.43
0
VERTEX
8
1
10
512.00
20
1398.75
0
VERTEX
8
1
10
516.00
20
1398.75
0
VERTEX
8
1
10
516.00
20
1407.08
0
VERTEX
8
1
10
512.00
20
1407.08
0
VERTEX
8
1
10
512.00
20
1415.41
0
VERTEX
8
1
10
516.00
20
1415.41
0
VERTEX
8
1
10
516.00
20
1423.74
0
VERTEX
8
1
10
512.00
20
1423.74
0
VERTEX
8
1
10
512.00
20
1432.07
0
VERTEX
8
1
10
516.00
20
1432.07
0
VERTEX
8
1
10
516.00
20
1440.39
0
VERTEX
8
1
10
512.00
20
1440.39
0
VERTEX
8
1
10
512.00
20
1448.72
0
VERTEX
8
1
10
516.00
20
1448.72
0
VERTEX
8
1
10
516.00
20
1457.05
0
VERTEX
8
1
10
512.00
20
1457.05
0
VERTEX
8
1
10
512.00
20
1465.38
0
VERTEX
8
1
10
516.00
20
1465.38
0
VERTEX
8
1
10
516.00
20
1473.70
0
VERTEX
8
1
10
512.00
20
1473.70
0
VERTEX
8
1
10
512.00
20
1482.03
0
VERTEX
8
1
10
516.00
20
1482.03
0
VERTEX
8
1
10
516.00
20
1490.36
0
VERTEX
8
1
10
512.00
20
1490.36
0
VERTEX
8
1
10
512.00
20
1498.69
0
VERTEX
8
1
10
516.00
20
1498.69
0
VERTEX
8
1
10
516.00
20
1507.02
0
VERTEX
8
1
10
512.00
20
1507.02
0
VERTEX
8
1
10
512.00
20
1515.34
0
VERTEX
8
1
10
516.00
20
1515.34
0
VERTEX
8
1
10
516.00
20
1523.67
0
VERTEX
8
1
10
512.00
20
1523.67
0
VERTEX
8
1
10
512.00
20
1532.00
0
VERTEX
8
1
10
516.00
20
1532.00
0
SEQEND
0
POLYLINE
8
1
66
1
70
0
0
VERTEX
8
1
10
0.00
20
516.00
0
VERTEX
8
1
10
0.00
20
524.20
0
VERTEX
8
1
10
4.00
20
524.20
0
VERTEX
8
1
10
4.00
20
532.39
0
VERTEX
8
1
10
0.00
20
532.39
0
VERTEX
8
1
10
0.00
20
540.59
0
VERTEX
8
1
10
4.00
20
540.59
0
VERTEX
8
1
10
4.00
20
548.79
0
VERTEX
8
1
10
0.00
20
548.79
0
VERTEX
8
1
10
0.00
20
556.98
0
VERTEX
8
1
10
4.00
20
556.98
0
VERTEX
8
1
10
4.00
20
565.18
0
VERTEX
8
1
10
0.00
20
565.18
0
VERTEX
8
1
10
0.00
20
573.38
0
VERTEX
8
1
10
4.00
20
573.38
0
VERTEX
8
1
10
4.00
20
581.57
0
VERTEX
8
1
10
0.00
20
581.57
0
VERTEX
8
1
10
0.00
20
589.77
0
VERTEX
8
1
10
4.00
20
589.77
0
VERTEX
8
1
10
4.00
20
597.97
0
VERTEX
8
1
10
0.00
20
597.97
0
VERTEX
8
1
10
0.00
20
606.16
0
VERTEX
8
1
10
4.00
20
606.16
0
VERTEX
8
1
10
4.00
20
614.36
0
VERTEX
8
1
10
0.00
20
614.36
0
VERTEX
8
1
10
0.00
20
622.56
0
VERTEX
8
1
10
4.00
20
622.56
0
VERTEX
8
1
10
4.00
20
630.75
0
VERTEX
8
1
10
0.00
20
630.75
0
VERTEX
8
1
10
0.00
20
638.95
0
VERTEX
8
1
10
4.00
20
638.95
0
VERTEX
8
1
10
4.00
20
647.15
0
VERTEX
8
1
10
0.00
20
647.15
0
VERTEX
8
1
10
0.00
20
655.34
0
VERTEX
8
1
10
4.00
20
655.34
0
VERTEX
8
1
10
4.00
20
663.54
0
VERTEX
8
1
10
0.00
20
663.54
0
VERTEX
8
1
10
0.00
20
671.74
0
VERTEX
8
1
10
4.00
20
671.74
0
VERTEX
8
1
10
4.00
20
679.93
0
VERTEX
8
1
10
0.00
20
679.93
0
VERTEX
8
1
10
0.00
20
688.13
0
VERTEX
8
1
10
4.00
20
688.13
0
VERTEX
8
1
10
4.00
20
696.33
0
VERTEX
8
1
10
0.00
20
696.33
0
VERTEX
8
1
10
0.00
20
704.52
0
VERTEX
8
1
10
4.00
20
704.52
0
VERTEX
8
1
10
4.00
20
712.72
0
VERTEX
8
1
10
0.00
20
712.72
0
VERTEX
8
1
10
0.00
20
720.92
0
VERTEX
8
1
10
4.00
20
720.92
0
VERTEX
8
1
10
4.00
20
729.12
0
VERTEX
8
1
10
0.00
20
729.12
0
VERTEX
8
1
10
0.00
20
737.31
0
VERTEX
8
1
10
4.00
20
737.31
0
VERTEX
8
1
10
4.00
20
745.51
0
VERTEX
8
1
10
0.00
20
745.51
0
VERTEX
8
1
10
0.00
20
753.71
0
VERTEX
8
1
10
4.00
20
753.71
0
VERTEX
8
1
10
4.00
20
761.90
0
VERTEX
8
1
10
0.00
20
761.90
0
VERTEX
8
1
10
0.00
20
770.10
0
VERTEX
8
1
10
4.00
20
770.10
0
VERTEX
8
1
10
4.00
20
778.29
0
VERTEX
8
1
10
0.00
20
778.29
0
VERTEX
8
1
10
0.00
20
786.49
0
VERTEX
8
1
10
4.00
20
786.49
0
VERTEX
8
1
10
4.00
20
794.69
0
VERTEX
8
1
10
0.00
20
794.69
0
VERTEX
8
1
10
0.00
20
802.88
0
VERTEX
8
1
10
4.00
20
802.88
0
VERTEX
8
1
10
4.00
20
811.08
0
VERTEX
8
1
10
0.00
20
811.08
0
VERTEX
8
1
10
0.00
20
819.28
0
VERTEX
8
1
10
4.00
20
819.28
0
VERTEX
8
1
10
4.00
20
827.48
0
VERTEX
8
1
10
0.00
20
827.48
0
VERTEX
8
1
10
0.00
20
835.67
0
VERTEX
8
1
10
4.00
20
835.67
0
VERTEX
8
1
10
4.00
20
843.87
0
VERTEX
8
1
10
0.00
20
843.87
0
VERTEX
8
1
10
0.00
20
852.07
0
VERTEX
8
1
10
4.00
20
852.07
0
VERTEX
8
1
10
4.00
20
860.26
0
VERTEX
8
1
10
0.00
20
860.26
0
VERTEX
8
1
10
0.00
20
868.46
0
VERTEX
8
1
10
4.00
20
868.46
0
VERTEX
8
1
10
4.00
20
876.66
0
VERTEX
8
1
10
0.00
20
876.66
0
VERTEX
8
1
10
0.00
20
884.85
0
VERTEX
8
1
10
4.00
20
884.85
0
VERTEX
8
1
10
4.00
20
893.05
0
VERTEX
8
1
10
0.00
20
893.05
0
VERTEX
8
1
10
0.00
20
901.25
0
VERTEX
8
1
10
4.00
20
901.25
0
VERTEX
8
1
10
4.00
20
909.44
0
VERTEX
8
1
10
0.00
20
909.44
0
VERTEX
8
1
10
0.00
20
917.64
0
VERTEX
8
1
10
4.00
20
917.64
0
VERTEX
8
1
10
4.00
20
925.84
0
VERTEX
8
1
10
0.00
20
925.84
0
VERTEX
8
1
10
0.00
20
934.03
0
VERTEX
8
1
10
4.00
20
934.03
0
VERTEX
8
1
10
4.00
20
942.23
0
VERTEX
8
1
10
0.00
20
942.23
0
VERTEX
8
1
10
0.00
20
950.43
0
VERTEX
8
1
10
4.00
20
950.43
0
VERTEX
8
1
10
4.00
20
958.62
0
VERTEX
8
1
10
0.00
20
958.62
0
VERTEX
8
1
10
0.00
20
966.82
0
VERTEX
8
1
10
4.00
20
966.82
0
VERTEX
8
1
10
4.00
20
975.02
0
VERTEX
8
1
10
0.00
20
975.02
0
VERTEX
8
1
10
0.00
20
983.21
0
VERTEX
8
1
10
4.00
20
983.21
0
VERTEX
8
1
10
4.00
20
991.41
0
VERTEX
8
1
10
0.00
20
991.41
0
VERTEX
8
1
10
0.00
20
999.61
0
VERTEX
8
1
10
4.00
20
999.61
0
VERTEX
8
1
10
4.00
20
1007.80
0
VERTEX
8
1
10
0.00
20
1007.80
0
VERTEX
8
1
10
0.00
20
1016.00
0
VERTEX
8
1
10
8.33
20
1016.00
0
VERTEX
8
1
10
8.33
20
1020.00
0
VERTEX
8
1
10
16.66
20
1020.00
0
VERTEX
8
1
10
16.66
20
1016.00
0
VERTEX
8
1
10
24.98
20
1016.00
0
VERTEX
8
1
10
24.98
20
1020.00
0
VERTEX
8
1
10
33.31
20
1020.00
0
VERTEX
8
1
10
33.31
20
1016.00
0
VERTEX
8
1
10
41.64
20
1016.00
0
VERTEX
8
1
10
41.64
20
1020.00
0
VERTEX
8
1
10
49.97
20
1020.00
0
VERTEX
8
1
10
49.97
20
1016.00
0
VERTEX
8
1
10
58.30
20
1016.00
0
VERTEX
8
1
10
58.30
20
1020.00
0
VERTEX
8
1
10
66.62
20
1020.00
0
VERTEX
8
1
10
66.62
20
1016.00
0
VERTEX
8
1
10
74.95
20
1016.00
0
VERTEX
8
1
10
74.95
20
1020.00
0
VERTEX
8
1
10
83.28
20
1020.00
0
VERTEX
8
1
10
83.28
20
1016.00
0
VERTEX
8
1
10
91.61
20
1016.00
0
VERTEX
8
1
10
91.61
20
1020.00
0
VERTEX
8
1
10
99.93
20
1020.00
0
VERTEX
8
1
10
99.93
20
1016.00
0
VERTEX
8
1
10
108.26
20
1016.00
0
VERTEX
8
1
10
108.26
20
1020.00
0
VERTEX
8
1
10
116.59
20
1020.00
0
VERTEX
8
1
10
116.59
20
1016.00
0
VERTEX
8
1
10
124.92
20
1016.00
0
VERTEX
8
1
10
124.92
20
1020.00
0
VERTEX
8
1
10
133.25
20
1020.00
0
VERTEX
8
1
10
133.25
20
1016.00
0
VERTEX
8
1
10
141.57
20
1016.00
0
VERTEX
8
1
10
141.57
20
1020.00
0
VERTEX
8
1
10
149.90
20
1020.00
0
VERTEX
8
1
10
149.90
20
1016.00
0
VERTEX
8
1
10
158.23
20
1016.00
0
VERTEX
8
1
10
158.23
20
1020.00
0
VERTEX
8
1
10
166.56
20
1020.00
0
VERTEX
8
1
10
166.56
20
1016.00
0
VERTEX
8
1
10
174.88
20
1016.00
0
VERTEX
8
1
10
174.88
20
1020.00
0
VERTEX
8
1
10
183.21
20
1020.00
0
VERTEX
8
1
10
183.21
20
1016.00
0
VERTEX
8
1
10
191.54
20
1016.00
0
VERTEX
8
1
10
191.54
20
1020.00
0
VERTEX
8
1
10
199.87
20
1020.00
0
VERTEX
8
1
10
199.87
20
1016.00
0
VERTEX
8
1
10
208.20
20
1016.00
0
VERTEX
8
1
10
208.20
20
1020.00
0
VERTEX
8
1
10
216.53
20
1020.00
0
VERTEX
8
1
10
216.53
20
1016.00
0
VERTEX
8
1
10
224.85
20
1016.00
0
VERTEX
8
1
10
224.85
20
1020.00
0
VERTEX
8
1
10
233.18
20
1020.00
0
VERTEX
8
1
10
233.18
20
1016.00
0
VERTEX
8
1
10
241.51
20
1016.00
0
VERTEX
8
1
10
241.51
20
1020.00
0
VERTEX
8
1
10
249.84
20
1020.00
0
VERTEX
8
1
10
249.84
20
1016.00
0
VERTEX
8
1
10
258.16
20
1016.00
0
VERTEX
8
1
10
258.16
20
1020.00
0
VERTEX
8
1
10
266.49
20
1020.00
0
VERTEX
8
1
10
266.49
20
1016.00
0
VERTEX
8
1
10
274.82
20
1016.00
0
VERTEX
8
1
10
274.82
20
1020.00
0
VERTEX
8
1
10
283.15
20
1020.00
0
VERTEX
8
1
10
283.15
20
1016.00
0
VERTEX
8
1
10
291.48
20
1016.00
0
VERTEX
8
1
10
291.48
20
1020.00
0
VERTEX
8
1
10
299.80
20
1020.00
0
VERTEX
8
1
10
299.80
20
1016.00
0
VERTEX
8
1
10
308.13
20
1016.00
0
VERTEX
8
1
10
308.13
20
1020.00
0
VERTEX
8
1
10
316.46
20
1020.00
0
VERTEX
8
1
10
316.46
20
1016.00
0
VERTEX
8
1
10
324.79
20
1016.00
0
VERTEX
8
1
10
324.79
20
1020.00
0
VERTEX
8
1
10
333.12
20
1020.00
0
VERTEX
8
1
10
333.12
20
1016.00
0
VERTEX
8
1
10
341.44
20
1016.00
0
VERTEX
8
1
10
341.44
20
1020.00
0
VERTEX
8
1
10
349.77
20
1020.00
0
VERTEX
8
1
10
349.77
20
1016.00
0
VERTEX
8
1
10
358.10
20
1016.00
0
VERTEX
8
1
10
358.10
20
1020.00
0
VERTEX
8
1
10
366.43
20
1020.00
0
VERTEX
8
1
10
366.43
20
1016.00
0
VERTEX
8
1
10
374.75
20
1016.00
0
VERTEX
8
1
10
374.75
20
1020.00
0
VERTEX
8
1
10
383.08
20
1020.00
0
VERTEX
8
1
10
383.08
20
1016.00
0
VERTEX
8
1
10
391.41
20
1016.00
0
VERTEX
8
1
10
391.41
20
1020.00
0
VERTEX
8
1
10
399.74
20
1020.00
0
VERTEX
8
1
10
399.74
20
1016.00
0
VERTEX
8
1
10
408.07
20
1016.00
0
VERTEX
8
1
10
408.07
20
1020.00
0
VERTEX
8
1
10
416.39
20
1020.00
0
VERTEX
8
1
10
416.39
20
1016.00
0
VERTEX
8
1
10
424.72
20
1016.00
0
VERTEX
8
1
10
424.72
20
1020.00
0
VERTEX
8
1
10
433.05
20
1020.00
0
VERTEX
8
1
10
433.05
20
1016.00
0
VERTEX
8
1
10
441.38
20
1016.00
0
VERTEX
8
1
10
441.38
20
1020.00
0
VERTEX
8
1
10
449.70
20
1020.00
0
VERTEX
8
1
10
449.70
20
1016.00
0
VERTEX
8
1
10
458.03
20
1016.00
0
VERTEX
8
1
10
458.03
20
1020.00
0
VERTEX
8
1
10
466.36
20
1020.00
0
VERTEX
8
1
10
466.36
20
1016.00
0
VERTEX
8
1
10
474.69
20
1016.00
0
VERTEX
8
1
10
474.69
20
1020.00
0
VERTEX
8
1
10
483.02
20
1020.00
0
VERTEX
8
1
10
483.02
20
1016.00
0
VERTEX
8
1
10
491.34
20
1016.00
0
VERTEX
8
1
10
491.34
20
1020.00
0
VERTEX
8
1
10
499.67
20
1020.00
0
VERTEX
8
1
10
499.67
20
1016.00
0
VERTEX
8
1
10
508.00
20
1016.00
0
VERTEX
8
1
10
508.00
20
1007.80
0
VERTEX
8
1
10
504.00
20
1007.80
0
VERTEX
8
1
10
504.00
20
999.61
0
VERTEX
8
1
10
508.00
20
999.61
0
VERTEX
8
1
10
508.00
20
991.41
0
VERTEX
8
1
10
504.00
20
991.41
0
VERTEX
8
1
10
504.00
20
983.21
0
VERTEX
8
1
10
508.00
20
983.21
0
VERTEX
8
1
10
508.00
20
975.02
0
VERTEX
8
1
10
504.00
20
975.02
0
VERTEX
8
1
10
504.00
20
966.82
0
VERTEX
8
1
10
508.00
20
966.82
0
VERTEX
8
1
10
508.00
20
958.62
0
VERTEX
8
1
10
504.00
20
958.62
0
VERTEX
8
1
10
504.00
20
950.43
0
VERTEX
8
1
10
508.00
20
950.43
0
VERTEX
8
1
10
508.00
20
942.23
0
VERTEX
8
1
10
504.00
20
942.23
0
VERTEX
8
1
10
504.00
20
934.03
0
VERTEX
8
1
10
508.00
20
934.03
0
VERTEX
8
1
10
508.00
20
925.84
0
VERTEX
8
1
10
504.00
20
925.84
0
VERTEX
8
1
10
504.00
20
917.64
0
VERTEX
8
1
10
508.00
20
917.64
0
VERTEX
8
1
10
508.00
20
909.44
0
VERTEX
8
1
10
504.00
20
909.44
0
VERTEX
8
1
10
504.00
20
901.25
0
VERTEX
8
1
10
508.00
20
901.25
0
VERTEX
8
1
10
508.00
20
893.05
0
VERTEX
8
1
10
504.00
20
893.05
0
VERTEX
8
1
10
504.00
20
884.85
0
VERTEX
8
1
10
508.00
20
884.85
0
VERTEX
8
1
10
508.00
20
876.66
0
VERTEX
8
1
10
504.00
20
876.66
0
VERTEX
8
1
10
504.00
20
868.46
0
VERTEX
8
1
10
508.00
20
868.46
0
VERTEX
8
1
10
508.00
20
860.26
0
VERTEX
8
1
10
504.00
20
860.26
0
VERTEX
8
1
10
504.00
20
852.07
0
VERTEX
8
1
10
508.00
20
852.07
0
VERTEX
8
1
10
508.00
20
843.87
0
VERTEX
8
1
10
504.00
20
843.87
0
VERTEX
8
1
10
504.00
20
835.67
0
VERTEX
8
1
10
508.00
20
835.67
0
VERTEX
8
1
10
508.00
20
827.48
0
VERTEX
8
1
10
504.00
20
827.48
0
VERTEX
8
1
10
504.00
20
819.28
0
VERTEX
8
1
10
508.00
20
819.28
0
VERTEX
8
1
10
508.00
20
811.08
0
VERTEX
8
1
10
504.00
20
811.08
0
VERTEX
8
1
10
504.00
20
802.88
0
VERTEX
8
1
10
508.00
20
802.88
0
VERTEX
8
1
10
508.00
20
794.69
0
VERTEX
8
1
10
504.00
20
794.69
0
VERTEX
8
1
10
504.00
20
786.49
0
VERTEX
8
1
10
508.00
20
786.49
0
VERTEX
8
1
10
508.00
20
778.29
0
VERTEX
8
1
10
504.00
20
778.29
0
VERTEX
8
1
10
504.00
20
770.10
0
VERTEX
8
1
10
508.00
20
770.10
0
VERTEX
8
1
10
508.00
20
761.90
0
VERTEX
8
1
10
504.00
20
761.90
0
VERTEX
8
1
10
504.00
20
753.71
0
VERTEX
8
1
10
508.00
20
753.71
0
VERTEX
8
1
10
508.00
20
745.51
0
VERTEX
8
1
10
504.00
20
745.51
0
VERTEX
8
1
10
504.00
20
737.31
0
VERTEX
8
1
10
508.00
20
737.31
0
VERTEX
8
1
10
508.00
20
729.12
0
VERTEX
8
1
10
504.00
20
729.12
0
VERTEX
8
1
10
504.00
20
720.92
0
VERTEX
8
1
10
508.00
20
720.92
0
VERTEX
8
1
10
508.00
20
712.72
0
VERTEX
8
1
10
504.00
20
712.72
0
VERTEX
8
1
10
504.00
20
704.52
0
VERTEX
8
1
10
508.00
20
704.52
0
VERTEX
8
1
10
508.00
20
696.33
0
VERTEX
8
1
10
504.00
20
696.33
0
VERTEX
8
1
10
504.00
20
688.13
0
VERTEX
8
1
10
508.00
20
688.13
0
VERTEX
8
1
10
508.00
20
679.93
0
VERTEX
8
1
10
504.00
20
679.93
0
VERTEX
8
1
10
504.00
20
671.74
0
VERTEX
8
1
10
508.00
20
671.74
0
VERTEX
8
1
10
508.00
20
663.54
0
VERTEX
8
1
10
504.00
20
663.54
0
VERTEX
8
1
10
504.00
20
655.34
0
VERTEX
8
1
10
508.00
20
655.34
0
VERTEX
8
1
10
508.00
20
647.15
0
VERTEX
8
1
10
504.00
20
647.15
0
VERTEX
8
1
10
504.00
20
638.95
0
VERTEX
8
1
10
508.00
20
638.95
0
VERTEX
8
1
10
508.00
20
630.75
0
VERTEX
8
1
10
504.00
20
630.75
0
VERTEX
8
1
10
504.00
20
622.56
0
VERTEX
8
1
10
508.00
20
622.56
0
VERTEX
8
1
10
508.00
20
614.36
0
VERTEX
8
1
10
504.00
20
614.36
0
VERTEX
8
1
10
504.00
20
606.16
0
VERTEX
8
1
10
508.00
20
606.16
0
VERTEX
8
1
10
508.00
20
597.97
0
VERTEX
8
1
10
504.00
20
597.97
0
VERTEX
8
1
10
504.00
20
589.77
0
VERTEX
8
1
10
508.00
20
589.77
0
VERTEX
8
1
10
508.00
20
581.57
0
VERTEX
8
1
10
504.00
20
581.57
0
VERTEX
8
1
10
504.00
20
573.38
0
VERTEX
8
1
10
508.00
20
573.38
0
VERTEX
8
1
10
508.00
20
565.18
0
VERTEX
8
1
10
504.00
20
565.18
0
VERTEX
8
1
10
504.00
20
556.98
0
VERTEX
8
1
10
508.00
20
556.98
0
VERTEX
8
1
10
508.00
20
548.79
0
VERTEX
8
1
10
504.00
20
548.79
0
VERTEX
8
1
10
504.00
20
540.59
0
VERTEX
8
1
10
508.00
20
540.59
0
VERTEX
8
1
10
508.00
20
532.39
0
VERTEX
8
1
10
504.00
20
532.39
0
VERTEX
8
1
10
504.00
20
524.20
0
VERTEX
8
1
10
508.00
20
524.20
0
VERTEX
8
1
10
508.00
20
516.00
0
VERTEX
8
1
10
499.67
20
516.00
0
VERTEX
8
1
10
499.67
20
512.00
0
VERTEX
8
1
10
491.34
20
512.00
0
VERTEX
8
1
10
491.34
20
516.00
0
VERTEX
8
1
10
483.02
20
516.00
0
VERTEX
8
1
10
483.02
20
512.00
0
VERTEX
8
1
10
474.69
20
512.00
0
VERTEX
8
1
10
474.69
20
516.00
0
VERTEX
8
1
10
466.36
20
516.00
0
VERTEX
8
1
10
466.36
20
512.00
0
VERTEX
8
1
10
458.03
20
512.00
0
VERTEX
8
1
10
458.03
20
516.00
0
VERTEX
8
1
10
449.70
20
516.00
0
VERTEX
8
1
10
449.70
20
512.00
0
VERTEX
8
1
10
441.38
20
512.00
0
VERTEX
8
1
10
441.38
20
516.00
0
VERTEX
8
1
10
433.05
20
516.00
0
VERTEX
8
1
10
433.05
20
512.00
0
VERTEX
8
1
10
424.72
20
512.00
0
VERTEX
8
1
10
424.72
20
516.00
0
VERTEX
8
1
10
416.39
20
516.00
0
VERTEX
8
1
10
416.39
20
512.00
0
VERTEX
8
1
10
408.07
20
512.00
0
VERTEX
8
1
10
408.07
20
516.00
0
VERTEX
8
1
10
399.74
20
516.00
0
VERTEX
8
1
10
399.74
20
512.00
0
VERTEX
8
1
10
391.41
20
512.00
0
VERTEX
8
1
10
391.41
20
516.00
0
VERTEX
8
1
10
383.08
20
516.00
0
VERTEX
8
1
10
383.08
20
512.00
0
VERTEX
8
1
10
374.75
20
512.00
0
VERTEX
8
1
10
374.75
20
516.00
0
VERTEX
8
1
10
366.43
20
516.00
0
VERTEX
8
1
10
366.43
20
512.00
0
VERTEX
8
1
10
358.10
20
512.00
0
VERTEX
8
1
10
358.10
20
516.00
0
VERTEX
8
1
10
349.77
20
516.00
0
VERTEX
8
1
10
349.77
20
512.00
0
VERTEX
8
1
10
341.44
20
512.00
0
VERTEX
8
1
10
341.44
20
516.00
0
VERTEX
8
1
10
333.12
20
516.00
0
VERTEX
8
1
10
333.12
20
512.00
0
VERTEX
8
1
10
324.79
20
512.00
0
VERTEX
8
1
10
324.79
20
516.00
0
VERTEX
8
1
10
316.46
20
516.00
0
VERTEX
8
1
10
316.46
20
512.00
0
VERTEX
8
1
10
308.13
20
512.00
0
VERTEX
8
1
10
308.13
20
516.00
0
VERTEX
8
1
10
299.80
20
516.00
0
VERTEX
8
1
10
299.80
20
512.00
0
VERTEX
8
1
10
291.48
20
512.00
0
VERTEX
8
1
10
291.48
20
516.00
0
VERTEX
8
1
10
283.15
20
516.00
0
VERTEX
8
1
10
283.15
20
512.00
0
VERTEX
8
1
10
274.82
20
512.00
0
VERTEX
8
1
10
274.82
20
516.00
0
VERTEX
8
1
10
266.49
20
516.00
0
VERTEX
8
1
10
266.49
20
512.00
0
VERTEX
8
1
10
258.16
20
512.00
0
VERTEX
8
1
10
258.16
20
516.00
0
VERTEX
8
1
10
249.84
20
516.00
0
VERTEX
8
1
10
249.84
20
512.00
0
VERTEX
8
1
10
241.51
20
512.00
0
VERTEX
8
1
10
241.51
20
516.00
0
VERTEX
8
1
10
233.18
20
516.00
0
VERTEX
8
1
10
233.18
20
512.00
0
VERTEX
8
1
10
224.85
20
512.00
0
VERTEX
8
1
10
224.85
20
516.00
0
VERTEX
8
1
10
216.53
20
516.00
0
VERTEX
8
1
10
216.53
20
512.00
0
VERTEX
8
1
10
208.20
20
512.00
0
VERTEX
8
1
10
208.20
20
516.00
0
VERTEX
8
1
10
199.87
20
516.00
0
VERTEX
8
1
10
199.87
20
512.00
0
VERTEX
8
1
10
191.54
20
512.00
0
VERTEX
8
1
10
191.54
20
516.00
0
VERTEX
8
1
10
183.21
20
516.00
0
VERTEX
8
1
10
183.21
20
512.00
0
VERTEX
8
1
10
174.88
20
512.00
0
VERTEX
8
1
10
174.88
20
516.00
0
VERTEX
8
1
10
166.56
20
516.00
0
VERTEX
8
1
10
166.56
20
512.00
0
VERTEX
8
1
10
158.23
20
512.00
0
VERTEX
8
1
10
158.23
20
516.00
0
VERTEX
8
1
10
149.90
20
516.00
0
VERTEX
8
1
10
149.90
20
512.00
0
VERTEX
8
1
10
141.57
20
512.00
0
VERTEX
8
1
10
141.57
20
516.00
0
VERTEX
8
1
10
133.25
20
516.00
0
VERTEX
8
1
10
133.25
20
512.00
0
VERTEX
8
1
10
124.92
20
512.00
0
VERTEX
8
1
10
124.92
20
516.00
0
VERTEX
8
1
10
116.59
20
516.00
0
VERTEX
8
1
10
116.59
20
512.00
0
VERTEX
8
1
10
108.26
20
512.00
0
VERTEX
8
1
10
108.26
20
516.00
0
VERTEX
8
1
10
99.93
20
516.00
0
VERTEX
8
1
10
99.93
20
512.00
0
VERTEX
8
1
10
91.61
20
512.00
0
VERTEX
8
1
10
91.61
20
516.00
0
VERTEX
8
1
10
83.28
20
516.00
0
VERTEX
8
1
10
83.28
20
512.00
0
VERTEX
8
1
10
74.95
20
512.00
0
VERTEX
8
1
10
74.95
20
516.00
0
VERTEX
8
1
10
66.62
20
516.00
0
VERTEX
8
1
10
66.62
20
512.00
0
VERTEX
8
1
10
58.30
20
512.00
0
VERTEX
8
1
10
58.30
20
516.00
0
VERTEX
8
1
10
49.97
20
516.00
0
VERTEX
8
1
10
49.97
20
512.00
0
VERTEX
8
1
10
41.64
20
512.00
0
VERTEX
8
1
10
41.64
20
516.00
0
VERTEX
8
1
10
33.31
20
516.00
0
VERTEX
8
1
10
33.31
20
512.00
0
VERTEX
8
1
10
24.98
20
512.00
0
VERTEX
8
1
10
24.98
20
516.00
0
VERTEX
8
1
10
16.66
20
516.00
0
VERTEX
8
1
10
16.66
20
512.00
0
VERTEX
8
1
10
8.33
20
512.00
0
VERTEX
8
1
10
8.33
20
516.00
0
VERTEX
8
1
10
0.00
20
516.00
0
SEQEND
0
POLYLINE
8
1
66
1
70
0
0
VERTEX
8
1
10
1432.00
20
516.00
0
VERTEX
8
1
10
1432.00
20
524.20
0
VERTEX
8
1
10
1428.00
20
524.20
0
VERTEX
8
1
10
1428.00
20
532.39
0
VERTEX
8
1
10
1432.00
20
532.39
0
VERTEX
8
1
10
1432.00
20
540.59
0
VERTEX
8
1
10
1428.00
20
540.59
0
VERTEX
8
1
10
1428.00
20
548.79
0
VERTEX
8
1
10
1432.00
20
548.79
0
VERTEX
8
1
10
1432.00
20
556.98
0
VERTEX
8
1
10
1428.00
20
556.98
0
VERTEX
8
1
10
1428.00
20
565.18
0
VERTEX
8
1
10
1432.00
20
565.18
0
VERTEX
8
1
10
1432.00
20
573.38
0
VERTEX
8
1
10
1428.00
20
573.38
0
VERTEX
8
1
10
1428.00
20
581.57
0
VERTEX
8
1
10
1432.00
20
581.57
0
VERTEX
8
1
10
1432.00
20
589.77
0
VERTEX
8
1
10
1428.00
20
589.77
0
VERTEX
8
1
10
1428.00
20
597.97
0
VERTEX
8
1
10
1432.00
20
597.97
0
VERTEX
8
1
10
1432.00
20
606.16
0
VERTEX
8
1
10
1428.00
20
606.16
0
VERTEX
8
1
10
1428.00
20
614.36
0
VERTEX
8
1
10
1432.00
20
614.36
0
VERTEX
8
1
10
1432.00
20
622.56
0
VERTEX
8
1
10
1428.00
20
622.56
0
VERTEX
8
1
10
1428.00
20
630.75
0
VERTEX
8
1
10
1432.00
20
630.75
0
VERTEX
8
1
10
1432.00
20
638.95
0
VERTEX
8
1
10
1428.00
20
638.95
0
VERTEX
8
1
10
1428.00
20
647.15
0
VERTEX
8
1
10
1432.00
20
647.15
0
VERTEX
8
1
10
1432.00
20
655.34
0
VERTEX
8
1
10
1428.00
20
655.34
0
VERTEX
8
1
10
1428.00
20
663.54
0
VERTEX
8
1
10
1432.00
20
663.54
0
VERTEX
8
1
10
1432.00
20
671.74
0
VERTEX
8
1
10
1428.00
20
671.74
0
VERTEX
8
1
10
1428.00
20
679.93
0
VERTEX
8
1
10
1432.00
20
679.93
0
VERTEX
8
1
10
1432.00
20
688.13
0
VERTEX
8
1
10
1428.00
20
688.13
0
VERTEX
8
1
10
1428.00
20
696.33
0
VERTEX
8
1
10
1432.00
20
696.33
0
VERTEX
8
1
10
1432.00
20
704.52
0
VERTEX
8
1
10
1428.00
20
704.52
0
VERTEX
8
1
10
1428.00
20
712.72
0
VERTEX
8
1
10
1432.00
20
712.72
0
VERTEX
8
1
10
1432.00
20
720.92
0
VERTEX
8
1
10
1428.00
20
720.92
0
VERTEX
8
1
10
1428.00
20
729.12
0
VERTEX
8
1
10
1432.00
20
729.12
0
VERTEX
8
1
10
1432.00
20
737.31
0
VERTEX
8
1
10
1428.00
20
737.31
0
VERTEX
8
1
10
1428.00
20
745.51
0
VERTEX
8
1
10
1432.00
20
745.51
0
VERTEX
8
1
10
1432.00
20
753.71
0
VERTEX
8
1
10
1428.00
20
753.71
0
VERTEX
8
1
10
1428.00
20
761.90
0
VERTEX
8
1
10
1432.00
20
761.90
0
VERTEX
8
1
10
1432.00
20
770.10
0
VERTEX
8
1
10
1428.00
20
770.10
0
VERTEX
8
1
10
1428.00
20
778.29
0
VERTEX
8
1
10
1432.00
20
778.29
0
VERTEX
8
1
10
1432.00
20
786.49
0
VERTEX
8
1
10
1428.00
20
786.49
0
VERTEX
8
1
10
1428.00
20
794.69
0
VERTEX
8
1
10
1432.00
20
794.69
0
VERTEX
8
1
10
1432.00
20
802.88
0
VERTEX
8
1
10
1428.00
20
802.88
0
VERTEX
8
1
10
1428.00
20
811.08
0
VERTEX
8
1
10
1432.00
20
811.08
0
VERTEX
8
1
10
1432.00
20
819.28
0
VERTEX
8
1
10
1428.00
20
819.28
0
VERTEX
8
1
10
1428.00
20
827.48
0
VERTEX
8
1
10
1432.00
20
827.48
0
VERTEX
8
1
10
1432.00
20
835.67
0
VERTEX
8
1
10
1428.00
20
835.67
0
VERTEX
8
1
10
1428.00
20
843.87
0
VERTEX
8
1
10
1432.00
20
843.87
0
VERTEX
8
1
10
1432.00
20
852.07
0
VERTEX
8
1
10
1428.00
20
852.07
0
VERTEX
8
1
10
1428.00
20
860.26
0
VERTEX
8
1
10
1432.00
20
860.26
0
VERTEX
8
1
10
1432.00
20
868.46
0
VERTEX
8
1
10
1428.00
20
868.46
0
VERTEX
8
1
10
1428.00
20
876.66
0
VERTEX
8
1
10
1432.00
20
876.66
0
VERTEX
8
1
10
1432.00
20
884.85
0
VERTEX
8
1
10
1428.00
20
884.85
0
VERTEX
8
1
10
1428.00
20
893.05
0
VERTEX
8
1
10
1432.00
20
893.05
0
VERTEX
8
1
10
1432.00
20
901.25
0
VERTEX
8
1
10
1428.00
20
901.25
0
VERTEX
8
1
10
1428.00
20
909.44
0
VERTEX
8
1
10
1432.00
20
909.44
0
VERTEX
8
1
10
1432.00
20
917.64
0
VERTEX
8
1
10
1428.00
20
917.64
0
VERTEX
8
1
10
1428.00
20
925.84
0
VERTEX
8
1
10
1432.00
20
925.84
0
VERTEX
8
1
10
1432.00
20
934.03
0
VERTEX
8
1
10
1428.00
20
934.03
0
VERTEX
8
1
10
1428.00
20
942.23
0
VERTEX
8
1
10
1432.00
20
942.23
0
VERTEX
8
1
10
1432.00
20
950.43
0
VERTEX
8
1
10
1428.00
20
950.43
0
VERTEX
8
1
10
1428.00
20
958.62
0
VERTEX
8
1
10
1432.00
20
958.62
0
VERTEX
8
1
10
1432.00
20
966.82
0
VERTEX
8
1
10
1428.00
20
966.82
0
VERTEX
8
1
10
1428.00
20
975.02
0
VERTEX
8
1
10
1432.00
20
975.02
0
VERTEX
8
1
10
1432.00
20
983.21
0
VERTEX
8
1
10
1428.00
20
983.21
0
VERTEX
8
1
10
1428.00
20
991.41
0
VERTEX
8
1
10
1432.00
20
991.41
0
VERTEX
8
1
10
1432.00
20
999.61
0
VERTEX
8
1
10
1428.00
20
999.61
0
VERTEX
8
1
10
1428.00
20
1007.80
0
VERTEX
8
1
10
1432.00
20
1007.80
0
VERTEX
8
1
10
1432.00
20
1016.00
0
VERTEX
8
1
10
1423.67
20
1016.00
0
VERTEX
8
1
10
1423.67
20
1020.00
0
VERTEX
8
1
10
1415.34
20
1020.00
0
VERTEX
8
1
10
1415.34
20
1016.00
0
VERTEX
8
1
10
1407.02
20
1016.00
0
VERTEX
8
1
10
1407.02
20
1020.00
0
VERTEX
8
1
10
1398.69
20
1020.00
0
VERTEX
8
1
10
1398.69
20
1016.00
0
VERTEX
8
1
10
1390.36
20
1016.00
0
VERTEX
8
1
10
1390.36
20
1020.00
0
VERTEX
8
1
10
1382.03
20
1020.00
0
VERTEX
8
1
10
1382.03
20
1016.00
0
VERTEX
8
1
10
1373.70
20
1016.00
0
VERTEX
8
1
10
1373.70
20
1020.00
0
VERTEX
8
1
10
1365.38
20
1020.00
0
VERTEX
8
1
10
1365.38
20
1016.00
0
VERTEX
8
1
10
1357.05
20
1016.00
0
VERTEX
8
1
10
1357.05
20
1020.00
0
VERTEX
8
1
10
1348.72
20
1020.00
0
VERTEX
8
1
10
1348.72
20
1016.00
0
VERTEX
8
1
10
1340.39
20
1016.00
0
VERTEX
8
1
10
1340.39
20
1020.00
0
VERTEX
8
1
10
1332.07
20
1020.00
0
VERTEX
8
1
10
1332.07
20
1016.00
0
VERTEX
8
1
10
1323.74
20
1016.00
0
VERTEX
8
1
10
1323.74
20
1020.00
0
VERTEX
8
1
10
1315.41
20
1020.00
0
VERTEX
8
1
10
1315.41
20
1016.00
0
VERTEX
8
1
10
1307.08
20
1016.00
0
VERTEX
8
1
10
1307.08
20
1020.00
0
VERTEX
8
1
10
1298.75
20
1020.00
0
VERTEX
8
1
10
1298.75
20
1016.00
0
VERTEX
8
1
10
1290.43
20
1016.00
0
VERTEX
8
1
10
1290.43
20
1020.00
0
VERTEX
8
1
10
1282.10
20
1020.00
0
VERTEX
8
1
10
1282.10
20
1016.00
0
VERTEX
8
1
10
1273.77
20
1016.00
0
VERTEX
8
1
10
1273.77
20
1020.00
0
VERTEX
8
1
10
1265.44
20
1020.00
0
VERTEX
8
1
10
1265.44
20
1016.00
0
VERTEX
8
1
10
1257.12
20
1016.00
0
VERTEX
8
1
10
1257.12
20
1020.00
0
VERTEX
8
1
10
1248.79
20
1020.00
0
VERTEX
8
1
10
1248.79
20
1016.00
0
VERTEX
8
1
10
1240.46
20
1016.00
0
VERTEX
8
1
10
1240.46
20
1020.00
0
VERTEX
8
1
10
1232.13
20
1020.00
0
VERTEX
8
1
10
1232.13
20
1016.00
0
VERTEX
8
1
10
1223.80
20
1016.00
0
VERTEX
8
1
10
1223.80
20
1020.00
0
VERTEX
8
1
10
1215.47
20
1020.00
0
VERTEX
8
1
10
1215.47
20
1016.00
0
VERTEX
8
1
10
1207.15
20
1016.00
0
VERTEX
8
1
10
1207.15
20
1020.00
0
VERTEX
8
1
10
1198.82
20
1020.00
0
VERTEX
8
1
10
1198.82
20
1016.00
0
VERTEX
8
1
10
1190.49
20
1016.00
0
VERTEX
8
1
10
1190.49
20
1020.00
0
VERTEX
8
1
10
1182.16
20
1020.00
0
VERTEX
8
1
10
1182.16
20
1016.00
0
VERTEX
8
1
10
1173.84
20
1016.00
0
VERTEX
8
1
10
1173.84
20
1020.00
0
VERTEX
8
1
10
1165.51
20
1020.00
0
VERTEX
8
1
10
1165.51
20
1016.00
0
VERTEX
8
1
10
1157.18
20
1016.00
0
VERTEX
8
1
10
1157.18
20
1020.00
0
VERTEX
8
1
10
1148.85
20
1020.00
0
VERTEX
8
1
10
1148.85
20
1016.00
0
VERTEX
8
1
10
1140.53
20
1016.00
0
VERTEX
8
1
10
1140.53
20
1020.00
0
VERTEX
8
1
10
1132.20
20
1020.00
0
VERTEX
8
1
10
1132.20
20
1016.00
0
VERTEX
8
1
10
1123.87
20
1016.00
0
VERTEX
8
1
10
1123.87
20
1020.00
0
VERTEX
8
1
10
1115.54
20
1020.00
0
VERTEX
8
1
10
1115.54
20
1016.00
0
VERTEX
8
1
10
1107.21
20
1016.00
0
VERTEX
8
1
10
1107.21
20
1020.00
0
VERTEX
8
1
10
1098.88
20
1020.00
0
VERTEX
8
1
10
1098.88
20
1016.00
0
VERTEX
8
1
10
1090.56
20
1016.00
0
VERTEX
8
1
10
1090.56
20
1020.00
0
VERTEX
8
1
10
1082.23
20
1020.00
0
VERTEX
8
1
10
1082.23
20
1016.00
0
VERTEX
8
1
10
1073.90
20
1016.00
0
VERTEX
8
1
10
1073.90
20
1020.00
0
VERTEX
8
1
10
1065.57
20
1020.00
0
VERTEX
8
1
10
1065.57
20
1016.00
0
VERTEX
8
1
10
1057.25
20
1016.00
0
VERTEX
8
1
10
1057.25
20
1020.00
0
VERTEX
8
1
10
1048.92
20
1020.00
0
VERTEX
8
1
10
1048.92
20
1016.00
0
VERTEX
8
1
10
1040.59
20
1016.00
0
VERTEX
8
1
10
1040.59
20
1020.00
0
VERTEX
8
1
10
1032.26
20
1020.00
0
VERTEX
8
1
10
1032.26
20
1016.00
0
VERTEX
8
1
10
1023.93
20
1016.00
0
VERTEX
8
1
10
1023.93
20
1020.00
0
VERTEX
8
1
10
1015.61
20
1020.00
0
VERTEX
8
1
10
1015.61
20
1016.00
0
VERTEX
8
1
10
1007.28
20
1016.00
0
VERTEX
8
1
10
1007.28
20
1020.00
0
VERTEX
8
1
10
998.95
20
1020.00
0
VERTEX
8
1
10
998.95
20
1016.00
0
VERTEX
8
1
10
990.62
20
1016.00
0
VERTEX
8
1
10
990.62
20
1020.00
0
VERTEX
8
1
10
982.29
20
1020.00
0
VERTEX
8
1
10
982.29
20
1016.00
0
VERTEX
8
1
10
973.97
20
1016.00
0
VERTEX
8
1
10
973.97
20
1020.00
0
VERTEX
8
1
10
965.64
20
1020.00
0
VERTEX
8
1
10
965.64
20
1016.00
0
VERTEX
8
1
10
957.31
20
1016.00
0
VERTEX
8
1
10
957.31
20
1020.00
0
VERTEX
8
1
10
948.98
20
1020.00
0
VERTEX
8
1
10
948.98
20
1016.00
0
VERTEX
8
1
10
940.66
20
1016.00
0
VERTEX
8
1
10
940.66
20
1020.00
0
VERTEX
8
1
10
932.33
20
1020.00
0
VERTEX
8
1
10
932.33
20
1016.00
0
VERTEX
8
1
10
924.00
20
1016.00
0
VERTEX
8
1
10
924.00
20
1007.80
0
VERTEX
8
1
10
928.00
20
1007.80
0
VERTEX
8
1
10
928.00
20
999.61
0
VERTEX
8
1
10
924.00
20
999.61
0
VERTEX
8
1
10
924.00
20
991.41
0
VERTEX
8
1
10
928.00
20
991.41
0
VERTEX
8
1
10
928.00
20
983.21
0
VERTEX
8
1
10
924.00
20
983.21
0
VERTEX
8
1
10
924.00
20
975.02
0
VERTEX
8
1
10
928.00
20
975.02
0
VERTEX
8
1
10
928.00
20
966.82
0
VERTEX
8
1
10
924.00
20
966.82
0
VERTEX
8
1
10
924.00
20
958.62
0
VERTEX
8
1
10
928.00
20
958.62
0
VERTEX
8
1
10
928.00
20
950.43
0
VERTEX
8
1
10
924.00
20
950.43
0
VERTEX
8
1
10
924.00
20
942.23
0
VERTEX
8
1
10
928.00
20
942.23
0
VERTEX
8
1
10
928.00
20
934.03
0
VERTEX
8
1
10
924.00
20
934.03
0
VERTEX
8
1
10
924.00
20
925.84
0
VERTEX
8
1
10
928.00
20
925.84
0
VERTEX
8
1
10
928.00
20
917.64
0
VERTEX
8
1
10
924.00
20
917.64
0
VERTEX
8
1
10
924.00
20
909.44
0
VERTEX
8
1
10
928.00
20
909.44
0
VERTEX
8
1
10
928.00
20
901.25
0
VERTEX
8
1
10
924.00
20
901.25
0
VERTEX
8
1
10
924.00
20
893.05
0
VERTEX
8
1
10
928.00
20
893.05
0
VERTEX
8
1
10
928.00
20
884.85
0
VERTEX
8
1
10
924.00
20
884.85
0
VERTEX
8
1
10
924.00
20
876.66
0
VERTEX
8
1
10
928.00
20
876.66
0
VERTEX
8
1
10
928.00
20
868.46
0
VERTEX
8
1
10
924.00
20
868.46
0
VERTEX
8
1
10
924.00
20
860.26
0
VERTEX
8
1
10
928.00
20
860.26
0
VERTEX
8
1
10
928.00
20
852.07
0
VERTEX
8
1
10
924.00
20
852.07
0
VERTEX
8
1
10
924.00
20
843.87
0
VERTEX
8
1
10
928.00
20
843.87
0
VERTEX
8
1
10
928.00
20
835.67
0
VERTEX
8
1
10
924.00
20
835.67
0
VERTEX
8
1
10
924.00
20
827.48
0
VERTEX
8
1
10
928.00
20
827.48
0
VERTEX
8
1
10
928.00
20
819.28
0
VERTEX
8
1
10
924.00
20
819.28
0
VERTEX
8
1
10
924.00
20
811.08
0
VERTEX
8
1
10
928.00
20
811.08
0
VERTEX
8
1
10
928.00
20
802.88
0
VERTEX
8
1
10
924.00
20
802.88
0
VERTEX
8
1
10
924.00
20
794.69
0
VERTEX
8
1
10
928.00
20
794.69
0
VERTEX
8
1
10
928.00
20
786.49
0
VERTEX
8
1
10
924.00
20
786.49
0
VERTEX
8
1
10
924.00
20
778.29
0
VERTEX
8
1
10
928.00
20
778.29
0
VERTEX
8
1
10
928.00
20
770.10
0
VERTEX
8
1
10
924.00
20
770.10
0
VERTEX
8
1
10
924.00
20
761.90
0
VERTEX
8
1
10
928.00
20
761.90
0
VERTEX
8
1
10
928.00
20
753.71
0
VERTEX
8
1
10
924.00
20
753.71
0
VERTEX
8
1
10
924.00
20
745.51
0
VERTEX
8
1
10
928.00
20
745.51
0
VERTEX
8
1
10
928.00
20
737.31
0
VERTEX
8
1
10
924.00
20
737.31
0
VERTEX
8
1
10
924.00
20
729.12
0
VERTEX
8
1
10
928.00
20
729.12
0
VERTEX
8
1
10
928.00
20
720.92
0
VERTEX
8
1
10
924.00
20
720.92
0
VERTEX
8
1
10
924.00
20
712.72
0
VERTEX
8
1
10
928.00
20
712.72
0
VERTEX
8
1
10
928.00
20
704.52
0
VERTEX
8
1
10
924.00
20
704.52
0
VERTEX
8
1
10
924.00
20
696.33
0
VERTEX
8
1
10
928.00
20
696.33
0
VERTEX
8
1
10
928.00
20
688.13
0
VERTEX
8
1
10
924.00
20
688.13
0
VERTEX
8
1
10
924.00
20
679.93
0
VERTEX
8
1
10
928.00
20
679.93
0
VERTEX
8
1
10
928.00
20
671.74
0
VERTEX
8
1
10
924.00
20
671.74
0
VERTEX
8
1
10
924.00
20
663.54
0
VERTEX
8
1
10
928.00
20
663.54
0
VERTEX
8
1
10
928.00
20
655.34
0
VERTEX
8
1
10
924.00
20
655.34
0
VERTEX
8
1
10
924.00
20
647.15
0
VERTEX
8
1
10
928.00
20
647.15
0
VERTEX
8
1
10
928.00
20
638.95
0
VERTEX
8
1
10
924.00
20
638.95
0
VERTEX
8
1
10
924.00
20
630.75
0
VERTEX
8
1
10
928.00
20
630.75
0
VERTEX
8
1
10
928.00
20
622.56
0
VERTEX
8
1
10
924.00
20
622.56
0
VERTEX
8
1
10
924.00
20
614.36
0
VERTEX
8
1
10
928.00
20
614.36
0
VERTEX
8
1
10
928.00
20
606.16
0
VERTEX
8
1
10
924.00
20
606.16
0
VERTEX
8
1
10
924.00
20
597.97
0
VERTEX
8
1
10
928.00
20
597.97
0
VERTEX
8
1
10
928.00
20
589.77
0
VERTEX
8
1
10
924.00
20
589.77
0
VERTEX
8
1
10
924.00
20
581.57
0
VERTEX
8
1
10
928.00
20
581.57
0
VERTEX
8
1
10
928.00
20
573.38
0
VERTEX
8
1
10
924.00
20
573.38
0
VERTEX
8
1
10
924.00
20
565.18
0
VERTEX
8
1
10
928.00
20
565.18
0
VERTEX
8
1
10
928.00
20
556.98
0
VERTEX
8
1
10
924.00
20
556.98
0
VERTEX
8
1
10
924.00
20
548.79
0
VERTEX
8
1
10
928.00
20
548.79
0
VERTEX
8
1
10
928.00
20
540.59
0
VERTEX
8
1
10
924.00
20
540.59
0
VERTEX
8
1
10
924.00
20
532.39
0
VERTEX
8
1
10
928.00
20
532.39
0
VERTEX
8
1
10
928.00
20
524.20
0
VERTEX
8
1
10
924.00
20
524.20
0
VERTEX
8
1
10
924.00
20
516.00
0
VERTEX
8
1
10
932.33
20
516.00
0
VERTEX
8
1
10
932.33
20
512.00
0
VERTEX
8
1
10
940.66
20
512.00
0
VERTEX
8
1
10
940.66
20
516.00
0
VERTEX
8
1
10
948.98
20
516.00
0
VERTEX
8
1
10
948.98
20
512.00
0
VERTEX
8
1
10
957.31
20
512.00
0
VERTEX
8
1
10
957.31
20
516.00
0
VERTEX
8
1
10
965.64
20
516.00
0
VERTEX
8
1
10
965.64
20
512.00
0
VERTEX
8
1
10
973.97
20
512.00
0
VERTEX
8
1
10
973.97
20
516.00
0
VERTEX
8
1
10
982.29
20
516.00
0
VERTEX
8
1
10
982.29
20
512.00
0
VERTEX
8
1
10
990.62
20
512.00
0
VERTEX
8
1
10
990.62
20
516.00
0
VERTEX
8
1
10
998.95
20
516.00
0
VERTEX
8
1
10
998.95
20
512.00
0
VERTEX
8
1
10
1007.28
20
512.00
0
VERTEX
8
1
10
1007.28
20
516.00
0
VERTEX
8
1
10
1015.61
20
516.00
0
VERTEX
8
1
10
1015.61
20
512.00
0
VERTEX
8
1
10
1023.93
20
512.00
0
VERTEX
8
1
10
1023.93
20
516.00
0
VERTEX
8
1
10
1032.26
20
516.00
0
VERTEX
8
1
10
1032.26
20
512.00
0
VERTEX
8
1
10
1040.59
20
512.00
0
VERTEX
8
1
10
1040.59
20
516.00
0
VERTEX
8
1
10
1048.92
20
516.00
0
VERTEX
8
1
10
1048.92
20
512.00
0
VERTEX
8
1
10
1057.25
20
512.00
0
VERTEX
8
1
10
1057.25
20
516.00
0
VERTEX
8
1
10
1065.57
20
516.00
0
VERTEX
8
1
10
1065.57
20
512.00
0
VERTEX
8
1
10
1073.90
20
512.00
0
VERTEX
8
1
10
1073.90
20
516.00
0
VERTEX
8
1
10
1082.23
20
516.00
0
VERTEX
8
1
10
1082.23
20
512.00
0
VERTEX
8
1
10
1090.56
20
512.00
0
VERTEX
8
1
10
1090.56
20
516.00
0
VERTEX
8
1
10
1098.88
20
516.00
0
VERTEX
8
1
10
1098.88
20
512.00
0
VERTEX
8
1
10
1107.21
20
512.00
0
VERTEX
8
1
10
1107.21
20
516.00
0
VERTEX
8
1
10
1115.54
20
516.00
0
VERTEX
8
1
10
1115.54
20
512.00
0
VERTEX
8
1
10
1123.87
20
512.00
0
VERTEX
8
1
10
1123.87
20
516.00
0
VERTEX
8
1
10
1132.20
20
516.00
0
VERTEX
8
1
10
1132.20
20
512.00
0
VERTEX
8
1
10
1140.53
20
512.00
0
VERTEX
8
1
10
1140.53
20
516.00
0
VERTEX
8
1
10
1148.85
20
516.00
0
VERTEX
8
1
10
1148.85
20
512.00
0
VERTEX
8
1
10
1157.18
20
512.00
0
VERTEX
8
1
10
1157.18
20
516.00
0
VERTEX
8
1
10
1165.51
20
516.00
0
VERTEX
8
1
10
1165.51
20
512.00
0
VERTEX
8
1
10
1173.84
20
512.00
0
VERTEX
8
1
10
1173.84
20
516.00
0
VERTEX
8
1
10
1182.16
20
516.00
0
VERTEX
8
1
10
1182.16
20
512.00
0
VERTEX
8
1
10
1190.49
20
512.00
0
VERTEX
8
1
10
1190.49
20
516.00
0
VERTEX
8
1
10
1198.82
20
516.00
0
VERTEX
8
1
10
1198.82
20
512.00
0
VERTEX
8
1
10
1207.15
20
512.00
0
VERTEX
8
1
10
1207.15
20
516.00
0
VERTEX
8
1
10
1215.47
20
516.00
0
VERTEX
8
1
10
1215.47
20
512.00
0
VERTEX
8
1
10
1223.80
20
512.00
0
VERTEX
8
1
10
1223.80
20
516.00
0
VERTEX
8
1
10
1232.13
20
516.00
0
VERTEX
8
1
10
1232.13
20
512.00
0
VERTEX
8
1
10
1240.46
20
512.00
0
VERTEX
8
1
10
1240.46
20
516.00
0
VERTEX
8
1
10
1248.79
20
516.00
0
VERTEX
8
1
10
1248.79
20
512.00
0
VERTEX
8
1
10
1257.12
20
512.00
0
VERTEX
8
1
10
1257.12
20
516.00
0
VERTEX
8
1
10
1265.44
20
516.00
0
VERTEX
8
1
10
1265.44
20
512.00
0
VERTEX
8
1
10
1273.77
20
512.00
0
VERTEX
8
1
10
1273.77
20
516.00
0
VERTEX
8
1
10
1282.10
20
516.00
0
VERTEX
8
1
10
1282.10
20
512.00
0
VERTEX
8
1
10
1290.43
20
512.00
0
VERTEX
8
1
10
1290.43
20
516.00
0
VERTEX
8
1
10
1298.75
20
516.00
0
VERTEX
8
1
10
1298.75
20
512.00
0
VERTEX
8
1
10
1307.08
20
512.00
0
VERTEX
8
1
10
1307.08
20
516.00
0
VERTEX
8
1
10
1315.41
20
516.00
0
VERTEX
8
1
10
1315.41
20
512.00
0
VERTEX
8
1
10
1323.74
20
512.00
0
VERTEX
8
1
10
1323.74
20
516.00
0
VERTEX
8
1
10
1332.07
20
516.00
0
VERTEX
8
1
10
1332.07
20
512.00
0
VERTEX
8
1
10
1340.39
20
512.00
0
VERTEX
8
1
10
1340.39
20
516.00
0
VERTEX
8
1
10
1348.72
20
516.00
0
VERTEX
8
1
10
1348.72
20
512.00
0
VERTEX
8
1
10
1357.05
20
512.00
0
VERTEX
8
1
10
1357.05
20
516.00
0
VERTEX
8
1
10
1365.38
20
516.00
0
VERTEX
8
1
10
1365.38
20
512.00
0
VERTEX
8
1
10
1373.70
20
512.00
0
VERTEX
8
1
10
1373.70
20
516.00
0
VERTEX
8
1
10
1382.03
20
516.00
0
VERTEX
8
1
10
1382.03
20
512.00
0
VERTEX
8
1
10
1390.36
20
512.00
0
VERTEX
8
1
10
1390.36
20
516.00
0
VERTEX
8
1
10
1398.69
20
516.00
0
VERTEX
8
1
10
1398.69
20
512.00
0
VERTEX
8
1
10
1407.02
20
512.00
0
VERTEX
8
1
10
1407.02
20
516.00
0
VERTEX
8
1
10
1415.34
20
516.00
0
VERTEX
8
1
10
1415.34
20
512.00
0
VERTEX
8
1
10
1423.67
20
512.00
0
VERTEX
8
1
10
1423.67
20
516.00
0
VERTEX
8
1
10
1432.00
20
516.00
0
SEQEND
0
POLYLINE
8
1
66
1
70
0
0
VERTEX
8
1
10
516.00
20
1540.00
0
VERTEX
8
1
10
524.16
20
1540.00
0
VERTEX
8
1
10
524.16
20
1536.00
0
VERTEX
8
1
10
532.33
20
1536.00
0
VERTEX
8
1
10
532.33
20
1540.00
0
VERTEX
8
1
10
540.49
20
1540.00
0
VERTEX
8
1
10
540.49
20
1536.00
0
VERTEX
8
1
10
548.65
20
1536.00
0
VERTEX
8
1
10
548.65
20
1540.00
0
VERTEX
8
1
10
556.82
20
1540.00
0
VERTEX
8
1
10
556.82
20
1536.00
0
VERTEX
8
1
10
564.98
20
1536.00
0
VERTEX
8
1
10
564.98
20
1540.00
0
VERTEX
8
1
10
573.14
20
1540.00
0
VERTEX
8
1
10
573.14
20
1536.00
0
VERTEX
8
1
10
581.31
20
1536.00
0
VERTEX
8
1
10
581.31
20
1540.00
0
VERTEX
8
1
10
589.47
20
1540.00
0
VERTEX
8
1
10
589.47
20
1536.00
0
VERTEX
8
1
10
597.63
20
1536.00
0
VERTEX
8
1
10
597.63
20
1540.00
0
VERTEX
8
1
10
605.80
20
1540.00
0
VERTEX
8
1
10
605.80
20
1536.00
0
VERTEX
8
1
10
613.96
20
1536.00
0
VERTEX
8
1
10
613.96
20
1540.00
0
VERTEX
8
1
10
622.12
20
1540.00
0
VERTEX
8
1
10
622.12
20
1536.00
0
VERTEX
8
1
10
630.29
20
1536.00
0
VERTEX
8
1
10
630.29
20
1540.00
0
VERTEX
8
1
10
638.45
20
1540.00
0
VERTEX
8
1
10
638.45
20
1536.00
0
VERTEX
8
1
10
646.61
20
1536.00
0
VERTEX
8
1
10
646.61
20
1540.00
0
VERTEX
8
1
10
654.78
20
1540.00
0
VERTEX
8
1
10
654.78
20
1536.00
0
VERTEX
8
1
10
662.94
20
1536.00
0
VERTEX
8
1
10
662.94
20
1540.00
0
VERTEX
8
1
10
671.10
20
1540.00
0
VERTEX
8
1
10
671.10
20
1536.00
0
VERTEX
8
1
10
679.26
20
1536.00
0
VERTEX
8
1
10
679.26
20
1540.00
0
VERTEX
8
1
10
687.43
20
1540.00
0
VERTEX
8
1
10
687.43
20
1536.00
0
VERTEX
8
1
10
695.59
20
1536.00
0
VERTEX
8
1
10
695.59
20
1540.00
0
VERTEX
8
1
10
703.75
20
1540.00
0
VERTEX
8
1
10
703.75
20
1536.00
0
VERTEX
8
1
10
711.92
20
1536.00
0
VERTEX
8
1
10
711.92
20
1540.00
0
VERTEX
8
1
10
720.08
20
1540.00
0
VERTEX
8
1
10
720.08
20
1536.00
0
VERTEX
8
1
10
728.25
20
1536.00
0
VERTEX
8
1
10
728.25
20
1540.00
0
VERTEX
8
1
10
736.41
20
1540.00
0
VERTEX
8
1
10
736.41
20
1536.00
0
VERTEX
8
1
10
744.57
20
1536.00
0
VERTEX
8
1
10
744.57
20
1540.00
0
VERTEX
8
1
10
752.74
20
1540.00
0
VERTEX
8
1
10
752.74
20
1536.00
0
VERTEX
8
1
10
760.90
20
1536.00
0
VERTEX
8
1
10
760.90
20
1540.00
0
VERTEX
8
1
10
769.06
20
1540.00
0
VERTEX
8
1
10
769.06
20
1536.00
0
VERTEX
8
1
10
777.22
20
1536.00
0
VERTEX
8
1
10
777.22
20
1540.00
0
VERTEX
8
1
10
785.39
20
1540.00
0
VERTEX
8
1
10
785.39
20
1536.00
0
VERTEX
8
1
10
793.55
20
1536.00
0
VERTEX
8
1
10
793.55
20
1540.00
0
VERTEX
8
1
10
801.71
20
1540.00
0
VERTEX
8
1
10
801.71
20
1536.00
0
VERTEX
8
1
10
809.88
20
1536.00
0
VERTEX
8
1
10
809.88
20
1540.00
0
VERTEX
8
1
10
818.04
20
1540.00
0
VERTEX
8
1
10
818.04
20
1536.00
0
VERTEX
8
1
10
826.20
20
1536.00
0
VERTEX
8
1
10
826.20
20
1540.00
0
VERTEX
8
1
10
834.37
20
1540.00
0
VERTEX
8
1
10
834.37
20
1536.00
0
VERTEX
8
1
10
842.53
20
1536.00
0
VERTEX
8
1
10
842.53
20
1540.00
0
VERTEX
8
1
10
850.69
20
1540.00
0
VERTEX
8
1
10
850.69
20
1536.00
0
VERTEX
8
1
10
858.86
20
1536.00
0
VERTEX
8
1
10
858.86
20
1540.00
0
VERTEX
8
1
10
867.02
20
1540.00
0
VERTEX
8
1
10
867.02
20
1536.00
0
VERTEX
8
1
10
875.18
20
1536.00
0
VERTEX
8
1
10
875.18
20
1540.00
0
VERTEX
8
1
10
883.35
20
1540.00
0
VERTEX
8
1
10
883.35
20
1536.00
0
VERTEX
8
1
10
891.51
20
1536.00
0
VERTEX
8
1
10
891.51
20
1540.00
0
VERTEX
8
1
10
899.67
20
1540.00
0
VERTEX
8
1
10
899.67
20
1536.00
0
VERTEX
8
1
10
907.84
20
1536.00
0
VERTEX
8
1
10
907.84
20
1540.00
0
VERTEX
8
1
10
916.00
20
1540.00
0
VERTEX
8
1
10
916.00
20
1548.20
0
VERTEX
8
1
10
920.00
20
1548.20
0
VERTEX
8
1
10
920.00
20
1556.39
0
VERTEX
8
1
10
916.00
20
1556.39
0
VERTEX
8
1
10
916.00
20
1564.59
0
VERTEX
8
1
10
920.00
20
1564.59
0
VERTEX
8
1
10
920.00
20
1572.79
0
VERTEX
8
1
10
916.00
20
1572.79
0
VERTEX
8
1
10
916.00
20
1580.98
0
VERTEX
8
1
10
920.00
20
1580.98
0
VERTEX
8
1
10
920.00
20
1589.18
0
VERTEX
8
1
10
916.00
20
1589.18
0
VERTEX
8
1
10
916.00
20
1597.38
0
VERTEX
8
1
10
920.00
20
1597.38
0
VERTEX
8
1
10
920.00
20
1605.57
0
VERTEX
8
1
10
916.00
20
1605.57
0
VERTEX
8
1
10
916.00
20
1613.77
0
VERTEX
8
1
10
920.00
20
1613.77
0
VERTEX
8
1
10
920.00
20
1621.97
0
VERTEX
8
1
10
916.00
20
1621.97
0
VERTEX
8
1
10
916.00
20
1630.16
0
VERTEX
8
1
10
920.00
20
1630.16
0
VERTEX
8
1
10
920.00
20
1638.36
0
VERTEX
8
1
10
916.00
20
1638.36
0
VERTEX
8
1
10
916.00
20
1646.56
0
VERTEX
8
1
10
920.00
20
1646.56
0
VERTEX
8
1
10
920.00
20
1654.75
0
VERTEX
8
1
10
916.00
20
1654.75
0
VERTEX
8
1
10
916.00
20
1662.95
0
VERTEX
8
1
10
920.00
20
1662.95
0
VERTEX
8
1
10
920.00
20
1671.15
0
VERTEX
8
1
10
916.00
20
1671.15
0
VERTEX
8
1
10
916.00
20
1679.34
0
VERTEX
8
1
10
920.00
20
1679.34
0
VERTEX
8
1
10
920.00
20
1687.54
0
VERTEX
8
1
10
916.00
20
1687.54
0
VERTEX
8
1
10
916.00
20
1695.74
0
VERTEX
8
1
10
920.00
20
1695.74
0
VERTEX
8
1
10
920.00
20
1703.93
0
VERTEX
8
1
10
916.00
20
1703.93
0
VERTEX
8
1
10
916.00
20
1712.13
0
VERTEX
8
1
10
920.00
20
1712.13
0
VERTEX
8
1
10
920.00
20
1720.33
0
VERTEX
8
1
10
916.00
20
1720.33
0
VERTEX
8
1
10
916.00
20
1728.53
0
VERTEX
8
1
10
920.00
20
1728.53
0
VERTEX
8
1
10
920.00
20
1736.72
0
VERTEX
8
1
10
916.00
20
1736.72
0
VERTEX
8
1
10
916.00
20
1744.92
0
VERTEX
8
1
10
920.00
20
1744.92
0
VERTEX
8
1
10
920.00
20
1753.12
0
VERTEX
8
1
10
916.00
20
1753.12
0
VERTEX
8
1
10
916.00
20
1761.31
0
VERTEX
8
1
10
920.00
20
1761.31
0
VERTEX
8
1
10
920.00
20
1769.51
0
VERTEX
8
1
10
916.00
20
1769.51
0
VERTEX
8
1
10
916.00
20
1777.70
0
VERTEX
8
1
10
920.00
20
1777.70
0
VERTEX
8
1
10
920.00
20
1785.90
0
VERTEX
8
1
10
916.00
20
1785.90
0
VERTEX
8
1
10
916.00
20
1794.10
0
VERTEX
8
1
10
920.00
20
1794.10
0
VERTEX
8
1
10
920.00
20
1802.30
0
VERTEX
8
1
10
916.00
20
1802.30
0
VERTEX
8
1
10
916.00
20
1810.49
0
VERTEX
8
1
10
920.00
20
1810.49
0
VERTEX
8
1
10
920.00
20
1818.69
0
VERTEX
8
1
10
916.00
20
1818.69
0
VERTEX
8
1
10
916.00
20
1826.88
0
VERTEX
8
1
10
920.00
20
1826.88
0
VERTEX
8
1
10
920.00
20
1835.08
0
VERTEX
8
1
10
916.00
20
1835.08
0
VERTEX
8
1
10
916.00
20
1843.28
0
VERTEX
8
1
10
920.00
20
1843.28
0
VERTEX
8
1
10
920.00
20
1851.47
0
VERTEX
8
1
10
916.00
20
1851.47
0
VERTEX
8
1
10
916.00
20
1859.67
0
VERTEX
8
1
10
920.00
20
1859.67
0
VERTEX
8
1
10
920.00
20
1867.87
0
VERTEX
8
1
10
916.00
20
1867.87
0
VERTEX
8
1
10
916.00
20
1876.07
0
VERTEX
8
1
10
920.00
20
1876.07
0
VERTEX
8
1
10
920.00
20
1884.26
0
VERTEX
8
1
10
916.00
20
1884.26
0
VERTEX
8
1
10
916.00
20
1892.46
0
VERTEX
8
1
10
920.00
20
1892.46
0
VERTEX
8
1
10
920.00
20
1900.66
0
VERTEX
8
1
10
916.00
20
1900.66
0
VERTEX
8
1
10
916.00
20
1908.85
0
VERTEX
8
1
10
920.00
20
1908.85
0
VERTEX
8
1
10
920.00
20
1917.05
0
VERTEX
8
1
10
916.00
20
1917.05
0
VERTEX
8
1
10
916.00
20
1925.25
0
VERTEX
8
1
10
920.00
20
1925.25
0
VERTEX
8
1
10
920.00
20
1933.44
0
VERTEX
8
1
10
916.00
20
1933.44
0
VERTEX
8
1
10
916.00
20
1941.64
0
VERTEX
8
1
10
920.00
20
1941.64
0
VERTEX
8
1
10
920.00
20
1949.84
0
VERTEX
8
1
10
916.00
20
1949.84
0
VERTEX
8
1
10
916.00
20
1958.03
0
VERTEX
8
1
10
920.00
20
1958.03
0
VERTEX
8
1
10
920.00
20
1966.23
0
VERTEX
8
1
10
916.00
20
1966.23
0
VERTEX
8
1
10
916.00
20
1974.43
0
VERTEX
8
1
10
920.00
20
1974.43
0
VERTEX
8
1
10
920.00
20
1982.62
0
VERTEX
8
1
10
916.00
20
1982.62
0
VERTEX
8
1
10
916.00
20
1990.82
0
VERTEX
8
1
10
920.00
20
1990.82
0
VERTEX
8
1
10
920.00
20
1999.02
0
VERTEX
8
1
10
916.00
20
1999.02
0
VERTEX
8
1
10
916.00
20
2007.21
0
VERTEX
8
1
10
920.00
20
2007.21
0
VERTEX
8
1
10
920.00
20
2015.41
0
VERTEX
8
1
10
916.00
20
2015.41
0
VERTEX
8
1
10
916.00
20
2023.61
0
VERTEX
8
1
10
920.00
20
2023.61
0
VERTEX
8
1
10
920.00
20
2031.80
0
VERTEX
8
1
10
916.00
20
2031.80
0
VERTEX
8
1
10
916.00
20
2040.00
0
VERTEX
8
1
10
907.84
20
2040.00
0
VERTEX
8
1
10
907.84
20
2044.00
0
VERTEX
8
1
10
899.67
20
2044.00
0
VERTEX
8
1
10
899.67
20
2040.00
0
VERTEX
8
1
10
891.51
20
2040.00
0
VERTEX
8
1
10
891.51
20
2044.00
0
VERTEX
8
1
10
883.35
20
2044.00
0
VERTEX
8
1
10
883.35
20
2040.00
0
VERTEX
8
1
10
875.18
20
2040.00
0
VERTEX
8
1
10
875.18
20
2044.00
0
VERTEX
8
1
10
867.02
20
2044.00
0
VERTEX
8
1
10
867.02
20
2040.00
0
VERTEX
8
1
10
858.86
20
2040.00
0
VERTEX
8
1
10
858.86
20
2044.00
0
VERTEX
8
1
10
850.69
20
2044.00
0
VERTEX
8
1
10
850.69
20
2040.00
0
VERTEX
8
1
10
842.53
20
2040.00
0
VERTEX
8
1
10
842.53
20
2044.00
0
VERTEX
8
1
10
834.37
20
2044.00
0
VERTEX
8
1
10
834.37
20
2040.00
0
VERTEX
8
1
10
826.20
20
2040.00
0
VERTEX
8
1
10
826.20
20
2044.00
0
VERTEX
8
1
10
818.04
20
2044.00
0
VERTEX
8
1
10
818.04
20
2040.00
0
VERTEX
8
1
10
809.88
20
2040.00
0
VERTEX
8
1
10
809.88
20
2044.00
0
VERTEX
8
1
10
801.71
20
2044.00
0
VERTEX
8
1
10
801.71
20
2040.00
0
VERTEX
8
1
10
793.55
20
2040.00
0
VERTEX
8
1
10
793.55
20
2044.00
0
VERTEX
8
1
10
785.39
20
2044.00
0
VERTEX
8
1
10
785.39
20
2040.00
0
VERTEX
8
1
10
777.22
20
2040.00
0
VERTEX
8
1
10
777.22
20
2044.00
0
VERTEX
8
1
10
769.06
20
2044.00
0
VERTEX
8
1
10
769.06
20
2040.00
0
VERTEX
8
1
10
760.90
20
2040.00
0
VERTEX
8
1
10
760.90
20
2044.00
0
VERTEX
8
1
10
752.74
20
2044.00
0
VERTEX
8
1
10
752.74
20
2040.00
0
VERTEX
8
1
10
744.57
20
2040.00
0
VERTEX
8
1
10
744.57
20
2044.00
0
VERTEX
8
1
10
736.41
20
2044.00
0
VERTEX
8
1
10
736.41
20
2040.00
0
VERTEX
8
1
10
728.25
20
2040.00
0
VERTEX
8
1
10
728.25
20
2044.00
0
VERTEX
8
1
10
720.08
20
2044.00
0
VERTEX
8
1
10
720.08
20
2040.00
0
VERTEX
8
1
10
711.92
20
2040.00
0
VERTEX
8
1
10
711.92
20
2044.00
0
VERTEX
8
1
10
703.75
20
2044.00
0
VERTEX
8
1
10
703.75
20
2040.00
0
VERTEX
8
1
10
695.59
20
2040.00
0
VERTEX
8
1
10
695.59
20
2044.00
0
VERTEX
8
1
10
687.43
20
2044.00
0
VERTEX
8
1
10
687.43
20
2040.00
0
VERTEX
8
1
10
679.26
20
2040.00
0
VERTEX
8
1
10
679.26
20
2044.00
0
VERTEX
8
1
10
671.10
20
2044.00
0
VERTEX
8
1
10
671.10
20
2040.00
0
VERTEX
8
1
10
662.94
20
2040.00
0
VERTEX
8
1
10
662.94
20
2044.00
0
VERTEX
8
1
10
654.78
20
2044.00
0
VERTEX
8
1
10
654.78
20
2040.00
0
VERTEX
8
1
10
646.61
20
2040.00
0
VERTEX
8
1
10
646.61
20
2044.00
0
VERTEX
8
1
10
638.45
20
2044.00
0
VERTEX
8
1
10
638.45
20
2040.00
0
VERTEX
8
1
10
630.29
20
2040.00
0
VERTEX
8
1
10
630.29
20
2044.00
0
VERTEX
8
1
10
622.12
20
2044.00
0
VERTEX
8
1
10
622.12
20
2040.00
0
VERTEX
8
1
10
613.96
20
2040.00
0
VERTEX
8
1
10
613.96
20
2044.00
0
VERTEX
8
1
10
605.80
20
2044.00
0
VERTEX
8
1
10
605.80
20
2040.00
0
VERTEX
8
1
10
597.63
20
2040.00
0
VERTEX
8
1
10
597.63
20
2044.00
0
VERTEX
8
1
10
589.47
20
2044.00
0
VERTEX
8
1
10
589.47
20
2040.00
0
VERTEX
8
1
10
581.31
20
2040.00
0
VERTEX
8
1
10
581.31
20
2044.00
0
VERTEX
8
1
10
573.14
20
2044.00
0
VERTEX
8
1
10
573.14
20
2040.00
0
VERTEX
8
1
10
564.98
20
2040.00
0
VERTEX
8
1
10
564.98
20
2044.00
0
VERTEX
8
1
10
556.82
20
2044.00
0
VERTEX
8
1
10
556.82
20
2040.00
0
VERTEX
8
1
10
548.65
20
2040.00
0
VERTEX
8
1
10
548.65
20
2044.00
0
VERTEX
8
1
10
540.49
20
2044.00
0
VERTEX
8
1
10
540.49
20
2040.00
0
VERTEX
8
1
10
532.33
20
2040.00
0
VERTEX
8
1
10
532.33
20
2044.00
0
VERTEX
8
1
10
524.16
20
2044.00
0
VERTEX
8
1
10
524.16
20
2040.00
0
VERTEX
8
1
10
516.00
20
2040.00
0
VERTEX
8
1
10
516.00
20
2031.80
0
VERTEX
8
1
10
512.00
20
2031.80
0
VERTEX
8
1
10
512.00
20
2023.61
0
VERTEX
8
1
10
516.00
20
2023.61
0
VERTEX
8
1
10
516.00
20
2015.41
0
VERTEX
8
1
10
512.00
20
2015.41
0
VERTEX
8
1
10
512.00
20
2007.21
0
VERTEX
8
1
10
516.00
20
2007.21
0
VERTEX
8
1
10
516.00
20
1999.02
0
VERTEX
8
1
10
512.00
20
1999.02
0
VERTEX
8
1
10
512.00
20
1990.82
0
VERTEX
8
1
10
516.00
20
1990.82
0
VERTEX
8
1
10
516.00
20
1982.62
0
VERTEX
8
1
10
512.00
20
1982.62
0
VERTEX
8
1
10
512.00
20
1974.43
0
VERTEX
8
1
10
516.00
20
1974.43
0
VERTEX
8
1
10
516.00
20
1966.23
0
VERTEX
8
1
10
512.00
20
1966.23
0
VERTEX
8
1
10
512.00
20
1958.03
0
VERTEX
8
1
10
516.00
20
1958.03
0
VERTEX
8
1
10
516.00
20
1949.84
0
VERTEX
8
1
10
512.00
20
1949.84
0
VERTEX
8
1
10
512.00
20
1941.64
0
VERTEX
8
1
10
516.00
20
1941.64
0
VERTEX
8
1
10
516.00
20
1933.44
0
VERTEX
8
1
10
512.00
20
1933.44
0
VERTEX
8
1
10
512.00
20
1925.25
0
VERTEX
8
1
10
516.00
20
1925.25
0
VERTEX
8
1
10
516.00
20
1917.05
0
VERTEX
8
1
10
512.00
20
1917.05
0
VERTEX
8
1
10
512.00
20
1908.85
0
VERTEX
8
1
10
516.00
20
1908.85
0
VERTEX
8
1
10
516.00
20
1900.66
0
VERTEX
8
1
10
512.00
20
1900.66
0
VERTEX
8
1
10
512.00
20
1892.46
0
VERTEX
8
1
10
516.00
20
1892.46
0
VERTEX
8
1
10
516.00
20
1884.26
0
VERTEX
8
1
10
512.00
20
1884.26
0
VERTEX
8
1
10
512.00
20
1876.07
0
VERTEX
8
1
10
516.00
20
1876.07
0
VERTEX
8
1
10
516.00
20
1867.87
0
VERTEX
8
1
10
512.00
20
1867.87
0
VERTEX
8
1
10
512.00
20
1859.67
0
VERTEX
8
1
10
516.00
20
1859.67
0
VERTEX
8
1
10
516.00
20
1851.47
0
VERTEX
8
1
10
512.00
20
1851.47
0
VERTEX
8
1
10
512.00
20
1843.28
0
VERTEX
8
1
10
516.00
20
1843.28
0
VERTEX
8
1
10
516.00
20
1835.08
0
VERTEX
8
1
10
512.00
20
1835.08
0
VERTEX
8
1
10
512.00
20
1826.88
0
VERTEX
8
1
10
516.00
20
1826.88
0
VERTEX
8
1
10
516.00
20
1818.69
0
VERTEX
8
1
10
512.00
20
1818.69
0
VERTEX
8
1
10
512.00
20
1810.49
0
VERTEX
8
1
10
516.00
20
1810.49
0
VERTEX
8
1
10
516.00
20
1802.30
0
VERTEX
8
1
10
512.00
20
1802.30
0
VERTEX
8
1
10
512.00
20
1794.10
0
VERTEX
8
1
10
516.00
20
1794.10
0
VERTEX
8
1
10
516.00
20
1785.90
0
VERTEX
8
1
10
512.00
20
1785.90
0
VERTEX
8
1
10
512.00
20
1777.70
0
VERTEX
8
1
10
516.00
20
1777.70
0
VERTEX
8
1
10
516.00
20
1769.51
0
VERTEX
8
1
10
512.00
20
1769.51
0
VERTEX
8
1
10
512.00
20
1761.31
0
VERTEX
8
1
10
516.00
20
1761.31
0
VERTEX
8
1
10
516.00
20
1753.12
0
VERTEX
8
1
10
512.00
20
1753.12
0
VERTEX
8
1
10
512.00
20
1744.92
0
VERTEX
8
1
10
516.00
20
1744.92
0
VERTEX
8
1
10
516.00
20
1736.72
0
VERTEX
8
1
10
512.00
20
1736.72
0
VERTEX
8
1
10
512.00
20
1728.53
0
VERTEX
8
1
10
516.00
20
1728.53
0
VERTEX
8
1
10
516.00
20
1720.33
0
VERTEX
8
1
10
512.00
20
1720.33
0
VERTEX
8
1
10
512.00
20
1712.13
0
VERTEX
8
1
10
516.00
20
1712.13
0
VERTEX
8
1
10
516.00
20
1703.93
0
VERTEX
8
1
10
512.00
20
1703.93
0
VERTEX
8
1
10
512.00
20
1695.74
0
VERTEX
8
1
10
516.00
20
1695.74
0
VERTEX
8
1
10
516.00
20
1687.54
0
VERTEX
8
1
10
512.00
20
1687.54
0
VERTEX
8
1
10
512.00
20
1679.34
0
VERTEX
8
1
10
516.00
20
1679.34
0
VERTEX
8
1
10
516.00
20
1671.15
0
VERTEX
8
1
10
512.00
20
1671.15
0
VERTEX
8
1
10
512.00
20
1662.95
0
VERTEX
8
1
10
516.00
20
1662.95
0
VERTEX
8
1
10
516.00
20
1654.75
0
VERTEX
8
1
10
512.00
20
1654.75
0
VERTEX
8
1
10
512.00
20
1646.56
0
VERTEX
8
1
10
516.00
20
1646.56
0
VERTEX
8
1
10
516.00
20
1638.36
0
VERTEX
8
1
10
512.00
20
1638.36
0
VERTEX
8
1
10
512.00
20
1630.16
0
VERTEX
8
1
10
516.00
20
1630.16
0
VERTEX
8
1
10
516.00
20
1621.97
0
VERTEX
8
1
10
512.00
20
1621.97
0
VERTEX
8
1
10
512.00
20
1613.77
0
VERTEX
8
1
10
516.00
20
1613.77
0
VERTEX
8
1
10
516.00
20
1605.57
0
VERTEX
8
1
10
512.00
20
1605.57
0
VERTEX
8
1
10
512.00
20
1597.38
0
VERTEX
8
1
10
516.00
20
1597.38
0
VERTEX
8
1
10
516.00
20
1589.18
0
VERTEX
8
1
10
512.00
20
1589.18
0
VERTEX
8
1
10
512.00
20
1580.98
0
VERTEX
8
1
10
516.00
20
1580.98
0
VERTEX
8
1
10
516.00
20
1572.79
0
VERTEX
8
1
10
512.00
20
1572.79
0
VERTEX
8
1
10
512.00
20
1564.59
0
VERTEX
8
1
10
516.00
20
1564.59
0
VERTEX
8
1
10
516.00
20
1556.39
0
VERTEX
8
1
10
512.00
20
1556.39
0
VERTEX
8
1
10
512.00
20
1548.20
0
VERTEX
8
1
10
516.00
20
1548.20
0
VERTEX
8
1
10
516.00
20
1540.00
0
SEQEND
0
ENDSEC
0
EOF
