0
SECTION
2
HEADER
9
$INSUNITS
70
4
9
$ACADVER
1
AC1014
9
$HANDSEED
5
FFFF
0
ENDSEC
0
SECTION
2
TABLES
0
TABLE
2
VPORT
5
8
100
AcDbSymbolTable
0
ENDTAB
0
TABLE
2
LTYPE
5
5
100
AcDbSymbolTable
0
LTYPE
5
14
100
AcDbSymbolTableRecord
100
AcDbLinetypeTableRecord
2
BYBLOCK
70
0
0
LTYPE
5
15
100
AcDbSymbolTableRecord
100
AcDbLinetypeTableRecord
2
BYLAYER
70
0
0
ENDTAB
0
TABLE
2
LAYER
5
2
100
AcDbSymbolTable
70
2
0
LAYER
5
50
100
AcDbSymbolTableRecord
100
AcDbLayerTableRecord
2
0
70
0
6
CONTINUOUS
0
ENDTAB
0
TABLE
2
STYLE
5
3
100
AcDbSymbolTable
70
1
0
STYLE
5
11
100
AcDbSymbolTableRecord
100
AcDbTextStyleTableRecord
2
STANDARD
70
0
0
ENDTAB
0
TABLE
2
VIEW
5
6
100
AcDbSymbolTable
70
0
0
ENDTAB
0
TABLE
2
UCS
5
7
100
AcDbSymbolTable
70
0
0
ENDTAB
0
TABLE
2
APPID
5
9
100
AcDbSymbolTable
70
2
0
APPID
5
12
100
AcDbSymbolTableRecord
100
AcDbRegAppTableRecord
2
ACAD
70
0
0
ENDTAB
0
TABLE
2
DIMSTYLE
5
A
100
AcDbSymbolTable
70
1
0
ENDTAB
0
TABLE
2
BLOCK_RECORD
5
1
100
AcDbSymbolTable
70
1
0
BLOCK_RECORD
5
1F
100
AcDbSymbolTableRecord
100
AcDbBlockTableRecord
2
*MODEL_SPACE
0
BLOCK_RECORD
5
1B
100
AcDbSymbolTableRecord
100
AcDbBlockTableRecord
2
*PAPER_SPACE
0
ENDTAB
0
ENDSEC
0
SECTION
2
BLOCKS
0
BLOCK
5
20
100
AcDbEntity
100
AcDbBlockBegin
2
*MODEL_SPACE
0
ENDBLK
5
21
100
AcDbEntity
100
AcDbBlockEnd
0
BLOCK
5
1C
100
AcDbEntity
100
AcDbBlockBegin
2
*PAPER_SPACE
0
ENDBLK
5
1D
100
AcDbEntity
100
AcDbBlockEnd
0
ENDSEC
0
SECTION
2
ENTITIES
0
LINE
5
100
100
AcDbEntity
8
0
100
AcDbLine
10
0
20
-315
30
0
11
388.5
21
-315
31
0
0
LINE
5
101
100
AcDbEntity
8
0
100
AcDbLine
10
300.00000000000006
20
-37.999999999999943
30
0
11
332.50000000000011
21
0
31
0
0
LINE
5
102
100
AcDbEntity
8
0
100
AcDbLine
10
88.500000000000014
20
-38
30
0
11
300.00000000000006
21
-37.999999999999943
31
0
0
LINE
5
103
100
AcDbEntity
8
0
100
AcDbLine
10
56.000000000000007
20
0
30
0
11
88.500000000000014
21
-38
31
0
0
CIRCLE
5
104
100
AcDbEntity
8
0
100
AcDbCircle
10
14.000000000000002
20
-263.5
30
0
40
2
210
0
220
-0
230
1
0
CIRCLE
5
105
100
AcDbEntity
8
0
100
AcDbCircle
10
14.000000000000002
20
-278
30
0
40
2
210
0
220
-0
230
1
0
CIRCLE
5
106
100
AcDbEntity
8
0
100
AcDbCircle
10
14.000000000000002
20
-319
30
0
40
4.5
210
0
220
-0
230
1
0
CIRCLE
5
107
100
AcDbEntity
8
0
100
AcDbCircle
10
374.5
20
-307
30
0
40
2
210
0
220
-0
230
1
0
CIRCLE
5
108
100
AcDbEntity
8
0
100
AcDbCircle
10
374.5
20
-319.00000000000006
30
0
40
4.5
210
0
220
-0
230
1
0
CIRCLE
5
109
100
AcDbEntity
8
0
100
AcDbCircle
10
374.5
20
-9
30
0
40
2
210
0
220
-0
230
1
0
CIRCLE
5
110
100
AcDbEntity
8
0
100
AcDbCircle
10
14.000000000000002
20
-34
30
0
40
2
210
0
220
-0
230
1
0
CIRCLE
5
111
100
AcDbEntity
8
0
100
AcDbCircle
10
14.000000000000002
20
-48.500000000000007
30
0
40
2
210
0
220
-0
230
1
0
CIRCLE
5
112
100
AcDbEntity
8
0
100
AcDbCircle
10
14.000000000000002
20
-9
30
0
40
2
210
0
220
-0
230
1
0
LINE
5
113
100
AcDbEntity
8
0
100
AcDbLine
10
0
20
-315
30
0
11
0
21
0
31
0
0
CIRCLE
5
114
100
AcDbEntity
8
0
100
AcDbCircle
10
14.000000000000002
20
-307
30
0
40
2
210
0
220
-0
230
1
0
LINE
5
115
100
AcDbEntity
8
0
100
AcDbLine
10
388.5
20
-315
30
0
11
388.5
21
0
31
0
0
LINE
5
116
100
AcDbEntity
8
0
100
AcDbLine
10
388.5
20
0
30
0
11
332.50000000000011
21
0
31
0
0
LINE
5
117
100
AcDbEntity
8
0
100
AcDbLine
10
56.000000000000007
20
0
30
0
11
0
21
0
31
0
0
LINE
5
118
100
AcDbEntity
8
0
100
AcDbLine
10
365.50000000000006
20
-315
30
0
11
365.50000000000006
21
0
31
0
0
LINE
5
119
100
AcDbEntity
8
0
100
AcDbLine
10
20.500000000000025
20
-315
30
0
11
20.499999999999893
21
-6.2519434074204128e-14
31
0
0
CIRCLE
5
120
100
AcDbEntity
8
0
100
AcDbCircle
10
27.000000000000025
20
-34
30
0
40
2
210
0
220
0
230
1
0
CIRCLE
5
121
100
AcDbEntity
8
0
100
AcDbCircle
10
27.000000000000011
20
-48.500000000000007
30
0
40
2
210
0
220
0
230
1
0
LINE
5
122
100
AcDbEntity
8
0
100
AcDbLine
10
27.000000000000025
20
-34
30
0
11
27.000000000000025
21
-278
31
0
0
CIRCLE
5
123
100
AcDbEntity
8
0
100
AcDbCircle
10
27.000000000000025
20
-278
30
0
40
2
210
0
220
0
230
1
0
CIRCLE
5
124
100
AcDbEntity
8
0
100
AcDbCircle
10
27.000000000000025
20
-263.5
30
0
40
2
210
0
220
0
230
1
0
LINE
5
125
100
AcDbEntity
8
0
100
AcDbLine
10
14.000000000000002
20
-278
30
0
11
27.000000000000025
21
-278
31
0
0
LINE
5
126
100
AcDbEntity
8
0
100
AcDbLine
10
14.000000000000002
20
-263.5
30
0
11
27.000000000000025
21
-263.5
31
0
0
LINE
5
127
100
AcDbEntity
8
0
100
AcDbLine
10
14.000000000000002
20
-48.500000000000007
30
0
11
27.000000000000011
21
-48.500000000000007
31
0
0
LINE
5
128
100
AcDbEntity
8
0
100
AcDbLine
10
14.000000000000002
20
-34
30
0
11
27.000000000000025
21
-34
31
0
0
LINE
5
129
100
AcDbEntity
8
0
100
AcDbLine
10
368.5
20
1.8369701987210036e-16
30
0
11
368.5
21
-42.5
31
0
0
LINE
5
130
100
AcDbEntity
8
0
100
AcDbLine
10
368.5
20
-42.5
30
0
11
377.50000000000006
21
-57.5
31
0
0
LINE
5
131
100
AcDbEntity
8
0
100
AcDbLine
10
377.50000000000006
20
-57.5
30
0
11
377.50000000000006
21
-257.5
31
0
0
LINE
5
132
100
AcDbEntity
8
0
100
AcDbLine
10
377.50000000000006
20
-257.5
30
0
11
368.5
21
-272.5
31
0
0
LINE
5
133
100
AcDbEntity
8
0
100
AcDbLine
10
368.5
20
-272.5
30
0
11
368.5
21
-315
31
0
0
LINE
5
134
100
AcDbEntity
8
0
100
AcDbLine
10
365.50000000000006
20
-157.5
30
0
11
377.50000000000006
21
-157.5
31
0
0
CIRCLE
5
135
100
AcDbEntity
8
0
100
AcDbCircle
10
371.50000000000006
20
-187.5
30
0
40
2.75
210
0
220
0
230
1
0
CIRCLE
5
136
100
AcDbEntity
8
0
100
AcDbCircle
10
371.50000000000006
20
-127.5
30
0
40
2.75
210
0
220
0
230
1
0
LINE
5
137
100
AcDbEntity
8
0
100
AcDbLine
10
371.50000000000006
20
-127.5
30
0
11
371.50000000000006
21
-187.5
31
0
0
LINE
5
138
100
AcDbEntity
8
0
100
AcDbLine
10
0
20
-354
30
0
11
1.6948183510607676e-31
21
-766
31
0
0
LINE
5
139
100
AcDbEntity
8
0
100
AcDbLine
10
1.6948183510607676e-31
20
-766
30
0
11
388.5
21
-766
31
0
0
LINE
5
140
100
AcDbEntity
8
0
100
AcDbLine
10
388.5
20
-766
30
0
11
388.5
21
-354
31
0
0
LINE
5
141
100
AcDbEntity
8
0
100
AcDbLine
10
0
20
-315
30
0
11
0
21
-354
31
0
0
LINE
5
142
100
AcDbEntity
8
0
100
AcDbLine
10
388.5
20
-315
30
0
11
388.5
21
-354
31
0
0
LWPOLYLINE
5
143
100
AcDbEntity
8
0
100
AcDbPolyline
90
8
70
1
43
0.0
10
31.750000000000043
20
-354
10
356.75
20
-354
42
-0.41421356237309503
10
366.75000000000011
20
-364.00000000000011
10
366.75000000000011
20
-684
42
-0.41421356237309503
10
356.75000000000011
20
-694
10
31.750000000000114
20
-694
42
-0.41421356237309503
10
21.750000000000114
20
-684
10
21.750000000000043
20
-364
42
-0.41421356237309503
0
CIRCLE
5
144
100
AcDbEntity
8
0
100
AcDbCircle
10
12.000000000000002
20
-346.29999999999995
30
0
40
2
210
0
220
-0
230
1
0
CIRCLE
5
145
100
AcDbEntity
8
0
100
AcDbCircle
10
376.5
20
-346.29999999999995
30
0
40
2
210
0
220
-0
230
1
0
LINE
5
146
100
AcDbEntity
8
0
100
AcDbLine
10
0
20
-354
30
0
11
388.5
21
-354
31
0
0
LINE
5
147
100
AcDbEntity
8
0
100
AcDbLine
10
14.000000000000002
20
-263.5
30
0
11
14.000000000000025
21
-659
31
0
0
LINE
5
148
100
AcDbEntity
8
0
100
AcDbLine
10
27.000000000000025
20
-278
30
0
11
26.999999999999986
21
-659
31
0
0
LINE
5
149
100
AcDbEntity
8
0
100
AcDbLine
10
14.000000000000025
20
-659
30
0
11
26.999999999999986
21
-659
31
0
0
CIRCLE
5
150
100
AcDbEntity
8
0
100
AcDbCircle
10
14.000000000000025
20
-659
30
0
40
2
210
0
220
0
230
1
0
CIRCLE
5
151
100
AcDbEntity
8
0
100
AcDbCircle
10
26.999999999999986
20
-659
30
0
40
2
210
0
220
0
230
1
0
CIRCLE
5
152
100
AcDbEntity
8
0
100
AcDbCircle
10
14.000000000000048
20
-644.5
30
0
40
2
210
0
220
0
230
1
0
CIRCLE
5
153
100
AcDbEntity
8
0
100
AcDbCircle
10
26.999999999999989
20
-644.5
30
0
40
2
210
0
220
0
230
1
0
CIRCLE
5
154
100
AcDbEntity
8
0
100
AcDbCircle
10
27.000000000000014
20
-389
30
0
40
2
210
0
220
0
230
1
0
CIRCLE
5
155
100
AcDbEntity
8
0
100
AcDbCircle
10
13.999999999999982
20
-389
30
0
40
2
210
0
220
0
230
1
0
CIRCLE
5
156
100
AcDbEntity
8
0
100
AcDbCircle
10
13.999999999999984
20
-403.49999999999994
30
0
40
2
210
0
220
0
230
1
0
CIRCLE
5
157
100
AcDbEntity
8
0
100
AcDbCircle
10
27.000000000000014
20
-403.49999999999994
30
0
40
2
210
0
220
0
230
1
0
LINE
5
158
100
AcDbEntity
8
0
100
AcDbLine
10
13.999999999999982
20
-389
30
0
11
27.000000000000014
21
-389
31
0
0
LINE
5
159
100
AcDbEntity
8
0
100
AcDbLine
10
13.999999999999982
20
-403.49999999999994
30
0
11
27.000000000000014
21
-403.49999999999994
31
0
0
LINE
5
160
100
AcDbEntity
8
0
100
AcDbLine
10
14.000000000000048
20
-644.5
30
0
11
26.999999999999989
21
-644.5
31
0
0
LINE
5
161
100
AcDbEntity
8
0
100
AcDbLine
10
366.75000000000011
20
-524
30
0
11
349.75000000000017
21
-524.00000000000023
31
0
0
CIRCLE
5
162
100
AcDbEntity
8
0
100
AcDbCircle
10
349.75000000000017
20
-524.00000000000023
30
0
40
2
210
0
220
0
230
1
0
ENDSEC
0
SECTION
2
OBJECTS
0
DICTIONARY
5
C
100
AcDbDictionary
3
ACAD_GROUP
350
D
3
ACAD_MLINESTYLE
350
17
0
DICTIONARY
5
D
100
AcDbDictionary
0
DICTIONARY
5
1A
330
C
100
AcDbDictionary
0
DICTIONARY
5
17
100
AcDbDictionary
0
ENDSEC
0
EOF
