0
SECTION
2
HEADER
9
$EXTMIN
10
0
20
0
9
$EXTMAX
10
750
20
975
0
ENDSEC
0
SECTION
2
TABLES
0
TABLE
2
VPORT
70
1
0
VPORT
2
*ACTIVE
70
0
10
0
20
0
11
1
21
1
12
0
22
0
13
0
23
0
14
1
24
1
15
0
25
0
16
0
26
0
36
1
17
0
27
0
37
0
40
300
41
2.12
42
50
43
0
44
0
50
0
51
0
71
0
72
100
73
1
74
1
75
0
76
0
77
0
78
0
0
ENDTAB
0
ENDSEC
0
SECTION
2
ENTITIES
0
POLYLINE
8
1
66
1
70
0
0
VERTEX
8
1
10
418.00
20
418.00
0
VERTEX
8
1
10
421.17
20
418.00
0
VERTEX
8
1
10
421.17
20
415.00
0
VERTEX
8
1
10
427.33
20
415.00
0
VERTEX
8
1
10
427.33
20
418.00
0
VERTEX
8
1
10
433.50
20
418.00
0
VERTEX
8
1
10
433.50
20
415.00
0
VERTEX
8
1
10
439.67
20
415.00
0
VERTEX
8
1
10
439.67
20
418.00
0
VERTEX
8
1
10
445.83
20
418.00
0
VERTEX
8
1
10
445.83
20
415.00
0
VERTEX
8
1
10
452.00
20
415.00
0
VERTEX
8
1
10
452.00
20
418.00
0
VERTEX
8
1
10
458.17
20
418.00
0
VERTEX
8
1
10
458.17
20
415.00
0
VERTEX
8
1
10
464.33
20
415.00
0
VERTEX
8
1
10
464.33
20
418.00
0
VERTEX
8
1
10
470.50
20
418.00
0
VERTEX
8
1
10
470.50
20
415.00
0
VERTEX
8
1
10
476.67
20
415.00
0
VERTEX
8
1
10
476.67
20
418.00
0
VERTEX
8
1
10
482.83
20
418.00
0
VERTEX
8
1
10
482.83
20
415.00
0
VERTEX
8
1
10
489.00
20
415.00
0
VERTEX
8
1
10
489.00
20
418.00
0
VERTEX
8
1
10
495.17
20
418.00
0
VERTEX
8
1
10
495.17
20
415.00
0
VERTEX
8
1
10
501.33
20
415.00
0
VERTEX
8
1
10
501.33
20
418.00
0
VERTEX
8
1
10
507.50
20
418.00
0
VERTEX
8
1
10
507.50
20
415.00
0
VERTEX
8
1
10
513.67
20
415.00
0
VERTEX
8
1
10
513.67
20
418.00
0
VERTEX
8
1
10
519.83
20
418.00
0
VERTEX
8
1
10
519.83
20
415.00
0
VERTEX
8
1
10
526.00
20
415.00
0
VERTEX
8
1
10
526.00
20
418.00
0
VERTEX
8
1
10
532.17
20
418.00
0
VERTEX
8
1
10
532.17
20
415.00
0
VERTEX
8
1
10
538.33
20
415.00
0
VERTEX
8
1
10
538.33
20
418.00
0
VERTEX
8
1
10
544.50
20
418.00
0
VERTEX
8
1
10
544.50
20
415.00
0
VERTEX
8
1
10
550.67
20
415.00
0
VERTEX
8
1
10
550.67
20
418.00
0
VERTEX
8
1
10
556.83
20
418.00
0
VERTEX
8
1
10
556.83
20
415.00
0
VERTEX
8
1
10
563.00
20
415.00
0
VERTEX
8
1
10
563.00
20
418.00
0
VERTEX
8
1
10
569.17
20
418.00
0
VERTEX
8
1
10
569.17
20
415.00
0
VERTEX
8
1
10
575.33
20
415.00
0
VERTEX
8
1
10
575.33
20
418.00
0
VERTEX
8
1
10
581.50
20
418.00
0
VERTEX
8
1
10
581.50
20
415.00
0
VERTEX
8
1
10
587.67
20
415.00
0
VERTEX
8
1
10
587.67
20
418.00
0
VERTEX
8
1
10
593.83
20
418.00
0
VERTEX
8
1
10
593.83
20
415.00
0
VERTEX
8
1
10
600.00
20
415.00
0
VERTEX
8
1
10
600.00
20
418.00
0
VERTEX
8
1
10
606.17
20
418.00
0
VERTEX
8
1
10
606.17
20
415.00
0
VERTEX
8
1
10
612.33
20
415.00
0
VERTEX
8
1
10
612.33
20
418.00
0
VERTEX
8
1
10
618.50
20
418.00
0
VERTEX
8
1
10
618.50
20
415.00
0
VERTEX
8
1
10
624.67
20
415.00
0
VERTEX
8
1
10
624.67
20
418.00
0
VERTEX
8
1
10
630.83
20
418.00
0
VERTEX
8
1
10
630.83
20
415.00
0
VERTEX
8
1
10
637.00
20
415.00
0
VERTEX
8
1
10
637.00
20
418.00
0
VERTEX
8
1
10
643.17
20
418.00
0
VERTEX
8
1
10
643.17
20
415.00
0
VERTEX
8
1
10
649.33
20
415.00
0
VERTEX
8
1
10
649.33
20
418.00
0
VERTEX
8
1
10
655.50
20
418.00
0
VERTEX
8
1
10
655.50
20
415.00
0
VERTEX
8
1
10
661.67
20
415.00
0
VERTEX
8
1
10
661.67
20
418.00
0
VERTEX
8
1
10
667.83
20
418.00
0
VERTEX
8
1
10
667.83
20
415.00
0
VERTEX
8
1
10
674.00
20
415.00
0
VERTEX
8
1
10
674.00
20
418.00
0
VERTEX
8
1
10
680.17
20
418.00
0
VERTEX
8
1
10
680.17
20
415.00
0
VERTEX
8
1
10
686.33
20
415.00
0
VERTEX
8
1
10
686.33
20
418.00
0
VERTEX
8
1
10
692.50
20
418.00
0
VERTEX
8
1
10
692.50
20
415.00
0
VERTEX
8
1
10
698.67
20
415.00
0
VERTEX
8
1
10
698.67
20
418.00
0
VERTEX
8
1
10
704.83
20
418.00
0
VERTEX
8
1
10
704.83
20
415.00
0
VERTEX
8
1
10
711.00
20
415.00
0
VERTEX
8
1
10
711.00
20
418.00
0
VERTEX
8
1
10
717.17
20
418.00
0
VERTEX
8
1
10
717.17
20
415.00
0
VERTEX
8
1
10
723.33
20
415.00
0
VERTEX
8
1
10
723.33
20
418.00
0
VERTEX
8
1
10
729.50
20
418.00
0
VERTEX
8
1
10
729.50
20
415.00
0
VERTEX
8
1
10
735.67
20
415.00
0
VERTEX
8
1
10
735.67
20
418.00
0
VERTEX
8
1
10
741.83
20
418.00
0
VERTEX
8
1
10
741.83
20
415.00
0
VERTEX
8
1
10
748.00
20
415.00
0
VERTEX
8
1
10
748.00
20
418.00
0
VERTEX
8
1
10
754.17
20
418.00
0
VERTEX
8
1
10
754.17
20
415.00
0
VERTEX
8
1
10
760.33
20
415.00
0
VERTEX
8
1
10
760.33
20
418.00
0
VERTEX
8
1
10
766.50
20
418.00
0
VERTEX
8
1
10
766.50
20
415.00
0
VERTEX
8
1
10
772.67
20
415.00
0
VERTEX
8
1
10
772.67
20
418.00
0
VERTEX
8
1
10
778.83
20
418.00
0
VERTEX
8
1
10
778.83
20
415.00
0
VERTEX
8
1
10
785.00
20
415.00
0
VERTEX
8
1
10
785.00
20
418.00
0
VERTEX
8
1
10
791.17
20
418.00
0
VERTEX
8
1
10
791.17
20
415.00
0
VERTEX
8
1
10
797.33
20
415.00
0
VERTEX
8
1
10
797.33
20
418.00
0
VERTEX
8
1
10
800.50
20
418.00
0
VERTEX
8
1
10
800.50
20
424.18
0
VERTEX
8
1
10
803.50
20
424.18
0
VERTEX
8
1
10
803.50
20
430.36
0
VERTEX
8
1
10
800.50
20
430.36
0
VERTEX
8
1
10
800.50
20
436.55
0
VERTEX
8
1
10
803.50
20
436.55
0
VERTEX
8
1
10
803.50
20
442.73
0
VERTEX
8
1
10
800.50
20
442.73
0
VERTEX
8
1
10
800.50
20
448.91
0
VERTEX
8
1
10
803.50
20
448.91
0
VERTEX
8
1
10
803.50
20
455.09
0
VERTEX
8
1
10
800.50
20
455.09
0
VERTEX
8
1
10
800.50
20
461.27
0
VERTEX
8
1
10
803.50
20
461.27
0
VERTEX
8
1
10
803.50
20
467.45
0
VERTEX
8
1
10
800.50
20
467.45
0
VERTEX
8
1
10
800.50
20
473.64
0
VERTEX
8
1
10
803.50
20
473.64
0
VERTEX
8
1
10
803.50
20
479.82
0
VERTEX
8
1
10
800.50
20
479.82
0
VERTEX
8
1
10
800.50
20
486.00
0
VERTEX
8
1
10
803.50
20
486.00
0
VERTEX
8
1
10
803.50
20
492.18
0
VERTEX
8
1
10
800.50
20
492.18
0
VERTEX
8
1
10
800.50
20
498.36
0
VERTEX
8
1
10
803.50
20
498.36
0
VERTEX
8
1
10
803.50
20
504.55
0
VERTEX
8
1
10
800.50
20
504.55
0
VERTEX
8
1
10
800.50
20
510.73
0
VERTEX
8
1
10
803.50
20
510.73
0
VERTEX
8
1
10
803.50
20
516.91
0
VERTEX
8
1
10
800.50
20
516.91
0
VERTEX
8
1
10
800.50
20
523.09
0
VERTEX
8
1
10
803.50
20
523.09
0
VERTEX
8
1
10
803.50
20
529.27
0
VERTEX
8
1
10
800.50
20
529.27
0
VERTEX
8
1
10
800.50
20
535.46
0
VERTEX
8
1
10
803.50
20
535.46
0
VERTEX
8
1
10
803.50
20
541.64
0
VERTEX
8
1
10
800.50
20
541.64
0
VERTEX
8
1
10
800.50
20
547.82
0
VERTEX
8
1
10
803.50
20
547.82
0
VERTEX
8
1
10
803.50
20
554.00
0
VERTEX
8
1
10
800.50
20
554.00
0
VERTEX
8
1
10
800.50
20
560.18
0
VERTEX
8
1
10
803.50
20
560.18
0
VERTEX
8
1
10
803.50
20
566.36
0
VERTEX
8
1
10
800.50
20
566.36
0
VERTEX
8
1
10
800.50
20
572.54
0
VERTEX
8
1
10
803.50
20
572.54
0
VERTEX
8
1
10
803.50
20
578.73
0
VERTEX
8
1
10
800.50
20
578.73
0
VERTEX
8
1
10
800.50
20
584.91
0
VERTEX
8
1
10
803.50
20
584.91
0
VERTEX
8
1
10
803.50
20
591.09
0
VERTEX
8
1
10
800.50
20
591.09
0
VERTEX
8
1
10
800.50
20
597.27
0
VERTEX
8
1
10
803.50
20
597.27
0
VERTEX
8
1
10
803.50
20
603.46
0
VERTEX
8
1
10
800.50
20
603.46
0
VERTEX
8
1
10
800.50
20
609.64
0
VERTEX
8
1
10
803.50
20
609.64
0
VERTEX
8
1
10
803.50
20
615.82
0
VERTEX
8
1
10
800.50
20
615.82
0
VERTEX
8
1
10
800.50
20
622.00
0
VERTEX
8
1
10
803.50
20
622.00
0
VERTEX
8
1
10
803.50
20
628.18
0
VERTEX
8
1
10
800.50
20
628.18
0
VERTEX
8
1
10
800.50
20
634.36
0
VERTEX
8
1
10
803.50
20
634.36
0
VERTEX
8
1
10
803.50
20
640.54
0
VERTEX
8
1
10
800.50
20
640.54
0
VERTEX
8
1
10
800.50
20
646.73
0
VERTEX
8
1
10
803.50
20
646.73
0
VERTEX
8
1
10
803.50
20
652.91
0
VERTEX
8
1
10
800.50
20
652.91
0
VERTEX
8
1
10
800.50
20
659.09
0
VERTEX
8
1
10
803.50
20
659.09
0
VERTEX
8
1
10
803.50
20
665.27
0
VERTEX
8
1
10
800.50
20
665.27
0
VERTEX
8
1
10
800.50
20
671.46
0
VERTEX
8
1
10
803.50
20
671.46
0
VERTEX
8
1
10
803.50
20
677.64
0
VERTEX
8
1
10
800.50
20
677.64
0
VERTEX
8
1
10
800.50
20
683.82
0
VERTEX
8
1
10
803.50
20
683.82
0
VERTEX
8
1
10
803.50
20
690.00
0
VERTEX
8
1
10
800.50
20
690.00
0
VERTEX
8
1
10
800.50
20
696.18
0
VERTEX
8
1
10
803.50
20
696.18
0
VERTEX
8
1
10
803.50
20
702.36
0
VERTEX
8
1
10
800.50
20
702.36
0
VERTEX
8
1
10
800.50
20
708.54
0
VERTEX
8
1
10
803.50
20
708.54
0
VERTEX
8
1
10
803.50
20
714.73
0
VERTEX
8
1
10
800.50
20
714.73
0
VERTEX
8
1
10
800.50
20
720.91
0
VERTEX
8
1
10
803.50
20
720.91
0
VERTEX
8
1
10
803.50
20
727.09
0
VERTEX
8
1
10
800.50
20
727.09
0
VERTEX
8
1
10
800.50
20
733.27
0
VERTEX
8
1
10
803.50
20
733.27
0
VERTEX
8
1
10
803.50
20
739.46
0
VERTEX
8
1
10
800.50
20
739.46
0
VERTEX
8
1
10
800.50
20
745.64
0
VERTEX
8
1
10
803.50
20
745.64
0
VERTEX
8
1
10
803.50
20
751.82
0
VERTEX
8
1
10
800.50
20
751.82
0
VERTEX
8
1
10
800.50
20
758.00
0
VERTEX
8
1
10
797.33
20
758.00
0
VERTEX
8
1
10
797.33
20
761.00
0
VERTEX
8
1
10
791.17
20
761.00
0
VERTEX
8
1
10
791.17
20
758.00
0
VERTEX
8
1
10
785.00
20
758.00
0
VERTEX
8
1
10
785.00
20
761.00
0
VERTEX
8
1
10
778.83
20
761.00
0
VERTEX
8
1
10
778.83
20
758.00
0
VERTEX
8
1
10
772.67
20
758.00
0
VERTEX
8
1
10
772.67
20
761.00
0
VERTEX
8
1
10
766.50
20
761.00
0
VERTEX
8
1
10
766.50
20
758.00
0
VERTEX
8
1
10
760.33
20
758.00
0
VERTEX
8
1
10
760.33
20
761.00
0
VERTEX
8
1
10
754.17
20
761.00
0
VERTEX
8
1
10
754.17
20
758.00
0
VERTEX
8
1
10
748.00
20
758.00
0
VERTEX
8
1
10
748.00
20
761.00
0
VERTEX
8
1
10
741.83
20
761.00
0
VERTEX
8
1
10
741.83
20
758.00
0
VERTEX
8
1
10
735.67
20
758.00
0
VERTEX
8
1
10
735.67
20
761.00
0
VERTEX
8
1
10
729.50
20
761.00
0
VERTEX
8
1
10
729.50
20
758.00
0
VERTEX
8
1
10
723.33
20
758.00
0
VERTEX
8
1
10
723.33
20
761.00
0
VERTEX
8
1
10
717.17
20
761.00
0
VERTEX
8
1
10
717.17
20
758.00
0
VERTEX
8
1
10
711.00
20
758.00
0
VERTEX
8
1
10
711.00
20
761.00
0
VERTEX
8
1
10
704.83
20
761.00
0
VERTEX
8
1
10
704.83
20
758.00
0
VERTEX
8
1
10
698.67
20
758.00
0
VERTEX
8
1
10
698.67
20
761.00
0
VERTEX
8
1
10
692.50
20
761.00
0
VERTEX
8
1
10
692.50
20
758.00
0
VERTEX
8
1
10
686.33
20
758.00
0
VERTEX
8
1
10
686.33
20
761.00
0
VERTEX
8
1
10
680.17
20
761.00
0
VERTEX
8
1
10
680.17
20
758.00
0
VERTEX
8
1
10
674.00
20
758.00
0
VERTEX
8
1
10
674.00
20
761.00
0
VERTEX
8
1
10
667.83
20
761.00
0
VERTEX
8
1
10
667.83
20
758.00
0
VERTEX
8
1
10
661.67
20
758.00
0
VERTEX
8
1
10
661.67
20
761.00
0
VERTEX
8
1
10
655.50
20
761.00
0
VERTEX
8
1
10
655.50
20
758.00
0
VERTEX
8
1
10
649.33
20
758.00
0
VERTEX
8
1
10
649.33
20
761.00
0
VERTEX
8
1
10
643.17
20
761.00
0
VERTEX
8
1
10
643.17
20
758.00
0
VERTEX
8
1
10
637.00
20
758.00
0
VERTEX
8
1
10
637.00
20
761.00
0
VERTEX
8
1
10
630.83
20
761.00
0
VERTEX
8
1
10
630.83
20
758.00
0
VERTEX
8
1
10
624.67
20
758.00
0
VERTEX
8
1
10
624.67
20
761.00
0
VERTEX
8
1
10
618.50
20
761.00
0
VERTEX
8
1
10
618.50
20
758.00
0
VERTEX
8
1
10
612.33
20
758.00
0
VERTEX
8
1
10
612.33
20
761.00
0
VERTEX
8
1
10
606.17
20
761.00
0
VERTEX
8
1
10
606.17
20
758.00
0
VERTEX
8
1
10
600.00
20
758.00
0
VERTEX
8
1
10
600.00
20
761.00
0
VERTEX
8
1
10
593.83
20
761.00
0
VERTEX
8
1
10
593.83
20
758.00
0
VERTEX
8
1
10
587.67
20
758.00
0
VERTEX
8
1
10
587.67
20
761.00
0
VERTEX
8
1
10
581.50
20
761.00
0
VERTEX
8
1
10
581.50
20
758.00
0
VERTEX
8
1
10
575.33
20
758.00
0
VERTEX
8
1
10
575.33
20
761.00
0
VERTEX
8
1
10
569.17
20
761.00
0
VERTEX
8
1
10
569.17
20
758.00
0
VERTEX
8
1
10
563.00
20
758.00
0
VERTEX
8
1
10
563.00
20
761.00
0
VERTEX
8
1
10
556.83
20
761.00
0
VERTEX
8
1
10
556.83
20
758.00
0
VERTEX
8
1
10
550.67
20
758.00
0
VERTEX
8
1
10
550.67
20
761.00
0
VERTEX
8
1
10
544.50
20
761.00
0
VERTEX
8
1
10
544.50
20
758.00
0
VERTEX
8
1
10
538.33
20
758.00
0
VERTEX
8
1
10
538.33
20
761.00
0
VERTEX
8
1
10
532.17
20
761.00
0
VERTEX
8
1
10
532.17
20
758.00
0
VERTEX
8
1
10
526.00
20
758.00
0
VERTEX
8
1
10
526.00
20
761.00
0
VERTEX
8
1
10
519.83
20
761.00
0
VERTEX
8
1
10
519.83
20
758.00
0
VERTEX
8
1
10
513.67
20
758.00
0
VERTEX
8
1
10
513.67
20
761.00
0
VERTEX
8
1
10
507.50
20
761.00
0
VERTEX
8
1
10
507.50
20
758.00
0
VERTEX
8
1
10
501.33
20
758.00
0
VERTEX
8
1
10
501.33
20
761.00
0
VERTEX
8
1
10
495.17
20
761.00
0
VERTEX
8
1
10
495.17
20
758.00
0
VERTEX
8
1
10
489.00
20
758.00
0
VERTEX
8
1
10
489.00
20
761.00
0
VERTEX
8
1
10
482.83
20
761.00
0
VERTEX
8
1
10
482.83
20
758.00
0
VERTEX
8
1
10
476.67
20
758.00
0
VERTEX
8
1
10
476.67
20
761.00
0
VERTEX
8
1
10
470.50
20
761.00
0
VERTEX
8
1
10
470.50
20
758.00
0
VERTEX
8
1
10
464.33
20
758.00
0
VERTEX
8
1
10
464.33
20
761.00
0
VERTEX
8
1
10
458.17
20
761.00
0
VERTEX
8
1
10
458.17
20
758.00
0
VERTEX
8
1
10
452.00
20
758.00
0
VERTEX
8
1
10
452.00
20
761.00
0
VERTEX
8
1
10
445.83
20
761.00
0
VERTEX
8
1
10
445.83
20
758.00
0
VERTEX
8
1
10
439.67
20
758.00
0
VERTEX
8
1
10
439.67
20
761.00
0
VERTEX
8
1
10
433.50
20
761.00
0
VERTEX
8
1
10
433.50
20
758.00
0
VERTEX
8
1
10
427.33
20
758.00
0
VERTEX
8
1
10
427.33
20
761.00
0
VERTEX
8
1
10
421.17
20
761.00
0
VERTEX
8
1
10
421.17
20
758.00
0
VERTEX
8
1
10
418.00
20
758.00
0
VERTEX
8
1
10
418.00
20
751.82
0
VERTEX
8
1
10
415.00
20
751.82
0
VERTEX
8
1
10
415.00
20
745.64
0
VERTEX
8
1
10
418.00
20
745.64
0
VERTEX
8
1
10
418.00
20
739.46
0
VERTEX
8
1
10
415.00
20
739.46
0
VERTEX
8
1
10
415.00
20
733.27
0
VERTEX
8
1
10
418.00
20
733.27
0
VERTEX
8
1
10
418.00
20
727.09
0
VERTEX
8
1
10
415.00
20
727.09
0
VERTEX
8
1
10
415.00
20
720.91
0
VERTEX
8
1
10
418.00
20
720.91
0
VERTEX
8
1
10
418.00
20
714.73
0
VERTEX
8
1
10
415.00
20
714.73
0
VERTEX
8
1
10
415.00
20
708.54
0
VERTEX
8
1
10
418.00
20
708.54
0
VERTEX
8
1
10
418.00
20
702.36
0
VERTEX
8
1
10
415.00
20
702.36
0
VERTEX
8
1
10
415.00
20
696.18
0
VERTEX
8
1
10
418.00
20
696.18
0
VERTEX
8
1
10
418.00
20
690.00
0
VERTEX
8
1
10
415.00
20
690.00
0
VERTEX
8
1
10
415.00
20
683.82
0
VERTEX
8
1
10
418.00
20
683.82
0
VERTEX
8
1
10
418.00
20
677.64
0
VERTEX
8
1
10
415.00
20
677.64
0
VERTEX
8
1
10
415.00
20
671.46
0
VERTEX
8
1
10
418.00
20
671.46
0
VERTEX
8
1
10
418.00
20
665.27
0
VERTEX
8
1
10
415.00
20
665.27
0
VERTEX
8
1
10
415.00
20
659.09
0
VERTEX
8
1
10
418.00
20
659.09
0
VERTEX
8
1
10
418.00
20
652.91
0
VERTEX
8
1
10
415.00
20
652.91
0
VERTEX
8
1
10
415.00
20
646.73
0
VERTEX
8
1
10
418.00
20
646.73
0
VERTEX
8
1
10
418.00
20
640.54
0
VERTEX
8
1
10
415.00
20
640.54
0
VERTEX
8
1
10
415.00
20
634.36
0
VERTEX
8
1
10
418.00
20
634.36
0
VERTEX
8
1
10
418.00
20
628.18
0
VERTEX
8
1
10
415.00
20
628.18
0
VERTEX
8
1
10
415.00
20
622.00
0
VERTEX
8
1
10
418.00
20
622.00
0
VERTEX
8
1
10
418.00
20
615.82
0
VERTEX
8
1
10
415.00
20
615.82
0
VERTEX
8
1
10
415.00
20
609.64
0
VERTEX
8
1
10
418.00
20
609.64
0
VERTEX
8
1
10
418.00
20
603.46
0
VERTEX
8
1
10
415.00
20
603.46
0
VERTEX
8
1
10
415.00
20
597.27
0
VERTEX
8
1
10
418.00
20
597.27
0
VERTEX
8
1
10
418.00
20
591.09
0
VERTEX
8
1
10
415.00
20
591.09
0
VERTEX
8
1
10
415.00
20
584.91
0
VERTEX
8
1
10
418.00
20
584.91
0
VERTEX
8
1
10
418.00
20
578.73
0
VERTEX
8
1
10
415.00
20
578.73
0
VERTEX
8
1
10
415.00
20
572.54
0
VERTEX
8
1
10
418.00
20
572.54
0
VERTEX
8
1
10
418.00
20
566.36
0
VERTEX
8
1
10
415.00
20
566.36
0
VERTEX
8
1
10
415.00
20
560.18
0
VERTEX
8
1
10
418.00
20
560.18
0
VERTEX
8
1
10
418.00
20
554.00
0
VERTEX
8
1
10
415.00
20
554.00
0
VERTEX
8
1
10
415.00
20
547.82
0
VERTEX
8
1
10
418.00
20
547.82
0
VERTEX
8
1
10
418.00
20
541.64
0
VERTEX
8
1
10
415.00
20
541.64
0
VERTEX
8
1
10
415.00
20
535.46
0
VERTEX
8
1
10
418.00
20
535.46
0
VERTEX
8
1
10
418.00
20
529.27
0
VERTEX
8
1
10
415.00
20
529.27
0
VERTEX
8
1
10
415.00
20
523.09
0
VERTEX
8
1
10
418.00
20
523.09
0
VERTEX
8
1
10
418.00
20
516.91
0
VERTEX
8
1
10
415.00
20
516.91
0
VERTEX
8
1
10
415.00
20
510.73
0
VERTEX
8
1
10
418.00
20
510.73
0
VERTEX
8
1
10
418.00
20
504.55
0
VERTEX
8
1
10
415.00
20
504.55
0
VERTEX
8
1
10
415.00
20
498.36
0
VERTEX
8
1
10
418.00
20
498.36
0
VERTEX
8
1
10
418.00
20
492.18
0
VERTEX
8
1
10
415.00
20
492.18
0
VERTEX
8
1
10
415.00
20
486.00
0
VERTEX
8
1
10
418.00
20
486.00
0
VERTEX
8
1
10
418.00
20
479.82
0
VERTEX
8
1
10
415.00
20
479.82
0
VERTEX
8
1
10
415.00
20
473.64
0
VERTEX
8
1
10
418.00
20
473.64
0
VERTEX
8
1
10
418.00
20
467.45
0
VERTEX
8
1
10
415.00
20
467.45
0
VERTEX
8
1
10
415.00
20
461.27
0
VERTEX
8
1
10
418.00
20
461.27
0
VERTEX
8
1
10
418.00
20
455.09
0
VERTEX
8
1
10
415.00
20
455.09
0
VERTEX
8
1
10
415.00
20
448.91
0
VERTEX
8
1
10
418.00
20
448.91
0
VERTEX
8
1
10
418.00
20
442.73
0
VERTEX
8
1
10
415.00
20
442.73
0
VERTEX
8
1
10
415.00
20
436.55
0
VERTEX
8
1
10
418.00
20
436.55
0
VERTEX
8
1
10
418.00
20
430.36
0
VERTEX
8
1
10
415.00
20
430.36
0
VERTEX
8
1
10
415.00
20
424.18
0
VERTEX
8
1
10
418.00
20
424.18
0
VERTEX
8
1
10
418.00
20
418.00
0
SEQEND
0
POLYLINE
8
1
66
1
70
0
0
VERTEX
8
1
10
418.00
20
0.00
0
VERTEX
8
1
10
800.50
20
0.00
0
VERTEX
8
1
10
803.50
20
0.00
0
VERTEX
8
1
10
803.50
20
6.34
0
VERTEX
8
1
10
800.50
20
6.34
0
VERTEX
8
1
10
800.50
20
12.68
0
VERTEX
8
1
10
803.50
20
12.68
0
VERTEX
8
1
10
803.50
20
19.02
0
VERTEX
8
1
10
800.50
20
19.02
0
VERTEX
8
1
10
800.50
20
25.35
0
VERTEX
8
1
10
803.50
20
25.35
0
VERTEX
8
1
10
803.50
20
31.69
0
VERTEX
8
1
10
800.50
20
31.69
0
VERTEX
8
1
10
800.50
20
38.03
0
VERTEX
8
1
10
803.50
20
38.03
0
VERTEX
8
1
10
803.50
20
44.37
0
VERTEX
8
1
10
800.50
20
44.37
0
VERTEX
8
1
10
800.50
20
50.71
0
VERTEX
8
1
10
803.50
20
50.71
0
VERTEX
8
1
10
803.50
20
57.05
0
VERTEX
8
1
10
800.50
20
57.05
0
VERTEX
8
1
10
800.50
20
63.38
0
VERTEX
8
1
10
803.50
20
63.38
0
VERTEX
8
1
10
803.50
20
69.72
0
VERTEX
8
1
10
800.50
20
69.72
0
VERTEX
8
1
10
800.50
20
76.06
0
VERTEX
8
1
10
803.50
20
76.06
0
VERTEX
8
1
10
803.50
20
82.40
0
VERTEX
8
1
10
800.50
20
82.40
0
VERTEX
8
1
10
800.50
20
88.74
0
VERTEX
8
1
10
803.50
20
88.74
0
VERTEX
8
1
10
803.50
20
95.08
0
VERTEX
8
1
10
800.50
20
95.08
0
VERTEX
8
1
10
800.50
20
101.42
0
VERTEX
8
1
10
803.50
20
101.42
0
VERTEX
8
1
10
803.50
20
107.75
0
VERTEX
8
1
10
800.50
20
107.75
0
VERTEX
8
1
10
800.50
20
114.09
0
VERTEX
8
1
10
803.50
20
114.09
0
VERTEX
8
1
10
803.50
20
120.43
0
VERTEX
8
1
10
800.50
20
120.43
0
VERTEX
8
1
10
800.50
20
126.77
0
VERTEX
8
1
10
803.50
20
126.77
0
VERTEX
8
1
10
803.50
20
133.11
0
VERTEX
8
1
10
800.50
20
133.11
0
VERTEX
8
1
10
800.50
20
139.45
0
VERTEX
8
1
10
803.50
20
139.45
0
VERTEX
8
1
10
803.50
20
145.78
0
VERTEX
8
1
10
800.50
20
145.78
0
VERTEX
8
1
10
800.50
20
152.12
0
VERTEX
8
1
10
803.50
20
152.12
0
VERTEX
8
1
10
803.50
20
158.46
0
VERTEX
8
1
10
800.50
20
158.46
0
VERTEX
8
1
10
800.50
20
164.80
0
VERTEX
8
1
10
803.50
20
164.80
0
VERTEX
8
1
10
803.50
20
171.14
0
VERTEX
8
1
10
800.50
20
171.14
0
VERTEX
8
1
10
800.50
20
177.48
0
VERTEX
8
1
10
803.50
20
177.48
0
VERTEX
8
1
10
803.50
20
183.81
0
VERTEX
8
1
10
800.50
20
183.81
0
VERTEX
8
1
10
800.50
20
190.15
0
VERTEX
8
1
10
803.50
20
190.15
0
VERTEX
8
1
10
803.50
20
196.49
0
VERTEX
8
1
10
800.50
20
196.49
0
VERTEX
8
1
10
800.50
20
202.83
0
VERTEX
8
1
10
803.50
20
202.83
0
VERTEX
8
1
10
803.50
20
209.17
0
VERTEX
8
1
10
800.50
20
209.17
0
VERTEX
8
1
10
800.50
20
215.51
0
VERTEX
8
1
10
803.50
20
215.51
0
VERTEX
8
1
10
803.50
20
221.85
0
VERTEX
8
1
10
800.50
20
221.85
0
VERTEX
8
1
10
800.50
20
228.19
0
VERTEX
8
1
10
803.50
20
228.19
0
VERTEX
8
1
10
803.50
20
234.52
0
VERTEX
8
1
10
800.50
20
234.52
0
VERTEX
8
1
10
800.50
20
240.86
0
VERTEX
8
1
10
803.50
20
240.86
0
VERTEX
8
1
10
803.50
20
247.20
0
VERTEX
8
1
10
800.50
20
247.20
0
VERTEX
8
1
10
800.50
20
253.54
0
VERTEX
8
1
10
803.50
20
253.54
0
VERTEX
8
1
10
803.50
20
259.88
0
VERTEX
8
1
10
800.50
20
259.88
0
VERTEX
8
1
10
800.50
20
266.21
0
VERTEX
8
1
10
803.50
20
266.21
0
VERTEX
8
1
10
803.50
20
272.55
0
VERTEX
8
1
10
800.50
20
272.55
0
VERTEX
8
1
10
800.50
20
278.89
0
VERTEX
8
1
10
803.50
20
278.89
0
VERTEX
8
1
10
803.50
20
285.23
0
VERTEX
8
1
10
800.50
20
285.23
0
VERTEX
8
1
10
800.50
20
291.57
0
VERTEX
8
1
10
803.50
20
291.57
0
VERTEX
8
1
10
803.50
20
297.91
0
VERTEX
8
1
10
800.50
20
297.91
0
VERTEX
8
1
10
800.50
20
304.25
0
VERTEX
8
1
10
803.50
20
304.25
0
VERTEX
8
1
10
803.50
20
310.58
0
VERTEX
8
1
10
800.50
20
310.58
0
VERTEX
8
1
10
800.50
20
316.92
0
VERTEX
8
1
10
803.50
20
316.92
0
VERTEX
8
1
10
803.50
20
323.26
0
VERTEX
8
1
10
800.50
20
323.26
0
VERTEX
8
1
10
800.50
20
329.60
0
VERTEX
8
1
10
803.50
20
329.60
0
VERTEX
8
1
10
803.50
20
335.94
0
VERTEX
8
1
10
800.50
20
335.94
0
VERTEX
8
1
10
800.50
20
342.28
0
VERTEX
8
1
10
803.50
20
342.28
0
VERTEX
8
1
10
803.50
20
348.62
0
VERTEX
8
1
10
800.50
20
348.62
0
VERTEX
8
1
10
800.50
20
354.95
0
VERTEX
8
1
10
803.50
20
354.95
0
VERTEX
8
1
10
803.50
20
361.29
0
VERTEX
8
1
10
800.50
20
361.29
0
VERTEX
8
1
10
800.50
20
367.63
0
VERTEX
8
1
10
803.50
20
367.63
0
VERTEX
8
1
10
803.50
20
373.97
0
VERTEX
8
1
10
800.50
20
373.97
0
VERTEX
8
1
10
800.50
20
380.31
0
VERTEX
8
1
10
803.50
20
380.31
0
VERTEX
8
1
10
803.50
20
386.65
0
VERTEX
8
1
10
800.50
20
386.65
0
VERTEX
8
1
10
800.50
20
392.99
0
VERTEX
8
1
10
803.50
20
392.99
0
VERTEX
8
1
10
803.50
20
399.32
0
VERTEX
8
1
10
800.50
20
399.32
0
VERTEX
8
1
10
800.50
20
405.66
0
VERTEX
8
1
10
803.50
20
405.66
0
VERTEX
8
1
10
803.50
20
412.00
0
VERTEX
8
1
10
797.33
20
412.00
0
VERTEX
8
1
10
797.33
20
409.00
0
VERTEX
8
1
10
791.17
20
409.00
0
VERTEX
8
1
10
791.17
20
412.00
0
VERTEX
8
1
10
785.00
20
412.00
0
VERTEX
8
1
10
785.00
20
409.00
0
VERTEX
8
1
10
778.83
20
409.00
0
VERTEX
8
1
10
778.83
20
412.00
0
VERTEX
8
1
10
772.67
20
412.00
0
VERTEX
8
1
10
772.67
20
409.00
0
VERTEX
8
1
10
766.50
20
409.00
0
VERTEX
8
1
10
766.50
20
412.00
0
VERTEX
8
1
10
760.33
20
412.00
0
VERTEX
8
1
10
760.33
20
409.00
0
VERTEX
8
1
10
754.17
20
409.00
0
VERTEX
8
1
10
754.17
20
412.00
0
VERTEX
8
1
10
748.00
20
412.00
0
VERTEX
8
1
10
748.00
20
409.00
0
VERTEX
8
1
10
741.83
20
409.00
0
VERTEX
8
1
10
741.83
20
412.00
0
VERTEX
8
1
10
735.67
20
412.00
0
VERTEX
8
1
10
735.67
20
409.00
0
VERTEX
8
1
10
729.50
20
409.00
0
VERTEX
8
1
10
729.50
20
412.00
0
VERTEX
8
1
10
723.33
20
412.00
0
VERTEX
8
1
10
723.33
20
409.00
0
VERTEX
8
1
10
717.17
20
409.00
0
VERTEX
8
1
10
717.17
20
412.00
0
VERTEX
8
1
10
711.00
20
412.00
0
VERTEX
8
1
10
711.00
20
409.00
0
VERTEX
8
1
10
704.83
20
409.00
0
VERTEX
8
1
10
704.83
20
412.00
0
VERTEX
8
1
10
698.67
20
412.00
0
VERTEX
8
1
10
698.67
20
409.00
0
VERTEX
8
1
10
692.50
20
409.00
0
VERTEX
8
1
10
692.50
20
412.00
0
VERTEX
8
1
10
686.33
20
412.00
0
VERTEX
8
1
10
686.33
20
409.00
0
VERTEX
8
1
10
680.17
20
409.00
0
VERTEX
8
1
10
680.17
20
412.00
0
VERTEX
8
1
10
674.00
20
412.00
0
VERTEX
8
1
10
674.00
20
409.00
0
VERTEX
8
1
10
667.83
20
409.00
0
VERTEX
8
1
10
667.83
20
412.00
0
VERTEX
8
1
10
661.67
20
412.00
0
VERTEX
8
1
10
661.67
20
409.00
0
VERTEX
8
1
10
655.50
20
409.00
0
VERTEX
8
1
10
655.50
20
412.00
0
VERTEX
8
1
10
649.33
20
412.00
0
VERTEX
8
1
10
649.33
20
409.00
0
VERTEX
8
1
10
643.17
20
409.00
0
VERTEX
8
1
10
643.17
20
412.00
0
VERTEX
8
1
10
637.00
20
412.00
0
VERTEX
8
1
10
637.00
20
409.00
0
VERTEX
8
1
10
630.83
20
409.00
0
VERTEX
8
1
10
630.83
20
412.00
0
VERTEX
8
1
10
624.67
20
412.00
0
VERTEX
8
1
10
624.67
20
409.00
0
VERTEX
8
1
10
618.50
20
409.00
0
VERTEX
8
1
10
618.50
20
412.00
0
VERTEX
8
1
10
612.33
20
412.00
0
VERTEX
8
1
10
612.33
20
409.00
0
VERTEX
8
1
10
606.17
20
409.00
0
VERTEX
8
1
10
606.17
20
412.00
0
VERTEX
8
1
10
600.00
20
412.00
0
VERTEX
8
1
10
600.00
20
409.00
0
VERTEX
8
1
10
593.83
20
409.00
0
VERTEX
8
1
10
593.83
20
412.00
0
VERTEX
8
1
10
587.67
20
412.00
0
VERTEX
8
1
10
587.67
20
409.00
0
VERTEX
8
1
10
581.50
20
409.00
0
VERTEX
8
1
10
581.50
20
412.00
0
VERTEX
8
1
10
575.33
20
412.00
0
VERTEX
8
1
10
575.33
20
409.00
0
VERTEX
8
1
10
569.17
20
409.00
0
VERTEX
8
1
10
569.17
20
412.00
0
VERTEX
8
1
10
563.00
20
412.00
0
VERTEX
8
1
10
563.00
20
409.00
0
VERTEX
8
1
10
556.83
20
409.00
0
VERTEX
8
1
10
556.83
20
412.00
0
VERTEX
8
1
10
550.67
20
412.00
0
VERTEX
8
1
10
550.67
20
409.00
0
VERTEX
8
1
10
544.50
20
409.00
0
VERTEX
8
1
10
544.50
20
412.00
0
VERTEX
8
1
10
538.33
20
412.00
0
VERTEX
8
1
10
538.33
20
409.00
0
VERTEX
8
1
10
532.17
20
409.00
0
VERTEX
8
1
10
532.17
20
412.00
0
VERTEX
8
1
10
526.00
20
412.00
0
VERTEX
8
1
10
526.00
20
409.00
0
VERTEX
8
1
10
519.83
20
409.00
0
VERTEX
8
1
10
519.83
20
412.00
0
VERTEX
8
1
10
513.67
20
412.00
0
VERTEX
8
1
10
513.67
20
409.00
0
VERTEX
8
1
10
507.50
20
409.00
0
VERTEX
8
1
10
507.50
20
412.00
0
VERTEX
8
1
10
501.33
20
412.00
0
VERTEX
8
1
10
501.33
20
409.00
0
VERTEX
8
1
10
495.17
20
409.00
0
VERTEX
8
1
10
495.17
20
412.00
0
VERTEX
8
1
10
489.00
20
412.00
0
VERTEX
8
1
10
489.00
20
409.00
0
VERTEX
8
1
10
482.83
20
409.00
0
VERTEX
8
1
10
482.83
20
412.00
0
VERTEX
8
1
10
476.67
20
412.00
0
VERTEX
8
1
10
476.67
20
409.00
0
VERTEX
8
1
10
470.50
20
409.00
0
VERTEX
8
1
10
470.50
20
412.00
0
VERTEX
8
1
10
464.33
20
412.00
0
VERTEX
8
1
10
464.33
20
409.00
0
VERTEX
8
1
10
458.17
20
409.00
0
VERTEX
8
1
10
458.17
20
412.00
0
VERTEX
8
1
10
452.00
20
412.00
0
VERTEX
8
1
10
452.00
20
409.00
0
VERTEX
8
1
10
445.83
20
409.00
0
VERTEX
8
1
10
445.83
20
412.00
0
VERTEX
8
1
10
439.67
20
412.00
0
VERTEX
8
1
10
439.67
20
409.00
0
VERTEX
8
1
10
433.50
20
409.00
0
VERTEX
8
1
10
433.50
20
412.00
0
VERTEX
8
1
10
427.33
20
412.00
0
VERTEX
8
1
10
427.33
20
409.00
0
VERTEX
8
1
10
421.17
20
409.00
0
VERTEX
8
1
10
421.17
20
412.00
0
VERTEX
8
1
10
415.00
20
412.00
0
VERTEX
8
1
10
415.00
20
405.66
0
VERTEX
8
1
10
418.00
20
405.66
0
VERTEX
8
1
10
418.00
20
399.32
0
VERTEX
8
1
10
415.00
20
399.32
0
VERTEX
8
1
10
415.00
20
392.99
0
VERTEX
8
1
10
418.00
20
392.99
0
VERTEX
8
1
10
418.00
20
386.65
0
VERTEX
8
1
10
415.00
20
386.65
0
VERTEX
8
1
10
415.00
20
380.31
0
VERTEX
8
1
10
418.00
20
380.31
0
VERTEX
8
1
10
418.00
20
373.97
0
VERTEX
8
1
10
415.00
20
373.97
0
VERTEX
8
1
10
415.00
20
367.63
0
VERTEX
8
1
10
418.00
20
367.63
0
VERTEX
8
1
10
418.00
20
361.29
0
VERTEX
8
1
10
415.00
20
361.29
0
VERTEX
8
1
10
415.00
20
354.95
0
VERTEX
8
1
10
418.00
20
354.95
0
VERTEX
8
1
10
418.00
20
348.62
0
VERTEX
8
1
10
415.00
20
348.62
0
VERTEX
8
1
10
415.00
20
342.28
0
VERTEX
8
1
10
418.00
20
342.28
0
VERTEX
8
1
10
418.00
20
335.94
0
VERTEX
8
1
10
415.00
20
335.94
0
VERTEX
8
1
10
415.00
20
329.60
0
VERTEX
8
1
10
418.00
20
329.60
0
VERTEX
8
1
10
418.00
20
323.26
0
VERTEX
8
1
10
415.00
20
323.26
0
VERTEX
8
1
10
415.00
20
316.92
0
VERTEX
8
1
10
418.00
20
316.92
0
VERTEX
8
1
10
418.00
20
310.58
0
VERTEX
8
1
10
415.00
20
310.58
0
VERTEX
8
1
10
415.00
20
304.25
0
VERTEX
8
1
10
418.00
20
304.25
0
VERTEX
8
1
10
418.00
20
297.91
0
VERTEX
8
1
10
415.00
20
297.91
0
VERTEX
8
1
10
415.00
20
291.57
0
VERTEX
8
1
10
418.00
20
291.57
0
VERTEX
8
1
10
418.00
20
285.23
0
VERTEX
8
1
10
415.00
20
285.23
0
VERTEX
8
1
10
415.00
20
278.89
0
VERTEX
8
1
10
418.00
20
278.89
0
VERTEX
8
1
10
418.00
20
272.55
0
VERTEX
8
1
10
415.00
20
272.55
0
VERTEX
8
1
10
415.00
20
266.21
0
VERTEX
8
1
10
418.00
20
266.21
0
VERTEX
8
1
10
418.00
20
259.88
0
VERTEX
8
1
10
415.00
20
259.88
0
VERTEX
8
1
10
415.00
20
253.54
0
VERTEX
8
1
10
418.00
20
253.54
0
VERTEX
8
1
10
418.00
20
247.20
0
VERTEX
8
1
10
415.00
20
247.20
0
VERTEX
8
1
10
415.00
20
240.86
0
VERTEX
8
1
10
418.00
20
240.86
0
VERTEX
8
1
10
418.00
20
234.52
0
VERTEX
8
1
10
415.00
20
234.52
0
VERTEX
8
1
10
415.00
20
228.19
0
VERTEX
8
1
10
418.00
20
228.19
0
VERTEX
8
1
10
418.00
20
221.85
0
VERTEX
8
1
10
415.00
20
221.85
0
VERTEX
8
1
10
415.00
20
215.51
0
VERTEX
8
1
10
418.00
20
215.51
0
VERTEX
8
1
10
418.00
20
209.17
0
VERTEX
8
1
10
415.00
20
209.17
0
VERTEX
8
1
10
415.00
20
202.83
0
VERTEX
8
1
10
418.00
20
202.83
0
VERTEX
8
1
10
418.00
20
196.49
0
VERTEX
8
1
10
415.00
20
196.49
0
VERTEX
8
1
10
415.00
20
190.15
0
VERTEX
8
1
10
418.00
20
190.15
0
VERTEX
8
1
10
418.00
20
183.81
0
VERTEX
8
1
10
415.00
20
183.81
0
VERTEX
8
1
10
415.00
20
177.48
0
VERTEX
8
1
10
418.00
20
177.48
0
VERTEX
8
1
10
418.00
20
171.14
0
VERTEX
8
1
10
415.00
20
171.14
0
VERTEX
8
1
10
415.00
20
164.80
0
VERTEX
8
1
10
418.00
20
164.80
0
VERTEX
8
1
10
418.00
20
158.46
0
VERTEX
8
1
10
415.00
20
158.46
0
VERTEX
8
1
10
415.00
20
152.12
0
VERTEX
8
1
10
418.00
20
152.12
0
VERTEX
8
1
10
418.00
20
145.78
0
VERTEX
8
1
10
415.00
20
145.78
0
VERTEX
8
1
10
415.00
20
139.45
0
VERTEX
8
1
10
418.00
20
139.45
0
VERTEX
8
1
10
418.00
20
133.11
0
VERTEX
8
1
10
415.00
20
133.11
0
VERTEX
8
1
10
415.00
20
126.77
0
VERTEX
8
1
10
418.00
20
126.77
0
VERTEX
8
1
10
418.00
20
120.43
0
VERTEX
8
1
10
415.00
20
120.43
0
VERTEX
8
1
10
415.00
20
114.09
0
VERTEX
8
1
10
418.00
20
114.09
0
VERTEX
8
1
10
418.00
20
107.75
0
VERTEX
8
1
10
415.00
20
107.75
0
VERTEX
8
1
10
415.00
20
101.42
0
VERTEX
8
1
10
418.00
20
101.42
0
VERTEX
8
1
10
418.00
20
95.08
0
VERTEX
8
1
10
415.00
20
95.08
0
VERTEX
8
1
10
415.00
20
88.74
0
VERTEX
8
1
10
418.00
20
88.74
0
VERTEX
8
1
10
418.00
20
82.40
0
VERTEX
8
1
10
415.00
20
82.40
0
VERTEX
8
1
10
415.00
20
76.06
0
VERTEX
8
1
10
418.00
20
76.06
0
VERTEX
8
1
10
418.00
20
69.72
0
VERTEX
8
1
10
415.00
20
69.72
0
VERTEX
8
1
10
415.00
20
63.38
0
VERTEX
8
1
10
418.00
20
63.38
0
VERTEX
8
1
10
418.00
20
57.05
0
VERTEX
8
1
10
415.00
20
57.05
0
VERTEX
8
1
10
415.00
20
50.71
0
VERTEX
8
1
10
418.00
20
50.71
0
VERTEX
8
1
10
418.00
20
44.37
0
VERTEX
8
1
10
415.00
20
44.37
0
VERTEX
8
1
10
415.00
20
38.03
0
VERTEX
8
1
10
418.00
20
38.03
0
VERTEX
8
1
10
418.00
20
31.69
0
VERTEX
8
1
10
415.00
20
31.69
0
VERTEX
8
1
10
415.00
20
25.35
0
VERTEX
8
1
10
418.00
20
25.35
0
VERTEX
8
1
10
418.00
20
19.02
0
VERTEX
8
1
10
415.00
20
19.02
0
VERTEX
8
1
10
415.00
20
12.68
0
VERTEX
8
1
10
418.00
20
12.68
0
VERTEX
8
1
10
418.00
20
6.34
0
VERTEX
8
1
10
415.00
20
6.34
0
VERTEX
8
1
10
415.00
20
0.00
0
VERTEX
8
1
10
418.00
20
0.00
0
SEQEND
0
POLYLINE
8
1
66
1
70
0
0
VERTEX
8
1
10
418.00
20
1176.00
0
VERTEX
8
1
10
800.50
20
1176.00
0
VERTEX
8
1
10
803.50
20
1176.00
0
VERTEX
8
1
10
803.50
20
1169.66
0
VERTEX
8
1
10
800.50
20
1169.66
0
VERTEX
8
1
10
800.50
20
1163.32
0
VERTEX
8
1
10
803.50
20
1163.32
0
VERTEX
8
1
10
803.50
20
1156.98
0
VERTEX
8
1
10
800.50
20
1156.98
0
VERTEX
8
1
10
800.50
20
1150.65
0
VERTEX
8
1
10
803.50
20
1150.65
0
VERTEX
8
1
10
803.50
20
1144.31
0
VERTEX
8
1
10
800.50
20
1144.31
0
VERTEX
8
1
10
800.50
20
1137.97
0
VERTEX
8
1
10
803.50
20
1137.97
0
VERTEX
8
1
10
803.50
20
1131.63
0
VERTEX
8
1
10
800.50
20
1131.63
0
VERTEX
8
1
10
800.50
20
1125.29
0
VERTEX
8
1
10
803.50
20
1125.29
0
VERTEX
8
1
10
803.50
20
1118.95
0
VERTEX
8
1
10
800.50
20
1118.95
0
VERTEX
8
1
10
800.50
20
1112.62
0
VERTEX
8
1
10
803.50
20
1112.62
0
VERTEX
8
1
10
803.50
20
1106.28
0
VERTEX
8
1
10
800.50
20
1106.28
0
VERTEX
8
1
10
800.50
20
1099.94
0
VERTEX
8
1
10
803.50
20
1099.94
0
VERTEX
8
1
10
803.50
20
1093.60
0
VERTEX
8
1
10
800.50
20
1093.60
0
VERTEX
8
1
10
800.50
20
1087.26
0
VERTEX
8
1
10
803.50
20
1087.26
0
VERTEX
8
1
10
803.50
20
1080.92
0
VERTEX
8
1
10
800.50
20
1080.92
0
VERTEX
8
1
10
800.50
20
1074.59
0
VERTEX
8
1
10
803.50
20
1074.59
0
VERTEX
8
1
10
803.50
20
1068.25
0
VERTEX
8
1
10
800.50
20
1068.25
0
VERTEX
8
1
10
800.50
20
1061.91
0
VERTEX
8
1
10
803.50
20
1061.91
0
VERTEX
8
1
10
803.50
20
1055.57
0
VERTEX
8
1
10
800.50
20
1055.57
0
VERTEX
8
1
10
800.50
20
1049.23
0
VERTEX
8
1
10
803.50
20
1049.23
0
VERTEX
8
1
10
803.50
20
1042.89
0
VERTEX
8
1
10
800.50
20
1042.89
0
VERTEX
8
1
10
800.50
20
1036.55
0
VERTEX
8
1
10
803.50
20
1036.55
0
VERTEX
8
1
10
803.50
20
1030.22
0
VERTEX
8
1
10
800.50
20
1030.22
0
VERTEX
8
1
10
800.50
20
1023.88
0
VERTEX
8
1
10
803.50
20
1023.88
0
VERTEX
8
1
10
803.50
20
1017.54
0
VERTEX
8
1
10
800.50
20
1017.54
0
VERTEX
8
1
10
800.50
20
1011.20
0
VERTEX
8
1
10
803.50
20
1011.20
0
VERTEX
8
1
10
803.50
20
1004.86
0
VERTEX
8
1
10
800.50
20
1004.86
0
VERTEX
8
1
10
800.50
20
998.52
0
VERTEX
8
1
10
803.50
20
998.52
0
VERTEX
8
1
10
803.50
20
992.18
0
VERTEX
8
1
10
800.50
20
992.18
0
VERTEX
8
1
10
800.50
20
985.85
0
VERTEX
8
1
10
803.50
20
985.85
0
VERTEX
8
1
10
803.50
20
979.51
0
VERTEX
8
1
10
800.50
20
979.51
0
VERTEX
8
1
10
800.50
20
973.17
0
VERTEX
8
1
10
803.50
20
973.17
0
VERTEX
8
1
10
803.50
20
966.83
0
VERTEX
8
1
10
800.50
20
966.83
0
VERTEX
8
1
10
800.50
20
960.49
0
VERTEX
8
1
10
803.50
20
960.49
0
VERTEX
8
1
10
803.50
20
954.15
0
VERTEX
8
1
10
800.50
20
954.15
0
VERTEX
8
1
10
800.50
20
947.82
0
VERTEX
8
1
10
803.50
20
947.82
0
VERTEX
8
1
10
803.50
20
941.48
0
VERTEX
8
1
10
800.50
20
941.48
0
VERTEX
8
1
10
800.50
20
935.14
0
VERTEX
8
1
10
803.50
20
935.14
0
VERTEX
8
1
10
803.50
20
928.80
0
VERTEX
8
1
10
800.50
20
928.80
0
VERTEX
8
1
10
800.50
20
922.46
0
VERTEX
8
1
10
803.50
20
922.46
0
VERTEX
8
1
10
803.50
20
916.12
0
VERTEX
8
1
10
800.50
20
916.12
0
VERTEX
8
1
10
800.50
20
909.78
0
VERTEX
8
1
10
803.50
20
909.78
0
VERTEX
8
1
10
803.50
20
903.45
0
VERTEX
8
1
10
800.50
20
903.45
0
VERTEX
8
1
10
800.50
20
897.11
0
VERTEX
8
1
10
803.50
20
897.11
0
VERTEX
8
1
10
803.50
20
890.77
0
VERTEX
8
1
10
800.50
20
890.77
0
VERTEX
8
1
10
800.50
20
884.43
0
VERTEX
8
1
10
803.50
20
884.43
0
VERTEX
8
1
10
803.50
20
878.09
0
VERTEX
8
1
10
800.50
20
878.09
0
VERTEX
8
1
10
800.50
20
871.75
0
VERTEX
8
1
10
803.50
20
871.75
0
VERTEX
8
1
10
803.50
20
865.41
0
VERTEX
8
1
10
800.50
20
865.41
0
VERTEX
8
1
10
800.50
20
859.08
0
VERTEX
8
1
10
803.50
20
859.08
0
VERTEX
8
1
10
803.50
20
852.74
0
VERTEX
8
1
10
800.50
20
852.74
0
VERTEX
8
1
10
800.50
20
846.40
0
VERTEX
8
1
10
803.50
20
846.40
0
VERTEX
8
1
10
803.50
20
840.06
0
VERTEX
8
1
10
800.50
20
840.06
0
VERTEX
8
1
10
800.50
20
833.72
0
VERTEX
8
1
10
803.50
20
833.72
0
VERTEX
8
1
10
803.50
20
827.38
0
VERTEX
8
1
10
800.50
20
827.38
0
VERTEX
8
1
10
800.50
20
821.05
0
VERTEX
8
1
10
803.50
20
821.05
0
VERTEX
8
1
10
803.50
20
814.71
0
VERTEX
8
1
10
800.50
20
814.71
0
VERTEX
8
1
10
800.50
20
808.37
0
VERTEX
8
1
10
803.50
20
808.37
0
VERTEX
8
1
10
803.50
20
802.03
0
VERTEX
8
1
10
800.50
20
802.03
0
VERTEX
8
1
10
800.50
20
795.69
0
VERTEX
8
1
10
803.50
20
795.69
0
VERTEX
8
1
10
803.50
20
789.35
0
VERTEX
8
1
10
800.50
20
789.35
0
VERTEX
8
1
10
800.50
20
783.01
0
VERTEX
8
1
10
803.50
20
783.01
0
VERTEX
8
1
10
803.50
20
776.68
0
VERTEX
8
1
10
800.50
20
776.68
0
VERTEX
8
1
10
800.50
20
770.34
0
VERTEX
8
1
10
803.50
20
770.34
0
VERTEX
8
1
10
803.50
20
764.00
0
VERTEX
8
1
10
797.33
20
764.00
0
VERTEX
8
1
10
797.33
20
767.00
0
VERTEX
8
1
10
791.17
20
767.00
0
VERTEX
8
1
10
791.17
20
764.00
0
VERTEX
8
1
10
785.00
20
764.00
0
VERTEX
8
1
10
785.00
20
767.00
0
VERTEX
8
1
10
778.83
20
767.00
0
VERTEX
8
1
10
778.83
20
764.00
0
VERTEX
8
1
10
772.67
20
764.00
0
VERTEX
8
1
10
772.67
20
767.00
0
VERTEX
8
1
10
766.50
20
767.00
0
VERTEX
8
1
10
766.50
20
764.00
0
VERTEX
8
1
10
760.33
20
764.00
0
VERTEX
8
1
10
760.33
20
767.00
0
VERTEX
8
1
10
754.17
20
767.00
0
VERTEX
8
1
10
754.17
20
764.00
0
VERTEX
8
1
10
748.00
20
764.00
0
VERTEX
8
1
10
748.00
20
767.00
0
VERTEX
8
1
10
741.83
20
767.00
0
VERTEX
8
1
10
741.83
20
764.00
0
VERTEX
8
1
10
735.67
20
764.00
0
VERTEX
8
1
10
735.67
20
767.00
0
VERTEX
8
1
10
729.50
20
767.00
0
VERTEX
8
1
10
729.50
20
764.00
0
VERTEX
8
1
10
723.33
20
764.00
0
VERTEX
8
1
10
723.33
20
767.00
0
VERTEX
8
1
10
717.17
20
767.00
0
VERTEX
8
1
10
717.17
20
764.00
0
VERTEX
8
1
10
711.00
20
764.00
0
VERTEX
8
1
10
711.00
20
767.00
0
VERTEX
8
1
10
704.83
20
767.00
0
VERTEX
8
1
10
704.83
20
764.00
0
VERTEX
8
1
10
698.67
20
764.00
0
VERTEX
8
1
10
698.67
20
767.00
0
VERTEX
8
1
10
692.50
20
767.00
0
VERTEX
8
1
10
692.50
20
764.00
0
VERTEX
8
1
10
686.33
20
764.00
0
VERTEX
8
1
10
686.33
20
767.00
0
VERTEX
8
1
10
680.17
20
767.00
0
VERTEX
8
1
10
680.17
20
764.00
0
VERTEX
8
1
10
674.00
20
764.00
0
VERTEX
8
1
10
674.00
20
767.00
0
VERTEX
8
1
10
667.83
20
767.00
0
VERTEX
8
1
10
667.83
20
764.00
0
VERTEX
8
1
10
661.67
20
764.00
0
VERTEX
8
1
10
661.67
20
767.00
0
VERTEX
8
1
10
655.50
20
767.00
0
VERTEX
8
1
10
655.50
20
764.00
0
VERTEX
8
1
10
649.33
20
764.00
0
VERTEX
8
1
10
649.33
20
767.00
0
VERTEX
8
1
10
643.17
20
767.00
0
VERTEX
8
1
10
643.17
20
764.00
0
VERTEX
8
1
10
637.00
20
764.00
0
VERTEX
8
1
10
637.00
20
767.00
0
VERTEX
8
1
10
630.83
20
767.00
0
VERTEX
8
1
10
630.83
20
764.00
0
VERTEX
8
1
10
624.67
20
764.00
0
VERTEX
8
1
10
624.67
20
767.00
0
VERTEX
8
1
10
618.50
20
767.00
0
VERTEX
8
1
10
618.50
20
764.00
0
VERTEX
8
1
10
612.33
20
764.00
0
VERTEX
8
1
10
612.33
20
767.00
0
VERTEX
8
1
10
606.17
20
767.00
0
VERTEX
8
1
10
606.17
20
764.00
0
VERTEX
8
1
10
600.00
20
764.00
0
VERTEX
8
1
10
600.00
20
767.00
0
VERTEX
8
1
10
593.83
20
767.00
0
VERTEX
8
1
10
593.83
20
764.00
0
VERTEX
8
1
10
587.67
20
764.00
0
VERTEX
8
1
10
587.67
20
767.00
0
VERTEX
8
1
10
581.50
20
767.00
0
VERTEX
8
1
10
581.50
20
764.00
0
VERTEX
8
1
10
575.33
20
764.00
0
VERTEX
8
1
10
575.33
20
767.00
0
VERTEX
8
1
10
569.17
20
767.00
0
VERTEX
8
1
10
569.17
20
764.00
0
VERTEX
8
1
10
563.00
20
764.00
0
VERTEX
8
1
10
563.00
20
767.00
0
VERTEX
8
1
10
556.83
20
767.00
0
VERTEX
8
1
10
556.83
20
764.00
0
VERTEX
8
1
10
550.67
20
764.00
0
VERTEX
8
1
10
550.67
20
767.00
0
VERTEX
8
1
10
544.50
20
767.00
0
VERTEX
8
1
10
544.50
20
764.00
0
VERTEX
8
1
10
538.33
20
764.00
0
VERTEX
8
1
10
538.33
20
767.00
0
VERTEX
8
1
10
532.17
20
767.00
0
VERTEX
8
1
10
532.17
20
764.00
0
VERTEX
8
1
10
526.00
20
764.00
0
VERTEX
8
1
10
526.00
20
767.00
0
VERTEX
8
1
10
519.83
20
767.00
0
VERTEX
8
1
10
519.83
20
764.00
0
VERTEX
8
1
10
513.67
20
764.00
0
VERTEX
8
1
10
513.67
20
767.00
0
VERTEX
8
1
10
507.50
20
767.00
0
VERTEX
8
1
10
507.50
20
764.00
0
VERTEX
8
1
10
501.33
20
764.00
0
VERTEX
8
1
10
501.33
20
767.00
0
VERTEX
8
1
10
495.17
20
767.00
0
VERTEX
8
1
10
495.17
20
764.00
0
VERTEX
8
1
10
489.00
20
764.00
0
VERTEX
8
1
10
489.00
20
767.00
0
VERTEX
8
1
10
482.83
20
767.00
0
VERTEX
8
1
10
482.83
20
764.00
0
VERTEX
8
1
10
476.67
20
764.00
0
VERTEX
8
1
10
476.67
20
767.00
0
VERTEX
8
1
10
470.50
20
767.00
0
VERTEX
8
1
10
470.50
20
764.00
0
VERTEX
8
1
10
464.33
20
764.00
0
VERTEX
8
1
10
464.33
20
767.00
0
VERTEX
8
1
10
458.17
20
767.00
0
VERTEX
8
1
10
458.17
20
764.00
0
VERTEX
8
1
10
452.00
20
764.00
0
VERTEX
8
1
10
452.00
20
767.00
0
VERTEX
8
1
10
445.83
20
767.00
0
VERTEX
8
1
10
445.83
20
764.00
0
VERTEX
8
1
10
439.67
20
764.00
0
VERTEX
8
1
10
439.67
20
767.00
0
VERTEX
8
1
10
433.50
20
767.00
0
VERTEX
8
1
10
433.50
20
764.00
0
VERTEX
8
1
10
427.33
20
764.00
0
VERTEX
8
1
10
427.33
20
767.00
0
VERTEX
8
1
10
421.17
20
767.00
0
VERTEX
8
1
10
421.17
20
764.00
0
VERTEX
8
1
10
415.00
20
764.00
0
VERTEX
8
1
10
415.00
20
770.34
0
VERTEX
8
1
10
418.00
20
770.34
0
VERTEX
8
1
10
418.00
20
776.68
0
VERTEX
8
1
10
415.00
20
776.68
0
VERTEX
8
1
10
415.00
20
783.01
0
VERTEX
8
1
10
418.00
20
783.01
0
VERTEX
8
1
10
418.00
20
789.35
0
VERTEX
8
1
10
415.00
20
789.35
0
VERTEX
8
1
10
415.00
20
795.69
0
VERTEX
8
1
10
418.00
20
795.69
0
VERTEX
8
1
10
418.00
20
802.03
0
VERTEX
8
1
10
415.00
20
802.03
0
VERTEX
8
1
10
415.00
20
808.37
0
VERTEX
8
1
10
418.00
20
808.37
0
VERTEX
8
1
10
418.00
20
814.71
0
VERTEX
8
1
10
415.00
20
814.71
0
VERTEX
8
1
10
415.00
20
821.05
0
VERTEX
8
1
10
418.00
20
821.05
0
VERTEX
8
1
10
418.00
20
827.38
0
VERTEX
8
1
10
415.00
20
827.38
0
VERTEX
8
1
10
415.00
20
833.72
0
VERTEX
8
1
10
418.00
20
833.72
0
VERTEX
8
1
10
418.00
20
840.06
0
VERTEX
8
1
10
415.00
20
840.06
0
VERTEX
8
1
10
415.00
20
846.40
0
VERTEX
8
1
10
418.00
20
846.40
0
VERTEX
8
1
10
418.00
20
852.74
0
VERTEX
8
1
10
415.00
20
852.74
0
VERTEX
8
1
10
415.00
20
859.08
0
VERTEX
8
1
10
418.00
20
859.08
0
VERTEX
8
1
10
418.00
20
865.41
0
VERTEX
8
1
10
415.00
20
865.41
0
VERTEX
8
1
10
415.00
20
871.75
0
VERTEX
8
1
10
418.00
20
871.75
0
VERTEX
8
1
10
418.00
20
878.09
0
VERTEX
8
1
10
415.00
20
878.09
0
VERTEX
8
1
10
415.00
20
884.43
0
VERTEX
8
1
10
418.00
20
884.43
0
VERTEX
8
1
10
418.00
20
890.77
0
VERTEX
8
1
10
415.00
20
890.77
0
VERTEX
8
1
10
415.00
20
897.11
0
VERTEX
8
1
10
418.00
20
897.11
0
VERTEX
8
1
10
418.00
20
903.45
0
VERTEX
8
1
10
415.00
20
903.45
0
VERTEX
8
1
10
415.00
20
909.78
0
VERTEX
8
1
10
418.00
20
909.78
0
VERTEX
8
1
10
418.00
20
916.12
0
VERTEX
8
1
10
415.00
20
916.12
0
VERTEX
8
1
10
415.00
20
922.46
0
VERTEX
8
1
10
418.00
20
922.46
0
VERTEX
8
1
10
418.00
20
928.80
0
VERTEX
8
1
10
415.00
20
928.80
0
VERTEX
8
1
10
415.00
20
935.14
0
VERTEX
8
1
10
418.00
20
935.14
0
VERTEX
8
1
10
418.00
20
941.48
0
VERTEX
8
1
10
415.00
20
941.48
0
VERTEX
8
1
10
415.00
20
947.82
0
VERTEX
8
1
10
418.00
20
947.82
0
VERTEX
8
1
10
418.00
20
954.15
0
VERTEX
8
1
10
415.00
20
954.15
0
VERTEX
8
1
10
415.00
20
960.49
0
VERTEX
8
1
10
418.00
20
960.49
0
VERTEX
8
1
10
418.00
20
966.83
0
VERTEX
8
1
10
415.00
20
966.83
0
VERTEX
8
1
10
415.00
20
973.17
0
VERTEX
8
1
10
418.00
20
973.17
0
VERTEX
8
1
10
418.00
20
979.51
0
VERTEX
8
1
10
415.00
20
979.51
0
VERTEX
8
1
10
415.00
20
985.85
0
VERTEX
8
1
10
418.00
20
985.85
0
VERTEX
8
1
10
418.00
20
992.18
0
VERTEX
8
1
10
415.00
20
992.18
0
VERTEX
8
1
10
415.00
20
998.52
0
VERTEX
8
1
10
418.00
20
998.52
0
VERTEX
8
1
10
418.00
20
1004.86
0
VERTEX
8
1
10
415.00
20
1004.86
0
VERTEX
8
1
10
415.00
20
1011.20
0
VERTEX
8
1
10
418.00
20
1011.20
0
VERTEX
8
1
10
418.00
20
1017.54
0
VERTEX
8
1
10
415.00
20
1017.54
0
VERTEX
8
1
10
415.00
20
1023.88
0
VERTEX
8
1
10
418.00
20
1023.88
0
VERTEX
8
1
10
418.00
20
1030.22
0
VERTEX
8
1
10
415.00
20
1030.22
0
VERTEX
8
1
10
415.00
20
1036.55
0
VERTEX
8
1
10
418.00
20
1036.55
0
VERTEX
8
1
10
418.00
20
1042.89
0
VERTEX
8
1
10
415.00
20
1042.89
0
VERTEX
8
1
10
415.00
20
1049.23
0
VERTEX
8
1
10
418.00
20
1049.23
0
VERTEX
8
1
10
418.00
20
1055.57
0
VERTEX
8
1
10
415.00
20
1055.57
0
VERTEX
8
1
10
415.00
20
1061.91
0
VERTEX
8
1
10
418.00
20
1061.91
0
VERTEX
8
1
10
418.00
20
1068.25
0
VERTEX
8
1
10
415.00
20
1068.25
0
VERTEX
8
1
10
415.00
20
1074.59
0
VERTEX
8
1
10
418.00
20
1074.59
0
VERTEX
8
1
10
418.00
20
1080.92
0
VERTEX
8
1
10
415.00
20
1080.92
0
VERTEX
8
1
10
415.00
20
1087.26
0
VERTEX
8
1
10
418.00
20
1087.26
0
VERTEX
8
1
10
418.00
20
1093.60
0
VERTEX
8
1
10
415.00
20
1093.60
0
VERTEX
8
1
10
415.00
20
1099.94
0
VERTEX
8
1
10
418.00
20
1099.94
0
VERTEX
8
1
10
418.00
20
1106.28
0
VERTEX
8
1
10
415.00
20
1106.28
0
VERTEX
8
1
10
415.00
20
1112.62
0
VERTEX
8
1
10
418.00
20
1112.62
0
VERTEX
8
1
10
418.00
20
1118.95
0
VERTEX
8
1
10
415.00
20
1118.95
0
VERTEX
8
1
10
415.00
20
1125.29
0
VERTEX
8
1
10
418.00
20
1125.29
0
VERTEX
8
1
10
418.00
20
1131.63
0
VERTEX
8
1
10
415.00
20
1131.63
0
VERTEX
8
1
10
415.00
20
1137.97
0
VERTEX
8
1
10
418.00
20
1137.97
0
VERTEX
8
1
10
418.00
20
1144.31
0
VERTEX
8
1
10
415.00
20
1144.31
0
VERTEX
8
1
10
415.00
20
1150.65
0
VERTEX
8
1
10
418.00
20
1150.65
0
VERTEX
8
1
10
418.00
20
1156.98
0
VERTEX
8
1
10
415.00
20
1156.98
0
VERTEX
8
1
10
415.00
20
1163.32
0
VERTEX
8
1
10
418.00
20
1163.32
0
VERTEX
8
1
10
418.00
20
1169.66
0
VERTEX
8
1
10
415.00
20
1169.66
0
VERTEX
8
1
10
415.00
20
1176.00
0
VERTEX
8
1
10
418.00
20
1176.00
0
SEQEND
0
POLYLINE
8
1
66
1
70
0
0
VERTEX
8
1
10
0.00
20
418.00
0
VERTEX
8
1
10
0.00
20
758.00
0
VERTEX
8
1
10
6.34
20
758.00
0
VERTEX
8
1
10
6.34
20
761.00
0
VERTEX
8
1
10
12.68
20
761.00
0
VERTEX
8
1
10
12.68
20
758.00
0
VERTEX
8
1
10
19.02
20
758.00
0
VERTEX
8
1
10
19.02
20
761.00
0
VERTEX
8
1
10
25.35
20
761.00
0
VERTEX
8
1
10
25.35
20
758.00
0
VERTEX
8
1
10
31.69
20
758.00
0
VERTEX
8
1
10
31.69
20
761.00
0
VERTEX
8
1
10
38.03
20
761.00
0
VERTEX
8
1
10
38.03
20
758.00
0
VERTEX
8
1
10
44.37
20
758.00
0
VERTEX
8
1
10
44.37
20
761.00
0
VERTEX
8
1
10
50.71
20
761.00
0
VERTEX
8
1
10
50.71
20
758.00
0
VERTEX
8
1
10
57.05
20
758.00
0
VERTEX
8
1
10
57.05
20
761.00
0
VERTEX
8
1
10
63.38
20
761.00
0
VERTEX
8
1
10
63.38
20
758.00
0
VERTEX
8
1
10
69.72
20
758.00
0
VERTEX
8
1
10
69.72
20
761.00
0
VERTEX
8
1
10
76.06
20
761.00
0
VERTEX
8
1
10
76.06
20
758.00
0
VERTEX
8
1
10
82.40
20
758.00
0
VERTEX
8
1
10
82.40
20
761.00
0
VERTEX
8
1
10
88.74
20
761.00
0
VERTEX
8
1
10
88.74
20
758.00
0
VERTEX
8
1
10
95.08
20
758.00
0
VERTEX
8
1
10
95.08
20
761.00
0
VERTEX
8
1
10
101.42
20
761.00
0
VERTEX
8
1
10
101.42
20
758.00
0
VERTEX
8
1
10
107.75
20
758.00
0
VERTEX
8
1
10
107.75
20
761.00
0
VERTEX
8
1
10
114.09
20
761.00
0
VERTEX
8
1
10
114.09
20
758.00
0
VERTEX
8
1
10
120.43
20
758.00
0
VERTEX
8
1
10
120.43
20
761.00
0
VERTEX
8
1
10
126.77
20
761.00
0
VERTEX
8
1
10
126.77
20
758.00
0
VERTEX
8
1
10
133.11
20
758.00
0
VERTEX
8
1
10
133.11
20
761.00
0
VERTEX
8
1
10
139.45
20
761.00
0
VERTEX
8
1
10
139.45
20
758.00
0
VERTEX
8
1
10
145.78
20
758.00
0
VERTEX
8
1
10
145.78
20
761.00
0
VERTEX
8
1
10
152.12
20
761.00
0
VERTEX
8
1
10
152.12
20
758.00
0
VERTEX
8
1
10
158.46
20
758.00
0
VERTEX
8
1
10
158.46
20
761.00
0
VERTEX
8
1
10
164.80
20
761.00
0
VERTEX
8
1
10
164.80
20
758.00
0
VERTEX
8
1
10
171.14
20
758.00
0
VERTEX
8
1
10
171.14
20
761.00
0
VERTEX
8
1
10
177.48
20
761.00
0
VERTEX
8
1
10
177.48
20
758.00
0
VERTEX
8
1
10
183.81
20
758.00
0
VERTEX
8
1
10
183.81
20
761.00
0
VERTEX
8
1
10
190.15
20
761.00
0
VERTEX
8
1
10
190.15
20
758.00
0
VERTEX
8
1
10
196.49
20
758.00
0
VERTEX
8
1
10
196.49
20
761.00
0
VERTEX
8
1
10
202.83
20
761.00
0
VERTEX
8
1
10
202.83
20
758.00
0
VERTEX
8
1
10
209.17
20
758.00
0
VERTEX
8
1
10
209.17
20
761.00
0
VERTEX
8
1
10
215.51
20
761.00
0
VERTEX
8
1
10
215.51
20
758.00
0
VERTEX
8
1
10
221.85
20
758.00
0
VERTEX
8
1
10
221.85
20
761.00
0
VERTEX
8
1
10
228.19
20
761.00
0
VERTEX
8
1
10
228.19
20
758.00
0
VERTEX
8
1
10
234.52
20
758.00
0
VERTEX
8
1
10
234.52
20
761.00
0
VERTEX
8
1
10
240.86
20
761.00
0
VERTEX
8
1
10
240.86
20
758.00
0
VERTEX
8
1
10
247.20
20
758.00
0
VERTEX
8
1
10
247.20
20
761.00
0
VERTEX
8
1
10
253.54
20
761.00
0
VERTEX
8
1
10
253.54
20
758.00
0
VERTEX
8
1
10
259.88
20
758.00
0
VERTEX
8
1
10
259.88
20
761.00
0
VERTEX
8
1
10
266.21
20
761.00
0
VERTEX
8
1
10
266.21
20
758.00
0
VERTEX
8
1
10
272.55
20
758.00
0
VERTEX
8
1
10
272.55
20
761.00
0
VERTEX
8
1
10
278.89
20
761.00
0
VERTEX
8
1
10
278.89
20
758.00
0
VERTEX
8
1
10
285.23
20
758.00
0
VERTEX
8
1
10
285.23
20
761.00
0
VERTEX
8
1
10
291.57
20
761.00
0
VERTEX
8
1
10
291.57
20
758.00
0
VERTEX
8
1
10
297.91
20
758.00
0
VERTEX
8
1
10
297.91
20
761.00
0
VERTEX
8
1
10
304.25
20
761.00
0
VERTEX
8
1
10
304.25
20
758.00
0
VERTEX
8
1
10
310.58
20
758.00
0
VERTEX
8
1
10
310.58
20
761.00
0
VERTEX
8
1
10
316.92
20
761.00
0
VERTEX
8
1
10
316.92
20
758.00
0
VERTEX
8
1
10
323.26
20
758.00
0
VERTEX
8
1
10
323.26
20
761.00
0
VERTEX
8
1
10
329.60
20
761.00
0
VERTEX
8
1
10
329.60
20
758.00
0
VERTEX
8
1
10
335.94
20
758.00
0
VERTEX
8
1
10
335.94
20
761.00
0
VERTEX
8
1
10
342.28
20
761.00
0
VERTEX
8
1
10
342.28
20
758.00
0
VERTEX
8
1
10
348.62
20
758.00
0
VERTEX
8
1
10
348.62
20
761.00
0
VERTEX
8
1
10
354.95
20
761.00
0
VERTEX
8
1
10
354.95
20
758.00
0
VERTEX
8
1
10
361.29
20
758.00
0
VERTEX
8
1
10
361.29
20
761.00
0
VERTEX
8
1
10
367.63
20
761.00
0
VERTEX
8
1
10
367.63
20
758.00
0
VERTEX
8
1
10
373.97
20
758.00
0
VERTEX
8
1
10
373.97
20
761.00
0
VERTEX
8
1
10
380.31
20
761.00
0
VERTEX
8
1
10
380.31
20
758.00
0
VERTEX
8
1
10
386.65
20
758.00
0
VERTEX
8
1
10
386.65
20
761.00
0
VERTEX
8
1
10
392.99
20
761.00
0
VERTEX
8
1
10
392.99
20
758.00
0
VERTEX
8
1
10
399.32
20
758.00
0
VERTEX
8
1
10
399.32
20
761.00
0
VERTEX
8
1
10
405.66
20
761.00
0
VERTEX
8
1
10
405.66
20
758.00
0
VERTEX
8
1
10
412.00
20
758.00
0
VERTEX
8
1
10
412.00
20
751.82
0
VERTEX
8
1
10
409.00
20
751.82
0
VERTEX
8
1
10
409.00
20
745.64
0
VERTEX
8
1
10
412.00
20
745.64
0
VERTEX
8
1
10
412.00
20
739.46
0
VERTEX
8
1
10
409.00
20
739.46
0
VERTEX
8
1
10
409.00
20
733.27
0
VERTEX
8
1
10
412.00
20
733.27
0
VERTEX
8
1
10
412.00
20
727.09
0
VERTEX
8
1
10
409.00
20
727.09
0
VERTEX
8
1
10
409.00
20
720.91
0
VERTEX
8
1
10
412.00
20
720.91
0
VERTEX
8
1
10
412.00
20
714.73
0
VERTEX
8
1
10
409.00
20
714.73
0
VERTEX
8
1
10
409.00
20
708.54
0
VERTEX
8
1
10
412.00
20
708.54
0
VERTEX
8
1
10
412.00
20
702.36
0
VERTEX
8
1
10
409.00
20
702.36
0
VERTEX
8
1
10
409.00
20
696.18
0
VERTEX
8
1
10
412.00
20
696.18
0
VERTEX
8
1
10
412.00
20
690.00
0
VERTEX
8
1
10
409.00
20
690.00
0
VERTEX
8
1
10
409.00
20
683.82
0
VERTEX
8
1
10
412.00
20
683.82
0
VERTEX
8
1
10
412.00
20
677.64
0
VERTEX
8
1
10
409.00
20
677.64
0
VERTEX
8
1
10
409.00
20
671.46
0
VERTEX
8
1
10
412.00
20
671.46
0
VERTEX
8
1
10
412.00
20
665.27
0
VERTEX
8
1
10
409.00
20
665.27
0
VERTEX
8
1
10
409.00
20
659.09
0
VERTEX
8
1
10
412.00
20
659.09
0
VERTEX
8
1
10
412.00
20
652.91
0
VERTEX
8
1
10
409.00
20
652.91
0
VERTEX
8
1
10
409.00
20
646.73
0
VERTEX
8
1
10
412.00
20
646.73
0
VERTEX
8
1
10
412.00
20
640.54
0
VERTEX
8
1
10
409.00
20
640.54
0
VERTEX
8
1
10
409.00
20
634.36
0
VERTEX
8
1
10
412.00
20
634.36
0
VERTEX
8
1
10
412.00
20
628.18
0
VERTEX
8
1
10
409.00
20
628.18
0
VERTEX
8
1
10
409.00
20
622.00
0
VERTEX
8
1
10
412.00
20
622.00
0
VERTEX
8
1
10
412.00
20
615.82
0
VERTEX
8
1
10
409.00
20
615.82
0
VERTEX
8
1
10
409.00
20
609.64
0
VERTEX
8
1
10
412.00
20
609.64
0
VERTEX
8
1
10
412.00
20
603.46
0
VERTEX
8
1
10
409.00
20
603.46
0
VERTEX
8
1
10
409.00
20
597.27
0
VERTEX
8
1
10
412.00
20
597.27
0
VERTEX
8
1
10
412.00
20
591.09
0
VERTEX
8
1
10
409.00
20
591.09
0
VERTEX
8
1
10
409.00
20
584.91
0
VERTEX
8
1
10
412.00
20
584.91
0
VERTEX
8
1
10
412.00
20
578.73
0
VERTEX
8
1
10
409.00
20
578.73
0
VERTEX
8
1
10
409.00
20
572.54
0
VERTEX
8
1
10
412.00
20
572.54
0
VERTEX
8
1
10
412.00
20
566.36
0
VERTEX
8
1
10
409.00
20
566.36
0
VERTEX
8
1
10
409.00
20
560.18
0
VERTEX
8
1
10
412.00
20
560.18
0
VERTEX
8
1
10
412.00
20
554.00
0
VERTEX
8
1
10
409.00
20
554.00
0
VERTEX
8
1
10
409.00
20
547.82
0
VERTEX
8
1
10
412.00
20
547.82
0
VERTEX
8
1
10
412.00
20
541.64
0
VERTEX
8
1
10
409.00
20
541.64
0
VERTEX
8
1
10
409.00
20
535.46
0
VERTEX
8
1
10
412.00
20
535.46
0
VERTEX
8
1
10
412.00
20
529.27
0
VERTEX
8
1
10
409.00
20
529.27
0
VERTEX
8
1
10
409.00
20
523.09
0
VERTEX
8
1
10
412.00
20
523.09
0
VERTEX
8
1
10
412.00
20
516.91
0
VERTEX
8
1
10
409.00
20
516.91
0
VERTEX
8
1
10
409.00
20
510.73
0
VERTEX
8
1
10
412.00
20
510.73
0
VERTEX
8
1
10
412.00
20
504.55
0
VERTEX
8
1
10
409.00
20
504.55
0
VERTEX
8
1
10
409.00
20
498.36
0
VERTEX
8
1
10
412.00
20
498.36
0
VERTEX
8
1
10
412.00
20
492.18
0
VERTEX
8
1
10
409.00
20
492.18
0
VERTEX
8
1
10
409.00
20
486.00
0
VERTEX
8
1
10
412.00
20
486.00
0
VERTEX
8
1
10
412.00
20
479.82
0
VERTEX
8
1
10
409.00
20
479.82
0
VERTEX
8
1
10
409.00
20
473.64
0
VERTEX
8
1
10
412.00
20
473.64
0
VERTEX
8
1
10
412.00
20
467.45
0
VERTEX
8
1
10
409.00
20
467.45
0
VERTEX
8
1
10
409.00
20
461.27
0
VERTEX
8
1
10
412.00
20
461.27
0
VERTEX
8
1
10
412.00
20
455.09
0
VERTEX
8
1
10
409.00
20
455.09
0
VERTEX
8
1
10
409.00
20
448.91
0
VERTEX
8
1
10
412.00
20
448.91
0
VERTEX
8
1
10
412.00
20
442.73
0
VERTEX
8
1
10
409.00
20
442.73
0
VERTEX
8
1
10
409.00
20
436.55
0
VERTEX
8
1
10
412.00
20
436.55
0
VERTEX
8
1
10
412.00
20
430.36
0
VERTEX
8
1
10
409.00
20
430.36
0
VERTEX
8
1
10
409.00
20
424.18
0
VERTEX
8
1
10
412.00
20
424.18
0
VERTEX
8
1
10
412.00
20
418.00
0
VERTEX
8
1
10
405.66
20
418.00
0
VERTEX
8
1
10
405.66
20
415.00
0
VERTEX
8
1
10
399.32
20
415.00
0
VERTEX
8
1
10
399.32
20
418.00
0
VERTEX
8
1
10
392.99
20
418.00
0
VERTEX
8
1
10
392.99
20
415.00
0
VERTEX
8
1
10
386.65
20
415.00
0
VERTEX
8
1
10
386.65
20
418.00
0
VERTEX
8
1
10
380.31
20
418.00
0
VERTEX
8
1
10
380.31
20
415.00
0
VERTEX
8
1
10
373.97
20
415.00
0
VERTEX
8
1
10
373.97
20
418.00
0
VERTEX
8
1
10
367.63
20
418.00
0
VERTEX
8
1
10
367.63
20
415.00
0
VERTEX
8
1
10
361.29
20
415.00
0
VERTEX
8
1
10
361.29
20
418.00
0
VERTEX
8
1
10
354.95
20
418.00
0
VERTEX
8
1
10
354.95
20
415.00
0
VERTEX
8
1
10
348.62
20
415.00
0
VERTEX
8
1
10
348.62
20
418.00
0
VERTEX
8
1
10
342.28
20
418.00
0
VERTEX
8
1
10
342.28
20
415.00
0
VERTEX
8
1
10
335.94
20
415.00
0
VERTEX
8
1
10
335.94
20
418.00
0
VERTEX
8
1
10
329.60
20
418.00
0
VERTEX
8
1
10
329.60
20
415.00
0
VERTEX
8
1
10
323.26
20
415.00
0
VERTEX
8
1
10
323.26
20
418.00
0
VERTEX
8
1
10
316.92
20
418.00
0
VERTEX
8
1
10
316.92
20
415.00
0
VERTEX
8
1
10
310.58
20
415.00
0
VERTEX
8
1
10
310.58
20
418.00
0
VERTEX
8
1
10
304.25
20
418.00
0
VERTEX
8
1
10
304.25
20
415.00
0
VERTEX
8
1
10
297.91
20
415.00
0
VERTEX
8
1
10
297.91
20
418.00
0
VERTEX
8
1
10
291.57
20
418.00
0
VERTEX
8
1
10
291.57
20
415.00
0
VERTEX
8
1
10
285.23
20
415.00
0
VERTEX
8
1
10
285.23
20
418.00
0
VERTEX
8
1
10
278.89
20
418.00
0
VERTEX
8
1
10
278.89
20
415.00
0
VERTEX
8
1
10
272.55
20
415.00
0
VERTEX
8
1
10
272.55
20
418.00
0
VERTEX
8
1
10
266.21
20
418.00
0
VERTEX
8
1
10
266.21
20
415.00
0
VERTEX
8
1
10
259.88
20
415.00
0
VERTEX
8
1
10
259.88
20
418.00
0
VERTEX
8
1
10
253.54
20
418.00
0
VERTEX
8
1
10
253.54
20
415.00
0
VERTEX
8
1
10
247.20
20
415.00
0
VERTEX
8
1
10
247.20
20
418.00
0
VERTEX
8
1
10
240.86
20
418.00
0
VERTEX
8
1
10
240.86
20
415.00
0
VERTEX
8
1
10
234.52
20
415.00
0
VERTEX
8
1
10
234.52
20
418.00
0
VERTEX
8
1
10
228.19
20
418.00
0
VERTEX
8
1
10
228.19
20
415.00
0
VERTEX
8
1
10
221.85
20
415.00
0
VERTEX
8
1
10
221.85
20
418.00
0
VERTEX
8
1
10
215.51
20
418.00
0
VERTEX
8
1
10
215.51
20
415.00
0
VERTEX
8
1
10
209.17
20
415.00
0
VERTEX
8
1
10
209.17
20
418.00
0
VERTEX
8
1
10
202.83
20
418.00
0
VERTEX
8
1
10
202.83
20
415.00
0
VERTEX
8
1
10
196.49
20
415.00
0
VERTEX
8
1
10
196.49
20
418.00
0
VERTEX
8
1
10
190.15
20
418.00
0
VERTEX
8
1
10
190.15
20
415.00
0
VERTEX
8
1
10
183.81
20
415.00
0
VERTEX
8
1
10
183.81
20
418.00
0
VERTEX
8
1
10
177.48
20
418.00
0
VERTEX
8
1
10
177.48
20
415.00
0
VERTEX
8
1
10
171.14
20
415.00
0
VERTEX
8
1
10
171.14
20
418.00
0
VERTEX
8
1
10
164.80
20
418.00
0
VERTEX
8
1
10
164.80
20
415.00
0
VERTEX
8
1
10
158.46
20
415.00
0
VERTEX
8
1
10
158.46
20
418.00
0
VERTEX
8
1
10
152.12
20
418.00
0
VERTEX
8
1
10
152.12
20
415.00
0
VERTEX
8
1
10
145.78
20
415.00
0
VERTEX
8
1
10
145.78
20
418.00
0
VERTEX
8
1
10
139.45
20
418.00
0
VERTEX
8
1
10
139.45
20
415.00
0
VERTEX
8
1
10
133.11
20
415.00
0
VERTEX
8
1
10
133.11
20
418.00
0
VERTEX
8
1
10
126.77
20
418.00
0
VERTEX
8
1
10
126.77
20
415.00
0
VERTEX
8
1
10
120.43
20
415.00
0
VERTEX
8
1
10
120.43
20
418.00
0
VERTEX
8
1
10
114.09
20
418.00
0
VERTEX
8
1
10
114.09
20
415.00
0
VERTEX
8
1
10
107.75
20
415.00
0
VERTEX
8
1
10
107.75
20
418.00
0
VERTEX
8
1
10
101.42
20
418.00
0
VERTEX
8
1
10
101.42
20
415.00
0
VERTEX
8
1
10
95.08
20
415.00
0
VERTEX
8
1
10
95.08
20
418.00
0
VERTEX
8
1
10
88.74
20
418.00
0
VERTEX
8
1
10
88.74
20
415.00
0
VERTEX
8
1
10
82.40
20
415.00
0
VERTEX
8
1
10
82.40
20
418.00
0
VERTEX
8
1
10
76.06
20
418.00
0
VERTEX
8
1
10
76.06
20
415.00
0
VERTEX
8
1
10
69.72
20
415.00
0
VERTEX
8
1
10
69.72
20
418.00
0
VERTEX
8
1
10
63.38
20
418.00
0
VERTEX
8
1
10
63.38
20
415.00
0
VERTEX
8
1
10
57.05
20
415.00
0
VERTEX
8
1
10
57.05
20
418.00
0
VERTEX
8
1
10
50.71
20
418.00
0
VERTEX
8
1
10
50.71
20
415.00
0
VERTEX
8
1
10
44.37
20
415.00
0
VERTEX
8
1
10
44.37
20
418.00
0
VERTEX
8
1
10
38.03
20
418.00
0
VERTEX
8
1
10
38.03
20
415.00
0
VERTEX
8
1
10
31.69
20
415.00
0
VERTEX
8
1
10
31.69
20
418.00
0
VERTEX
8
1
10
25.35
20
418.00
0
VERTEX
8
1
10
25.35
20
415.00
0
VERTEX
8
1
10
19.02
20
415.00
0
VERTEX
8
1
10
19.02
20
418.00
0
VERTEX
8
1
10
12.68
20
418.00
0
VERTEX
8
1
10
12.68
20
415.00
0
VERTEX
8
1
10
6.34
20
415.00
0
VERTEX
8
1
10
6.34
20
418.00
0
VERTEX
8
1
10
0.00
20
418.00
0
SEQEND
0
POLYLINE
8
1
66
1
70
0
0
VERTEX
8
1
10
1218.50
20
418.00
0
VERTEX
8
1
10
1218.50
20
758.00
0
VERTEX
8
1
10
1212.16
20
758.00
0
VERTEX
8
1
10
1212.16
20
761.00
0
VERTEX
8
1
10
1205.82
20
761.00
0
VERTEX
8
1
10
1205.82
20
758.00
0
VERTEX
8
1
10
1199.48
20
758.00
0
VERTEX
8
1
10
1199.48
20
761.00
0
VERTEX
8
1
10
1193.15
20
761.00
0
VERTEX
8
1
10
1193.15
20
758.00
0
VERTEX
8
1
10
1186.81
20
758.00
0
VERTEX
8
1
10
1186.81
20
761.00
0
VERTEX
8
1
10
1180.47
20
761.00
0
VERTEX
8
1
10
1180.47
20
758.00
0
VERTEX
8
1
10
1174.13
20
758.00
0
VERTEX
8
1
10
1174.13
20
761.00
0
VERTEX
8
1
10
1167.79
20
761.00
0
VERTEX
8
1
10
1167.79
20
758.00
0
VERTEX
8
1
10
1161.45
20
758.00
0
VERTEX
8
1
10
1161.45
20
761.00
0
VERTEX
8
1
10
1155.12
20
761.00
0
VERTEX
8
1
10
1155.12
20
758.00
0
VERTEX
8
1
10
1148.78
20
758.00
0
VERTEX
8
1
10
1148.78
20
761.00
0
VERTEX
8
1
10
1142.44
20
761.00
0
VERTEX
8
1
10
1142.44
20
758.00
0
VERTEX
8
1
10
1136.10
20
758.00
0
VERTEX
8
1
10
1136.10
20
761.00
0
VERTEX
8
1
10
1129.76
20
761.00
0
VERTEX
8
1
10
1129.76
20
758.00
0
VERTEX
8
1
10
1123.42
20
758.00
0
VERTEX
8
1
10
1123.42
20
761.00
0
VERTEX
8
1
10
1117.09
20
761.00
0
VERTEX
8
1
10
1117.09
20
758.00
0
VERTEX
8
1
10
1110.75
20
758.00
0
VERTEX
8
1
10
1110.75
20
761.00
0
VERTEX
8
1
10
1104.41
20
761.00
0
VERTEX
8
1
10
1104.41
20
758.00
0
VERTEX
8
1
10
1098.07
20
758.00
0
VERTEX
8
1
10
1098.07
20
761.00
0
VERTEX
8
1
10
1091.73
20
761.00
0
VERTEX
8
1
10
1091.73
20
758.00
0
VERTEX
8
1
10
1085.39
20
758.00
0
VERTEX
8
1
10
1085.39
20
761.00
0
VERTEX
8
1
10
1079.05
20
761.00
0
VERTEX
8
1
10
1079.05
20
758.00
0
VERTEX
8
1
10
1072.71
20
758.00
0
VERTEX
8
1
10
1072.71
20
761.00
0
VERTEX
8
1
10
1066.38
20
761.00
0
VERTEX
8
1
10
1066.38
20
758.00
0
VERTEX
8
1
10
1060.04
20
758.00
0
VERTEX
8
1
10
1060.04
20
761.00
0
VERTEX
8
1
10
1053.70
20
761.00
0
VERTEX
8
1
10
1053.70
20
758.00
0
VERTEX
8
1
10
1047.36
20
758.00
0
VERTEX
8
1
10
1047.36
20
761.00
0
VERTEX
8
1
10
1041.02
20
761.00
0
VERTEX
8
1
10
1041.02
20
758.00
0
VERTEX
8
1
10
1034.68
20
758.00
0
VERTEX
8
1
10
1034.68
20
761.00
0
VERTEX
8
1
10
1028.35
20
761.00
0
VERTEX
8
1
10
1028.35
20
758.00
0
VERTEX
8
1
10
1022.01
20
758.00
0
VERTEX
8
1
10
1022.01
20
761.00
0
VERTEX
8
1
10
1015.67
20
761.00
0
VERTEX
8
1
10
1015.67
20
758.00
0
VERTEX
8
1
10
1009.33
20
758.00
0
VERTEX
8
1
10
1009.33
20
761.00
0
VERTEX
8
1
10
1002.99
20
761.00
0
VERTEX
8
1
10
1002.99
20
758.00
0
VERTEX
8
1
10
996.65
20
758.00
0
VERTEX
8
1
10
996.65
20
761.00
0
VERTEX
8
1
10
990.32
20
761.00
0
VERTEX
8
1
10
990.32
20
758.00
0
VERTEX
8
1
10
983.98
20
758.00
0
VERTEX
8
1
10
983.98
20
761.00
0
VERTEX
8
1
10
977.64
20
761.00
0
VERTEX
8
1
10
977.64
20
758.00
0
VERTEX
8
1
10
971.30
20
758.00
0
VERTEX
8
1
10
971.30
20
761.00
0
VERTEX
8
1
10
964.96
20
761.00
0
VERTEX
8
1
10
964.96
20
758.00
0
VERTEX
8
1
10
958.62
20
758.00
0
VERTEX
8
1
10
958.62
20
761.00
0
VERTEX
8
1
10
952.28
20
761.00
0
VERTEX
8
1
10
952.28
20
758.00
0
VERTEX
8
1
10
945.95
20
758.00
0
VERTEX
8
1
10
945.95
20
761.00
0
VERTEX
8
1
10
939.61
20
761.00
0
VERTEX
8
1
10
939.61
20
758.00
0
VERTEX
8
1
10
933.27
20
758.00
0
VERTEX
8
1
10
933.27
20
761.00
0
VERTEX
8
1
10
926.93
20
761.00
0
VERTEX
8
1
10
926.93
20
758.00
0
VERTEX
8
1
10
920.59
20
758.00
0
VERTEX
8
1
10
920.59
20
761.00
0
VERTEX
8
1
10
914.25
20
761.00
0
VERTEX
8
1
10
914.25
20
758.00
0
VERTEX
8
1
10
907.91
20
758.00
0
VERTEX
8
1
10
907.91
20
761.00
0
VERTEX
8
1
10
901.58
20
761.00
0
VERTEX
8
1
10
901.58
20
758.00
0
VERTEX
8
1
10
895.24
20
758.00
0
VERTEX
8
1
10
895.24
20
761.00
0
VERTEX
8
1
10
888.90
20
761.00
0
VERTEX
8
1
10
888.90
20
758.00
0
VERTEX
8
1
10
882.56
20
758.00
0
VERTEX
8
1
10
882.56
20
761.00
0
VERTEX
8
1
10
876.22
20
761.00
0
VERTEX
8
1
10
876.22
20
758.00
0
VERTEX
8
1
10
869.88
20
758.00
0
VERTEX
8
1
10
869.88
20
761.00
0
VERTEX
8
1
10
863.55
20
761.00
0
VERTEX
8
1
10
863.55
20
758.00
0
VERTEX
8
1
10
857.21
20
758.00
0
VERTEX
8
1
10
857.21
20
761.00
0
VERTEX
8
1
10
850.87
20
761.00
0
VERTEX
8
1
10
850.87
20
758.00
0
VERTEX
8
1
10
844.53
20
758.00
0
VERTEX
8
1
10
844.53
20
761.00
0
VERTEX
8
1
10
838.19
20
761.00
0
VERTEX
8
1
10
838.19
20
758.00
0
VERTEX
8
1
10
831.85
20
758.00
0
VERTEX
8
1
10
831.85
20
761.00
0
VERTEX
8
1
10
825.51
20
761.00
0
VERTEX
8
1
10
825.51
20
758.00
0
VERTEX
8
1
10
819.18
20
758.00
0
VERTEX
8
1
10
819.18
20
761.00
0
VERTEX
8
1
10
812.84
20
761.00
0
VERTEX
8
1
10
812.84
20
758.00
0
VERTEX
8
1
10
806.50
20
758.00
0
VERTEX
8
1
10
806.50
20
751.82
0
VERTEX
8
1
10
809.50
20
751.82
0
VERTEX
8
1
10
809.50
20
745.64
0
VERTEX
8
1
10
806.50
20
745.64
0
VERTEX
8
1
10
806.50
20
739.46
0
VERTEX
8
1
10
809.50
20
739.46
0
VERTEX
8
1
10
809.50
20
733.27
0
VERTEX
8
1
10
806.50
20
733.27
0
VERTEX
8
1
10
806.50
20
727.09
0
VERTEX
8
1
10
809.50
20
727.09
0
VERTEX
8
1
10
809.50
20
720.91
0
VERTEX
8
1
10
806.50
20
720.91
0
VERTEX
8
1
10
806.50
20
714.73
0
VERTEX
8
1
10
809.50
20
714.73
0
VERTEX
8
1
10
809.50
20
708.54
0
VERTEX
8
1
10
806.50
20
708.54
0
VERTEX
8
1
10
806.50
20
702.36
0
VERTEX
8
1
10
809.50
20
702.36
0
VERTEX
8
1
10
809.50
20
696.18
0
VERTEX
8
1
10
806.50
20
696.18
0
VERTEX
8
1
10
806.50
20
690.00
0
VERTEX
8
1
10
809.50
20
690.00
0
VERTEX
8
1
10
809.50
20
683.82
0
VERTEX
8
1
10
806.50
20
683.82
0
VERTEX
8
1
10
806.50
20
677.64
0
VERTEX
8
1
10
809.50
20
677.64
0
VERTEX
8
1
10
809.50
20
671.46
0
VERTEX
8
1
10
806.50
20
671.46
0
VERTEX
8
1
10
806.50
20
665.27
0
VERTEX
8
1
10
809.50
20
665.27
0
VERTEX
8
1
10
809.50
20
659.09
0
VERTEX
8
1
10
806.50
20
659.09
0
VERTEX
8
1
10
806.50
20
652.91
0
VERTEX
8
1
10
809.50
20
652.91
0
VERTEX
8
1
10
809.50
20
646.73
0
VERTEX
8
1
10
806.50
20
646.73
0
VERTEX
8
1
10
806.50
20
640.54
0
VERTEX
8
1
10
809.50
20
640.54
0
VERTEX
8
1
10
809.50
20
634.36
0
VERTEX
8
1
10
806.50
20
634.36
0
VERTEX
8
1
10
806.50
20
628.18
0
VERTEX
8
1
10
809.50
20
628.18
0
VERTEX
8
1
10
809.50
20
622.00
0
VERTEX
8
1
10
806.50
20
622.00
0
VERTEX
8
1
10
806.50
20
615.82
0
VERTEX
8
1
10
809.50
20
615.82
0
VERTEX
8
1
10
809.50
20
609.64
0
VERTEX
8
1
10
806.50
20
609.64
0
VERTEX
8
1
10
806.50
20
603.46
0
VERTEX
8
1
10
809.50
20
603.46
0
VERTEX
8
1
10
809.50
20
597.27
0
VERTEX
8
1
10
806.50
20
597.27
0
VERTEX
8
1
10
806.50
20
591.09
0
VERTEX
8
1
10
809.50
20
591.09
0
VERTEX
8
1
10
809.50
20
584.91
0
VERTEX
8
1
10
806.50
20
584.91
0
VERTEX
8
1
10
806.50
20
578.73
0
VERTEX
8
1
10
809.50
20
578.73
0
VERTEX
8
1
10
809.50
20
572.54
0
VERTEX
8
1
10
806.50
20
572.54
0
VERTEX
8
1
10
806.50
20
566.36
0
VERTEX
8
1
10
809.50
20
566.36
0
VERTEX
8
1
10
809.50
20
560.18
0
VERTEX
8
1
10
806.50
20
560.18
0
VERTEX
8
1
10
806.50
20
554.00
0
VERTEX
8
1
10
809.50
20
554.00
0
VERTEX
8
1
10
809.50
20
547.82
0
VERTEX
8
1
10
806.50
20
547.82
0
VERTEX
8
1
10
806.50
20
541.64
0
VERTEX
8
1
10
809.50
20
541.64
0
VERTEX
8
1
10
809.50
20
535.46
0
VERTEX
8
1
10
806.50
20
535.46
0
VERTEX
8
1
10
806.50
20
529.27
0
VERTEX
8
1
10
809.50
20
529.27
0
VERTEX
8
1
10
809.50
20
523.09
0
VERTEX
8
1
10
806.50
20
523.09
0
VERTEX
8
1
10
806.50
20
516.91
0
VERTEX
8
1
10
809.50
20
516.91
0
VERTEX
8
1
10
809.50
20
510.73
0
VERTEX
8
1
10
806.50
20
510.73
0
VERTEX
8
1
10
806.50
20
504.55
0
VERTEX
8
1
10
809.50
20
504.55
0
VERTEX
8
1
10
809.50
20
498.36
0
VERTEX
8
1
10
806.50
20
498.36
0
VERTEX
8
1
10
806.50
20
492.18
0
VERTEX
8
1
10
809.50
20
492.18
0
VERTEX
8
1
10
809.50
20
486.00
0
VERTEX
8
1
10
806.50
20
486.00
0
VERTEX
8
1
10
806.50
20
479.82
0
VERTEX
8
1
10
809.50
20
479.82
0
VERTEX
8
1
10
809.50
20
473.64
0
VERTEX
8
1
10
806.50
20
473.64
0
VERTEX
8
1
10
806.50
20
467.45
0
VERTEX
8
1
10
809.50
20
467.45
0
VERTEX
8
1
10
809.50
20
461.27
0
VERTEX
8
1
10
806.50
20
461.27
0
VERTEX
8
1
10
806.50
20
455.09
0
VERTEX
8
1
10
809.50
20
455.09
0
VERTEX
8
1
10
809.50
20
448.91
0
VERTEX
8
1
10
806.50
20
448.91
0
VERTEX
8
1
10
806.50
20
442.73
0
VERTEX
8
1
10
809.50
20
442.73
0
VERTEX
8
1
10
809.50
20
436.55
0
VERTEX
8
1
10
806.50
20
436.55
0
VERTEX
8
1
10
806.50
20
430.36
0
VERTEX
8
1
10
809.50
20
430.36
0
VERTEX
8
1
10
809.50
20
424.18
0
VERTEX
8
1
10
806.50
20
424.18
0
VERTEX
8
1
10
806.50
20
418.00
0
VERTEX
8
1
10
812.84
20
418.00
0
VERTEX
8
1
10
812.84
20
415.00
0
VERTEX
8
1
10
819.18
20
415.00
0
VERTEX
8
1
10
819.18
20
418.00
0
VERTEX
8
1
10
825.51
20
418.00
0
VERTEX
8
1
10
825.51
20
415.00
0
VERTEX
8
1
10
831.85
20
415.00
0
VERTEX
8
1
10
831.85
20
418.00
0
VERTEX
8
1
10
838.19
20
418.00
0
VERTEX
8
1
10
838.19
20
415.00
0
VERTEX
8
1
10
844.53
20
415.00
0
VERTEX
8
1
10
844.53
20
418.00
0
VERTEX
8
1
10
850.87
20
418.00
0
VERTEX
8
1
10
850.87
20
415.00
0
VERTEX
8
1
10
857.21
20
415.00
0
VERTEX
8
1
10
857.21
20
418.00
0
VERTEX
8
1
10
863.55
20
418.00
0
VERTEX
8
1
10
863.55
20
415.00
0
VERTEX
8
1
10
869.88
20
415.00
0
VERTEX
8
1
10
869.88
20
418.00
0
VERTEX
8
1
10
876.22
20
418.00
0
VERTEX
8
1
10
876.22
20
415.00
0
VERTEX
8
1
10
882.56
20
415.00
0
VERTEX
8
1
10
882.56
20
418.00
0
VERTEX
8
1
10
888.90
20
418.00
0
VERTEX
8
1
10
888.90
20
415.00
0
VERTEX
8
1
10
895.24
20
415.00
0
VERTEX
8
1
10
895.24
20
418.00
0
VERTEX
8
1
10
901.58
20
418.00
0
VERTEX
8
1
10
901.58
20
415.00
0
VERTEX
8
1
10
907.91
20
415.00
0
VERTEX
8
1
10
907.91
20
418.00
0
VERTEX
8
1
10
914.25
20
418.00
0
VERTEX
8
1
10
914.25
20
415.00
0
VERTEX
8
1
10
920.59
20
415.00
0
VERTEX
8
1
10
920.59
20
418.00
0
VERTEX
8
1
10
926.93
20
418.00
0
VERTEX
8
1
10
926.93
20
415.00
0
VERTEX
8
1
10
933.27
20
415.00
0
VERTEX
8
1
10
933.27
20
418.00
0
VERTEX
8
1
10
939.61
20
418.00
0
VERTEX
8
1
10
939.61
20
415.00
0
VERTEX
8
1
10
945.95
20
415.00
0
VERTEX
8
1
10
945.95
20
418.00
0
VERTEX
8
1
10
952.28
20
418.00
0
VERTEX
8
1
10
952.28
20
415.00
0
VERTEX
8
1
10
958.62
20
415.00
0
VERTEX
8
1
10
958.62
20
418.00
0
VERTEX
8
1
10
964.96
20
418.00
0
VERTEX
8
1
10
964.96
20
415.00
0
VERTEX
8
1
10
971.30
20
415.00
0
VERTEX
8
1
10
971.30
20
418.00
0
VERTEX
8
1
10
977.64
20
418.00
0
VERTEX
8
1
10
977.64
20
415.00
0
VERTEX
8
1
10
983.98
20
415.00
0
VERTEX
8
1
10
983.98
20
418.00
0
VERTEX
8
1
10
990.32
20
418.00
0
VERTEX
8
1
10
990.32
20
415.00
0
VERTEX
8
1
10
996.65
20
415.00
0
VERTEX
8
1
10
996.65
20
418.00
0
VERTEX
8
1
10
1002.99
20
418.00
0
VERTEX
8
1
10
1002.99
20
415.00
0
VERTEX
8
1
10
1009.33
20
415.00
0
VERTEX
8
1
10
1009.33
20
418.00
0
VERTEX
8
1
10
1015.67
20
418.00
0
VERTEX
8
1
10
1015.67
20
415.00
0
VERTEX
8
1
10
1022.01
20
415.00
0
VERTEX
8
1
10
1022.01
20
418.00
0
VERTEX
8
1
10
1028.35
20
418.00
0
VERTEX
8
1
10
1028.35
20
415.00
0
VERTEX
8
1
10
1034.68
20
415.00
0
VERTEX
8
1
10
1034.68
20
418.00
0
VERTEX
8
1
10
1041.02
20
418.00
0
VERTEX
8
1
10
1041.02
20
415.00
0
VERTEX
8
1
10
1047.36
20
415.00
0
VERTEX
8
1
10
1047.36
20
418.00
0
VERTEX
8
1
10
1053.70
20
418.00
0
VERTEX
8
1
10
1053.70
20
415.00
0
VERTEX
8
1
10
1060.04
20
415.00
0
VERTEX
8
1
10
1060.04
20
418.00
0
VERTEX
8
1
10
1066.38
20
418.00
0
VERTEX
8
1
10
1066.38
20
415.00
0
VERTEX
8
1
10
1072.71
20
415.00
0
VERTEX
8
1
10
1072.71
20
418.00
0
VERTEX
8
1
10
1079.05
20
418.00
0
VERTEX
8
1
10
1079.05
20
415.00
0
VERTEX
8
1
10
1085.39
20
415.00
0
VERTEX
8
1
10
1085.39
20
418.00
0
VERTEX
8
1
10
1091.73
20
418.00
0
VERTEX
8
1
10
1091.73
20
415.00
0
VERTEX
8
1
10
1098.07
20
415.00
0
VERTEX
8
1
10
1098.07
20
418.00
0
VERTEX
8
1
10
1104.41
20
418.00
0
VERTEX
8
1
10
1104.41
20
415.00
0
VERTEX
8
1
10
1110.75
20
415.00
0
VERTEX
8
1
10
1110.75
20
418.00
0
VERTEX
8
1
10
1117.09
20
418.00
0
VERTEX
8
1
10
1117.09
20
415.00
0
VERTEX
8
1
10
1123.42
20
415.00
0
VERTEX
8
1
10
1123.42
20
418.00
0
VERTEX
8
1
10
1129.76
20
418.00
0
VERTEX
8
1
10
1129.76
20
415.00
0
VERTEX
8
1
10
1136.10
20
415.00
0
VERTEX
8
1
10
1136.10
20
418.00
0
VERTEX
8
1
10
1142.44
20
418.00
0
VERTEX
8
1
10
1142.44
20
415.00
0
VERTEX
8
1
10
1148.78
20
415.00
0
VERTEX
8
1
10
1148.78
20
418.00
0
VERTEX
8
1
10
1155.12
20
418.00
0
VERTEX
8
1
10
1155.12
20
415.00
0
VERTEX
8
1
10
1161.45
20
415.00
0
VERTEX
8
1
10
1161.45
20
418.00
0
VERTEX
8
1
10
1167.79
20
418.00
0
VERTEX
8
1
10
1167.79
20
415.00
0
VERTEX
8
1
10
1174.13
20
415.00
0
VERTEX
8
1
10
1174.13
20
418.00
0
VERTEX
8
1
10
1180.47
20
418.00
0
VERTEX
8
1
10
1180.47
20
415.00
0
VERTEX
8
1
10
1186.81
20
415.00
0
VERTEX
8
1
10
1186.81
20
418.00
0
VERTEX
8
1
10
1193.15
20
418.00
0
VERTEX
8
1
10
1193.15
20
415.00
0
VERTEX
8
1
10
1199.48
20
415.00
0
VERTEX
8
1
10
1199.48
20
418.00
0
VERTEX
8
1
10
1205.82
20
418.00
0
VERTEX
8
1
10
1205.82
20
415.00
0
VERTEX
8
1
10
1212.16
20
415.00
0
VERTEX
8
1
10
1212.16
20
418.00
0
VERTEX
8
1
10
1218.50
20
418.00
0
SEQEND
0
ENDSEC
0
EOF
