0
SECTION
2
HEADER
9
$INSUNITS
70
4
9
$ACADVER
1
AC1014
9
$HANDSEED
5
FFFF
0
ENDSEC
0
SECTION
2
TABLES
0
TABLE
2
VPORT
5
8
100
AcDbSymbolTable
0
ENDTAB
0
TABLE
2
LTYPE
5
5
100
AcDbSymbolTable
0
LTYPE
5
14
100
AcDbSymbolTableRecord
100
AcDbLinetypeTableRecord
2
BYBLOCK
70
0
0
LTYPE
5
15
100
AcDbSymbolTableRecord
100
AcDbLinetypeTableRecord
2
BYLAYER
70
0
0
ENDTAB
0
TABLE
2
LAYER
5
2
100
AcDbSymbolTable
70
2
0
LAYER
5
50
100
AcDbSymbolTableRecord
100
AcDbLayerTableRecord
2
0
70
0
6
CONTINUOUS
0
ENDTAB
0
TABLE
2
STYLE
5
3
100
AcDbSymbolTable
70
1
0
STYLE
5
11
100
AcDbSymbolTableRecord
100
AcDbTextStyleTableRecord
2
STANDARD
70
0
0
ENDTAB
0
TABLE
2
VIEW
5
6
100
AcDbSymbolTable
70
0
0
ENDTAB
0
TABLE
2
UCS
5
7
100
AcDbSymbolTable
70
0
0
ENDTAB
0
TABLE
2
APPID
5
9
100
AcDbSymbolTable
70
2
0
APPID
5
12
100
AcDbSymbolTableRecord
100
AcDbRegAppTableRecord
2
ACAD
70
0
0
ENDTAB
0
TABLE
2
DIMSTYLE
5
A
100
AcDbSymbolTable
70
1
0
ENDTAB
0
TABLE
2
BLOCK_RECORD
5
1
100
AcDbSymbolTable
70
1
0
BLOCK_RECORD
5
1F
100
AcDbSymbolTableRecord
100
AcDbBlockTableRecord
2
*MODEL_SPACE
0
BLOCK_RECORD
5
1B
100
AcDbSymbolTableRecord
100
AcDbBlockTableRecord
2
*PAPER_SPACE
0
ENDTAB
0
ENDSEC
0
SECTION
2
BLOCKS
0
BLOCK
5
20
100
AcDbEntity
100
AcDbBlockBegin
2
*MODEL_SPACE
0
ENDBLK
5
21
100
AcDbEntity
100
AcDbBlockEnd
0
BLOCK
5
1C
100
AcDbEntity
100
AcDbBlockBegin
2
*PAPER_SPACE
0
ENDBLK
5
1D
100
AcDbEntity
100
AcDbBlockEnd
0
ENDSEC
0
SECTION
2
ENTITIES
0
CIRCLE
5
100
100
AcDbEntity
8
0
100
AcDbCircle
10
0
20
0
30
0
40
150
210
0
220
-0
230
1
0
LWPOLYLINE
5
101
100
AcDbEntity
8
0
100
AcDbPolyline
90
4
70
1
43
0.0
10
137.24187573383279
20
-50.056643365883559
10
133.49580979967368
20
-59.328481911551435
10
129.60163761049319
20
-57.755134219204606
10
133.34770354465229
20
-48.48329567353673
0
LWPOLYLINE
5
102
100
AcDbEntity
8
0
100
AcDbPolyline
90
4
70
1
43
0.0
10
112.38707306568563
20
-86.610540973533801
10
115.80209626208314
20
-89.055457448194417
10
121.62332596365603
20
-80.924449837724154
10
118.20830276725852
20
-78.479533363063538
0
LWPOLYLINE
5
103
100
AcDbEntity
8
0
100
AcDbPolyline
90
4
70
1
43
0.0
10
99.184383460818779
20
-107.25417510520194
10
91.614432904301211
20
-113.78838114510299
10
88.870066367542776
20
-110.60900191136561
10
96.440016924060345
20
-104.07479587146456
0
LWPOLYLINE
5
104
100
AcDbEntity
8
0
100
AcDbPolyline
90
4
70
1
43
0.0
10
39.190553515876793
20
-140.73059551895338
10
29.470943510091328
20
-143.08201664997927
10
28.483346635060446
20
-138.99978044754934
10
38.202956640845912
20
-136.64835931652345
0
LWPOLYLINE
5
105
100
AcDbEntity
8
0
100
AcDbPolyline
90
4
70
1
43
0.0
10
71.183379217031245
20
-127.56930086523317
10
62.289215484118273
20
-132.14028013582012
10
60.369404190471762
20
-128.40473136799667
10
69.263567923384727
20
-123.83375209740973
0
LINE
5
106
100
AcDbEntity
8
0
100
AcDbLine
10
5.0000000000060805
20
-141.80000000000001
30
0
11
5.0000000000060805
21
-146
31
0
0
LINE
5
107
100
AcDbEntity
8
0
100
AcDbLine
10
-4.9999999999939195
20
-141.80000000000001
30
0
11
-4.9999999999939195
21
-146
31
0
0
LINE
5
108
100
AcDbEntity
8
0
100
AcDbLine
10
-4.9999999999939195
20
-141.80000000000001
30
0
11
5.0000000000060805
21
-141.80000000000001
31
0
0
LWPOLYLINE
5
109
100
AcDbEntity
8
0
100
AcDbPolyline
90
4
70
1
43
0.0
10
-27.59113209666107
20
132.50126538125127
10
-46.816366015427434
20
126.98851826491131
10
-47.96277647790275
20
130.98652667031806
10
-28.737542559136365
20
136.49927378665802
0
LWPOLYLINE
5
110
100
AcDbEntity
8
0
100
AcDbPolyline
90
4
70
1
43
0.0
10
-82.209559718118598
20
112.69199788616893
10
-65.24859779499009
20
123.29038317083301
10
-63.044596864189195
20
119.76324437923367
10
-80.00555878731771
20
109.16485909456961
0
LWPOLYLINE
5
111
100
AcDbEntity
8
0
100
AcDbPolyline
90
4
70
1
43
0.0
10
-111.60531760003329
20
74.610489217676445
10
-115.20911801544882
20
76.613083575785396
10
-107.9231312089177
20
89.724696606036659
10
-104.31933079350215
20
87.722102247927708
0
LWPOLYLINE
5
112
100
AcDbEntity
8
0
100
AcDbPolyline
90
4
70
1
43
0.0
10
-125.90229073020991
20
57.37001514531417
10
-122.29849031479445
20
55.367420787205234
10
-129.58447712132556
20
42.255807756953992
10
-133.18827753674111
20
44.25840211506295
0
LWPOLYLINE
5
113
100
AcDbEntity
8
0
100
AcDbPolyline
90
4
70
1
43
0.0
10
129.58447712132556
20
42.255807756953992
10
122.29849031479445
20
55.367420787205234
10
125.90229073020991
20
57.37001514531417
10
133.18827753674111
20
44.25840211506295
0
LWPOLYLINE
5
114
100
AcDbEntity
8
0
100
AcDbPolyline
90
4
70
1
43
0.0
10
115.20911801544882
20
76.613083575785396
10
111.60531760003329
20
74.610489217676445
10
104.31933079350215
20
87.722102247927708
10
107.9231312089177
20
89.724696606036659
0
LWPOLYLINE
5
115
100
AcDbEntity
8
0
100
AcDbPolyline
90
4
70
1
43
0.0
10
82.209559718118598
20
112.69199788616893
10
80.00555878731771
20
109.16485909456961
10
63.044596864189195
20
119.76324437923367
10
65.24859779499009
20
123.29038317083301
0
LWPOLYLINE
5
116
100
AcDbEntity
8
0
100
AcDbPolyline
90
4
70
1
43
0.0
10
46.816366015427434
20
126.98851826491131
10
27.59113209666107
20
132.50126538125127
10
28.737542559136365
20
136.49927378665802
10
47.96277647790275
20
130.98652667031806
0
CIRCLE
5
117
100
AcDbEntity
8
0
100
AcDbCircle
10
0
20
0
30
0
40
115
210
0
220
0
230
1
0
LINE
5
118
100
AcDbEntity
8
0
100
AcDbLine
10
-4.9999999999939195
20
-146
30
0
11
5.0000000000060805
21
-146
31
0
0
LWPOLYLINE
5
119
100
AcDbEntity
8
0
100
AcDbPolyline
90
4
70
1
43
0.0
10
-117
20
54.5
10
-117
20
42.5
10
-121.19999999999999
20
42.5
10
-121.19999999999999
20
54.5
0
LWPOLYLINE
5
120
100
AcDbEntity
8
0
100
AcDbPolyline
90
4
70
1
43
0.0
10
-121.19999999999999
20
-42.5
10
-117
20
-42.5
10
-117
20
-54.50000000000027
10
-121.19999999999999
20
-54.50000000000027
0
LWPOLYLINE
5
121
100
AcDbEntity
8
0
100
AcDbPolyline
90
4
70
1
43
0.0
10
121.19999999999999
20
-42.5
10
121.19999999999999
20
-54.50000000000027
10
117
20
-54.50000000000027
10
117
20
-42.5
0
LWPOLYLINE
5
122
100
AcDbEntity
8
0
100
AcDbPolyline
90
4
70
1
43
0.0
10
117
20
54.5
10
121.19999999999999
20
54.5
10
121.19999999999999
20
42.5
10
117
20
42.5
0
LWPOLYLINE
5
123
100
AcDbEntity
8
0
100
AcDbPolyline
90
4
70
1
43
0.0
10
-28.483346635048626
20
-138.99978044755221
10
-29.470943510079508
20
-143.08201664998211
10
-39.19055351586497
20
-140.73059551895622
10
-38.202956640834088
20
-136.64835931652632
0
LWPOLYLINE
5
124
100
AcDbEntity
8
0
100
AcDbPolyline
90
4
70
1
43
0.0
10
-69.263567923373913
20
-123.83375209741529
10
-60.369404190460941
20
-128.40473136800225
10
-62.289215484107459
20
-132.14028013582569
10
-71.18337921702043
20
-127.56930086523873
0
LWPOLYLINE
5
125
100
AcDbEntity
8
0
100
AcDbPolyline
90
4
70
1
43
0.0
10
-96.440016924051136
20
-104.0747958714725
10
-88.870066367533568
20
-110.60900191137355
10
-91.614432904292016
20
-113.78838114511092
10
-99.184383460809585
20
-107.25417510520987
0
LWPOLYLINE
5
126
100
AcDbEntity
8
0
100
AcDbPolyline
90
4
70
1
43
0.0
10
-112.38707306567855
20
-86.610540973543692
10
-115.80209626207606
20
-89.055457448204308
10
-121.62332596364897
20
-80.924449837734045
10
-118.20830276725145
20
-78.479533363073429
0
LWPOLYLINE
5
127
100
AcDbEntity
8
0
100
AcDbPolyline
90
4
70
1
43
0.0
10
-133.34770354464774
20
-48.483295673548
10
-129.60163761048864
20
-57.755134219215876
10
-133.49580979966913
20
-59.328481911562704
10
-137.24187573382824
20
-50.056643365894828
0
ENDSEC
0
SECTION
2
OBJECTS
0
DICTIONARY
5
C
100
AcDbDictionary
3
ACAD_GROUP
350
D
3
ACAD_MLINESTYLE
350
17
0
DICTIONARY
5
D
100
AcDbDictionary
0
DICTIONARY
5
1A
330
C
100
AcDbDictionary
0
DICTIONARY
5
17
100
AcDbDictionary
0
ENDSEC
0
EOF
