  0
SECTION
  2
HEADER
  9
$ACADVER
  1
AC1024
  9
$ACADMAINTVER
 70
     6
  9
$DWGCODEPAGE
  3
ANSI_1251
  9
$INSBASE
 10
0.0
 20
0.0
 30
0.0
  9
$EXTMIN
 10
1.000000000000000E+20
 20
1.000000000000000E+20
 30
1.000000000000000E+20
  9
$EXTMAX
 10
-1.000000000000000E+20
 20
-1.000000000000000E+20
 30
-1.000000000000000E+20
  9
$LIMMIN
 10
0.0
 20
0.0
  9
$LIMMAX
 10
12.0
 20
9.0
  9
$ORTHOMODE
 70
     0
  9
$REGENMODE
 70
     1
  9
$FILLMODE
 70
     1
  9
$QTEXTMODE
 70
     0
  9
$MIRRTEXT
 70
     1
  9
$LTSCALE
 40
1.0
  9
$ATTMODE
 70
     1
  9
$TEXTSIZE
 40
0.2
  9
$TRACEWID
 40
0.05
  9
$TEXTSTYLE
  7
Standard
  9
$CLAYER
  8
0
  9
$CELTYPE
  6
ByLayer
  9
$CECOLOR
 62
   256
  9
$CELTSCALE
 40
1.0
  9
$DISPSILH
 70
     0
  9
$DIMSCALE
 40
1.0
  9
$DIMASZ
 40
0.18
  9
$DIMEXO
 40
0.0625
  9
$DIMDLI
 40
0.38
  9
$DIMRND
 40
0.0
  9
$DIMDLE
 40
0.0
  9
$DIMEXE
 40
0.18
  9
$DIMTP
 40
0.0
  9
$DIMTM
 40
0.0
  9
$DIMTXT
 40
0.18
  9
$DIMCEN
 40
0.09
  9
$DIMTSZ
 40
0.0
  9
$DIMTOL
 70
     0
  9
$DIMLIM
 70
     0
  9
$DIMTIH
 70
     1
  9
$DIMTOH
 70
     1
  9
$DIMSE1
 70
     0
  9
$DIMSE2
 70
     0
  9
$DIMTAD
 70
     0
  9
$DIMZIN
 70
     0
  9
$DIMBLK
  1

  9
$DIMASO
 70
     1
  9
$DIMSHO
 70
     1
  9
$DIMPOST
  1

  9
$DIMAPOST
  1

  9
$DIMALT
 70
     0
  9
$DIMALTD
 70
     2
  9
$DIMALTF
 40
25.4
  9
$DIMLFAC
 40
1.0
  9
$DIMTOFL
 70
     0
  9
$DIMTVP
 40
0.0
  9
$DIMTIX
 70
     0
  9
$DIMSOXD
 70
     0
  9
$DIMSAH
 70
     0
  9
$DIMBLK1
  1

  9
$DIMBLK2
  1

  9
$DIMSTYLE
  2
Standard
  9
$DIMCLRD
 70
     0
  9
$DIMCLRE
 70
     0
  9
$DIMCLRT
 70
     0
  9
$DIMTFAC
 40
1.0
  9
$DIMGAP
 40
0.09
  9
$DIMJUST
 70
     0
  9
$DIMSD1
 70
     0
  9
$DIMSD2
 70
     0
  9
$DIMTOLJ
 70
     1
  9
$DIMTZIN
 70
     0
  9
$DIMALTZ
 70
     0
  9
$DIMALTTZ
 70
     0
  9
$DIMUPT
 70
     0
  9
$DIMDEC
 70
     4
  9
$DIMTDEC
 70
     4
  9
$DIMALTU
 70
     2
  9
$DIMALTTD
 70
     2
  9
$DIMTXSTY
  7
Standard
  9
$DIMAUNIT
 70
     0
  9
$DIMADEC
 70
     0
  9
$DIMALTRND
 40
0.0
  9
$DIMAZIN
 70
     0
  9
$DIMDSEP
 70
    46
  9
$DIMATFIT
 70
     3
  9
$DIMFRAC
 70
     0
  9
$DIMLDRBLK
  1

  9
$DIMLUNIT
 70
     2
  9
$DIMLWD
 70
    -2
  9
$DIMLWE
 70
    -2
  9
$DIMTMOVE
 70
     0
  9
$DIMFXL
 40
1.0
  9
$DIMFXLON
 70
     0
  9
$DIMJOGANG
 40
0.7853981633974483
  9
$DIMTFILL
 70
     0
  9
$DIMTFILLCLR
 70
     0
  9
$DIMARCSYM
 70
     0
  9
$DIMLTYPE
  6

  9
$DIMLTEX1
  6

  9
$DIMLTEX2
  6

  9
$DIMTXTDIRECTION
 70
     0
  9
$LUNITS
 70
     2
  9
$LUPREC
 70
     4
  9
$SKETCHINC
 40
0.1
  9
$FILLETRAD
 40
0.5
  9
$AUNITS
 70
     0
  9
$AUPREC
 70
     0
  9
$MENU
  1
.
  9
$ELEVATION
 40
0.0
  9
$PELEVATION
 40
0.0
  9
$THICKNESS
 40
0.0
  9
$LIMCHECK
 70
     0
  9
$CHAMFERA
 40
0.5
  9
$CHAMFERB
 40
0.5
  9
$CHAMFERC
 40
1.0
  9
$CHAMFERD
 40
0.0
  9
$SKPOLY
 70
     0
  9
$TDCREATE
 40
2459610.811778796
  9
$TDUCREATE
 40
2459610.686778796
  9
$TDUPDATE
 40
2459610.811778923
  9
$TDUUPDATE
 40
2459610.686778923
  9
$TDINDWG
 40
0.0000000116
  9
$TDUSRTIMER
 40
0.0000000116
  9
$USRTIMER
 70
     1
  9
$ANGBASE
 50
0.0
  9
$ANGDIR
 70
     0
  9
$PDMODE
 70
     0
  9
$PDSIZE
 40
0.0
  9
$PLINEWID
 40
0.0
  9
$SPLFRAME
 70
     0
  9
$SPLINETYPE
 70
     6
  9
$SPLINESEGS
 70
     8
  9
$HANDSEED
  5
C4
  9
$SURFTAB1
 70
     6
  9
$SURFTAB2
 70
     6
  9
$SURFTYPE
 70
     6
  9
$SURFU
 70
     6
  9
$SURFV
 70
     6
  9
$UCSBASE
  2

  9
$UCSNAME
  2

  9
$UCSORG
 10
0.0
 20
0.0
 30
0.0
  9
$UCSXDIR
 10
1.0
 20
0.0
 30
0.0
  9
$UCSYDIR
 10
0.0
 20
1.0
 30
0.0
  9
$UCSORTHOREF
  2

  9
$UCSORTHOVIEW
 70
     0
  9
$UCSORGTOP
 10
0.0
 20
0.0
 30
0.0
  9
$UCSORGBOTTOM
 10
0.0
 20
0.0
 30
0.0
  9
$UCSORGLEFT
 10
0.0
 20
0.0
 30
0.0
  9
$UCSORGRIGHT
 10
0.0
 20
0.0
 30
0.0
  9
$UCSORGFRONT
 10
0.0
 20
0.0
 30
0.0
  9
$UCSORGBACK
 10
0.0
 20
0.0
 30
0.0
  9
$PUCSBASE
  2

  9
$PUCSNAME
  2

  9
$PUCSORG
 10
0.0
 20
0.0
 30
0.0
  9
$PUCSXDIR
 10
1.0
 20
0.0
 30
0.0
  9
$PUCSYDIR
 10
0.0
 20
1.0
 30
0.0
  9
$PUCSORTHOREF
  2

  9
$PUCSORTHOVIEW
 70
     0
  9
$PUCSORGTOP
 10
0.0
 20
0.0
 30
0.0
  9
$PUCSORGBOTTOM
 10
0.0
 20
0.0
 30
0.0
  9
$PUCSORGLEFT
 10
0.0
 20
0.0
 30
0.0
  9
$PUCSORGRIGHT
 10
0.0
 20
0.0
 30
0.0
  9
$PUCSORGFRONT
 10
0.0
 20
0.0
 30
0.0
  9
$PUCSORGBACK
 10
0.0
 20
0.0
 30
0.0
  9
$USERI1
 70
     0
  9
$USERI2
 70
     0
  9
$USERI3
 70
     0
  9
$USERI4
 70
     0
  9
$USERI5
 70
     0
  9
$USERR1
 40
0.0
  9
$USERR2
 40
0.0
  9
$USERR3
 40
0.0
  9
$USERR4
 40
0.0
  9
$USERR5
 40
0.0
  9
$WORLDVIEW
 70
     1
  9
$SHADEDGE
 70
     3
  9
$SHADEDIF
 70
    70
  9
$TILEMODE
 70
     1
  9
$MAXACTVP
 70
    64
  9
$PINSBASE
 10
0.0
 20
0.0
 30
0.0
  9
$PLIMCHECK
 70
     0
  9
$PEXTMIN
 10
1.000000000000000E+20
 20
1.000000000000000E+20
 30
1.000000000000000E+20
  9
$PEXTMAX
 10
-1.000000000000000E+20
 20
-1.000000000000000E+20
 30
-1.000000000000000E+20
  9
$PLIMMIN
 10
0.0
 20
0.0
  9
$PLIMMAX
 10
12.0
 20
9.0
  9
$UNITMODE
 70
     0
  9
$VISRETAIN
 70
     1
  9
$PLINEGEN
 70
     0
  9
$PSLTSCALE
 70
     1
  9
$TREEDEPTH
 70
  3020
  9
$CMLSTYLE
  2
Standard
  9
$CMLJUST
 70
     0
  9
$CMLSCALE
 40
1.0
  9
$PROXYGRAPHICS
 70
     1
  9
$MEASUREMENT
 70
     0
  9
$CELWEIGHT
370
    -1
  9
$ENDCAPS
280
     0
  9
$JOINSTYLE
280
     0
  9
$LWDISPLAY
290
     1
  9
$INSUNITS
 70
     1
  9
$HYPERLINKBASE
  1

  9
$STYLESHEET
  1

  9
$XEDIT
290
     1
  9
$CEPSNTYPE
380
     0
  9
$PSTYLEMODE
290
     1
  9
$FINGERPRINTGUID
  2
{6AC13146-A59C-4DDF-820C-774C7D7EE2B2}
  9
$VERSIONGUID
  2
{FAEB1C32-E019-11D5-929B-00C0DF256EC4}
  9
$EXTNAMES
290
     1
  9
$PSVPSCALE
 40
0.0
  9
$OLESTARTUP
290
     0
  9
$SORTENTS
280
   127
  9
$INDEXCTL
280
     0
  9
$HIDETEXT
280
     1
  9
$XCLIPFRAME
280
     2
  9
$HALOGAP
280
     0
  9
$OBSCOLOR
 70
   257
  9
$OBSLTYPE
280
     0
  9
$INTERSECTIONDISPLAY
280
     0
  9
$INTERSECTIONCOLOR
 70
   257
  9
$DIMASSOC
280
     2
  9
$PROJECTNAME
  1

  9
$CAMERADISPLAY
290
     0
  9
$LENSLENGTH
 40
50.0
  9
$CAMERAHEIGHT
 40
0.0
  9
$STEPSPERSEC
 40
2.0
  9
$STEPSIZE
 40
6.0
  9
$3DDWFPREC
 40
2.0
  9
$PSOLWIDTH
 40
0.25
  9
$PSOLHEIGHT
 40
4.0
  9
$LOFTANG1
 40
1.570796326794897
  9
$LOFTANG2
 40
1.570796326794897
  9
$LOFTMAG1
 40
0.0
  9
$LOFTMAG2
 40
0.0
  9
$LOFTPARAM
 70
     7
  9
$LOFTNORMALS
280
     1
  9
$LATITUDE
 40
37.795
  9
$LONGITUDE
 40
-122.394
  9
$NORTHDIRECTION
 40
0.0
  9
$TIMEZONE
 70
 -8000
  9
$LIGHTGLYPHDISPLAY
280
     1
  9
$TILEMODELIGHTSYNCH
280
     1
  9
$CMATERIAL
347
3C
  9
$SOLIDHIST
280
     1
  9
$SHOWHIST
280
     1
  9
$DWFFRAME
280
     2
  9
$DGNFRAME
280
     2
  9
$REALWORLDSCALE
290
     1
  9
$INTERFERECOLOR
 62
   256
  9
$CSHADOW
280
     0
  9
$SHADOWPLANELOCATION
 40
0.0
  0
ENDSEC
  0
SECTION
  2
CLASSES
  0
CLASS
  1
ACDBDICTIONARYWDFLT
  2
AcDbDictionaryWithDefault
  3
ObjectDBX Classes
 90
        0
 91
        4
280
     0
281
     0
  0
CLASS
  1
VISUALSTYLE
  2
AcDbVisualStyle
  3
ObjectDBX Classes
 90
     4095
 91
        4
280
     0
281
     0
  0
CLASS
  1
MATERIAL
  2
AcDbMaterial
  3
ObjectDBX Classes
 90
     1153
 91
        4
280
     0
281
     0
  0
CLASS
  1
SUN
  2
AcDbSun
  3
SCENEOE
 90
     1024
 91
        4
280
     0
281
     0
  0
ENDSEC
  0
SECTION
  2
TABLES
  0
TABLE
  2
VPORT
  5
8
330
0
100
AcDbSymbolTable
 70
     1
  0
VPORT
  5
29
330
8
100
AcDbSymbolTableRecord
100
AcDbViewportTableRecord
  2
*Active
 70
     0
 10
0.0
 20
0.0
 11
1.0
 21
1.0
 12
0.0
 22
0.0
 13
0.0
 23
0.0
 14
0.5
 24
0.5
 15
0.5
 25
0.5
 16
0.0
 26
0.0
 36
1.0
 17
399.9999999000053
 27
-399.9999999000053
 37
0.0
 40
799.9999998000106
 41
1.0
 42
50.0
 43
0.0
 44
0.0
 50
0.0
 51
0.0
 71
     0
 72
   100
 73
     1
 74
     3
 75
     0
 76
     0
 77
     0
 78
     0
281
     0
 65
     1
110
0.0
120
0.0
130
0.0
111
1.0
121
0.0
131
0.0
112
0.0
122
1.0
132
0.0
 79
     0
146
0.0
 60
     3
 61
     5
292
     1
282
     1
141
0.0
142
0.0
 63
   250
361
3F
  0
ENDTAB
  0
TABLE
  2
LTYPE
  5
5
330
0
100
AcDbSymbolTable
 70
     1
  0
LTYPE
  5
14
330
5
100
AcDbSymbolTableRecord
100
AcDbLinetypeTableRecord
  2
ByBlock
 70
     0
  3

 72
    65
 73
     0
 40
0.0
  0
LTYPE
  5
15
330
5
100
AcDbSymbolTableRecord
100
AcDbLinetypeTableRecord
  2
ByLayer
 70
     0
  3

 72
    65
 73
     0
 40
0.0
  0
LTYPE
  5
16
330
5
100
AcDbSymbolTableRecord
100
AcDbLinetypeTableRecord
  2
Continuous
 70
     0
  3
Solid line
 72
    65
 73
     0
 40
0.0
  0
ENDTAB
  0
TABLE
  2
LAYER
  5
2
330
0
100
AcDbSymbolTable
 70
     2
  0
LAYER
  5
10
330
2
100
AcDbSymbolTableRecord
100
AcDbLayerTableRecord
  2
0
 70
     0
 62
     7
  6
Continuous
370
    -3
390
F
347
3E
  0
LAYER
  5
40
330
2
100
AcDbSymbolTableRecord
100
AcDbLayerTableRecord
  2
_U+0421_U+043B_U+043E_U+0439 1
 70
     0
 62
     7
  6
Continuous
370
    -3
390
F
347
3E
  0
ENDTAB
  0
TABLE
  2
STYLE
  5
3
330
0
100
AcDbSymbolTable
 70
     1
  0
STYLE
  5
11
330
3
100
AcDbSymbolTableRecord
100
AcDbTextStyleTableRecord
  2
Standard
 70
     0
 40
0.0
 41
1.0
 50
0.0
 71
     0
 42
0.2
  3
txt
  4

  0
ENDTAB
  0
TABLE
  2
VIEW
  5
6
330
0
100
AcDbSymbolTable
 70
     0
  0
ENDTAB
  0
TABLE
  2
UCS
  5
7
330
0
100
AcDbSymbolTable
 70
     0
  0
ENDTAB
  0
TABLE
  2
APPID
  5
9
330
0
100
AcDbSymbolTable
 70
     1
  0
APPID
  5
12
330
9
100
AcDbSymbolTableRecord
100
AcDbRegAppTableRecord
  2
ACAD
 70
     0
  0
ENDTAB
  0
TABLE
  2
DIMSTYLE
  5
A
330
0
100
AcDbSymbolTable
 70
     1
100
AcDbDimStyleTable
  0
DIMSTYLE
105
27
330
A
100
AcDbSymbolTableRecord
100
AcDbDimStyleTableRecord
  2
Standard
 70
     0
178
     0
340
11
  0
ENDTAB
  0
TABLE
  2
BLOCK_RECORD
  5
1
330
0
100
AcDbSymbolTable
 70
     1
  0
BLOCK_RECORD
  5
1F
330
1
100
AcDbSymbolTableRecord
100
AcDbBlockTableRecord
  2
*Model_Space
340
22
 70
     0
280
     1
281
     0
  0
BLOCK_RECORD
  5
1B
330
1
100
AcDbSymbolTableRecord
100
AcDbBlockTableRecord
  2
*Paper_Space
340
1E
 70
     0
280
     1
281
     0
  0
BLOCK_RECORD
  5
23
330
1
100
AcDbSymbolTableRecord
100
AcDbBlockTableRecord
  2
*Paper_Space0
340
26
 70
     0
280
     1
281
     0
  0
ENDTAB
  0
ENDSEC
  0
SECTION
  2
BLOCKS
  0
BLOCK
  5
20
330
1F
100
AcDbEntity
  8
0
100
AcDbBlockBegin
  2
*Model_Space
 70
     0
 10
0.0
 20
0.0
 30
0.0
  3
*Model_Space
  1

  0
ENDBLK
  5
21
330
1F
100
AcDbEntity
  8
0
100
AcDbBlockEnd
  0
BLOCK
  5
1C
330
1B
100
AcDbEntity
 67
     1
  8
0
100
AcDbBlockBegin
  2
*Paper_Space
 70
     0
 10
0.0
 20
0.0
 30
0.0
  3
*Paper_Space
  1

  0
ENDBLK
  5
1D
330
1B
100
AcDbEntity
 67
     1
  8
0
100
AcDbBlockEnd
  0
BLOCK
  5
24
330
23
100
AcDbEntity
  8
0
100
AcDbBlockBegin
  2
*Paper_Space0
 70
     0
 10
0.0
 20
0.0
 30
0.0
  3
*Paper_Space0
  1

  0
ENDBLK
  5
25
330
23
100
AcDbEntity
  8
0
100
AcDbBlockEnd
  0
ENDSEC
  0
SECTION
  2
ENTITIES
  0
POLYLINE
  5
41
330
1F
100
AcDbEntity
  8
_U+0421_U+043B_U+043E_U+0439 1
 62
    13
420
 13715780
370
    35
100
AcDb2dPolyline
 66
     1
 10
0.0
 20
0.0
 30
0.0
  0
VERTEX
  5
42
330
41
100
AcDbEntity
  8
_U+0421_U+043B_U+043E_U+0439 1
 62
    13
420
 13715780
370
    35
100
AcDbVertex
100
AcDb2dVertex
 10
257.320080569775
 20
-75.27947046729125
 30
0.0
  0
VERTEX
  5
43
330
41
100
AcDbEntity
  8
_U+0421_U+043B_U+043E_U+0439 1
 62
    13
420
 13715780
370
    35
100
AcDbVertex
100
AcDb2dVertex
 10
236.7266777971456
 20
-92.71992185182002
 30
0.0
  0
VERTEX
  5
44
330
41
100
AcDbEntity
  8
_U+0421_U+043B_U+043E_U+0439 1
 62
    13
420
 13715780
370
    35
100
AcDbVertex
100
AcDb2dVertex
 10
219.4597140696725
 20
-191.3054675254092
 30
0.0
  0
VERTEX
  5
45
330
41
100
AcDbEntity
  8
_U+0421_U+043B_U+043E_U+0439 1
 62
    13
420
 13715780
370
    35
100
AcDbVertex
100
AcDb2dVertex
 10
230.5089694653667
 20
-204.8371093237907
 30
0.0
  0
VERTEX
  5
46
330
41
100
AcDbEntity
  8
_U+0421_U+043B_U+043E_U+0439 1
 62
    13
420
 13715780
370
    35
100
AcDbVertex
100
AcDb2dVertex
 10
247.8832750165787
 20
-188.8739148833371
 30
0.0
  0
VERTEX
  5
47
330
41
100
AcDbEntity
  8
_U+0421_U+043B_U+043E_U+0439 1
 62
    13
420
 13715780
370
    35
100
AcDbVertex
100
AcDb2dVertex
 10
262.6999416795412
 20
-102.5315537938116
 30
0.0
  0
VERTEX
  5
48
330
41
100
AcDbEntity
  8
_U+0421_U+043B_U+043E_U+0439 1
 62
    13
420
 13715780
370
    35
100
AcDbVertex
100
AcDb2dVertex
 10
263.3173027904979
 20
-89.10394963050179
 30
0.0
  0
VERTEX
  5
49
330
41
100
AcDbEntity
  8
_U+0421_U+043B_U+043E_U+0439 1
 62
    13
420
 13715780
370
    35
100
AcDbVertex
100
AcDb2dVertex
 10
257.320080569775
 20
-75.27947046729125
 30
0.0
  0
SEQEND
  5
4A
330
41
100
AcDbEntity
  8
_U+0421_U+043B_U+043E_U+0439 1
 62
    13
420
 13715780
370
    35
  0
POLYLINE
  5
4B
330
1F
100
AcDbEntity
  8
_U+0421_U+043B_U+043E_U+0439 1
 62
    13
420
 13715780
370
    35
100
AcDb2dPolyline
 66
     1
 10
0.0
 20
0.0
 30
0.0
  0
VERTEX
  5
4C
330
4B
100
AcDbEntity
  8
_U+0421_U+043B_U+043E_U+0439 1
 62
    13
420
 13715780
370
    35
100
AcDbVertex
100
AcDb2dVertex
 10
58.10161958701797
 20
-340.7318454009284
 30
0.0
  0
VERTEX
  5
4D
330
4B
100
AcDbEntity
  8
_U+0421_U+043B_U+043E_U+0439 1
 62
    13
420
 13715780
370
    35
100
AcDbVertex
100
AcDb2dVertex
 10
78.6950223596474
 20
-323.2913940163996
 30
0.0
  0
VERTEX
  5
4E
330
4B
100
AcDbEntity
  8
_U+0421_U+043B_U+043E_U+0439 1
 62
    13
420
 13715780
370
    35
100
AcDbVertex
100
AcDb2dVertex
 10
95.96198608712054
 20
-224.7058483428104
 30
0.0
  0
VERTEX
  5
4F
330
4B
100
AcDbEntity
  8
_U+0421_U+043B_U+043E_U+0439 1
 62
    13
420
 13715780
370
    35
100
AcDbVertex
100
AcDb2dVertex
 10
84.9127306914263
 20
-211.1742065444289
 30
0.0
  0
VERTEX
  5
50
330
4B
100
AcDbEntity
  8
_U+0421_U+043B_U+043E_U+0439 1
 62
    13
420
 13715780
370
    35
100
AcDbVertex
100
AcDb2dVertex
 10
67.53842514021433
 20
-227.1374009848825
 30
0.0
  0
VERTEX
  5
51
330
4B
100
AcDbEntity
  8
_U+0421_U+043B_U+043E_U+0439 1
 62
    13
420
 13715780
370
    35
100
AcDbVertex
100
AcDb2dVertex
 10
52.72175847725183
 20
-313.479762074408
 30
0.0
  0
VERTEX
  5
52
330
4B
100
AcDbEntity
  8
_U+0421_U+043B_U+043E_U+0439 1
 62
    13
420
 13715780
370
    35
100
AcDbVertex
100
AcDb2dVertex
 10
52.10439736629505
 20
-326.9073662377178
 30
0.0
  0
VERTEX
  5
53
330
4B
100
AcDbEntity
  8
_U+0421_U+043B_U+043E_U+0439 1
 62
    13
420
 13715780
370
    35
100
AcDbVertex
100
AcDb2dVertex
 10
58.10161958701797
 20
-340.7318454009284
 30
0.0
  0
SEQEND
  5
54
330
4B
100
AcDbEntity
  8
_U+0421_U+043B_U+043E_U+0439 1
 62
    13
420
 13715780
370
    35
  0
POLYLINE
  5
55
330
1F
100
AcDbEntity
  8
_U+0421_U+043B_U+043E_U+0439 1
 62
    13
420
 13715780
370
    35
100
AcDb2dPolyline
 66
     1
 10
0.0
 20
0.0
 30
0.0
  0
VERTEX
  5
56
330
55
100
AcDbEntity
  8
_U+0421_U+043B_U+043E_U+0439 1
 62
    13
420
 13715780
370
    35
100
AcDbVertex
100
AcDb2dVertex
 10
229.3330435397345
 20
-212.0396556182865
 30
0.0
  0
VERTEX
  5
57
330
55
100
AcDbEntity
  8
_U+0421_U+043B_U+043E_U+0439 1
 62
    13
420
 13715780
370
    35
100
AcDbVertex
100
AcDb2dVertex
 10
240.386747240675
 20
-224.7396556151115
 30
0.0
  0
VERTEX
  5
58
330
55
100
AcDbEntity
  8
_U+0421_U+043B_U+043E_U+0439 1
 62
    13
420
 13715780
370
    35
100
AcDbVertex
100
AcDb2dVertex
 10
222.983043541322
 20
-327.0452111450904
 30
0.0
  0
VERTEX
  5
59
330
55
100
AcDbEntity
  8
_U+0421_U+043B_U+043E_U+0439 1
 62
    13
420
 13715780
370
    35
100
AcDbVertex
100
AcDb2dVertex
 10
213.1052657660137
 20
-344.33132225188
 30
0.0
  0
VERTEX
  5
5A
330
55
100
AcDbEntity
  8
_U+0421_U+043B_U+043E_U+0439 1
 62
    13
420
 13715780
370
    35
100
AcDbVertex
100
AcDb2dVertex
 10
196.7304972515891
 20
-323.1058592942229
 30
0.0
  0
VERTEX
  5
5B
330
55
100
AcDbEntity
  8
_U+0421_U+043B_U+043E_U+0439 1
 62
    13
420
 13715780
370
    35
100
AcDbVertex
100
AcDb2dVertex
 10
213.2228583585771
 20
-225.6803963556168
 30
0.0
  0
VERTEX
  5
5C
330
55
100
AcDbEntity
  8
_U+0421_U+043B_U+043E_U+0439 1
 62
    13
420
 13715780
370
    35
100
AcDbVertex
100
AcDb2dVertex
 10
229.3330435397345
 20
-212.0396556182865
 30
0.0
  0
SEQEND
  5
5D
330
55
100
AcDbEntity
  8
_U+0421_U+043B_U+043E_U+0439 1
 62
    13
420
 13715780
370
    35
  0
POLYLINE
  5
5E
330
1F
100
AcDbEntity
  8
_U+0421_U+043B_U+043E_U+0439 1
 62
    13
420
 13715780
370
    35
100
AcDb2dPolyline
 66
     1
 10
0.0
 20
0.0
 30
0.0
  0
VERTEX
  5
5F
330
5E
100
AcDbEntity
  8
_U+0421_U+043B_U+043E_U+0439 1
 62
    13
420
 13715780
370
    35
100
AcDbVertex
100
AcDb2dVertex
 10
86.18177042737474
 20
-204.1058593239733
 30
0.0
  0
VERTEX
  5
60
330
5E
100
AcDbEntity
  8
_U+0421_U+043B_U+043E_U+0439 1
 62
    13
420
 13715780
370
    35
100
AcDbVertex
100
AcDb2dVertex
 10
75.12806672643424
 20
-191.4058593271483
 30
0.0
  0
VERTEX
  5
61
330
5E
100
AcDbEntity
  8
_U+0421_U+043B_U+043E_U+0439 1
 62
    13
420
 13715780
370
    35
100
AcDbVertex
100
AcDb2dVertex
 10
92.53177042578724
 20
-89.10030379716947
 30
0.0
  0
VERTEX
  5
62
330
5E
100
AcDbEntity
  8
_U+0421_U+043B_U+043E_U+0439 1
 62
    13
420
 13715780
370
    35
100
AcDbVertex
100
AcDb2dVertex
 10
102.4095482010956
 20
-71.8141926903799
 30
0.0
  0
VERTEX
  5
63
330
5E
100
AcDbEntity
  8
_U+0421_U+043B_U+043E_U+0439 1
 62
    13
420
 13715780
370
    35
100
AcDbVertex
100
AcDb2dVertex
 10
118.7843167155202
 20
-93.03965564803693
 30
0.0
  0
VERTEX
  5
64
330
5E
100
AcDbEntity
  8
_U+0421_U+043B_U+043E_U+0439 1
 62
    13
420
 13715780
370
    35
100
AcDbVertex
100
AcDb2dVertex
 10
102.2919556085322
 20
-190.465118586643
 30
0.0
  0
VERTEX
  5
65
330
5E
100
AcDbEntity
  8
_U+0421_U+043B_U+043E_U+0439 1
 62
    13
420
 13715780
370
    35
100
AcDbVertex
100
AcDb2dVertex
 10
86.18177042737474
 20
-204.1058593239733
 30
0.0
  0
SEQEND
  5
66
330
5E
100
AcDbEntity
  8
_U+0421_U+043B_U+043E_U+0439 1
 62
    13
420
 13715780
370
    35
  0
POLYLINE
  5
67
330
1F
100
AcDbEntity
  8
_U+0421_U+043B_U+043E_U+0439 1
 62
    13
420
 13715780
370
    35
100
AcDb2dPolyline
 66
     1
 10
0.0
 20
0.0
 30
0.0
  0
VERTEX
  5
68
330
67
100
AcDbEntity
  8
_U+0421_U+043B_U+043E_U+0439 1
 62
    13
420
 13715780
370
    35
100
AcDbVertex
100
AcDb2dVertex
 10
124.5580435659286
 20
-61.63872972996058
 30
0.0
  0
VERTEX
  5
69
330
67
100
AcDbEntity
  8
_U+0421_U+043B_U+043E_U+0439 1
 62
    13
420
 13715780
370
    35
100
AcDbVertex
100
AcDb2dVertex
 10
232.1552657612512
 20
-61.75632232252399
 30
0.0
  0
VERTEX
  5
6A
330
67
100
AcDbEntity
  8
_U+0421_U+043B_U+043E_U+0439 1
 62
    13
420
 13715780
370
    35
100
AcDbVertex
100
AcDb2dVertex
 10
243.3265620547551
 20
-64.34335935891416
 30
0.0
  0
VERTEX
  5
6B
330
67
100
AcDbEntity
  8
_U+0421_U+043B_U+043E_U+0439 1
 62
    13
420
 13715780
370
    35
100
AcDbVertex
100
AcDb2dVertex
 10
254.2626731631322
 20
-71.75169269039542
 30
0.0
  0
VERTEX
  5
6C
330
67
100
AcDbEntity
  8
_U+0421_U+043B_U+043E_U+0439 1
 62
    13
420
 13715780
370
    35
100
AcDbVertex
100
AcDb2dVertex
 10
233.5663768720095
 20
-89.03780379718499
 30
0.0
  0
VERTEX
  5
6D
330
67
100
AcDbEntity
  8
_U+0421_U+043B_U+043E_U+0439 1
 62
    13
420
 13715780
370
    35
100
AcDbVertex
100
AcDb2dVertex
 10
122.4413768997911
 20
-88.9202112046219
 30
0.0
  0
VERTEX
  5
6E
330
67
100
AcDbEntity
  8
_U+0421_U+043B_U+043E_U+0439 1
 62
    13
420
 13715780
370
    35
100
AcDbVertex
100
AcDb2dVertex
 10
106.0960065335068
 20
-69.28224824656833
 30
0.0
  0
VERTEX
  5
6F
330
67
100
AcDbEntity
  8
_U+0421_U+043B_U+043E_U+0439 1
 62
    13
420
 13715780
370
    35
100
AcDbVertex
100
AcDb2dVertex
 10
112.0932287542298
 20
-65.40169269198292
 30
0.0
  0
VERTEX
  5
70
330
67
100
AcDbEntity
  8
_U+0421_U+043B_U+043E_U+0439 1
 62
    13
420
 13715780
370
    35
100
AcDbVertex
100
AcDb2dVertex
 10
124.5580435659286
 20
-61.63872972996058
 30
0.0
  0
SEQEND
  5
71
330
67
100
AcDbEntity
  8
_U+0421_U+043B_U+043E_U+0439 1
 62
    13
420
 13715780
370
    35
  0
POLYLINE
  5
72
330
1F
100
AcDbEntity
  8
_U+0421_U+043B_U+043E_U+0439 1
 62
    13
420
 13715780
370
    35
100
AcDb2dPolyline
 66
     1
 10
0.0
 20
0.0
 30
0.0
  0
VERTEX
  5
73
330
72
100
AcDbEntity
  8
_U+0421_U+043B_U+043E_U+0439 1
 62
    13
420
 13715780
370
    35
100
AcDbVertex
100
AcDb2dVertex
 10
190.5774879938728
 20
-354.6595629900392
 30
0.0
  0
VERTEX
  5
74
330
72
100
AcDbEntity
  8
_U+0421_U+043B_U+043E_U+0439 1
 62
    13
420
 13715780
370
    35
100
AcDbVertex
100
AcDb2dVertex
 10
82.98026579854155
 20
-354.5419703974752
 30
0.0
  0
VERTEX
  5
75
330
72
100
AcDbEntity
  8
_U+0421_U+043B_U+043E_U+0439 1
 62
    13
420
 13715780
370
    35
100
AcDbVertex
100
AcDb2dVertex
 10
71.80896950503765
 20
-351.9549333610853
 30
0.0
  0
VERTEX
  5
76
330
72
100
AcDbEntity
  8
_U+0421_U+043B_U+043E_U+0439 1
 62
    13
420
 13715780
370
    35
100
AcDbVertex
100
AcDb2dVertex
 10
60.87285839666057
 20
-344.5466000296041
 30
0.0
  0
VERTEX
  5
77
330
72
100
AcDbEntity
  8
_U+0421_U+043B_U+043E_U+0439 1
 62
    13
420
 13715780
370
    35
100
AcDbVertex
100
AcDb2dVertex
 10
81.56915468778321
 20
-327.2604889228145
 30
0.0
  0
VERTEX
  5
78
330
72
100
AcDbEntity
  8
_U+0421_U+043B_U+043E_U+0439 1
 62
    13
420
 13715780
370
    35
100
AcDbVertex
100
AcDb2dVertex
 10
192.6941546600103
 20
-327.3780815153772
 30
0.0
  0
VERTEX
  5
79
330
72
100
AcDbEntity
  8
_U+0421_U+043B_U+043E_U+0439 1
 62
    13
420
 13715780
370
    35
100
AcDbVertex
100
AcDb2dVertex
 10
209.0395250262939
 20
-347.0160444734311
 30
0.0
  0
VERTEX
  5
7A
330
72
100
AcDbEntity
  8
_U+0421_U+043B_U+043E_U+0439 1
 62
    13
420
 13715780
370
    35
100
AcDbVertex
100
AcDb2dVertex
 10
203.042302805571
 20
-350.8966000280166
 30
0.0
  0
VERTEX
  5
7B
330
72
100
AcDbEntity
  8
_U+0421_U+043B_U+043E_U+0439 1
 62
    13
420
 13715780
370
    35
100
AcDbVertex
100
AcDb2dVertex
 10
190.5774879938728
 20
-354.6595629900392
 30
0.0
  0
SEQEND
  5
7C
330
72
100
AcDbEntity
  8
_U+0421_U+043B_U+043E_U+0439 1
 62
    13
420
 13715780
370
    35
  0
SPLINE
  5
7D
330
1F
100
AcDbEntity
  8
_U+0421_U+043B_U+043E_U+0439 1
 62
    13
420
 13715780
370
    35
100
AcDbSpline
210
0.0
220
0.0
230
1.0
 70
    11
 71
     3
 72
    17
 73
    13
 74
     0
 42
0.0000000001
 43
0.0000000001
 12
1.0
 22
0.0
 32
0.0
 13
1.0
 23
0.0
 33
0.0
 40
0.0
 40
0.0
 40
0.0
 40
0.0
 40
1.0
 40
1.0
 40
1.0
 40
2.0
 40
2.0
 40
2.0
 40
3.0
 40
3.0
 40
3.0
 40
4.0
 40
4.0
 40
4.0
 40
4.0
 10
261.7885990871762
 20
-340.8917389194065
 30
0.0
 10
261.7885990871762
 20
-348.0843528779085
 30
0.0
 10
255.9578334193046
 20
-353.91511854578
 30
0.0
 10
248.765219460802
 20
-353.91511854578
 30
0.0
 10
241.5726055023
 20
-353.91511854578
 30
0.0
 10
235.7418398344284
 20
-348.0843528779085
 30
0.0
 10
235.7418398344284
 20
-340.8917389194065
 30
0.0
 10
235.7418398344284
 20
-333.6991249609039
 30
0.0
 10
241.5726055023
 20
-327.8683592930316
 30
0.0
 10
248.765219460802
 20
-327.8683592930316
 30
0.0
 10
255.9578334193046
 20
-327.8683592930316
 30
0.0
 10
261.7885990871762
 20
-333.6991249609039
 30
0.0
 10
261.7885990871762
 20
-340.8917389194065
 30
0.0
  0
POLYLINE
  5
7E
330
1F
100
AcDbEntity
  8
_U+0421_U+043B_U+043E_U+0439 1
 62
    13
420
 13715780
370
    35
100
AcDb2dPolyline
 66
     1
 10
0.0
 20
0.0
 30
0.0
  0
VERTEX
  5
7F
330
7E
100
AcDbEntity
  8
_U+0421_U+043B_U+043E_U+0439 1
 62
    13
420
 13715780
370
    35
100
AcDbVertex
100
AcDb2dVertex
 10
279.4568861197964
 20
-388.2815537223741
 30
0.0
  0
VERTEX
  5
80
330
7E
100
AcDbEntity
  8
_U+0421_U+043B_U+043E_U+0439 1
 62
    13
420
 13715780
370
    35
100
AcDbVertex
100
AcDb2dVertex
 10
36.21660840282865
 20
-388.2815537223741
 30
0.0
  0
VERTEX
  5
81
330
7E
100
AcDbEntity
  8
_U+0421_U+043B_U+043E_U+0439 1
 62
    13
420
 13715780
370
    35
100
AcDbVertex
100
AcDb2dVertex
 10
36.21660840282865
 20
-27.79778645138389
 30
0.0
  0
VERTEX
  5
82
330
7E
100
AcDbEntity
  8
_U+0421_U+043B_U+043E_U+0439 1
 62
    13
420
 13715780
370
    35
100
AcDbVertex
100
AcDb2dVertex
 10
279.4568861197964
 20
-27.79778645138389
 30
0.0
  0
VERTEX
  5
83
330
7E
100
AcDbEntity
  8
_U+0421_U+043B_U+043E_U+0439 1
 62
    13
420
 13715780
370
    35
100
AcDbVertex
100
AcDb2dVertex
 10
279.4568861197964
 20
-388.2815537223741
 30
0.0
  0
SEQEND
  5
84
330
7E
100
AcDbEntity
  8
_U+0421_U+043B_U+043E_U+0439 1
 62
    13
420
 13715780
370
    35
  0
POLYLINE
  5
85
330
1F
100
AcDbEntity
  8
_U+0421_U+043B_U+043E_U+0439 1
 62
    13
420
 13715780
370
    35
100
AcDb2dPolyline
 66
     1
 10
0.0
 20
0.0
 30
0.0
  0
VERTEX
  5
86
330
85
100
AcDbEntity
  8
_U+0421_U+043B_U+043E_U+0439 1
 62
    13
420
 13715780
370
    35
100
AcDbVertex
100
AcDb2dVertex
 10
210.7555728457835
 20
-220.860808956053
 30
0.0
  0
VERTEX
  5
87
330
85
100
AcDbEntity
  8
_U+0421_U+043B_U+043E_U+0439 1
 62
    13
420
 13715780
370
    35
100
AcDbVertex
100
AcDb2dVertex
 10
99.21844616427897
 20
-220.860810703986
 30
0.0
  0
VERTEX
  5
88
330
85
100
AcDbEntity
  8
_U+0421_U+043B_U+043E_U+0439 1
 62
    13
420
 13715780
370
    35
100
AcDbVertex
100
AcDb2dVertex
 10
88.91278894521017
 20
-208.7176648783762
 30
0.0
  0
VERTEX
  5
89
330
85
100
AcDbEntity
  8
_U+0421_U+043B_U+043E_U+0439 1
 62
    13
420
 13715780
370
    35
100
AcDbVertex
100
AcDb2dVertex
 10
103.7441546822432
 20
-194.9887296966231
 30
0.0
  0
VERTEX
  5
8A
330
85
100
AcDbEntity
  8
_U+0421_U+043B_U+043E_U+0439 1
 62
    13
420
 13715780
370
    35
100
AcDbVertex
100
AcDb2dVertex
 10
215.9274879875304
 20
-194.87113710406
 30
0.0
  0
VERTEX
  5
8B
330
85
100
AcDbEntity
  8
_U+0421_U+043B_U+043E_U+0439 1
 62
    13
420
 13715780
370
    35
100
AcDbVertex
100
AcDb2dVertex
 10
226.275636133091
 20
-208.039670086879
 30
0.0
  0
VERTEX
  5
8C
330
85
100
AcDbEntity
  8
_U+0421_U+043B_U+043E_U+0439 1
 62
    13
420
 13715780
370
    35
100
AcDbVertex
100
AcDb2dVertex
 10
210.7555728457835
 20
-220.860808956053
 30
0.0
  0
SEQEND
  5
8D
330
85
100
AcDbEntity
  8
_U+0421_U+043B_U+043E_U+0439 1
 62
    13
420
 13715780
370
    35
  0
POLYLINE
  5
8E
330
1F
100
AcDbEntity
  8
_U+0421_U+043B_U+043E_U+0439 1
 62
    13
420
 13715780
370
    35
100
AcDb2dPolyline
 66
     1
 10
0.0
 20
0.0
 30
0.0
  0
VERTEX
  5
8F
330
8E
100
AcDbEntity
  8
_U+0421_U+043B_U+043E_U+0439 1
 62
    13
420
 13715780
370
    35
100
AcDbVertex
100
AcDb2dVertex
 10
533.9732637553956
 20
-388.1078575395179
 30
0.0
  0
VERTEX
  5
90
330
8E
100
AcDbEntity
  8
_U+0421_U+043B_U+043E_U+0439 1
 62
    13
420
 13715780
370
    35
100
AcDbVertex
100
AcDb2dVertex
 10
290.7329860384279
 20
-388.1078575395179
 30
0.0
  0
VERTEX
  5
91
330
8E
100
AcDbEntity
  8
_U+0421_U+043B_U+043E_U+0439 1
 62
    13
420
 13715780
370
    35
100
AcDbVertex
100
AcDb2dVertex
 10
290.7329860384279
 20
-27.62409026852774
 30
0.0
  0
VERTEX
  5
92
330
8E
100
AcDbEntity
  8
_U+0421_U+043B_U+043E_U+0439 1
 62
    13
420
 13715780
370
    35
100
AcDbVertex
100
AcDb2dVertex
 10
533.9732637553956
 20
-27.62409026852774
 30
0.0
  0
VERTEX
  5
93
330
8E
100
AcDbEntity
  8
_U+0421_U+043B_U+043E_U+0439 1
 62
    13
420
 13715780
370
    35
100
AcDbVertex
100
AcDb2dVertex
 10
533.9732637553956
 20
-388.1078575395179
 30
0.0
  0
SEQEND
  5
94
330
8E
100
AcDbEntity
  8
_U+0421_U+043B_U+043E_U+0439 1
 62
    13
420
 13715780
370
    35
  0
SPLINE
  5
95
330
1F
100
AcDbEntity
  8
_U+0421_U+043B_U+043E_U+0439 1
 62
    13
420
 13715780
370
    35
100
AcDbSpline
210
0.0
220
0.0
230
1.0
 70
    11
 71
     3
 72
    17
 73
    13
 74
     0
 42
0.0000000001
 43
0.0000000001
 12
1.0
 22
0.0
 32
0.0
 13
1.0
 23
0.0
 33
0.0
 40
0.0
 40
0.0
 40
0.0
 40
0.0
 40
1.0
 40
1.0
 40
1.0
 40
2.0
 40
2.0
 40
2.0
 40
3.0
 40
3.0
 40
3.0
 40
4.0
 40
4.0
 40
4.0
 40
4.0
 10
497.3725693201013
 20
-208.2499872141118
 30
0.0
 10
497.3725693201013
 20
-215.4426011726138
 30
0.0
 10
491.5418036522297
 20
-221.2733668404854
 30
0.0
 10
484.3491896937271
 20
-221.2733668404854
 30
0.0
 10
477.1565757352251
 20
-221.2733668404854
 30
0.0
 10
471.3258100673535
 20
-215.4426011726138
 30
0.0
 10
471.3258100673535
 20
-208.2499872141118
 30
0.0
 10
471.3258100673535
 20
-201.0573732556092
 30
0.0
 10
477.1565757352251
 20
-195.2266075877369
 30
0.0
 10
484.3491896937271
 20
-195.2266075877369
 30
0.0
 10
491.5418036522297
 20
-195.2266075877369
 30
0.0
 10
497.3725693201013
 20
-201.0573732556092
 30
0.0
 10
497.3725693201013
 20
-208.2499872141118
 30
0.0
  0
SPLINE
  5
96
330
1F
100
AcDbEntity
  8
_U+0421_U+043B_U+043E_U+0439 1
 62
    13
420
 13715780
370
    35
100
AcDbSpline
210
0.0
220
0.0
230
1.0
 70
    11
 71
     3
 72
    17
 73
    13
 74
     0
 42
0.0000000001
 43
0.0000000001
 12
1.0
 22
0.0
 32
0.0
 13
1.0
 23
0.0
 33
0.0
 40
0.0
 40
0.0
 40
0.0
 40
0.0
 40
1.0
 40
1.0
 40
1.0
 40
2.0
 40
2.0
 40
2.0
 40
3.0
 40
3.0
 40
3.0
 40
4.0
 40
4.0
 40
4.0
 40
4.0
 10
380.1768517568074
 20
-80.69142243118705
 30
0.0
 10
380.1768517568074
 20
-87.88403638968902
 30
0.0
 10
374.3460860889358
 20
-93.71480205756062
 30
0.0
 10
367.1534721304332
 20
-93.71480205756062
 30
0.0
 10
359.9608581719312
 20
-93.71480205756062
 30
0.0
 10
354.1300925040596
 20
-87.88403638968902
 30
0.0
 10
354.1300925040596
 20
-80.69142243118705
 30
0.0
 10
354.1300925040596
 20
-73.49880847268444
 30
0.0
 10
359.9608581719312
 20
-67.66804280481219
 30
0.0
 10
367.1534721304332
 20
-67.66804280481219
 30
0.0
 10
374.3460860889358
 20
-67.66804280481219
 30
0.0
 10
380.1768517568074
 20
-73.49880847268444
 30
0.0
 10
380.1768517568074
 20
-80.69142243118705
 30
0.0
  0
SPLINE
  5
97
330
1F
100
AcDbEntity
  8
_U+0421_U+043B_U+043E_U+0439 1
 62
    13
420
 13715780
370
    35
100
AcDbSpline
210
0.0
220
0.0
230
1.0
 70
    11
 71
     3
 72
    17
 73
    13
 74
     0
 42
0.0000000001
 43
0.0000000001
 12
1.0
 22
0.0
 32
0.0
 13
1.0
 23
0.0
 33
0.0
 40
0.0
 40
0.0
 40
0.0
 40
0.0
 40
1.0
 40
1.0
 40
1.0
 40
2.0
 40
2.0
 40
2.0
 40
3.0
 40
3.0
 40
3.0
 40
4.0
 40
4.0
 40
4.0
 40
4.0
 10
337.5936341748611
 20
-334.162255701152
 30
0.0
 10
337.5936341748611
 20
-341.354869659654
 30
0.0
 10
331.7628685069895
 20
-347.1856353275256
 30
0.0
 10
324.5702545484868
 20
-347.1856353275256
 30
0.0
 10
317.3776405899849
 20
-347.1856353275256
 30
0.0
 10
311.5468749221133
 20
-341.354869659654
 30
0.0
 10
311.5468749221133
 20
-334.162255701152
 30
0.0
 10
311.5468749221133
 20
-326.9696417426495
 30
0.0
 10
317.3776405899849
 20
-321.1388760747772
 30
0.0
 10
324.5702545484868
 20
-321.1388760747772
 30
0.0
 10
331.7628685069895
 20
-321.1388760747772
 30
0.0
 10
337.5936341748611
 20
-326.9696417426495
 30
0.0
 10
337.5936341748611
 20
-334.162255701152
 30
0.0
  0
POLYLINE
  5
98
330
1F
100
AcDbEntity
  8
_U+0421_U+043B_U+043E_U+0439 1
 62
    13
420
 13715780
370
    35
100
AcDb2dPolyline
 66
     1
 10
0.0
 20
0.0
 30
0.0
  0
VERTEX
  5
99
330
98
100
AcDbEntity
  8
_U+0421_U+043B_U+043E_U+0439 1
 62
    13
420
 13715780
370
    35
100
AcDbVertex
100
AcDb2dVertex
 10
533.9732637553956
 20
-371.8874293028322
 30
0.0
  0
VERTEX
  5
9A
330
98
100
AcDbEntity
  8
_U+0421_U+043B_U+043E_U+0439 1
 62
    13
420
 13715780
370
    35
100
AcDbVertex
100
AcDb2dVertex
 10
290.7329860384279
 20
-370.8290959697634
 30
0.0
  0
SEQEND
  5
9B
330
98
100
AcDbEntity
  8
_U+0421_U+043B_U+043E_U+0439 1
 62
    13
420
 13715780
370
    35
  0
SPLINE
  5
9C
330
1F
100
AcDbEntity
  8
_U+0421_U+043B_U+043E_U+0439 1
 62
    13
420
 13715780
370
    35
100
AcDbSpline
210
0.0
220
0.0
230
1.0
 70
    27
 71
     3
 72
    11
 73
     7
 74
     0
 42
0.0000000001
 43
0.0000000001
 12
1.0
 22
0.0
 32
0.0
 13
1.0
 23
0.0
 33
0.0
 40
0.0
 40
0.0
 40
0.0
 40
0.0
 40
1.0
 40
1.0
 40
1.0
 40
2.0
 40
2.0
 40
2.0
 40
2.0
 10
377.1929397205162
 20
-88.95230205875092
 30
0.0
 10
377.1929397205162
 20
-88.95230205875092
 30
0.0
 10
478.4670591313902
 20
-196.6317041762277
 30
0.0
 10
478.4670591313902
 20
-196.6317041762277
 30
0.0
 10
478.4670591313902
 20
-196.6317041762277
 30
0.0
 10
377.1929397205162
 20
-88.95230205875092
 30
0.0
 10
377.1929397205162
 20
-88.95230205875092
 30
0.0
  0
SPLINE
  5
9D
330
1F
100
AcDbEntity
  8
_U+0421_U+043B_U+043E_U+0439 1
 62
    13
420
 13715780
370
    35
100
AcDbSpline
210
0.0
220
0.0
230
1.0
 70
    27
 71
     3
 72
    11
 73
     7
 74
     0
 42
0.0000000001
 43
0.0000000001
 12
1.0
 22
0.0
 32
0.0
 13
1.0
 23
0.0
 33
0.0
 40
0.0
 40
0.0
 40
0.0
 40
0.0
 40
1.0
 40
1.0
 40
1.0
 40
2.0
 40
2.0
 40
2.0
 40
2.0
 10
372.8606059525751
 20
-92.40072339861244
 30
0.0
 10
372.8606059525751
 20
-92.40072339861244
 30
0.0
 10
474.4487514271477
 20
-199.7938572133552
 30
0.0
 10
474.4487514271477
 20
-199.7938572133552
 30
0.0
 10
474.4487514271477
 20
-199.7938572133552
 30
0.0
 10
372.8606059525751
 20
-92.40072339861244
 30
0.0
 10
372.8606059525751
 20
-92.40072339861244
 30
0.0
  0
POLYLINE
  5
9E
330
1F
100
AcDbEntity
  8
_U+0421_U+043B_U+043E_U+0439 1
 62
    13
420
 13715780
370
    35
100
AcDb2dPolyline
 66
     1
 10
0.0
 20
0.0
 30
0.0
  0
VERTEX
  5
9F
330
9E
100
AcDbEntity
  8
_U+0421_U+043B_U+043E_U+0439 1
 62
    13
420
 13715780
370
    35
100
AcDbVertex
100
AcDb2dVertex
 10
318.6429999217971
 20
-345.7614197781693
 30
0.0
  0
VERTEX
  5
A0
330
9E
100
AcDbEntity
  8
_U+0421_U+043B_U+043E_U+0439 1
 62
    13
420
 13715780
370
    35
100
AcDbVertex
100
AcDb2dVertex
 10
319.0420993133379
 20
-370.9522683262896
 30
0.0
  0
SEQEND
  5
A1
330
9E
100
AcDbEntity
  8
_U+0421_U+043B_U+043E_U+0439 1
 62
    13
420
 13715780
370
    35
  0
POLYLINE
  5
A2
330
1F
100
AcDbEntity
  8
_U+0421_U+043B_U+043E_U+0439 1
 62
    13
420
 13715780
370
    35
100
AcDb2dPolyline
 66
     1
 10
0.0
 20
0.0
 30
0.0
  0
VERTEX
  5
A3
330
A2
100
AcDbEntity
  8
_U+0421_U+043B_U+043E_U+0439 1
 62
    13
420
 13715780
370
    35
100
AcDbVertex
100
AcDb2dVertex
 10
311.6651991942801
 20
-335.9001995025597
 30
0.0
  0
VERTEX
  5
A4
330
A2
100
AcDbEntity
  8
_U+0421_U+043B_U+043E_U+0439 1
 62
    13
420
 13715780
370
    35
100
AcDbVertex
100
AcDb2dVertex
 10
311.9870610507758
 20
-370.9215720031747
 30
0.0
  0
SEQEND
  5
A5
330
A2
100
AcDbEntity
  8
_U+0421_U+043B_U+043E_U+0439 1
 62
    13
420
 13715780
370
    35
  0
POLYLINE
  5
A6
330
1F
100
AcDbEntity
  8
_U+0421_U+043B_U+043E_U+0439 1
 62
    13
420
 13715780
370
    35
100
AcDb2dPolyline
 66
     1
 10
0.0
 20
0.0
 30
0.0
  0
VERTEX
  5
A7
330
A6
100
AcDbEntity
  8
_U+0421_U+043B_U+043E_U+0439 1
 62
    13
420
 13715780
370
    35
100
AcDbVertex
100
AcDb2dVertex
 10
495.9048860656848
 20
-202.2456575569309
 30
0.0
  0
VERTEX
  5
A8
330
A6
100
AcDbEntity
  8
_U+0421_U+043B_U+043E_U+0439 1
 62
    13
420
 13715780
370
    35
100
AcDbVertex
100
AcDb2dVertex
 10
512.1892359830638
 20
-233.9513182262051
 30
0.0
  0
SEQEND
  5
A9
330
A6
100
AcDbEntity
  8
_U+0421_U+043B_U+043E_U+0439 1
 62
    13
420
 13715780
370
    35
  0
POLYLINE
  5
AA
330
1F
100
AcDbEntity
  8
_U+0421_U+043B_U+043E_U+0439 1
 62
    13
420
 13715780
370
    35
100
AcDb2dPolyline
 66
     1
 10
0.0
 20
0.0
 30
0.0
  0
VERTEX
  5
AB
330
AA
100
AcDbEntity
  8
_U+0421_U+043B_U+043E_U+0439 1
 62
    13
420
 13715780
370
    35
100
AcDbVertex
100
AcDb2dVertex
 10
512.1892359830638
 20
-233.9513182262051
 30
0.0
  0
VERTEX
  5
AC
330
AA
100
AcDbEntity
  8
_U+0421_U+043B_U+043E_U+0439 1
 62
    13
420
 13715780
370
    35
100
AcDbVertex
100
AcDb2dVertex
 10
492.5502431374507
 20
-333.3411521339522
 30
0.0
  0
SEQEND
  5
AD
330
AA
100
AcDbEntity
  8
_U+0421_U+043B_U+043E_U+0439 1
 62
    13
420
 13715780
370
    35
  0
POLYLINE
  5
AE
330
1F
100
AcDbEntity
  8
_U+0421_U+043B_U+043E_U+0439 1
 62
    13
420
 13715780
370
    35
100
AcDb2dPolyline
 66
     1
 10
0.0
 20
0.0
 30
0.0
  0
VERTEX
  5
AF
330
AE
100
AcDbEntity
  8
_U+0421_U+043B_U+043E_U+0439 1
 62
    13
420
 13715780
370
    35
100
AcDbVertex
100
AcDb2dVertex
 10
490.7207159883874
 20
-344.1576260690238
 30
0.0
  0
VERTEX
  5
B0
330
AE
100
AcDbEntity
  8
_U+0421_U+043B_U+043E_U+0439 1
 62
    13
420
 13715780
370
    35
100
AcDbVertex
100
AcDb2dVertex
 10
486.4658563598646
 20
-371.6807255723222
 30
0.0
  0
SEQEND
  5
B1
330
AE
100
AcDbEntity
  8
_U+0421_U+043B_U+043E_U+0439 1
 62
    13
420
 13715780
370
    35
  0
POLYLINE
  5
B2
330
1F
100
AcDbEntity
  8
_U+0421_U+043B_U+043E_U+0439 1
 62
    13
420
 13715780
370
    35
100
AcDb2dPolyline
 66
     1
 10
0.0
 20
0.0
 30
0.0
  0
VERTEX
  5
B3
330
B2
100
AcDbEntity
  8
_U+0421_U+043B_U+043E_U+0439 1
 62
    13
420
 13715780
370
    35
100
AcDbVertex
100
AcDb2dVertex
 10
492.022236733147
 20
-218.7715520407027
 30
0.0
  0
VERTEX
  5
B4
330
B2
100
AcDbEntity
  8
_U+0421_U+043B_U+043E_U+0439 1
 62
    13
420
 13715780
370
    35
100
AcDbVertex
100
AcDb2dVertex
 10
498.6660878382963
 20
-228.7772441534244
 30
0.0
  0
SEQEND
  5
B5
330
B2
100
AcDbEntity
  8
_U+0421_U+043B_U+043E_U+0439 1
 62
    13
420
 13715780
370
    35
  0
POLYLINE
  5
B6
330
1F
100
AcDbEntity
  8
_U+0421_U+043B_U+043E_U+0439 1
 62
    13
420
 13715780
370
    35
100
AcDb2dPolyline
 66
     1
 10
0.0
 20
0.0
 30
0.0
  0
VERTEX
  5
B7
330
B6
100
AcDbEntity
  8
_U+0421_U+043B_U+043E_U+0439 1
 62
    13
420
 13715780
370
    35
100
AcDbVertex
100
AcDb2dVertex
 10
476.0553622691171
 20
-371.3582626362978
 30
0.0
  0
VERTEX
  5
B8
330
B6
100
AcDbEntity
  8
_U+0421_U+043B_U+043E_U+0439 1
 62
    13
420
 13715780
370
    35
100
AcDbVertex
100
AcDb2dVertex
 10
498.6660878382963
 20
-228.7772441534244
 30
0.0
  0
SEQEND
  5
B9
330
B6
100
AcDbEntity
  8
_U+0421_U+043B_U+043E_U+0439 1
 62
    13
420
 13715780
370
    35
  0
POLYLINE
  5
BA
330
1F
100
AcDbEntity
  8
_U+0421_U+043B_U+043E_U+0439 1
 62
    13
420
 13715780
370
    35
100
AcDb2dPolyline
 66
     1
 10
0.0
 20
0.0
 30
0.0
  0
VERTEX
  5
BB
330
BA
100
AcDbEntity
  8
_U+0421_U+043B_U+043E_U+0439 1
 62
    13
420
 13715780
370
    35
100
AcDbVertex
100
AcDb2dVertex
 10
279.2143513976345
 20
-764.6407561749186
 30
0.0
  0
VERTEX
  5
BC
330
BA
100
AcDbEntity
  8
_U+0421_U+043B_U+043E_U+0439 1
 62
    13
420
 13715780
370
    35
100
AcDbVertex
100
AcDb2dVertex
 10
35.97407368066674
 20
-764.6407561749186
 30
0.0
  0
VERTEX
  5
BD
330
BA
100
AcDbEntity
  8
_U+0421_U+043B_U+043E_U+0439 1
 62
    13
420
 13715780
370
    35
100
AcDbVertex
100
AcDb2dVertex
 10
35.97407368066674
 20
-404.1569889039284
 30
0.0
  0
VERTEX
  5
BE
330
BA
100
AcDbEntity
  8
_U+0421_U+043B_U+043E_U+0439 1
 62
    13
420
 13715780
370
    35
100
AcDbVertex
100
AcDb2dVertex
 10
279.2143513976345
 20
-404.1569889039284
 30
0.0
  0
VERTEX
  5
BF
330
BA
100
AcDbEntity
  8
_U+0421_U+043B_U+043E_U+0439 1
 62
    13
420
 13715780
370
    35
100
AcDbVertex
100
AcDb2dVertex
 10
279.2143513976345
 20
-764.6407561749186
 30
0.0
  0
SEQEND
  5
C0
330
BA
100
AcDbEntity
  8
_U+0421_U+043B_U+043E_U+0439 1
 62
    13
420
 13715780
370
    35
  0
SPLINE
  5
C1
330
1F
100
AcDbEntity
  8
_U+0421_U+043B_U+043E_U+0439 1
 62
    13
420
 13715780
370
    35
100
AcDbSpline
210
0.0
220
0.0
230
1.0
 70
    11
 71
     3
 72
    17
 73
    13
 74
     0
 42
0.0000000001
 43
0.0000000001
 12
1.0
 22
0.0
 32
0.0
 13
1.0
 23
0.0
 33
0.0
 40
0.0
 40
0.0
 40
0.0
 40
0.0
 40
1.0
 40
1.0
 40
1.0
 40
2.0
 40
2.0
 40
2.0
 40
3.0
 40
3.0
 40
3.0
 40
4.0
 40
4.0
 40
4.0
 40
4.0
 10
487.3624998781594
 20
-339.3722221373792
 30
0.0
 10
487.3624998781594
 20
-335.5729632969965
 30
0.0
 10
490.4424077027232
 20
-332.4930554724323
 30
0.0
 10
494.2416665431062
 20
-332.4930554724323
 30
0.0
 10
498.0409253834886
 20
-332.4930554724323
 30
0.0
 10
501.1208332080532
 20
-335.5729632969965
 30
0.0
 10
501.1208332080532
 20
-339.3722221373792
 30
0.0
 10
501.1208332080532
 20
-343.1714809777619
 30
0.0
 10
498.0409253834886
 20
-346.2513888023261
 30
0.0
 10
494.2416665431062
 20
-346.2513888023261
 30
0.0
 10
490.4424077027232
 20
-346.2513888023261
 30
0.0
 10
487.3624998781594
 20
-343.1714809777619
 30
0.0
 10
487.3624998781594
 20
-339.3722221373792
 30
0.0
  0
ENDSEC
  0
SECTION
  2
OBJECTS
  0
DICTIONARY
  5
C
330
0
100
AcDbDictionary
281
     1
  3
ACAD_GROUP
350
D
  3
ACAD_LAYOUT
350
1A
  3
ACAD_MATERIAL
350
3B
  3
ACAD_MLEADERSTYLE
350
C3
  3
ACAD_MLINESTYLE
350
17
  3
ACAD_PLOTSETTINGS
350
19
  3
ACAD_PLOTSTYLENAME
350
E
  3
ACAD_TABLESTYLE
350
C2
  3
ACAD_VISUALSTYLE
350
2A
  0
SUN
  5
3F
330
29
100
AcDbSun
 90
        1
290
     0
 63
     7
421
 16777215
 40
1.0
291
     1
 91
  2455826
 92
 54000000
292
     0
 70
     2
 71
   256
280
     1
  0
DICTIONARY
  5
D
102
{ACAD_REACTORS
330
C
102
}
330
C
100
AcDbDictionary
281
     1
  0
DICTIONARY
  5
1A
102
{ACAD_REACTORS
330
C
102
}
330
C
100
AcDbDictionary
281
     1
  3
Layout1
350
1E
  3
Layout2
350
26
  3
Model
350
22
  0
DICTIONARY
  5
3B
102
{ACAD_REACTORS
330
C
102
}
330
C
100
AcDbDictionary
281
     1
  3
ByBlock
350
3D
  3
ByLayer
350
3C
  3
Global
350
3E
  0
DICTIONARY
  5
C3
102
{ACAD_REACTORS
330
C
102
}
330
C
100
AcDbDictionary
281
     1
  0
DICTIONARY
  5
17
102
{ACAD_REACTORS
330
C
102
}
330
C
100
AcDbDictionary
281
     1
  3
Standard
350
18
  0
DICTIONARY
  5
19
102
{ACAD_REACTORS
330
C
102
}
330
C
100
AcDbDictionary
281
     1
  0
ACDBDICTIONARYWDFLT
  5
E
102
{ACAD_REACTORS
330
C
102
}
330
C
100
AcDbDictionary
281
     1
  3
Normal
350
F
100
AcDbDictionaryWithDefault
340
F
  0
DICTIONARY
  5
C2
102
{ACAD_REACTORS
330
C
102
}
330
C
100
AcDbDictionary
281
     1
  0
DICTIONARY
  5
2A
102
{ACAD_REACTORS
330
C
102
}
330
C
100
AcDbDictionary
281
     1
  3
2dWireframe
350
2F
  3
3D Hidden
350
31
  3
3dWireframe
350
30
  3
Basic
350
32
  3
Brighten
350
36
  3
ColorChange
350
3A
  3
Conceptual
350
34
  3
Dim
350
35
  3
Facepattern
350
39
  3
Flat
350
2B
  3
FlatWithEdges
350
2C
  3
Gouraud
350
2D
  3
GouraudWithEdges
350
2E
  3
Linepattern
350
38
  3
Realistic
350
33
  3
Thicken
350
37
  0
LAYOUT
  5
1E
102
{ACAD_REACTORS
330
1A
102
}
330
1A
100
AcDbPlotSettings
  1

  2
none_device
  4

  6

 40
0.0
 41
0.0
 42
0.0
 43
0.0
 44
0.0
 45
0.0
 46
0.0
 47
0.0
 48
0.0
 49
0.0
140
0.0
141
0.0
142
1.0
143
1.0
 70
   688
 72
     0
 73
     0
 74
     5
  7

 75
    16
 76
     0
 77
     2
 78
   300
147
1.0
148
0.0
149
0.0
100
AcDbLayout
  1
Layout1
 70
     1
 71
     1
 10
0.0
 20
0.0
 11
12.0
 21
9.0
 12
0.0
 22
0.0
 32
0.0
 14
1.000000000000000E+20
 24
1.000000000000000E+20
 34
1.000000000000000E+20
 15
-1.000000000000000E+20
 25
-1.000000000000000E+20
 35
-1.000000000000000E+20
146
0.0
 13
0.0
 23
0.0
 33
0.0
 16
1.0
 26
0.0
 36
0.0
 17
0.0
 27
1.0
 37
0.0
 76
     0
330
1B
  0
LAYOUT
  5
26
102
{ACAD_REACTORS
330
1A
102
}
330
1A
100
AcDbPlotSettings
  1

  2
none_device
  4

  6

 40
0.0
 41
0.0
 42
0.0
 43
0.0
 44
0.0
 45
0.0
 46
0.0
 47
0.0
 48
0.0
 49
0.0
140
0.0
141
0.0
142
1.0
143
1.0
 70
   688
 72
     0
 73
     0
 74
     5
  7

 75
    16
 76
     0
 77
     2
 78
   300
147
1.0
148
0.0
149
0.0
100
AcDbLayout
  1
Layout2
 70
     1
 71
     2
 10
0.0
 20
0.0
 11
0.0
 21
0.0
 12
0.0
 22
0.0
 32
0.0
 14
0.0
 24
0.0
 34
0.0
 15
0.0
 25
0.0
 35
0.0
146
0.0
 13
0.0
 23
0.0
 33
0.0
 16
1.0
 26
0.0
 36
0.0
 17
0.0
 27
1.0
 37
0.0
 76
     0
330
23
  0
LAYOUT
  5
22
102
{ACAD_REACTORS
330
1A
102
}
330
1A
100
AcDbPlotSettings
  1

  2
none_device
  4

  6

 40
0.0
 41
0.0
 42
0.0
 43
0.0
 44
0.0
 45
0.0
 46
0.0
 47
0.0
 48
0.0
 49
0.0
140
0.0
141
0.0
142
1.0
143
1.0
 70
  1712
 72
     0
 73
     0
 74
     0
  7

 75
     0
 76
     0
 77
     2
 78
   300
147
1.0
148
0.0
149
0.0
100
AcDbLayout
  1
Model
 70
     1
 71
     0
 10
0.0
 20
0.0
 11
12.0
 21
9.0
 12
0.0
 22
0.0
 32
0.0
 14
1.000000000000000E+20
 24
1.000000000000000E+20
 34
1.000000000000000E+20
 15
-1.000000000000000E+20
 25
-1.000000000000000E+20
 35
-1.000000000000000E+20
146
0.0
 13
0.0
 23
0.0
 33
0.0
 16
1.0
 26
0.0
 36
0.0
 17
0.0
 27
1.0
 37
0.0
 76
     0
330
1F
331
29
  0
MATERIAL
  5
3D
102
{ACAD_REACTORS
330
3B
102
}
330
3B
100
AcDbMaterial
  1
ByBlock
 72
     1
 94
      127
  0
MATERIAL
  5
3C
102
{ACAD_REACTORS
330
3B
102
}
330
3B
100
AcDbMaterial
  1
ByLayer
 72
     1
 94
      127
  0
MATERIAL
  5
3E
102
{ACAD_REACTORS
330
3B
102
}
330
3B
100
AcDbMaterial
  1
Global
 72
     1
 94
      127
  0
MLINESTYLE
  5
18
102
{ACAD_REACTORS
330
17
102
}
330
17
100
AcDbMlineStyle
  2
Standard
 70
     0
  3

 62
   256
 51
90.0
 52
90.0
 71
     2
 49
0.5
 62
   256
  6
BYLAYER
 49
-0.5
 62
   256
  6
BYLAYER
  0
ACDBPLACEHOLDER
  5
F
102
{ACAD_REACTORS
330
E
102
}
330
E
  0
VISUALSTYLE
  5
2F
102
{ACAD_REACTORS
330
2A
102
}
330
2A
100
AcDbVisualStyle
  2
2dWireframe
 70
     4
177
     2
291
     0
 71
     0
176
     1
 72
     2
176
     1
 73
     0
176
     1
 90
        0
176
     1
 40
-0.6
176
     1
 41
-30.0
176
     1
 62
     5
 63
     7
421
 16777215
176
     1
 74
     1
176
     1
 91
        4
176
     1
 64
     7
176
     1
 65
   257
176
     1
 75
     1
176
     1
175
     1
176
     1
 42
1.0
176
     1
 92
        0
176
     1
 66
   257
176
     1
 43
1.0
176
     1
 76
     1
176
     1
 77
     6
176
     1
 78
     2
176
     1
 67
     7
176
     1
 79
     5
176
     1
170
     0
176
     1
171
     0
176
     1
290
     0
176
     1
 93
        1
176
     1
 44
0.0
176
     1
173
     0
176
     1
  0
VISUALSTYLE
  5
31
102
{ACAD_REACTORS
330
2A
102
}
330
2A
100
AcDbVisualStyle
  2
3D Hidden
 70
     6
177
     2
291
     0
 71
     1
176
     1
 72
     2
176
     1
 73
     2
176
     1
 90
        0
176
     1
 40
-0.6
176
     1
 41
-30.0
176
     1
 62
     5
 63
     7
421
 16777215
176
     1
 74
     2
176
     1
 91
        2
176
     1
 64
     7
176
     1
 65
   257
176
     1
 75
     2
176
     1
175
     1
176
     1
 42
40.0
176
     1
 92
        0
176
     1
 66
   257
176
     1
 43
1.0
176
     1
 76
     1
176
     1
 77
     6
176
     1
 78
     2
176
     1
 67
     7
176
     1
 79
     3
176
     1
170
     0
176
     1
171
     0
176
     1
290
     0
176
     1
 93
        1
176
     1
 44
0.0
176
     1
173
     0
176
     1
  0
VISUALSTYLE
  5
30
102
{ACAD_REACTORS
330
2A
102
}
330
2A
100
AcDbVisualStyle
  2
3dWireframe
 70
     5
177
     2
291
     0
 71
     0
176
     1
 72
     2
176
     1
 73
     0
176
     1
 90
        0
176
     1
 40
-0.6
176
     1
 41
-30.0
176
     1
 62
     5
 63
     7
421
 16777215
176
     1
 74
     1
176
     1
 91
        4
176
     1
 64
     7
176
     1
 65
   257
176
     1
 75
     1
176
     1
175
     1
176
     1
 42
1.0
176
     1
 92
        0
176
     1
 66
   257
176
     1
 43
1.0
176
     1
 76
     1
176
     1
 77
     6
176
     1
 78
     2
176
     1
 67
     7
176
     1
 79
     5
176
     1
170
     0
176
     1
171
     0
176
     1
290
     0
176
     1
 93
        1
176
     1
 44
0.0
176
     1
173
     0
176
     1
  0
VISUALSTYLE
  5
32
102
{ACAD_REACTORS
330
2A
102
}
330
2A
100
AcDbVisualStyle
  2
Basic
 70
     7
177
     2
291
     1
 71
     1
176
     1
 72
     0
176
     1
 73
     1
176
     1
 90
        0
176
     1
 40
-0.6
176
     1
 41
-30.0
176
     1
 62
     5
 63
     7
421
 16777215
176
     1
 74
     0
176
     1
 91
        4
176
     1
 64
     7
176
     1
 65
   257
176
     1
 75
     1
176
     1
175
     1
176
     1
 42
1.0
176
     1
 92
        8
176
     1
 66
     7
176
     1
 43
1.0
176
     1
 76
     1
176
     1
 77
     6
176
     1
 78
     2
176
     1
 67
     7
176
     1
 79
     5
176
     1
170
     0
176
     1
171
     0
176
     1
290
     0
176
     1
 93
        1
176
     1
 44
0.0
176
     1
173
     0
176
     1
  0
VISUALSTYLE
  5
36
102
{ACAD_REACTORS
330
2A
102
}
330
2A
100
AcDbVisualStyle
  2
Brighten
 70
    12
177
     2
291
     1
 71
     2
176
     1
 72
     2
176
     1
 73
     0
176
     1
 90
        0
176
     1
 40
-0.6
176
     1
 41
-30.0
176
     1
 62
     5
 63
     7
421
 16777215
176
     1
 74
     1
176
     1
 91
        4
176
     1
 64
     7
176
     1
 65
   257
176
     1
 75
     1
176
     1
175
     1
176
     1
 42
1.0
176
     1
 92
        8
176
     1
 66
     7
176
     1
 43
1.0
176
     1
 76
     1
176
     1
 77
     6
176
     1
 78
     2
176
     1
 67
     7
176
     1
 79
     5
176
     1
170
     0
176
     1
171
     0
176
     1
290
     0
176
     1
 93
        1
176
     1
 44
50.0
176
     1
173
     0
176
     1
  0
VISUALSTYLE
  5
3A
102
{ACAD_REACTORS
330
2A
102
}
330
2A
100
AcDbVisualStyle
  2
ColorChange
 70
    16
177
     2
291
     1
 71
     2
176
     1
 72
     2
176
     1
 73
     3
176
     1
 90
        0
176
     1
 40
-0.6
176
     1
 41
-30.0
176
     1
 62
     5
 63
     8
421
  8421504
176
     1
 74
     1
176
     1
 91
        4
176
     1
 64
     7
176
     1
 65
   257
176
     1
 75
     1
176
     1
175
     1
176
     1
 42
1.0
176
     1
 92
        8
176
     1
 66
     8
424
  8421504
176
     1
 43
1.0
176
     1
 76
     1
176
     1
 77
     6
176
     1
 78
     2
176
     1
 67
     7
176
     1
 79
     5
176
     1
170
     0
176
     1
171
     0
176
     1
290
     0
176
     1
 93
        1
176
     1
 44
0.0
176
     1
173
     0
176
     1
  0
VISUALSTYLE
  5
34
102
{ACAD_REACTORS
330
2A
102
}
330
2A
100
AcDbVisualStyle
  2
Conceptual
 70
     9
177
     2
291
     0
 71
     3
176
     1
 72
     2
176
     1
 73
     0
176
     1
 90
        0
176
     1
 40
-0.6
176
     1
 41
-30.0
176
     1
 62
     5
 63
     7
421
 16777215
176
     1
 74
     2
176
     1
 91
        2
176
     1
 64
     7
176
     1
 65
   257
176
     1
 75
     1
176
     1
175
     1
176
     1
 42
40.0
176
     1
 92
        8
176
     1
 66
     7
176
     1
 43
1.0
176
     1
 76
     1
176
     1
 77
     6
176
     1
 78
     2
176
     1
 67
     7
176
     1
 79
     3
176
     1
170
     0
176
     1
171
     0
176
     1
290
     0
176
     1
 93
        1
176
     1
 44
0.0
176
     1
173
     0
176
     1
  0
VISUALSTYLE
  5
35
102
{ACAD_REACTORS
330
2A
102
}
330
2A
100
AcDbVisualStyle
  2
Dim
 70
    11
177
     2
291
     1
 71
     2
176
     1
 72
     2
176
     1
 73
     0
176
     1
 90
        0
176
     1
 40
-0.6
176
     1
 41
-30.0
176
     1
 62
     5
 63
     7
421
 16777215
176
     1
 74
     1
176
     1
 91
        4
176
     1
 64
     7
176
     1
 65
   257
176
     1
 75
     1
176
     1
175
     1
176
     1
 42
1.0
176
     1
 92
        8
176
     1
 66
     7
176
     1
 43
1.0
176
     1
 76
     1
176
     1
 77
     6
176
     1
 78
     2
176
     1
 67
     7
176
     1
 79
     5
176
     1
170
     0
176
     1
171
     0
176
     1
290
     0
176
     1
 93
        1
176
     1
 44
-50.0
176
     1
173
     0
176
     1
  0
VISUALSTYLE
  5
39
102
{ACAD_REACTORS
330
2A
102
}
330
2A
100
AcDbVisualStyle
  2
Facepattern
 70
    15
177
     2
291
     1
 71
     2
176
     1
 72
     2
176
     1
 73
     0
176
     1
 90
        0
176
     1
 40
-0.6
176
     1
 41
-30.0
176
     1
 62
     5
 63
     7
421
 16777215
176
     1
 74
     1
176
     1
 91
        4
176
     1
 64
     7
176
     1
 65
   257
176
     1
 75
     1
176
     1
175
     1
176
     1
 42
1.0
176
     1
 92
        8
176
     1
 66
     7
176
     1
 43
1.0
176
     1
 76
     1
176
     1
 77
     6
176
     1
 78
     2
176
     1
 67
     7
176
     1
 79
     5
176
     1
170
     0
176
     1
171
     0
176
     1
290
     0
176
     1
 93
        1
176
     1
 44
0.0
176
     1
173
     0
176
     1
  0
VISUALSTYLE
  5
2B
102
{ACAD_REACTORS
330
2A
102
}
330
2A
100
AcDbVisualStyle
  2
Flat
 70
     0
177
     2
291
     1
 71
     2
176
     1
 72
     1
176
     1
 73
     1
176
     1
 90
        2
176
     1
 40
-0.6
176
     1
 41
30.0
176
     1
 62
     5
 63
     7
421
 16777215
176
     1
 74
     0
176
     1
 91
        4
176
     1
 64
     7
176
     1
 65
   257
176
     1
 75
     1
176
     1
175
     1
176
     1
 42
1.0
176
     1
 92
        8
176
     1
 66
     7
176
     1
 43
1.0
176
     1
 76
     1
176
     1
 77
     6
176
     1
 78
     2
176
     1
 67
     7
176
     1
 79
     5
176
     1
170
     0
176
     1
171
     0
176
     1
290
     0
176
     1
 93
       13
176
     1
 44
0.0
176
     1
173
     0
176
     1
  0
VISUALSTYLE
  5
2C
102
{ACAD_REACTORS
330
2A
102
}
330
2A
100
AcDbVisualStyle
  2
FlatWithEdges
 70
     1
177
     2
291
     1
 71
     2
176
     1
 72
     1
176
     1
 73
     1
176
     1
 90
        2
176
     1
 40
-0.6
176
     1
 41
30.0
176
     1
 62
     5
 63
     7
421
 16777215
176
     1
 74
     1
176
     1
 91
        4
176
     1
 64
     7
176
     1
 65
   257
176
     1
 75
     1
176
     1
175
     1
176
     1
 42
1.0
176
     1
 92
        0
176
     1
 66
   257
176
     1
 43
1.0
176
     1
 76
     1
176
     1
 77
     6
176
     1
 78
     2
176
     1
 67
     7
176
     1
 79
     5
176
     1
170
     0
176
     1
171
     0
176
     1
290
     0
176
     1
 93
       13
176
     1
 44
0.0
176
     1
173
     0
176
     1
  0
VISUALSTYLE
  5
2D
102
{ACAD_REACTORS
330
2A
102
}
330
2A
100
AcDbVisualStyle
  2
Gouraud
 70
     2
177
     2
291
     1
 71
     2
176
     1
 72
     2
176
     1
 73
     1
176
     1
 90
        2
176
     1
 40
-0.6
176
     1
 41
30.0
176
     1
 62
     5
 63
     7
421
 16777215
176
     1
 74
     0
176
     1
 91
        4
176
     1
 64
     7
176
     1
 65
   257
176
     1
 75
     1
176
     1
175
     1
176
     1
 42
1.0
176
     1
 92
        0
176
     1
 66
     7
176
     1
 43
1.0
176
     1
 76
     1
176
     1
 77
     6
176
     1
 78
     2
176
     1
 67
     7
176
     1
 79
     5
176
     1
170
     0
176
     1
171
     0
176
     1
290
     0
176
     1
 93
       13
176
     1
 44
0.0
176
     1
173
     0
176
     1
  0
VISUALSTYLE
  5
2E
102
{ACAD_REACTORS
330
2A
102
}
330
2A
100
AcDbVisualStyle
  2
GouraudWithEdges
 70
     3
177
     2
291
     1
 71
     2
176
     1
 72
     2
176
     1
 73
     1
176
     1
 90
        2
176
     1
 40
-0.6
176
     1
 41
30.0
176
     1
 62
     5
 63
     7
421
 16777215
176
     1
 74
     1
176
     1
 91
        4
176
     1
 64
     7
176
     1
 65
   257
176
     1
 75
     1
176
     1
175
     1
176
     1
 42
1.0
176
     1
 92
        0
176
     1
 66
   257
176
     1
 43
1.0
176
     1
 76
     1
176
     1
 77
     6
176
     1
 78
     2
176
     1
 67
     7
176
     1
 79
     5
176
     1
170
     0
176
     1
171
     0
176
     1
290
     0
176
     1
 93
       13
176
     1
 44
0.0
176
     1
173
     0
176
     1
  0
VISUALSTYLE
  5
38
102
{ACAD_REACTORS
330
2A
102
}
330
2A
100
AcDbVisualStyle
  2
Linepattern
 70
    14
177
     2
291
     1
 71
     2
176
     1
 72
     2
176
     1
 73
     0
176
     1
 90
        0
176
     1
 40
-0.6
176
     1
 41
-30.0
176
     1
 62
     5
 63
     7
421
 16777215
176
     1
 74
     1
176
     1
 91
        4
176
     1
 64
     7
176
     1
 65
   257
176
     1
 75
     7
176
     1
175
     7
176
     1
 42
1.0
176
     1
 92
        8
176
     1
 66
     7
176
     1
 43
1.0
176
     1
 76
     1
176
     1
 77
     6
176
     1
 78
     2
176
     1
 67
     7
176
     1
 79
     5
176
     1
170
     0
176
     1
171
     0
176
     1
290
     0
176
     1
 93
        1
176
     1
 44
0.0
176
     1
173
     0
176
     1
  0
VISUALSTYLE
  5
33
102
{ACAD_REACTORS
330
2A
102
}
330
2A
100
AcDbVisualStyle
  2
Realistic
 70
     8
177
     2
291
     0
 71
     2
176
     1
 72
     2
176
     1
 73
     0
176
     1
 90
        0
176
     1
 40
-0.6
176
     1
 41
-30.0
176
     1
 62
     5
 63
     7
421
 16777215
176
     1
 74
     1
176
     1
 91
        0
176
     1
 64
     7
176
     1
 65
   257
176
     1
 75
     1
176
     1
175
     1
176
     1
 42
1.0
176
     1
 92
        8
176
     1
 66
     8
424
  7895160
176
     1
 43
1.0
176
     1
 76
     1
176
     1
 77
     6
176
     1
 78
     2
176
     1
 67
     7
176
     1
 79
     5
176
     1
170
     0
176
     1
171
     0
176
     1
290
     0
176
     1
 93
       13
176
     1
 44
0.0
176
     1
173
     0
176
     1
  0
VISUALSTYLE
  5
37
102
{ACAD_REACTORS
330
2A
102
}
330
2A
100
AcDbVisualStyle
  2
Thicken
 70
    13
177
     2
291
     1
 71
     2
176
     1
 72
     2
176
     1
 73
     0
176
     1
 90
        0
176
     1
 40
-0.6
176
     1
 41
-30.0
176
     1
 62
     5
 63
     7
421
 16777215
176
     1
 74
     1
176
     1
 91
        4
176
     1
 64
     7
176
     1
 65
   257
176
     1
 75
     1
176
     1
175
     1
176
     1
 42
1.0
176
     1
 92
       12
176
     1
 66
     7
176
     1
 43
1.0
176
     1
 76
     1
176
     1
 77
     6
176
     1
 78
     2
176
     1
 67
     7
176
     1
 79
     5
176
     1
170
     0
176
     1
171
     0
176
     1
290
     0
176
     1
 93
        1
176
     1
 44
0.0
176
     1
173
     0
176
     1
  0
ENDSEC
  0
EOF
