0
SECTION
2
HEADER
9
$INSUNITS
70
4
9
$ACADVER
1
AC1014
9
$HANDSEED
5
FFFF
0
ENDSEC
0
SECTION
2
TABLES
0
TABLE
2
VPORT
5
8
100
AcDbSymbolTable
0
ENDTAB
0
TABLE
2
LTYPE
5
5
100
AcDbSymbolTable
0
LTYPE
5
14
100
AcDbSymbolTableRecord
100
AcDbLinetypeTableRecord
2
BYBLOCK
70
0
0
LTYPE
5
15
100
AcDbSymbolTableRecord
100
AcDbLinetypeTableRecord
2
BYLAYER
70
0
0
ENDTAB
0
TABLE
2
LAYER
5
2
100
AcDbSymbolTable
70
2
0
LAYER
5
50
100
AcDbSymbolTableRecord
100
AcDbLayerTableRecord
2
0
70
0
6
CONTINUOUS
0
ENDTAB
0
TABLE
2
STYLE
5
3
100
AcDbSymbolTable
70
1
0
STYLE
5
11
100
AcDbSymbolTableRecord
100
AcDbTextStyleTableRecord
2
STANDARD
70
0
0
ENDTAB
0
TABLE
2
VIEW
5
6
100
AcDbSymbolTable
70
0
0
ENDTAB
0
TABLE
2
UCS
5
7
100
AcDbSymbolTable
70
0
0
ENDTAB
0
TABLE
2
APPID
5
9
100
AcDbSymbolTable
70
2
0
APPID
5
12
100
AcDbSymbolTableRecord
100
AcDbRegAppTableRecord
2
ACAD
70
0
0
ENDTAB
0
TABLE
2
DIMSTYLE
5
A
100
AcDbSymbolTable
70
1
0
ENDTAB
0
TABLE
2
BLOCK_RECORD
5
1
100
AcDbSymbolTable
70
1
0
BLOCK_RECORD
5
1F
100
AcDbSymbolTableRecord
100
AcDbBlockTableRecord
2
*MODEL_SPACE
0
BLOCK_RECORD
5
1B
100
AcDbSymbolTableRecord
100
AcDbBlockTableRecord
2
*PAPER_SPACE
0
ENDTAB
0
ENDSEC
0
SECTION
2
BLOCKS
0
BLOCK
5
20
100
AcDbEntity
100
AcDbBlockBegin
2
*MODEL_SPACE
0
ENDBLK
5
21
100
AcDbEntity
100
AcDbBlockEnd
0
BLOCK
5
1C
100
AcDbEntity
100
AcDbBlockBegin
2
*PAPER_SPACE
0
ENDBLK
5
1D
100
AcDbEntity
100
AcDbBlockEnd
0
ENDSEC
0
SECTION
2
ENTITIES
0
LWPOLYLINE
5
100
100
AcDbEntity
8
0
100
AcDbPolyline
90
76
70
1
43
0.0
10
450.00000000000006
20
69.999999999999972
10
179
20
69.999999999999986
10
179.00000000000003
20
80
10
174.80000000000001
20
79.999999999999957
10
174.80000000000004
20
89.999999999999986
10
179
20
89.999999999999986
10
179
20
100
10
0
20
100
10
8.9222195920372121e-16
20
80
10
4.2000000000000641
20
79.999999999999972
10
4.2000000000000517
20
59.999999999999986
10
1.6819878823071122e-13
20
60
10
1.4486205461468072e-13
20
40
10
4.2000000000000082
20
39.999999999999986
10
4.2000000000000259
20
20
10
7.2164496600635175e-15
20
19.999999999999993
10
2.5717582782094484e-16
20
-4.2000000000000037
10
20
20
-4.2000000000000011
10
20
20
-1.1102230246251565e-15
10
49.06666666666667
20
0
10
49.06666666666667
20
-4.2000000000000028
10
69.066666666666677
20
-4.2000000000000011
10
69.066666666666677
20
-1.1102230246251565e-15
10
98.13333333333334
20
0
10
98.13333333333334
20
-4.2000000000000028
10
118.13333333333334
20
-4.2000000000000011
10
118.13333333333334
20
-1.1102230246251565e-15
10
147.20000000000002
20
0
10
147.20000000000002
20
-4.2000000000000028
10
167.20000000000002
20
-4.2000000000000011
10
167.20000000000002
20
-1.1102230246251565e-15
10
196.26666666666668
20
0
10
196.26666666666668
20
-4.2000000000000028
10
216.26666666666668
20
-4.2000000000000011
10
216.26666666666668
20
-1.1102230246251565e-15
10
245.33333333333334
20
0
10
245.33333333333334
20
-4.2000000000000028
10
265.33333333333337
20
-4.2000000000000011
10
265.33333333333337
20
-1.1102230246251565e-15
10
294.40000000000003
20
0
10
294.40000000000003
20
-4.2000000000000028
10
314.40000000000003
20
-4.2000000000000011
10
314.40000000000003
20
-1.1102230246251565e-15
10
343.4666666666667
20
0
10
343.4666666666667
20
-4.2000000000000028
10
363.4666666666667
20
-4.2000000000000011
10
363.4666666666667
20
-1.1102230246251565e-15
10
392.53333333333336
20
0
10
392.53333333333336
20
-4.2000000000000028
10
412.53333333333336
20
-4.2000000000000011
10
412.53333333333336
20
-1.1102230246251565e-15
10
441.60000000000002
20
0
10
441.60000000000002
20
-4.2000000000000028
10
461.60000000000002
20
-4.2000000000000011
10
461.60000000000002
20
-1.1102230246251565e-15
10
485.00000000000006
20
-2.4594697603195602e-15
10
485.00000000000006
20
-4.2000000000000162
10
505.00000000000006
20
-4.2000000000000224
10
505.00000000000006
20
0
10
528.40000000000009
20
0
10
528.40000000000009
20
6.0000000000000036
10
524.20000000000005
20
6.0000000000000036
10
524.20000000000005
20
12.000000000000009
10
528.40000000000009
20
12.000000000000011
10
528.40000000000009
20
18.000000000000011
10
524.20000000000005
20
18.000000000000011
10
524.20000000000005
20
24.000000000000018
10
528.40000000000009
20
24
10
528.40000000000009
20
30
10
464.2000000000001
20
30.000000000000004
10
464.2000000000001
20
38
10
460.00000000000006
20
38
10
460.00000000000006
20
52.000000000000021
10
464.2000000000001
20
52
10
464.2000000000001
20
60
10
450.00000000000006
20
60
0
LWPOLYLINE
5
101
100
AcDbEntity
8
0
100
AcDbPolyline
90
4
70
1
43
0.0
10
156.80000000000001
20
20.000000000003805
10
152.59999999999999
20
20.000000000003702
10
152.59999999999999
20
80.000000000000014
10
156.80000000000001
20
80.000000000000014
0
LWPOLYLINE
5
102
100
AcDbEntity
8
0
100
AcDbPolyline
90
4
70
1
43
0.0
10
179
20
14.999999999999972
10
174.79999999999995
20
15.000000000000018
10
174.79999999999995
20
54.999999999999986
10
179
20
54.999999999999986
0
LWPOLYLINE
5
103
100
AcDbEntity
8
0
100
AcDbPolyline
90
4
70
1
43
0.0
10
233.19999999999999
20
54.999999999999986
10
233.19999999999999
20
14.999999999999973
10
229
20
15.000000000000018
10
229
20
54.999999999999986
0
LWPOLYLINE
5
104
100
AcDbEntity
8
0
100
AcDbPolyline
90
4
70
1
43
0.0
10
287.40000000000003
20
54.999999999999986
10
287.40000000000003
20
14.999999999999973
10
283.19999999999999
20
15.000000000000018
10
283.19999999999999
20
54.999999999999986
0
LWPOLYLINE
5
105
100
AcDbEntity
8
0
100
AcDbPolyline
90
4
70
1
43
0.0
10
341.60000000000002
20
54.999999999999986
10
341.60000000000002
20
14.999999999999973
10
337.40000000000003
20
15.000000000000018
10
337.40000000000003
20
54.999999999999986
0
LWPOLYLINE
5
106
100
AcDbEntity
8
0
100
AcDbPolyline
90
4
70
1
43
0.0
10
395.80000000000007
20
54.999999999999986
10
395.80000000000007
20
14.999999999999973
10
391.60000000000002
20
15.000000000000018
10
391.60000000000002
20
54.999999999999986
0
LWPOLYLINE
5
107
100
AcDbEntity
8
0
100
AcDbPolyline
90
4
70
1
43
0.0
10
450.00000000000006
20
54.999999999999986
10
450.00000000000006
20
14.999999999999973
10
445.80000000000007
20
15.000000000000018
10
445.80000000000007
20
54.999999999999986
0
ENDSEC
0
SECTION
2
OBJECTS
0
DICTIONARY
5
C
100
AcDbDictionary
3
ACAD_GROUP
350
D
3
ACAD_MLINESTYLE
350
17
0
DICTIONARY
5
D
100
AcDbDictionary
0
DICTIONARY
5
1A
330
C
100
AcDbDictionary
0
DICTIONARY
5
17
100
AcDbDictionary
0
ENDSEC
0
EOF
