0
SECTION
2
HEADER
9
$INSUNITS
70
4
9
$ACADVER
1
AC1014
9
$HANDSEED
5
FFFF
0
ENDSEC
0
SECTION
2
TABLES
0
TABLE
2
VPORT
5
8
100
AcDbSymbolTable
0
ENDTAB
0
TABLE
2
LTYPE
5
5
100
AcDbSymbolTable
0
LTYPE
5
14
100
AcDbSymbolTableRecord
100
AcDbLinetypeTableRecord
2
BYBLOCK
70
0
0
LTYPE
5
15
100
AcDbSymbolTableRecord
100
AcDbLinetypeTableRecord
2
BYLAYER
70
0
0
ENDTAB
0
TABLE
2
LAYER
5
2
100
AcDbSymbolTable
70
2
0
LAYER
5
50
100
AcDbSymbolTableRecord
100
AcDbLayerTableRecord
2
0
70
0
6
CONTINUOUS
0
ENDTAB
0
TABLE
2
STYLE
5
3
100
AcDbSymbolTable
70
1
0
STYLE
5
11
100
AcDbSymbolTableRecord
100
AcDbTextStyleTableRecord
2
STANDARD
70
0
0
ENDTAB
0
TABLE
2
VIEW
5
6
100
AcDbSymbolTable
70
0
0
ENDTAB
0
TABLE
2
UCS
5
7
100
AcDbSymbolTable
70
0
0
ENDTAB
0
TABLE
2
APPID
5
9
100
AcDbSymbolTable
70
2
0
APPID
5
12
100
AcDbSymbolTableRecord
100
AcDbRegAppTableRecord
2
ACAD
70
0
0
ENDTAB
0
TABLE
2
DIMSTYLE
5
A
100
AcDbSymbolTable
70
1
0
ENDTAB
0
TABLE
2
BLOCK_RECORD
5
1
100
AcDbSymbolTable
70
1
0
BLOCK_RECORD
5
1F
100
AcDbSymbolTableRecord
100
AcDbBlockTableRecord
2
*MODEL_SPACE
0
BLOCK_RECORD
5
1B
100
AcDbSymbolTableRecord
100
AcDbBlockTableRecord
2
*PAPER_SPACE
0
ENDTAB
0
ENDSEC
0
SECTION
2
BLOCKS
0
BLOCK
5
20
100
AcDbEntity
100
AcDbBlockBegin
2
*MODEL_SPACE
0
ENDBLK
5
21
100
AcDbEntity
100
AcDbBlockEnd
0
BLOCK
5
1C
100
AcDbEntity
100
AcDbBlockBegin
2
*PAPER_SPACE
0
ENDBLK
5
1D
100
AcDbEntity
100
AcDbBlockEnd
0
ENDSEC
0
SECTION
2
ENTITIES
0
LWPOLYLINE
5
100
100
AcDbEntity
8
0
100
AcDbPolyline
90
110
70
1
43
0.0
10
286.80000000000001
20
30
10
282.59999999999997
20
30
10
282.59999999999997
20
60
10
269.60000000000002
20
60
10
269.60000000000002
20
30
10
265.39999999999998
20
30
10
265.39999999999998
20
60
10
252.40000000000003
20
60
10
252.40000000000003
20
30
10
248.19999999999999
20
30
10
248.19999999999999
20
60
10
235.19999999999999
20
60
10
235.19999999999999
20
30
10
230.99999999999997
20
30
10
230.99999999999997
20
60
10
218
20
60
10
218
20
30
10
213.79999999999998
20
30
10
213.79999999999998
20
60
10
200.80000000000001
20
60
10
200.80000000000001
20
30
10
196.59999999999999
20
30
10
196.59999999999999
20
60
10
183.59999999999999
20
60
10
183.59999999999999
20
30
10
179.39999999999998
20
30
10
179.39999999999998
20
60
10
166.40000000000001
20
60
10
166.40000000000001
20
30
10
162.19999999999999
20
30
10
162.19999999999999
20
60
10
139.19999999999999
20
60
10
139.19999999999999
20
73.333333333333329
10
134.99999999999997
20
73.333333333333329
10
134.99999999999997
20
86.666666666666657
10
139.19999999999999
20
86.666666666666657
10
139.19999999999999
20
100
10
95
20
100
10
95
20
80.00000000000226
10
90.800000000000281
20
80.00000000000226
10
90.800000000000281
20
59.999999999999986
10
95
20
59.999999999999986
10
95
20
40.000000000000057
10
90.799999999999997
20
40.000000000000057
10
90.800000000000281
20
20.000000000003702
10
95
20
20.000000000003702
10
95
20
-4.2000000000001592
10
115.78461538461546
20
-4.20000000000016
10
115.78461538461546
20
0
10
133.47692307692313
20
-4.9960036108132044e-15
10
133.47692307692313
20
-4.2000000000001645
10
153.47692307692313
20
-4.20000000000016
10
153.47692307692319
20
0
10
171.16923076923086
20
-4.9960036108132044e-15
10
171.16923076923086
20
-4.2000000000001645
10
191.16923076923086
20
-4.20000000000016
10
191.16923076923086
20
0
10
208.86153846153854
20
-4.9960036108132044e-15
10
208.86153846153854
20
-4.2000000000001645
10
228.86153846153854
20
-4.20000000000016
10
228.86153846153854
20
0
10
246.55384615384622
20
-4.9960036108132044e-15
10
246.55384615384622
20
-4.2000000000001645
10
266.55384615384622
20
-4.20000000000016
10
266.55384615384622
20
0
10
284.2461538461539
20
-4.9960036108132044e-15
10
284.2461538461539
20
-4.2000000000001645
10
304.2461538461539
20
-4.20000000000016
10
304.2461538461539
20
0
10
321.93846153846158
20
-4.9960036108132044e-15
10
321.93846153846158
20
-4.2000000000001645
10
341.93846153846158
20
-4.20000000000016
10
341.93846153846158
20
0
10
359.63076923076926
20
-4.9960036108132044e-15
10
359.63076923076926
20
-4.2000000000001645
10
379.63076923076926
20
-4.20000000000016
10
379.63076923076926
20
0
10
397.323076923077
20
-4.9960036108132044e-15
10
397.323076923077
20
-4.2000000000001645
10
417.323076923077
20
-4.20000000000016
10
417.323076923077
20
0
10
428.20000000000005
20
0
10
428.20000000000005
20
15.000000000000016
10
424.00000000000006
20
15.000000000000016
10
424.00000000000006
20
45
10
428.20000000000005
20
45
10
428.20000000000005
20
72.499999999999986
10
424.00000000000006
20
72.499999999999986
10
424.00000000000006
20
87.499999999999986
10
428.20000000000005
20
87.499999999999986
10
428.20000000000005
20
100
10
409.85714285714295
20
100
10
409.85714285714295
20
95.799999999999429
10
391.51428571428585
20
95.7999999999995
10
391.51428571428585
20
99.999999999999972
10
373.17142857142875
20
100
10
373.17142857142846
20
95.799999999999557
10
354.82857142857137
20
95.799999999999699
10
354.82857142857119
20
100
10
336.4857142857141
20
100
10
336.48571428571421
20
95.799999999999869
10
318.14285714285711
20
95.800000000000011
10
318.14285714285711
20
100
10
299.80000000000007
20
100
10
299.80000000000007
20
87.499999999999986
10
304
20
87.499999999999986
10
304
20
72.5
10
299.80000000000007
20
72.5
10
299.80000000000007
20
59.999999999999986
10
286.80000000000001
20
60
0
LWPOLYLINE
5
101
100
AcDbEntity
8
0
100
AcDbPolyline
90
4
70
1
43
0.0
10
129.19999999999999
20
60.000000000000028
10
124.99999999999989
20
60
10
124.99999999999984
20
80
10
129.19999999999999
20
80
0
LWPOLYLINE
5
102
100
AcDbEntity
8
0
100
AcDbPolyline
90
4
70
1
43
0.0
10
129.19999999999999
20
15
10
125.00000000000007
20
15
10
124.99999999999994
20
45
10
129.19999999999999
20
44.999999999999993
0
LWPOLYLINE
5
103
100
AcDbEntity
8
0
100
AcDbPolyline
90
4
70
1
43
0.0
10
299.79999999999995
20
15.000000000000004
10
299.79999999999995
20
45
10
304
20
45
10
304
20
15.000000000000004
0
LWPOLYLINE
5
104
100
AcDbEntity
8
0
100
AcDbPolyline
90
4
70
1
43
0.0
10
135
20
44.999999999999993
10
139.19999999999999
20
45
10
139.20000000000002
20
15
10
135
20
15
0
ENDSEC
0
SECTION
2
OBJECTS
0
DICTIONARY
5
C
100
AcDbDictionary
3
ACAD_GROUP
350
D
3
ACAD_MLINESTYLE
350
17
0
DICTIONARY
5
D
100
AcDbDictionary
0
DICTIONARY
5
1A
330
C
100
AcDbDictionary
0
DICTIONARY
5
17
100
AcDbDictionary
0
ENDSEC
0
EOF
