0
SECTION
2
HEADER
9
$INSUNITS
70
4
9
$ACADVER
1
AC1014
9
$HANDSEED
5
FFFF
0
ENDSEC
0
SECTION
2
TABLES
0
TABLE
2
VPORT
5
8
100
AcDbSymbolTable
0
ENDTAB
0
TABLE
2
LTYPE
5
5
100
AcDbSymbolTable
0
LTYPE
5
14
100
AcDbSymbolTableRecord
100
AcDbLinetypeTableRecord
2
BYBLOCK
70
0
0
LTYPE
5
15
100
AcDbSymbolTableRecord
100
AcDbLinetypeTableRecord
2
BYLAYER
70
0
0
ENDTAB
0
TABLE
2
LAYER
5
2
100
AcDbSymbolTable
70
2
0
LAYER
5
50
100
AcDbSymbolTableRecord
100
AcDbLayerTableRecord
2
0
70
0
6
CONTINUOUS
0
ENDTAB
0
TABLE
2
STYLE
5
3
100
AcDbSymbolTable
70
1
0
STYLE
5
11
100
AcDbSymbolTableRecord
100
AcDbTextStyleTableRecord
2
STANDARD
70
0
0
ENDTAB
0
TABLE
2
VIEW
5
6
100
AcDbSymbolTable
70
0
0
ENDTAB
0
TABLE
2
UCS
5
7
100
AcDbSymbolTable
70
0
0
ENDTAB
0
TABLE
2
APPID
5
9
100
AcDbSymbolTable
70
2
0
APPID
5
12
100
AcDbSymbolTableRecord
100
AcDbRegAppTableRecord
2
ACAD
70
0
0
ENDTAB
0
TABLE
2
DIMSTYLE
5
A
100
AcDbSymbolTable
70
1
0
ENDTAB
0
TABLE
2
BLOCK_RECORD
5
1
100
AcDbSymbolTable
70
1
0
BLOCK_RECORD
5
1F
100
AcDbSymbolTableRecord
100
AcDbBlockTableRecord
2
*MODEL_SPACE
0
BLOCK_RECORD
5
1B
100
AcDbSymbolTableRecord
100
AcDbBlockTableRecord
2
*PAPER_SPACE
0
ENDTAB
0
ENDSEC
0
SECTION
2
BLOCKS
0
BLOCK
5
20
100
AcDbEntity
100
AcDbBlockBegin
2
*MODEL_SPACE
0
ENDBLK
5
21
100
AcDbEntity
100
AcDbBlockEnd
0
BLOCK
5
1C
100
AcDbEntity
100
AcDbBlockBegin
2
*PAPER_SPACE
0
ENDBLK
5
1D
100
AcDbEntity
100
AcDbBlockEnd
0
ENDSEC
0
SECTION
2
ENTITIES
0
LWPOLYLINE
5
100
100
AcDbEntity
8
0
100
AcDbPolyline
90
36
70
1
43
0.0
10
-4.2000000000000002
20
0
10
-4.2000000000000002
20
15
10
0
20
15
10
0
20
45
10
-4.2000000000000002
20
45
10
-4.2000000000000002
20
72.5
10
0
20
72.5
10
0
20
87.499999999999986
10
-4.2000000000000002
20
87.499999999999986
10
-4.1999999999999993
20
95.800000000000139
10
-13.228571428571419
20
95.800000000000125
10
-13.228571428571419
20
100
10
-26.457142857142856
20
100
10
-26.457142857142856
20
95.800000000000125
10
-39.685714285714241
20
95.800000000000125
10
-39.685714285714241
20
100
10
-52.914285714285647
20
100
10
-52.914285714285647
20
95.800000000000125
10
-66.142857142857153
20
95.800000000000125
10
-66.142857142857153
20
100
10
-79.371428571428524
20
100
10
-79.371428571428524
20
95.800000000000125
10
-88.400000000000006
20
95.800000000000125
10
-88.400000000000006
20
87.499999999999986
10
-92.599999999999994
20
87.499999999999986
10
-92.599999999999994
20
72.5
10
-88.400000000000006
20
72.5
10
-88.400000000000006
20
45
10
-92.599999999999994
20
45
10
-92.599999999999994
20
15.000000000000004
10
-88.400000000000006
20
15.000000000000004
10
-88.400000000000006
20
0
10
-60.333333333333329
20
0
10
-60.333333333333329
20
-4.2000000000001592
10
-32.266666666666666
20
-4.2000000000001592
10
-32.266666666666666
20
0
0
ENDSEC
0
SECTION
2
OBJECTS
0
DICTIONARY
5
C
100
AcDbDictionary
3
ACAD_GROUP
350
D
3
ACAD_MLINESTYLE
350
17
0
DICTIONARY
5
D
100
AcDbDictionary
0
DICTIONARY
5
1A
330
C
100
AcDbDictionary
0
DICTIONARY
5
17
100
AcDbDictionary
0
ENDSEC
0
EOF
