0
SECTION
2
HEADER
9
$INSUNITS
70
4
9
$ACADVER
1
AC1014
9
$HANDSEED
5
FFFF
0
ENDSEC
0
SECTION
2
TABLES
0
TABLE
2
VPORT
5
8
100
AcDbSymbolTable
0
ENDTAB
0
TABLE
2
LTYPE
5
5
100
AcDbSymbolTable
0
LTYPE
5
14
100
AcDbSymbolTableRecord
100
AcDbLinetypeTableRecord
2
BYBLOCK
70
0
0
LTYPE
5
15
100
AcDbSymbolTableRecord
100
AcDbLinetypeTableRecord
2
BYLAYER
70
0
0
ENDTAB
0
TABLE
2
LAYER
5
2
100
AcDbSymbolTable
70
2
0
LAYER
5
50
100
AcDbSymbolTableRecord
100
AcDbLayerTableRecord
2
0
70
0
6
CONTINUOUS
0
ENDTAB
0
TABLE
2
STYLE
5
3
100
AcDbSymbolTable
70
1
0
STYLE
5
11
100
AcDbSymbolTableRecord
100
AcDbTextStyleTableRecord
2
STANDARD
70
0
0
ENDTAB
0
TABLE
2
VIEW
5
6
100
AcDbSymbolTable
70
0
0
ENDTAB
0
TABLE
2
UCS
5
7
100
AcDbSymbolTable
70
0
0
ENDTAB
0
TABLE
2
APPID
5
9
100
AcDbSymbolTable
70
2
0
APPID
5
12
100
AcDbSymbolTableRecord
100
AcDbRegAppTableRecord
2
ACAD
70
0
0
ENDTAB
0
TABLE
2
DIMSTYLE
5
A
100
AcDbSymbolTable
70
1
0
ENDTAB
0
TABLE
2
BLOCK_RECORD
5
1
100
AcDbSymbolTable
70
1
0
BLOCK_RECORD
5
1F
100
AcDbSymbolTableRecord
100
AcDbBlockTableRecord
2
*MODEL_SPACE
0
BLOCK_RECORD
5
1B
100
AcDbSymbolTableRecord
100
AcDbBlockTableRecord
2
*PAPER_SPACE
0
ENDTAB
0
ENDSEC
0
SECTION
2
BLOCKS
0
BLOCK
5
20
100
AcDbEntity
100
AcDbBlockBegin
2
*MODEL_SPACE
0
ENDBLK
5
21
100
AcDbEntity
100
AcDbBlockEnd
0
BLOCK
5
1C
100
AcDbEntity
100
AcDbBlockBegin
2
*PAPER_SPACE
0
ENDBLK
5
1D
100
AcDbEntity
100
AcDbBlockEnd
0
ENDSEC
0
SECTION
2
ENTITIES
0
LWPOLYLINE
5
100
100
AcDbEntity
8
0
100
AcDbPolyline
90
4
70
1
43
0.0
10
-152.59999999999999
20
45
10
-152.59999999999999
20
15.000000000000009
10
-156.80000000000001
20
15.000000000000007
10
-156.80000000000001
20
45
0
LWPOLYLINE
5
101
100
AcDbEntity
8
0
100
AcDbPolyline
90
50
70
1
43
0.0
10
-92.599999999999994
20
15
10
-88.400000000000006
20
15
10
-88.400000000000006
20
45
10
-92.599999999999994
20
45
10
-92.599999999999994
20
60
10
-88.400000000000006
20
60
10
-88.400000000000006
20
80
10
-156.80000000000001
20
79.999999999999986
10
-156.80000000000001
20
73.333333333333329
10
-152.59999999999999
20
73.333333333333329
10
-152.59999999999999
20
66.666666666666657
10
-156.80000000000001
20
66.666666666666657
10
-156.80000000000001
20
60
10
-401
20
59.999999999999986
10
-401
20
47.999999999999986
10
-396.80000000000001
20
47.999999999999986
10
-396.80000000000001
20
35.999999999999986
10
-401
20
35.999999999999986
10
-401
20
23.999999999999993
10
-396.80000000000001
20
23.999999999999993
10
-396.80000000000001
20
12
10
-401
20
11.999999999999996
10
-401
20
-4.1999999999999993
10
-392.53333333333336
20
-4.2000000000000028
10
-392.53333333333336
20
0
10
-363.4666666666667
20
-1.1102230246251565e-15
10
-363.4666666666667
20
-4.2000000000000011
10
-343.4666666666667
20
-4.2000000000000028
10
-343.4666666666667
20
0
10
-314.40000000000003
20
-1.1102230246251565e-15
10
-314.40000000000003
20
-4.2000000000000011
10
-294.40000000000003
20
-4.2000000000000028
10
-294.40000000000003
20
0
10
-265.33333333333337
20
-1.1102230246251565e-15
10
-265.33333333333337
20
-4.2000000000000011
10
-245.33333333333334
20
-4.2000000000000028
10
-245.33333333333334
20
0
10
-216.26666666666668
20
-1.1102230246251565e-15
10
-216.26666666666668
20
-4.2000000000000011
10
-196.26666666666668
20
-4.2000000000000028
10
-196.26666666666668
20
0
10
-167.20000000000002
20
-1.1102230246251565e-15
10
-167.20000000000002
20
-4.2000000000000011
10
-147.20000000000002
20
-4.2000000000000028
10
-147.20000000000002
20
0
10
-118.13333333333334
20
-1.1102230246251565e-15
10
-118.13333333333334
20
-4.2000000000000011
10
-98.13333333333334
20
-4.2000000000000028
10
-98.13333333333334
20
0
10
-92.599999999999994
20
0
0
ENDSEC
0
SECTION
2
OBJECTS
0
DICTIONARY
5
C
100
AcDbDictionary
3
ACAD_GROUP
350
D
3
ACAD_MLINESTYLE
350
17
0
DICTIONARY
5
D
100
AcDbDictionary
0
DICTIONARY
5
1A
330
C
100
AcDbDictionary
0
DICTIONARY
5
17
100
AcDbDictionary
0
ENDSEC
0
EOF
