0
SECTION
2
HEADER
9
$INSUNITS
70
4
9
$ACADVER
1
AC1014
9
$HANDSEED
5
FFFF
0
ENDSEC
0
SECTION
2
TABLES
0
TABLE
2
VPORT
5
8
100
AcDbSymbolTable
0
ENDTAB
0
TABLE
2
LTYPE
5
5
100
AcDbSymbolTable
0
LTYPE
5
14
100
AcDbSymbolTableRecord
100
AcDbLinetypeTableRecord
2
BYBLOCK
70
0
0
LTYPE
5
15
100
AcDbSymbolTableRecord
100
AcDbLinetypeTableRecord
2
BYLAYER
70
0
0
ENDTAB
0
TABLE
2
LAYER
5
2
100
AcDbSymbolTable
70
2
0
LAYER
5
50
100
AcDbSymbolTableRecord
100
AcDbLayerTableRecord
2
0
70
0
6
CONTINUOUS
0
ENDTAB
0
TABLE
2
STYLE
5
3
100
AcDbSymbolTable
70
1
0
STYLE
5
11
100
AcDbSymbolTableRecord
100
AcDbTextStyleTableRecord
2
STANDARD
70
0
0
ENDTAB
0
TABLE
2
VIEW
5
6
100
AcDbSymbolTable
70
0
0
ENDTAB
0
TABLE
2
UCS
5
7
100
AcDbSymbolTable
70
0
0
ENDTAB
0
TABLE
2
APPID
5
9
100
AcDbSymbolTable
70
2
0
APPID
5
12
100
AcDbSymbolTableRecord
100
AcDbRegAppTableRecord
2
ACAD
70
0
0
ENDTAB
0
TABLE
2
DIMSTYLE
5
A
100
AcDbSymbolTable
70
1
0
ENDTAB
0
TABLE
2
BLOCK_RECORD
5
1
100
AcDbSymbolTable
70
1
0
BLOCK_RECORD
5
1F
100
AcDbSymbolTableRecord
100
AcDbBlockTableRecord
2
*MODEL_SPACE
0
BLOCK_RECORD
5
1B
100
AcDbSymbolTableRecord
100
AcDbBlockTableRecord
2
*PAPER_SPACE
0
ENDTAB
0
ENDSEC
0
SECTION
2
BLOCKS
0
BLOCK
5
20
100
AcDbEntity
100
AcDbBlockBegin
2
*MODEL_SPACE
0
ENDBLK
5
21
100
AcDbEntity
100
AcDbBlockEnd
0
BLOCK
5
1C
100
AcDbEntity
100
AcDbBlockBegin
2
*PAPER_SPACE
0
ENDBLK
5
1D
100
AcDbEntity
100
AcDbBlockEnd
0
ENDSEC
0
SECTION
2
ENTITIES
0
LWPOLYLINE
5
100
100
AcDbEntity
8
0
100
AcDbPolyline
90
4
70
1
43
0.0
10
-299.80000000000007
20
60.333333333333329
10
-299.80000000000007
20
32.266666666666666
10
-304.00000000000006
20
32.266666666666666
10
-304.00000000000006
20
60.333333333333329
0
LWPOLYLINE
5
101
100
AcDbEntity
8
0
100
AcDbPolyline
90
4
70
1
43
0.0
10
-33.066666666666663
20
152.59999999999999
10
-61.933333333333337
20
152.59999999999999
10
-61.933333333333337
20
156.80000000000001
10
-33.066666666666663
20
156.80000000000001
0
LWPOLYLINE
5
102
100
AcDbEntity
8
0
100
AcDbPolyline
90
4
70
1
43
0.0
10
-90.799999999999997
20
167.20000000000002
10
-90.799999999999997
20
147.20000000000002
10
-95
20
147.20000000000002
10
-95
20
167.20000000000002
0
LWPOLYLINE
5
103
100
AcDbEntity
8
0
100
AcDbPolyline
90
4
70
1
43
0.0
10
-33.066666666666663
20
179
10
-33.066666666666663
20
174.79999999999995
10
-61.933333333333337
20
174.79999999999995
10
-61.933333333333337
20
179
0
LWPOLYLINE
5
104
100
AcDbEntity
8
0
100
AcDbPolyline
90
4
70
1
43
0.0
10
-61.933333333333323
20
450.00000000000006
10
-33.066666666666663
20
450.00000000000006
10
-33.066666666666656
20
445.80000000000007
10
-61.933333333333344
20
445.80000000000007
0
LWPOLYLINE
5
105
100
AcDbEntity
8
0
100
AcDbPolyline
90
4
70
1
43
0.0
10
-95
20
363.4666666666667
10
-90.799999999999997
20
363.4666666666667
10
-90.799999999999997
20
343.4666666666667
10
-95
20
343.4666666666667
0
LWPOLYLINE
5
106
100
AcDbEntity
8
0
100
AcDbPolyline
90
4
70
1
43
0.0
10
-90.799999999999997
20
196.26666666666668
10
-95
20
196.26666666666668
10
-95
20
216.26666666666668
10
-90.799999999999997
20
216.26666666666668
0
LWPOLYLINE
5
107
100
AcDbEntity
8
0
100
AcDbPolyline
90
4
70
1
43
0.0
10
-95
20
314.40000000000003
10
-90.799999999999997
20
314.40000000000003
10
-90.799999999999997
20
294.40000000000003
10
-95
20
294.40000000000003
0
LWPOLYLINE
5
108
100
AcDbEntity
8
0
100
AcDbPolyline
90
4
70
1
43
0.0
10
-90.799999999999997
20
245.33333333333334
10
-95
20
245.33333333333334
10
-95
20
265.33333333333337
10
-90.799999999999997
20
265.33333333333337
0
LWPOLYLINE
5
109
100
AcDbEntity
8
0
100
AcDbPolyline
90
4
70
1
43
0.0
10
-61.933333333333323
20
464.2000000000001
10
-33.066666666666663
20
464.2000000000001
10
-33.066666666666663
20
460.00000000000006
10
-61.933333333333323
20
460.00000000000006
0
LWPOLYLINE
5
110
100
AcDbEntity
8
0
100
AcDbPolyline
90
4
70
1
43
0.0
10
-90.799999999999997
20
98.13333333333334
10
-95
20
98.13333333333334
10
-95
20
118.13333333333334
10
-90.799999999999997
20
118.13333333333334
0
LWPOLYLINE
5
111
100
AcDbEntity
8
0
100
AcDbPolyline
90
4
70
1
43
0.0
10
-95
20
88.400000000000006
10
-115.78461538461546
20
88.400000000000006
10
-115.78461538461546
20
92.599999999999994
10
-95
20
92.599999999999994
0
LWPOLYLINE
5
112
100
AcDbEntity
8
0
100
AcDbPolyline
90
4
70
1
43
0.0
10
-95
20
49.06666666666667
10
-95
20
69.066666666666677
10
-90.799999999999997
20
69.066666666666677
10
-90.799999999999997
20
49.06666666666667
0
LWPOLYLINE
5
113
100
AcDbEntity
8
0
100
AcDbPolyline
90
4
70
1
43
0.0
10
-135
20
58.811422719892086
10
-135
20
31.505711359946041
10
-139.19999999999999
20
31.505711359946041
10
-139.19999999999999
20
58.811422719892086
0
LWPOLYLINE
5
114
100
AcDbEntity
8
0
100
AcDbPolyline
90
202
70
1
43
0.0
10
-284.2461538461539
20
88.400000000000006
10
-304.2461538461539
20
88.400000000000006
10
-304.2461538461539
20
92.599999999999994
10
-321.93846153846158
20
92.599999999999994
10
-321.93846153846158
20
88.400000000000006
10
-341.93846153846158
20
88.400000000000006
10
-341.93846153846158
20
92.599999999999994
10
-359.63076923076926
20
92.599999999999994
10
-359.63076923076926
20
88.400000000000006
10
-379.63076923076926
20
88.400000000000006
10
-379.63076923076926
20
92.599999999999994
10
-397.323076923077
20
92.599999999999994
10
-397.323076923077
20
88.400000000000006
10
-417.323076923077
20
88.400000000000006
10
-417.323076923077
20
92.599999999999994
10
-428.20000000000005
20
92.59999999999998
10
-428.20000000000005
20
60.333333333333329
10
-424.00000000000006
20
60.333333333333329
10
-424.00000000000006
20
32.266666666666666
10
-428.20000000000005
20
32.266666666666666
10
-428.20000000000005
20
50.40000000000002
10
-435.01538461538468
20
50.40000000000002
10
-435.01538461538468
20
46.200000000000017
10
-455.01538461538468
20
46.200000000000017
10
-455.01538461538468
20
50.40000000000002
10
-472.70769230769241
20
50.40000000000002
10
-472.70769230769241
20
46.200000000000017
10
-492.70769230769241
20
46.200000000000017
10
-492.70769230769241
20
50.40000000000002
10
-510.40000000000009
20
50.40000000000002
10
-510.40000000000009
20
46.200000000000017
10
-530.40000000000009
20
46.200000000000017
10
-530.40000000000009
20
32.20000000000001
10
-526.20000000000005
20
32.20000000000001
10
-526.20000000000005
20
18.200000000000006
10
-530.40000000000009
20
18.200000000000006
10
-530.40000000000009
20
4.2000000000000011
10
-510.40000000000009
20
4.2000000000000002
10
-510.40000000000009
20
0
10
-492.70769230769241
20
0
10
-492.70769230769241
20
4.2000000000000002
10
-472.70769230769241
20
4.2000000000000002
10
-472.70769230769241
20
0
10
-455.01538461538473
20
0
10
-455.01538461538473
20
4.2000000000000002
10
-435.01538461538468
20
4.2000000000000002
10
-435.01538461538468
20
0
10
-417.323076923077
20
0
10
-417.323076923077
20
4.2000000000000002
10
-397.323076923077
20
4.2000000000000002
10
-397.323076923077
20
0
10
-379.63076923076932
20
0
10
-379.63076923076932
20
4.2000000000000002
10
-359.63076923076926
20
4.2000000000000002
10
-359.63076923076926
20
0
10
-341.93846153846164
20
0
10
-341.93846153846164
20
4.2000000000000002
10
-321.93846153846158
20
4.2000000000000002
10
-321.93846153846158
20
0
10
-304.2461538461539
20
0
10
-304.2461538461539
20
4.2000000000000002
10
-284.2461538461539
20
4.2000000000000002
10
-284.2461538461539
20
0
10
-266.55384615384628
20
0
10
-266.55384615384628
20
4.2000000000000002
10
-246.55384615384622
20
4.2000000000000002
10
-246.55384615384622
20
0
10
-228.86153846153857
20
0
10
-228.86153846153857
20
4.2000000000000002
10
-208.86153846153854
20
4.2000000000000002
10
-208.86153846153854
20
0
10
-191.16923076923086
20
0
10
-191.16923076923086
20
4.2000000000000002
10
-171.16923076923086
20
4.2000000000000002
10
-171.16923076923086
20
0
10
-153.47692307692319
20
0
10
-153.47692307692319
20
4.2000000000000002
10
-133.47692307692313
20
4.2000000000000002
10
-133.47692307692313
20
0
10
-115.78461538461546
20
0
10
-115.78461538461546
20
4.2000000000000002
10
-95.784615384615464
20
4.2000000000000002
10
-95.784615384615464
20
0
10
-95
20
1.3379266280684832e-15
10
-95
20
20
10
-90.799999999999997
20
20
10
-90.799999999999997
20
0
10
-78.092307692307799
20
0
10
-78.092307692307799
20
4.2000000000000002
10
-58.092307692307799
20
4.2000000000000002
10
-58.092307692307799
20
0
10
-40.400000000000134
20
0
10
-40.400000000000134
20
4.2000000000000002
10
-20.400000000000063
20
4.2000000000000002
10
-20.400000000000063
20
0
10
-4.1999999999999993
20
0
10
-4.2000000000000002
20
20
10
0
20
20
10
0
20
49.06666666666667
10
-4.2000000000000002
20
49.066666666666663
10
-4.2000000000000002
20
69.066666666666663
10
0
20
69.066666666666677
10
0
20
98.13333333333334
10
-4.2000000000000002
20
98.13333333333334
10
-4.2000000000000002
20
118.13333333333334
10
0
20
118.13333333333334
10
0
20
147.20000000000002
10
-4.2000000000000002
20
147.20000000000002
10
-4.2000000000000002
20
167.20000000000002
10
0
20
167.20000000000002
10
0
20
196.26666666666668
10
-4.2000000000000002
20
196.26666666666668
10
-4.2000000000000002
20
216.26666666666668
10
0
20
216.26666666666668
10
0
20
245.33333333333334
10
-4.2000000000000002
20
245.33333333333334
10
-4.2000000000000002
20
265.33333333333337
10
0
20
265.33333333333337
10
0
20
294.40000000000003
10
-4.2000000000000002
20
294.40000000000003
10
-4.2000000000000002
20
314.40000000000003
10
0
20
314.40000000000003
10
0
20
343.4666666666667
10
-4.2000000000000002
20
343.4666666666667
10
-4.2000000000000002
20
363.4666666666667
10
0
20
363.4666666666667
10
0
20
392.53333333333336
10
-4.2000000000000002
20
392.53333333333336
10
-4.2000000000000002
20
412.53333333333336
10
0
20
412.53333333333336
10
0
20
441.60000000000002
10
-4.2000000000000002
20
441.60000000000002
10
-4.2000000000000002
20
461.60000000000002
10
0
20
461.60000000000002
10
0
20
485.00000000000006
10
-4.2000000000000002
20
485.00000000000006
10
-4.2000000000000002
20
505.00000000000006
10
0
20
505.00000000000006
10
4.4408920985006262e-15
20
528.40000000000009
10
-33.066666666666663
20
528.40000000000009
10
-33.066666666666663
20
524.20000000000005
10
-61.933333333333337
20
524.20000000000005
10
-61.933333333333337
20
528.40000000000009
10
-95.000000000000028
20
528.40000000000009
10
-95
20
505.00000000000006
10
-90.799999999999997
20
505.00000000000006
10
-90.799999999999997
20
485.00000000000006
10
-95
20
485.00000000000006
10
-95
20
461.60000000000002
10
-90.799999999999997
20
461.60000000000002
10
-90.799999999999997
20
441.60000000000002
10
-95
20
441.60000000000002
10
-95
20
412.53333333333336
10
-90.799999999999997
20
412.53333333333336
10
-90.799999999999997
20
392.53333333333336
10
-95
20
392.53333333333336
10
-95
20
401
10
-124.99999999999989
20
401
10
-124.99999999999989
20
392.53333333333336
10
-129.19999999999999
20
392.53333333333336
10
-129.19999999999999
20
363.4666666666667
10
-124.99999999999989
20
363.4666666666667
10
-124.99999999999989
20
343.4666666666667
10
-129.19999999999999
20
343.4666666666667
10
-129.19999999999999
20
314.40000000000003
10
-124.99999999999989
20
314.40000000000003
10
-124.99999999999989
20
294.40000000000003
10
-129.19999999999999
20
294.40000000000003
10
-129.19999999999999
20
265.33333333333337
10
-124.99999999999989
20
265.33333333333337
10
-124.99999999999989
20
245.33333333333334
10
-129.19999999999999
20
245.33333333333334
10
-129.19999999999999
20
216.26666666666668
10
-124.99999999999989
20
216.26666666666668
10
-124.99999999999989
20
196.26666666666668
10
-129.19999999999999
20
196.26666666666668
10
-129.19999999999999
20
167.20000000000002
10
-124.99999999999989
20
167.20000000000002
10
-124.99999999999989
20
147.20000000000002
10
-129.19999999999999
20
147.20000000000002
10
-129.19999999999999
20
118.13333333333334
10
-124.99999999999989
20
118.13333333333334
10
-124.99999999999989
20
98.13333333333334
10
-129.19999999999999
20
98.13333333333334
10
-129.20000000000002
20
92.599999999999994
10
-133.47692307692313
20
92.599999999999994
10
-133.47692307692313
20
88.400000000000006
10
-153.47692307692319
20
88.400000000000006
10
-153.47692307692319
20
92.599999999999994
10
-171.16923076923086
20
92.599999999999994
10
-171.16923076923086
20
88.400000000000006
10
-191.16923076923086
20
88.400000000000006
10
-191.16923076923086
20
92.599999999999994
10
-208.86153846153854
20
92.599999999999994
10
-208.86153846153854
20
88.400000000000006
10
-228.86153846153854
20
88.400000000000006
10
-228.86153846153854
20
92.599999999999994
10
-246.55384615384622
20
92.599999999999994
10
-246.55384615384622
20
88.400000000000006
10
-266.55384615384622
20
88.400000000000006
10
-266.55384615384622
20
92.599999999999994
10
-284.2461538461539
20
92.599999999999994
0
ENDSEC
0
SECTION
2
OBJECTS
0
DICTIONARY
5
C
100
AcDbDictionary
3
ACAD_GROUP
350
D
3
ACAD_MLINESTYLE
350
17
0
DICTIONARY
5
D
100
AcDbDictionary
0
DICTIONARY
5
1A
330
C
100
AcDbDictionary
0
DICTIONARY
5
17
100
AcDbDictionary
0
ENDSEC
0
EOF
