<?xml version="1.0" encoding="utf-8"?>
<!-- Generator: Adobe Illustrator 22.1.0, SVG Export Plug-In . SVG Version: 6.00 Build 0)  -->
<svg version="1.1" id="Слой_1" xmlns="http://www.w3.org/2000/svg" xmlns:xlink="http://www.w3.org/1999/xlink" x="0px" y="0px"
	 viewBox="0 0 6806.2 6806.2" style="enable-background:new 0 0 6806.2 6806.2;" xml:space="preserve">
<style type="text/css">
	.st0{fill:#FFFFFF;}
	.st1{fill:none;stroke:#000000;stroke-width:2.8346;stroke-linecap:round;stroke-linejoin:round;stroke-miterlimit:10;}
</style>
<rect x="426.7" y="426.6" width="850.4" height="850.4"/>
<rect x="568.5" y="710.1" class="st0" width="212.6" height="141.7"/>
<rect x="568.5" y="710.1" class="st0" width="141.7" height="212.6"/>
<rect x="710.2" y="710.1" class="st0" width="212.6" height="141.7"/>
<rect x="851.9" y="710.1" class="st0" width="141.7" height="141.7"/>
<rect x="851.9" y="710.1" class="st0" width="141.7" height="212.6"/>
<rect x="568.5" y="851.8" class="st0" width="141.7" height="141.7"/>
<rect x="851.9" y="851.8" class="st0" width="212.6" height="141.7"/>
<rect x="851.9" y="851.8" class="st0" width="141.7" height="212.6"/>
<rect x="993.6" y="851.8" class="st0" width="141.7" height="141.7"/>
<rect x="993.6" y="851.8" class="st0" width="141.7" height="212.6"/>
<rect x="710.2" y="993.6" class="st0" width="212.6" height="141.7"/>
<rect x="851.9" y="993.6" class="st0" width="212.6" height="141.7"/>
<rect x="993.6" y="993.6" class="st0" width="141.7" height="141.7"/>
<rect x="2127.4" y="426.6" width="850.4" height="850.4"/>
<rect x="2552.6" y="568.4" class="st0" width="141.7" height="141.7"/>
<rect x="2552.6" y="568.4" class="st0" width="141.7" height="212.6"/>
<rect x="2269.1" y="710.1" class="st0" width="141.7" height="141.7"/>
<rect x="2552.6" y="710.1" class="st0" width="141.7" height="141.7"/>
<rect x="2269.1" y="993.6" class="st0" width="212.6" height="141.7"/>
<rect x="2410.8" y="993.6" class="st0" width="212.6" height="141.7"/>
<rect x="2552.6" y="993.6" class="st0" width="212.6" height="141.7"/>
<rect x="2694.3" y="993.6" class="st0" width="141.7" height="141.7"/>
<rect x="3828.2" y="426.6" width="850.4" height="850.4"/>
<rect x="4253.4" y="568.4" class="st0" width="141.7" height="141.7"/>
<rect x="4111.7" y="710.1" class="st0" width="141.7" height="141.7"/>
<rect x="3970" y="851.8" class="st0" width="141.7" height="141.7"/>
<rect x="4253.4" y="851.8" class="st0" width="212.6" height="141.7"/>
<rect x="4395.2" y="851.8" class="st0" width="141.7" height="141.7"/>
<rect x="4395.2" y="851.8" class="st0" width="141.7" height="212.6"/>
<rect x="4395.2" y="993.6" class="st0" width="141.7" height="141.7"/>
<rect x="5528.9" y="426.6" width="850.4" height="850.4"/>
<rect x="5954.1" y="568.4" class="st0" width="141.7" height="141.7"/>
<rect x="5954.1" y="568.4" class="st0" width="141.7" height="212.6"/>
<rect x="5812.3" y="710.1" class="st0" width="212.6" height="141.7"/>
<rect x="5954.1" y="710.1" class="st0" width="141.7" height="141.7"/>
<rect x="5954.1" y="710.1" class="st0" width="141.7" height="212.6"/>
<rect x="5954.1" y="851.8" class="st0" width="212.6" height="141.7"/>
<rect x="5954.1" y="851.8" class="st0" width="141.7" height="212.6"/>
<rect x="6095.8" y="851.8" class="st0" width="141.7" height="141.7"/>
<rect x="5670.6" y="993.6" class="st0" width="212.6" height="141.7"/>
<rect x="5812.3" y="993.6" class="st0" width="212.6" height="141.7"/>
<rect x="5954.1" y="993.6" class="st0" width="141.7" height="141.7"/>
<rect x="426.7" y="2127.3" width="850.4" height="850.4"/>
<rect x="568.5" y="2269" class="st0" width="212.6" height="141.7"/>
<rect x="568.5" y="2269" class="st0" width="141.7" height="212.6"/>
<rect x="710.2" y="2269" class="st0" width="212.6" height="141.7"/>
<rect x="710.2" y="2269" class="st0" width="141.7" height="212.6"/>
<rect x="851.9" y="2269" class="st0" width="212.6" height="141.7"/>
<rect x="851.9" y="2269" class="st0" width="141.7" height="212.6"/>
<rect x="993.6" y="2269" class="st0" width="141.7" height="141.7"/>
<rect x="568.5" y="2410.8" class="st0" width="212.6" height="141.7"/>
<rect x="568.5" y="2410.8" class="st0" width="141.7" height="212.6"/>
<rect x="710.2" y="2410.8" class="st0" width="212.6" height="141.7"/>
<rect x="710.2" y="2410.8" class="st0" width="141.7" height="212.6"/>
<rect x="851.9" y="2410.8" class="st0" width="141.7" height="141.7"/>
<rect x="568.5" y="2552.5" class="st0" width="212.6" height="141.7"/>
<rect x="568.5" y="2552.5" class="st0" width="141.7" height="212.6"/>
<rect x="710.2" y="2552.5" class="st0" width="141.7" height="141.7"/>
<rect x="993.6" y="2552.5" class="st0" width="141.7" height="141.7"/>
<rect x="568.5" y="2694.2" class="st0" width="141.7" height="141.7"/>
<rect x="851.9" y="2694.2" class="st0" width="141.7" height="141.7"/>
<rect x="2127.4" y="2127.3" width="850.4" height="850.4"/>
<rect x="2269.1" y="2269" class="st0" width="212.6" height="141.7"/>
<rect x="2269.1" y="2269" class="st0" width="141.7" height="212.6"/>
<rect x="2410.8" y="2269" class="st0" width="141.7" height="141.7"/>
<rect x="2410.8" y="2269" class="st0" width="141.7" height="212.6"/>
<rect x="2269.1" y="2410.8" class="st0" width="212.6" height="141.7"/>
<rect x="2410.8" y="2410.8" class="st0" width="212.6" height="141.7"/>
<rect x="2410.8" y="2410.8" class="st0" width="141.7" height="212.6"/>
<rect x="2552.6" y="2410.8" class="st0" width="212.6" height="141.7"/>
<rect x="2694.3" y="2410.8" class="st0" width="141.7" height="141.7"/>
<rect x="2694.3" y="2410.8" class="st0" width="141.7" height="212.6"/>
<rect x="2410.8" y="2552.5" class="st0" width="141.7" height="141.7"/>
<rect x="2410.8" y="2552.5" class="st0" width="141.7" height="212.6"/>
<rect x="2694.3" y="2552.5" class="st0" width="141.7" height="141.7"/>
<rect x="2410.8" y="2694.2" class="st0" width="212.6" height="141.7"/>
<rect x="2552.6" y="2694.2" class="st0" width="141.7" height="141.7"/>
<rect x="3828.2" y="2127.3" width="850.4" height="850.4"/>
<rect x="3970" y="2269" class="st0" width="212.6" height="141.7"/>
<rect x="3970" y="2269" class="st0" width="141.7" height="212.6"/>
<rect x="4111.7" y="2269" class="st0" width="212.6" height="141.7"/>
<rect x="4253.4" y="2269" class="st0" width="212.6" height="141.7"/>
<rect x="4395.2" y="2269" class="st0" width="141.7" height="141.7"/>
<rect x="4395.2" y="2269" class="st0" width="141.7" height="212.6"/>
<rect x="3970" y="2410.8" class="st0" width="141.7" height="141.7"/>
<rect x="3970" y="2410.8" class="st0" width="141.7" height="212.6"/>
<rect x="4395.2" y="2410.8" class="st0" width="141.7" height="141.7"/>
<rect x="4395.2" y="2410.8" class="st0" width="141.7" height="212.6"/>
<rect x="3970" y="2552.5" class="st0" width="141.7" height="141.7"/>
<rect x="4395.2" y="2552.5" class="st0" width="141.7" height="141.7"/>
<rect x="4395.2" y="2552.5" class="st0" width="141.7" height="212.6"/>
<rect x="4395.2" y="2694.2" class="st0" width="141.7" height="141.7"/>
<rect x="5528.9" y="2127.3" width="850.4" height="850.4"/>
<rect x="6095.8" y="2269" class="st0" width="141.7" height="141.7"/>
<rect x="6095.8" y="2269" class="st0" width="141.7" height="212.6"/>
<rect x="6095.8" y="2410.8" class="st0" width="141.7" height="141.7"/>
<rect x="5670.6" y="2552.5" class="st0" width="141.7" height="141.7"/>
<rect x="5954.1" y="2552.5" class="st0" width="141.7" height="141.7"/>
<rect x="5954.1" y="2552.5" class="st0" width="141.7" height="212.6"/>
<rect x="5812.3" y="2694.2" class="st0" width="212.6" height="141.7"/>
<rect x="5954.1" y="2694.2" class="st0" width="212.6" height="141.7"/>
<rect x="6095.8" y="2694.2" class="st0" width="141.7" height="141.7"/>
<rect x="426.7" y="3828.2" width="850.4" height="850.4"/>
<rect x="710.2" y="3969.9" class="st0" width="141.7" height="141.7"/>
<rect x="710.2" y="3969.9" class="st0" width="141.7" height="212.6"/>
<rect x="993.6" y="3969.9" class="st0" width="141.7" height="141.7"/>
<rect x="710.2" y="4111.6" class="st0" width="141.7" height="141.7"/>
<rect x="568.5" y="4253.4" class="st0" width="141.7" height="141.7"/>
<rect x="568.5" y="4253.4" class="st0" width="141.7" height="212.6"/>
<rect x="993.6" y="4253.4" class="st0" width="141.7" height="141.7"/>
<rect x="568.5" y="4395.1" class="st0" width="212.6" height="141.7"/>
<rect x="710.2" y="4395.1" class="st0" width="212.6" height="141.7"/>
<rect x="851.9" y="4395.1" class="st0" width="141.7" height="141.7"/>
<rect x="2127.4" y="3828.2" width="850.4" height="850.4"/>
<rect x="2410.8" y="3969.9" class="st0" width="212.6" height="141.7"/>
<rect x="2552.6" y="3969.9" class="st0" width="212.6" height="141.7"/>
<rect x="2694.3" y="3969.9" class="st0" width="141.7" height="141.7"/>
<rect x="2694.3" y="3969.9" class="st0" width="141.7" height="212.6"/>
<rect x="2269.1" y="4111.6" class="st0" width="141.7" height="141.7"/>
<rect x="2269.1" y="4111.6" class="st0" width="141.7" height="212.6"/>
<rect x="2694.3" y="4111.6" class="st0" width="141.7" height="141.7"/>
<rect x="2269.1" y="4253.4" class="st0" width="212.6" height="141.7"/>
<rect x="2269.1" y="4253.4" class="st0" width="141.7" height="212.6"/>
<rect x="2410.8" y="4253.4" class="st0" width="141.7" height="141.7"/>
<rect x="2410.8" y="4253.4" class="st0" width="141.7" height="212.6"/>
<rect x="2269.1" y="4395.1" class="st0" width="212.6" height="141.7"/>
<rect x="2410.8" y="4395.1" class="st0" width="141.7" height="141.7"/>
<rect x="2694.3" y="4395.1" class="st0" width="141.7" height="141.7"/>
<rect x="3828.2" y="3828.2" width="850.4" height="850.4"/>
<rect x="3970" y="3969.9" class="st0" width="141.7" height="141.7"/>
<rect x="3970" y="3969.9" class="st0" width="141.7" height="212.6"/>
<rect x="4395.2" y="3969.9" class="st0" width="141.7" height="141.7"/>
<rect x="3970" y="4111.6" class="st0" width="212.6" height="141.7"/>
<rect x="4111.7" y="4111.6" class="st0" width="212.6" height="141.7"/>
<rect x="4253.4" y="4111.6" class="st0" width="141.7" height="141.7"/>
<rect x="4253.4" y="4111.6" class="st0" width="141.7" height="212.6"/>
<rect x="4253.4" y="4253.4" class="st0" width="141.7" height="141.7"/>
<rect x="4253.4" y="4253.4" class="st0" width="141.7" height="212.6"/>
<rect x="3970" y="4395.1" class="st0" width="212.6" height="141.7"/>
<rect x="4111.7" y="4395.1" class="st0" width="212.6" height="141.7"/>
<rect x="4253.4" y="4395.1" class="st0" width="141.7" height="141.7"/>
<rect x="5528.9" y="3828.2" width="850.4" height="850.4"/>
<rect x="5670.6" y="3969.9" class="st0" width="212.6" height="141.7"/>
<rect x="5812.3" y="3969.9" class="st0" width="141.7" height="141.7"/>
<rect x="5812.3" y="3969.9" class="st0" width="141.7" height="212.6"/>
<rect x="5812.3" y="4111.6" class="st0" width="141.7" height="141.7"/>
<rect x="5812.3" y="4111.6" class="st0" width="141.7" height="212.6"/>
<rect x="5670.6" y="4253.4" class="st0" width="212.6" height="141.7"/>
<rect x="5812.3" y="4253.4" class="st0" width="212.6" height="141.7"/>
<rect x="5954.1" y="4253.4" class="st0" width="212.6" height="141.7"/>
<rect x="5954.1" y="4253.4" class="st0" width="141.7" height="212.6"/>
<rect x="6095.8" y="4253.4" class="st0" width="141.7" height="141.7"/>
<rect x="5954.1" y="4395.1" class="st0" width="141.7" height="141.7"/>
<rect x="2127.4" y="5529" width="850.4" height="850.4"/>
<rect x="2269.1" y="5812.5" class="st0" width="212.6" height="141.7"/>
<rect x="2269.1" y="5812.5" class="st0" width="141.7" height="212.6"/>
<rect x="2410.8" y="5812.5" class="st0" width="212.6" height="141.7"/>
<rect x="2552.6" y="5812.5" class="st0" width="212.6" height="141.7"/>
<rect x="2694.3" y="5812.5" class="st0" width="141.7" height="141.7"/>
<rect x="2694.3" y="5812.5" class="st0" width="141.7" height="212.6"/>
<rect x="2269.1" y="5954.2" class="st0" width="141.7" height="141.7"/>
<rect x="2269.1" y="5954.2" class="st0" width="141.7" height="212.6"/>
<rect x="2694.3" y="5954.2" class="st0" width="141.7" height="141.7"/>
<rect x="2269.1" y="6096" class="st0" width="141.7" height="141.7"/>
<rect x="2552.6" y="6096" class="st0" width="141.7" height="141.7"/>
<rect x="3828.2" y="5529" width="850.4" height="850.4"/>
<rect x="4253.4" y="5670.8" class="st0" width="212.6" height="141.7"/>
<rect x="4253.4" y="5670.8" class="st0" width="141.7" height="212.6"/>
<rect x="4395.2" y="5670.8" class="st0" width="141.7" height="141.7"/>
<rect x="4395.2" y="5670.8" class="st0" width="141.7" height="212.6"/>
<rect x="4253.4" y="5812.5" class="st0" width="212.6" height="141.7"/>
<rect x="4253.4" y="5812.5" class="st0" width="141.7" height="212.6"/>
<rect x="4395.2" y="5812.5" class="st0" width="141.7" height="141.7"/>
<rect x="4253.4" y="5954.2" class="st0" width="141.7" height="141.7"/>
<rect x="3970" y="6096" class="st0" width="212.6" height="141.7"/>
<rect x="4111.7" y="6096" class="st0" width="141.7" height="141.7"/>
<rect x="4395.2" y="6096" class="st0" width="141.7" height="141.7"/>
<rect x="5528.9" y="5529" width="850.4" height="850.4"/>
<rect x="5670.6" y="5670.8" class="st0" width="141.7" height="141.7"/>
<rect x="5670.6" y="5670.8" class="st0" width="141.7" height="212.6"/>
<rect x="6095.8" y="5670.8" class="st0" width="141.7" height="141.7"/>
<rect x="6095.8" y="5670.8" class="st0" width="141.7" height="212.6"/>
<rect x="5670.6" y="5812.5" class="st0" width="141.7" height="141.7"/>
<rect x="6095.8" y="5812.5" class="st0" width="141.7" height="141.7"/>
<rect x="5812.3" y="5954.2" class="st0" width="141.7" height="141.7"/>
<rect x="5812.3" y="5954.2" class="st0" width="141.7" height="212.6"/>
<rect x="5812.3" y="6096" class="st0" width="212.6" height="141.7"/>
<rect x="5954.1" y="6096" class="st0" width="141.7" height="141.7"/>
<path class="st1" d="M1.4,6804.5h6803H1.4z"/>
<path class="st1" d="M6804.5,6804.5V1.4V6804.5z"/>
<path class="st1" d="M6804.5,1.4H1.4H6804.5z"/>
<path class="st1" d="M1.4,1.4v6803V1.4z"/>
<rect x="426.7" y="5529" width="850.4" height="850.4"/>
<rect x="568.4" y="5670.7" class="st0" width="141.7" height="141.7"/>
<rect x="851.9" y="5670.7" class="st0" width="212.6" height="141.7"/>
<rect x="993.6" y="5670.7" class="st0" width="141.7" height="141.7"/>
<rect x="993.6" y="5670.7" class="st0" width="141.7" height="212.6"/>
<rect x="710.1" y="5812.4" class="st0" width="141.7" height="141.7"/>
<rect x="993.6" y="5812.4" class="st0" width="141.7" height="141.7"/>
<rect x="993.6" y="5812.4" class="st0" width="141.7" height="212.6"/>
<rect x="851.9" y="5954.2" class="st0" width="212.6" height="141.7"/>
<rect x="851.9" y="5954.2" class="st0" width="141.7" height="212.6"/>
<rect x="993.6" y="5954.2" class="st0" width="141.7" height="141.7"/>
<rect x="851.9" y="6095.9" class="st0" width="141.7" height="141.7"/>
</svg>
