0
SECTION
2
HEADER
9
$EXTMIN
10
0
20
0
9
$EXTMAX
10
750
20
975
0
ENDSEC
0
SECTION
2
TABLES
0
TABLE
2
VPORT
70
1
0
VPORT
2
*ACTIVE
70
0
10
0
20
0
11
1
21
1
12
0
22
0
13
0
23
0
14
1
24
1
15
0
25
0
16
0
26
0
36
1
17
0
27
0
37
0
40
300
41
2.12
42
50
43
0
44
0
50
0
51
0
71
0
72
100
73
1
74
1
75
0
76
0
77
0
78
0
0
ENDTAB
0
ENDSEC
0
SECTION
2
ENTITIES
0
POLYLINE
8
1
66
1
70
0
0
VERTEX
8
1
10
48.00
20
48.00
0
VERTEX
8
1
10
52.39
20
48.00
0
VERTEX
8
1
10
52.39
20
44.00
0
VERTEX
8
1
10
60.78
20
44.00
0
VERTEX
8
1
10
60.78
20
48.00
0
VERTEX
8
1
10
69.17
20
48.00
0
VERTEX
8
1
10
69.17
20
44.00
0
VERTEX
8
1
10
77.56
20
44.00
0
VERTEX
8
1
10
77.56
20
48.00
0
VERTEX
8
1
10
85.96
20
48.00
0
VERTEX
8
1
10
85.96
20
44.00
0
VERTEX
8
1
10
94.35
20
44.00
0
VERTEX
8
1
10
94.35
20
48.00
0
VERTEX
8
1
10
102.74
20
48.00
0
VERTEX
8
1
10
102.74
20
44.00
0
VERTEX
8
1
10
111.13
20
44.00
0
VERTEX
8
1
10
111.13
20
48.00
0
VERTEX
8
1
10
119.52
20
48.00
0
VERTEX
8
1
10
119.52
20
44.00
0
VERTEX
8
1
10
127.91
20
44.00
0
VERTEX
8
1
10
127.91
20
48.00
0
VERTEX
8
1
10
136.30
20
48.00
0
VERTEX
8
1
10
136.30
20
44.00
0
VERTEX
8
1
10
144.70
20
44.00
0
VERTEX
8
1
10
144.70
20
48.00
0
VERTEX
8
1
10
153.09
20
48.00
0
VERTEX
8
1
10
153.09
20
44.00
0
VERTEX
8
1
10
161.48
20
44.00
0
VERTEX
8
1
10
161.48
20
48.00
0
VERTEX
8
1
10
169.87
20
48.00
0
VERTEX
8
1
10
169.87
20
44.00
0
VERTEX
8
1
10
178.26
20
44.00
0
VERTEX
8
1
10
178.26
20
48.00
0
VERTEX
8
1
10
186.65
20
48.00
0
VERTEX
8
1
10
186.65
20
44.00
0
VERTEX
8
1
10
195.04
20
44.00
0
VERTEX
8
1
10
195.04
20
48.00
0
VERTEX
8
1
10
203.44
20
48.00
0
VERTEX
8
1
10
203.44
20
44.00
0
VERTEX
8
1
10
211.83
20
44.00
0
VERTEX
8
1
10
211.83
20
48.00
0
VERTEX
8
1
10
220.22
20
48.00
0
VERTEX
8
1
10
220.22
20
44.00
0
VERTEX
8
1
10
228.61
20
44.00
0
VERTEX
8
1
10
228.61
20
48.00
0
VERTEX
8
1
10
233.00
20
48.00
0
VERTEX
8
1
10
233.00
20
56.25
0
VERTEX
8
1
10
237.00
20
56.25
0
VERTEX
8
1
10
237.00
20
64.51
0
VERTEX
8
1
10
233.00
20
64.51
0
VERTEX
8
1
10
233.00
20
72.76
0
VERTEX
8
1
10
237.00
20
72.76
0
VERTEX
8
1
10
237.00
20
81.02
0
VERTEX
8
1
10
233.00
20
81.02
0
VERTEX
8
1
10
233.00
20
89.27
0
VERTEX
8
1
10
237.00
20
89.27
0
VERTEX
8
1
10
237.00
20
97.53
0
VERTEX
8
1
10
233.00
20
97.53
0
VERTEX
8
1
10
233.00
20
105.78
0
VERTEX
8
1
10
237.00
20
105.78
0
VERTEX
8
1
10
237.00
20
114.03
0
VERTEX
8
1
10
233.00
20
114.03
0
VERTEX
8
1
10
233.00
20
122.29
0
VERTEX
8
1
10
237.00
20
122.29
0
VERTEX
8
1
10
237.00
20
130.54
0
VERTEX
8
1
10
233.00
20
130.54
0
VERTEX
8
1
10
233.00
20
138.80
0
VERTEX
8
1
10
237.00
20
138.80
0
VERTEX
8
1
10
237.00
20
147.05
0
VERTEX
8
1
10
233.00
20
147.05
0
VERTEX
8
1
10
233.00
20
155.31
0
VERTEX
8
1
10
237.00
20
155.31
0
VERTEX
8
1
10
237.00
20
163.56
0
VERTEX
8
1
10
233.00
20
163.56
0
VERTEX
8
1
10
233.00
20
171.81
0
VERTEX
8
1
10
237.00
20
171.81
0
VERTEX
8
1
10
237.00
20
180.07
0
VERTEX
8
1
10
233.00
20
180.07
0
VERTEX
8
1
10
233.00
20
188.32
0
VERTEX
8
1
10
237.00
20
188.32
0
VERTEX
8
1
10
237.00
20
196.58
0
VERTEX
8
1
10
233.00
20
196.58
0
VERTEX
8
1
10
233.00
20
204.83
0
VERTEX
8
1
10
237.00
20
204.83
0
VERTEX
8
1
10
237.00
20
213.09
0
VERTEX
8
1
10
233.00
20
213.09
0
VERTEX
8
1
10
233.00
20
221.34
0
VERTEX
8
1
10
237.00
20
221.34
0
VERTEX
8
1
10
237.00
20
229.59
0
VERTEX
8
1
10
233.00
20
229.59
0
VERTEX
8
1
10
233.00
20
237.85
0
VERTEX
8
1
10
237.00
20
237.85
0
VERTEX
8
1
10
237.00
20
246.10
0
VERTEX
8
1
10
233.00
20
246.10
0
VERTEX
8
1
10
233.00
20
254.36
0
VERTEX
8
1
10
237.00
20
254.36
0
VERTEX
8
1
10
237.00
20
262.61
0
VERTEX
8
1
10
233.00
20
262.61
0
VERTEX
8
1
10
233.00
20
270.86
0
VERTEX
8
1
10
237.00
20
270.86
0
VERTEX
8
1
10
237.00
20
279.12
0
VERTEX
8
1
10
233.00
20
279.12
0
VERTEX
8
1
10
233.00
20
287.37
0
VERTEX
8
1
10
237.00
20
287.37
0
VERTEX
8
1
10
237.00
20
295.63
0
VERTEX
8
1
10
233.00
20
295.63
0
VERTEX
8
1
10
233.00
20
303.88
0
VERTEX
8
1
10
237.00
20
303.88
0
VERTEX
8
1
10
237.00
20
312.14
0
VERTEX
8
1
10
233.00
20
312.14
0
VERTEX
8
1
10
233.00
20
320.39
0
VERTEX
8
1
10
237.00
20
320.39
0
VERTEX
8
1
10
237.00
20
328.64
0
VERTEX
8
1
10
233.00
20
328.64
0
VERTEX
8
1
10
233.00
20
336.90
0
VERTEX
8
1
10
237.00
20
336.90
0
VERTEX
8
1
10
237.00
20
345.15
0
VERTEX
8
1
10
233.00
20
345.15
0
VERTEX
8
1
10
233.00
20
353.41
0
VERTEX
8
1
10
237.00
20
353.41
0
VERTEX
8
1
10
237.00
20
361.66
0
VERTEX
8
1
10
233.00
20
361.66
0
VERTEX
8
1
10
233.00
20
369.92
0
VERTEX
8
1
10
237.00
20
369.92
0
VERTEX
8
1
10
237.00
20
378.17
0
VERTEX
8
1
10
233.00
20
378.17
0
VERTEX
8
1
10
233.00
20
386.42
0
VERTEX
8
1
10
237.00
20
386.42
0
VERTEX
8
1
10
237.00
20
394.68
0
VERTEX
8
1
10
233.00
20
394.68
0
VERTEX
8
1
10
233.00
20
402.93
0
VERTEX
8
1
10
237.00
20
402.93
0
VERTEX
8
1
10
237.00
20
411.19
0
VERTEX
8
1
10
233.00
20
411.19
0
VERTEX
8
1
10
233.00
20
419.44
0
VERTEX
8
1
10
237.00
20
419.44
0
VERTEX
8
1
10
237.00
20
427.69
0
VERTEX
8
1
10
233.00
20
427.69
0
VERTEX
8
1
10
233.00
20
435.95
0
VERTEX
8
1
10
237.00
20
435.95
0
VERTEX
8
1
10
237.00
20
444.20
0
VERTEX
8
1
10
233.00
20
444.20
0
VERTEX
8
1
10
233.00
20
452.46
0
VERTEX
8
1
10
237.00
20
452.46
0
VERTEX
8
1
10
237.00
20
460.71
0
VERTEX
8
1
10
233.00
20
460.71
0
VERTEX
8
1
10
233.00
20
468.97
0
VERTEX
8
1
10
237.00
20
468.97
0
VERTEX
8
1
10
237.00
20
477.22
0
VERTEX
8
1
10
233.00
20
477.22
0
VERTEX
8
1
10
233.00
20
485.48
0
VERTEX
8
1
10
237.00
20
485.48
0
VERTEX
8
1
10
237.00
20
493.73
0
VERTEX
8
1
10
233.00
20
493.73
0
VERTEX
8
1
10
233.00
20
501.98
0
VERTEX
8
1
10
237.00
20
501.98
0
VERTEX
8
1
10
237.00
20
510.24
0
VERTEX
8
1
10
233.00
20
510.24
0
VERTEX
8
1
10
233.00
20
518.49
0
VERTEX
8
1
10
237.00
20
518.49
0
VERTEX
8
1
10
237.00
20
526.75
0
VERTEX
8
1
10
233.00
20
526.75
0
VERTEX
8
1
10
233.00
20
535.00
0
VERTEX
8
1
10
228.61
20
535.00
0
VERTEX
8
1
10
228.61
20
539.00
0
VERTEX
8
1
10
220.22
20
539.00
0
VERTEX
8
1
10
220.22
20
535.00
0
VERTEX
8
1
10
211.83
20
535.00
0
VERTEX
8
1
10
211.83
20
539.00
0
VERTEX
8
1
10
203.44
20
539.00
0
VERTEX
8
1
10
203.44
20
535.00
0
VERTEX
8
1
10
195.04
20
535.00
0
VERTEX
8
1
10
195.04
20
539.00
0
VERTEX
8
1
10
186.65
20
539.00
0
VERTEX
8
1
10
186.65
20
535.00
0
VERTEX
8
1
10
178.26
20
535.00
0
VERTEX
8
1
10
178.26
20
539.00
0
VERTEX
8
1
10
169.87
20
539.00
0
VERTEX
8
1
10
169.87
20
535.00
0
VERTEX
8
1
10
161.48
20
535.00
0
VERTEX
8
1
10
161.48
20
539.00
0
VERTEX
8
1
10
153.09
20
539.00
0
VERTEX
8
1
10
153.09
20
535.00
0
VERTEX
8
1
10
144.70
20
535.00
0
VERTEX
8
1
10
144.70
20
539.00
0
VERTEX
8
1
10
136.30
20
539.00
0
VERTEX
8
1
10
136.30
20
535.00
0
VERTEX
8
1
10
127.91
20
535.00
0
VERTEX
8
1
10
127.91
20
539.00
0
VERTEX
8
1
10
119.52
20
539.00
0
VERTEX
8
1
10
119.52
20
535.00
0
VERTEX
8
1
10
111.13
20
535.00
0
VERTEX
8
1
10
111.13
20
539.00
0
VERTEX
8
1
10
102.74
20
539.00
0
VERTEX
8
1
10
102.74
20
535.00
0
VERTEX
8
1
10
94.35
20
535.00
0
VERTEX
8
1
10
94.35
20
539.00
0
VERTEX
8
1
10
85.96
20
539.00
0
VERTEX
8
1
10
85.96
20
535.00
0
VERTEX
8
1
10
77.56
20
535.00
0
VERTEX
8
1
10
77.56
20
539.00
0
VERTEX
8
1
10
69.17
20
539.00
0
VERTEX
8
1
10
69.17
20
535.00
0
VERTEX
8
1
10
60.78
20
535.00
0
VERTEX
8
1
10
60.78
20
539.00
0
VERTEX
8
1
10
52.39
20
539.00
0
VERTEX
8
1
10
52.39
20
535.00
0
VERTEX
8
1
10
48.00
20
535.00
0
VERTEX
8
1
10
48.00
20
526.75
0
VERTEX
8
1
10
44.00
20
526.75
0
VERTEX
8
1
10
44.00
20
518.49
0
VERTEX
8
1
10
48.00
20
518.49
0
VERTEX
8
1
10
48.00
20
510.24
0
VERTEX
8
1
10
44.00
20
510.24
0
VERTEX
8
1
10
44.00
20
501.98
0
VERTEX
8
1
10
48.00
20
501.98
0
VERTEX
8
1
10
48.00
20
493.73
0
VERTEX
8
1
10
44.00
20
493.73
0
VERTEX
8
1
10
44.00
20
485.48
0
VERTEX
8
1
10
48.00
20
485.48
0
VERTEX
8
1
10
48.00
20
477.22
0
VERTEX
8
1
10
44.00
20
477.22
0
VERTEX
8
1
10
44.00
20
468.97
0
VERTEX
8
1
10
48.00
20
468.97
0
VERTEX
8
1
10
48.00
20
460.71
0
VERTEX
8
1
10
44.00
20
460.71
0
VERTEX
8
1
10
44.00
20
452.46
0
VERTEX
8
1
10
48.00
20
452.46
0
VERTEX
8
1
10
48.00
20
444.20
0
VERTEX
8
1
10
44.00
20
444.20
0
VERTEX
8
1
10
44.00
20
435.95
0
VERTEX
8
1
10
48.00
20
435.95
0
VERTEX
8
1
10
48.00
20
427.69
0
VERTEX
8
1
10
44.00
20
427.69
0
VERTEX
8
1
10
44.00
20
419.44
0
VERTEX
8
1
10
48.00
20
419.44
0
VERTEX
8
1
10
48.00
20
411.19
0
VERTEX
8
1
10
44.00
20
411.19
0
VERTEX
8
1
10
44.00
20
402.93
0
VERTEX
8
1
10
48.00
20
402.93
0
VERTEX
8
1
10
48.00
20
394.68
0
VERTEX
8
1
10
44.00
20
394.68
0
VERTEX
8
1
10
44.00
20
386.42
0
VERTEX
8
1
10
48.00
20
386.42
0
VERTEX
8
1
10
48.00
20
378.17
0
VERTEX
8
1
10
44.00
20
378.17
0
VERTEX
8
1
10
44.00
20
369.92
0
VERTEX
8
1
10
48.00
20
369.92
0
VERTEX
8
1
10
48.00
20
361.66
0
VERTEX
8
1
10
44.00
20
361.66
0
VERTEX
8
1
10
44.00
20
353.41
0
VERTEX
8
1
10
48.00
20
353.41
0
VERTEX
8
1
10
48.00
20
345.15
0
VERTEX
8
1
10
44.00
20
345.15
0
VERTEX
8
1
10
44.00
20
336.90
0
VERTEX
8
1
10
48.00
20
336.90
0
VERTEX
8
1
10
48.00
20
328.64
0
VERTEX
8
1
10
44.00
20
328.64
0
VERTEX
8
1
10
44.00
20
320.39
0
VERTEX
8
1
10
48.00
20
320.39
0
VERTEX
8
1
10
48.00
20
312.14
0
VERTEX
8
1
10
44.00
20
312.14
0
VERTEX
8
1
10
44.00
20
303.88
0
VERTEX
8
1
10
48.00
20
303.88
0
VERTEX
8
1
10
48.00
20
295.63
0
VERTEX
8
1
10
44.00
20
295.63
0
VERTEX
8
1
10
44.00
20
287.37
0
VERTEX
8
1
10
48.00
20
287.37
0
VERTEX
8
1
10
48.00
20
279.12
0
VERTEX
8
1
10
44.00
20
279.12
0
VERTEX
8
1
10
44.00
20
270.86
0
VERTEX
8
1
10
48.00
20
270.86
0
VERTEX
8
1
10
48.00
20
262.61
0
VERTEX
8
1
10
44.00
20
262.61
0
VERTEX
8
1
10
44.00
20
254.36
0
VERTEX
8
1
10
48.00
20
254.36
0
VERTEX
8
1
10
48.00
20
246.10
0
VERTEX
8
1
10
44.00
20
246.10
0
VERTEX
8
1
10
44.00
20
237.85
0
VERTEX
8
1
10
48.00
20
237.85
0
VERTEX
8
1
10
48.00
20
229.59
0
VERTEX
8
1
10
44.00
20
229.59
0
VERTEX
8
1
10
44.00
20
221.34
0
VERTEX
8
1
10
48.00
20
221.34
0
VERTEX
8
1
10
48.00
20
213.09
0
VERTEX
8
1
10
44.00
20
213.09
0
VERTEX
8
1
10
44.00
20
204.83
0
VERTEX
8
1
10
48.00
20
204.83
0
VERTEX
8
1
10
48.00
20
196.58
0
VERTEX
8
1
10
44.00
20
196.58
0
VERTEX
8
1
10
44.00
20
188.32
0
VERTEX
8
1
10
48.00
20
188.32
0
VERTEX
8
1
10
48.00
20
180.07
0
VERTEX
8
1
10
44.00
20
180.07
0
VERTEX
8
1
10
44.00
20
171.81
0
VERTEX
8
1
10
48.00
20
171.81
0
VERTEX
8
1
10
48.00
20
163.56
0
VERTEX
8
1
10
44.00
20
163.56
0
VERTEX
8
1
10
44.00
20
155.31
0
VERTEX
8
1
10
48.00
20
155.31
0
VERTEX
8
1
10
48.00
20
147.05
0
VERTEX
8
1
10
44.00
20
147.05
0
VERTEX
8
1
10
44.00
20
138.80
0
VERTEX
8
1
10
48.00
20
138.80
0
VERTEX
8
1
10
48.00
20
130.54
0
VERTEX
8
1
10
44.00
20
130.54
0
VERTEX
8
1
10
44.00
20
122.29
0
VERTEX
8
1
10
48.00
20
122.29
0
VERTEX
8
1
10
48.00
20
114.03
0
VERTEX
8
1
10
44.00
20
114.03
0
VERTEX
8
1
10
44.00
20
105.78
0
VERTEX
8
1
10
48.00
20
105.78
0
VERTEX
8
1
10
48.00
20
97.53
0
VERTEX
8
1
10
44.00
20
97.53
0
VERTEX
8
1
10
44.00
20
89.27
0
VERTEX
8
1
10
48.00
20
89.27
0
VERTEX
8
1
10
48.00
20
81.02
0
VERTEX
8
1
10
44.00
20
81.02
0
VERTEX
8
1
10
44.00
20
72.76
0
VERTEX
8
1
10
48.00
20
72.76
0
VERTEX
8
1
10
48.00
20
64.51
0
VERTEX
8
1
10
44.00
20
64.51
0
VERTEX
8
1
10
44.00
20
56.25
0
VERTEX
8
1
10
48.00
20
56.25
0
VERTEX
8
1
10
48.00
20
48.00
0
SEQEND
0
POLYLINE
8
1
66
1
70
0
0
VERTEX
8
1
10
48.00
20
0.00
0
VERTEX
8
1
10
56.04
20
0.00
0
VERTEX
8
1
10
56.04
20
4.00
0
VERTEX
8
1
10
64.09
20
4.00
0
VERTEX
8
1
10
64.09
20
0.00
0
VERTEX
8
1
10
72.13
20
0.00
0
VERTEX
8
1
10
72.13
20
4.00
0
VERTEX
8
1
10
80.17
20
4.00
0
VERTEX
8
1
10
80.17
20
0.00
0
VERTEX
8
1
10
88.22
20
0.00
0
VERTEX
8
1
10
88.22
20
4.00
0
VERTEX
8
1
10
96.26
20
4.00
0
VERTEX
8
1
10
96.26
20
0.00
0
VERTEX
8
1
10
104.30
20
0.00
0
VERTEX
8
1
10
104.30
20
4.00
0
VERTEX
8
1
10
112.35
20
4.00
0
VERTEX
8
1
10
112.35
20
0.00
0
VERTEX
8
1
10
120.39
20
0.00
0
VERTEX
8
1
10
120.39
20
4.00
0
VERTEX
8
1
10
128.44
20
4.00
0
VERTEX
8
1
10
128.44
20
0.00
0
VERTEX
8
1
10
136.48
20
0.00
0
VERTEX
8
1
10
136.48
20
4.00
0
VERTEX
8
1
10
144.52
20
4.00
0
VERTEX
8
1
10
144.52
20
0.00
0
VERTEX
8
1
10
152.56
20
0.00
0
VERTEX
8
1
10
152.56
20
4.00
0
VERTEX
8
1
10
160.61
20
4.00
0
VERTEX
8
1
10
160.61
20
0.00
0
VERTEX
8
1
10
168.65
20
0.00
0
VERTEX
8
1
10
168.65
20
4.00
0
VERTEX
8
1
10
176.70
20
4.00
0
VERTEX
8
1
10
176.70
20
0.00
0
VERTEX
8
1
10
184.74
20
0.00
0
VERTEX
8
1
10
184.74
20
4.00
0
VERTEX
8
1
10
192.78
20
4.00
0
VERTEX
8
1
10
192.78
20
0.00
0
VERTEX
8
1
10
200.83
20
0.00
0
VERTEX
8
1
10
200.83
20
4.00
0
VERTEX
8
1
10
208.87
20
4.00
0
VERTEX
8
1
10
208.87
20
0.00
0
VERTEX
8
1
10
216.91
20
0.00
0
VERTEX
8
1
10
216.91
20
4.00
0
VERTEX
8
1
10
224.96
20
4.00
0
VERTEX
8
1
10
224.96
20
0.00
0
VERTEX
8
1
10
233.00
20
0.00
0
VERTEX
8
1
10
237.00
20
0.00
0
VERTEX
8
1
10
237.00
20
8.00
0
VERTEX
8
1
10
233.00
20
8.00
0
VERTEX
8
1
10
233.00
20
16.00
0
VERTEX
8
1
10
237.00
20
16.00
0
VERTEX
8
1
10
237.00
20
24.00
0
VERTEX
8
1
10
233.00
20
24.00
0
VERTEX
8
1
10
233.00
20
32.00
0
VERTEX
8
1
10
237.00
20
32.00
0
VERTEX
8
1
10
237.00
20
40.00
0
VERTEX
8
1
10
228.61
20
40.00
0
VERTEX
8
1
10
228.61
20
36.00
0
VERTEX
8
1
10
220.22
20
36.00
0
VERTEX
8
1
10
220.22
20
40.00
0
VERTEX
8
1
10
211.83
20
40.00
0
VERTEX
8
1
10
211.83
20
36.00
0
VERTEX
8
1
10
203.44
20
36.00
0
VERTEX
8
1
10
203.44
20
40.00
0
VERTEX
8
1
10
195.04
20
40.00
0
VERTEX
8
1
10
195.04
20
36.00
0
VERTEX
8
1
10
186.65
20
36.00
0
VERTEX
8
1
10
186.65
20
40.00
0
VERTEX
8
1
10
178.26
20
40.00
0
VERTEX
8
1
10
178.26
20
36.00
0
VERTEX
8
1
10
169.87
20
36.00
0
VERTEX
8
1
10
169.87
20
40.00
0
VERTEX
8
1
10
161.48
20
40.00
0
VERTEX
8
1
10
161.48
20
36.00
0
VERTEX
8
1
10
153.09
20
36.00
0
VERTEX
8
1
10
153.09
20
40.00
0
VERTEX
8
1
10
144.70
20
40.00
0
VERTEX
8
1
10
144.70
20
36.00
0
VERTEX
8
1
10
136.30
20
36.00
0
VERTEX
8
1
10
136.30
20
40.00
0
VERTEX
8
1
10
127.91
20
40.00
0
VERTEX
8
1
10
127.91
20
36.00
0
VERTEX
8
1
10
119.52
20
36.00
0
VERTEX
8
1
10
119.52
20
40.00
0
VERTEX
8
1
10
111.13
20
40.00
0
VERTEX
8
1
10
111.13
20
36.00
0
VERTEX
8
1
10
102.74
20
36.00
0
VERTEX
8
1
10
102.74
20
40.00
0
VERTEX
8
1
10
94.35
20
40.00
0
VERTEX
8
1
10
94.35
20
36.00
0
VERTEX
8
1
10
85.96
20
36.00
0
VERTEX
8
1
10
85.96
20
40.00
0
VERTEX
8
1
10
77.56
20
40.00
0
VERTEX
8
1
10
77.56
20
36.00
0
VERTEX
8
1
10
69.17
20
36.00
0
VERTEX
8
1
10
69.17
20
40.00
0
VERTEX
8
1
10
60.78
20
40.00
0
VERTEX
8
1
10
60.78
20
36.00
0
VERTEX
8
1
10
52.39
20
36.00
0
VERTEX
8
1
10
52.39
20
40.00
0
VERTEX
8
1
10
44.00
20
40.00
0
VERTEX
8
1
10
44.00
20
32.00
0
VERTEX
8
1
10
48.00
20
32.00
0
VERTEX
8
1
10
48.00
20
24.00
0
VERTEX
8
1
10
44.00
20
24.00
0
VERTEX
8
1
10
44.00
20
16.00
0
VERTEX
8
1
10
48.00
20
16.00
0
VERTEX
8
1
10
48.00
20
8.00
0
VERTEX
8
1
10
44.00
20
8.00
0
VERTEX
8
1
10
44.00
20
0.00
0
VERTEX
8
1
10
48.00
20
0.00
0
SEQEND
0
POLYLINE
8
1
66
1
70
0
0
VERTEX
8
1
10
48.00
20
583.00
0
VERTEX
8
1
10
56.04
20
583.00
0
VERTEX
8
1
10
56.04
20
579.00
0
VERTEX
8
1
10
64.09
20
579.00
0
VERTEX
8
1
10
64.09
20
583.00
0
VERTEX
8
1
10
72.13
20
583.00
0
VERTEX
8
1
10
72.13
20
579.00
0
VERTEX
8
1
10
80.17
20
579.00
0
VERTEX
8
1
10
80.17
20
583.00
0
VERTEX
8
1
10
88.22
20
583.00
0
VERTEX
8
1
10
88.22
20
579.00
0
VERTEX
8
1
10
96.26
20
579.00
0
VERTEX
8
1
10
96.26
20
583.00
0
VERTEX
8
1
10
104.30
20
583.00
0
VERTEX
8
1
10
104.30
20
579.00
0
VERTEX
8
1
10
112.35
20
579.00
0
VERTEX
8
1
10
112.35
20
583.00
0
VERTEX
8
1
10
120.39
20
583.00
0
VERTEX
8
1
10
120.39
20
579.00
0
VERTEX
8
1
10
128.44
20
579.00
0
VERTEX
8
1
10
128.44
20
583.00
0
VERTEX
8
1
10
136.48
20
583.00
0
VERTEX
8
1
10
136.48
20
579.00
0
VERTEX
8
1
10
144.52
20
579.00
0
VERTEX
8
1
10
144.52
20
583.00
0
VERTEX
8
1
10
152.56
20
583.00
0
VERTEX
8
1
10
152.56
20
579.00
0
VERTEX
8
1
10
160.61
20
579.00
0
VERTEX
8
1
10
160.61
20
583.00
0
VERTEX
8
1
10
168.65
20
583.00
0
VERTEX
8
1
10
168.65
20
579.00
0
VERTEX
8
1
10
176.70
20
579.00
0
VERTEX
8
1
10
176.70
20
583.00
0
VERTEX
8
1
10
184.74
20
583.00
0
VERTEX
8
1
10
184.74
20
579.00
0
VERTEX
8
1
10
192.78
20
579.00
0
VERTEX
8
1
10
192.78
20
583.00
0
VERTEX
8
1
10
200.83
20
583.00
0
VERTEX
8
1
10
200.83
20
579.00
0
VERTEX
8
1
10
208.87
20
579.00
0
VERTEX
8
1
10
208.87
20
583.00
0
VERTEX
8
1
10
216.91
20
583.00
0
VERTEX
8
1
10
216.91
20
579.00
0
VERTEX
8
1
10
224.96
20
579.00
0
VERTEX
8
1
10
224.96
20
583.00
0
VERTEX
8
1
10
233.00
20
583.00
0
VERTEX
8
1
10
237.00
20
583.00
0
VERTEX
8
1
10
237.00
20
575.00
0
VERTEX
8
1
10
233.00
20
575.00
0
VERTEX
8
1
10
233.00
20
567.00
0
VERTEX
8
1
10
237.00
20
567.00
0
VERTEX
8
1
10
237.00
20
559.00
0
VERTEX
8
1
10
233.00
20
559.00
0
VERTEX
8
1
10
233.00
20
551.00
0
VERTEX
8
1
10
237.00
20
551.00
0
VERTEX
8
1
10
237.00
20
543.00
0
VERTEX
8
1
10
228.61
20
543.00
0
VERTEX
8
1
10
228.61
20
547.00
0
VERTEX
8
1
10
220.22
20
547.00
0
VERTEX
8
1
10
220.22
20
543.00
0
VERTEX
8
1
10
211.83
20
543.00
0
VERTEX
8
1
10
211.83
20
547.00
0
VERTEX
8
1
10
203.44
20
547.00
0
VERTEX
8
1
10
203.44
20
543.00
0
VERTEX
8
1
10
195.04
20
543.00
0
VERTEX
8
1
10
195.04
20
547.00
0
VERTEX
8
1
10
186.65
20
547.00
0
VERTEX
8
1
10
186.65
20
543.00
0
VERTEX
8
1
10
178.26
20
543.00
0
VERTEX
8
1
10
178.26
20
547.00
0
VERTEX
8
1
10
169.87
20
547.00
0
VERTEX
8
1
10
169.87
20
543.00
0
VERTEX
8
1
10
161.48
20
543.00
0
VERTEX
8
1
10
161.48
20
547.00
0
VERTEX
8
1
10
153.09
20
547.00
0
VERTEX
8
1
10
153.09
20
543.00
0
VERTEX
8
1
10
144.70
20
543.00
0
VERTEX
8
1
10
144.70
20
547.00
0
VERTEX
8
1
10
136.30
20
547.00
0
VERTEX
8
1
10
136.30
20
543.00
0
VERTEX
8
1
10
127.91
20
543.00
0
VERTEX
8
1
10
127.91
20
547.00
0
VERTEX
8
1
10
119.52
20
547.00
0
VERTEX
8
1
10
119.52
20
543.00
0
VERTEX
8
1
10
111.13
20
543.00
0
VERTEX
8
1
10
111.13
20
547.00
0
VERTEX
8
1
10
102.74
20
547.00
0
VERTEX
8
1
10
102.74
20
543.00
0
VERTEX
8
1
10
94.35
20
543.00
0
VERTEX
8
1
10
94.35
20
547.00
0
VERTEX
8
1
10
85.96
20
547.00
0
VERTEX
8
1
10
85.96
20
543.00
0
VERTEX
8
1
10
77.56
20
543.00
0
VERTEX
8
1
10
77.56
20
547.00
0
VERTEX
8
1
10
69.17
20
547.00
0
VERTEX
8
1
10
69.17
20
543.00
0
VERTEX
8
1
10
60.78
20
543.00
0
VERTEX
8
1
10
60.78
20
547.00
0
VERTEX
8
1
10
52.39
20
547.00
0
VERTEX
8
1
10
52.39
20
543.00
0
VERTEX
8
1
10
44.00
20
543.00
0
VERTEX
8
1
10
44.00
20
551.00
0
VERTEX
8
1
10
48.00
20
551.00
0
VERTEX
8
1
10
48.00
20
559.00
0
VERTEX
8
1
10
44.00
20
559.00
0
VERTEX
8
1
10
44.00
20
567.00
0
VERTEX
8
1
10
48.00
20
567.00
0
VERTEX
8
1
10
48.00
20
575.00
0
VERTEX
8
1
10
44.00
20
575.00
0
VERTEX
8
1
10
44.00
20
583.00
0
VERTEX
8
1
10
48.00
20
583.00
0
SEQEND
0
POLYLINE
8
1
66
1
70
0
0
VERTEX
8
1
10
0.00
20
48.00
0
VERTEX
8
1
10
0.00
20
56.25
0
VERTEX
8
1
10
4.00
20
56.25
0
VERTEX
8
1
10
4.00
20
64.51
0
VERTEX
8
1
10
0.00
20
64.51
0
VERTEX
8
1
10
0.00
20
72.76
0
VERTEX
8
1
10
4.00
20
72.76
0
VERTEX
8
1
10
4.00
20
81.02
0
VERTEX
8
1
10
0.00
20
81.02
0
VERTEX
8
1
10
0.00
20
89.27
0
VERTEX
8
1
10
4.00
20
89.27
0
VERTEX
8
1
10
4.00
20
97.53
0
VERTEX
8
1
10
0.00
20
97.53
0
VERTEX
8
1
10
0.00
20
105.78
0
VERTEX
8
1
10
4.00
20
105.78
0
VERTEX
8
1
10
4.00
20
114.03
0
VERTEX
8
1
10
0.00
20
114.03
0
VERTEX
8
1
10
0.00
20
122.29
0
VERTEX
8
1
10
4.00
20
122.29
0
VERTEX
8
1
10
4.00
20
130.54
0
VERTEX
8
1
10
0.00
20
130.54
0
VERTEX
8
1
10
0.00
20
138.80
0
VERTEX
8
1
10
4.00
20
138.80
0
VERTEX
8
1
10
4.00
20
147.05
0
VERTEX
8
1
10
0.00
20
147.05
0
VERTEX
8
1
10
0.00
20
155.31
0
VERTEX
8
1
10
4.00
20
155.31
0
VERTEX
8
1
10
4.00
20
163.56
0
VERTEX
8
1
10
0.00
20
163.56
0
VERTEX
8
1
10
0.00
20
171.81
0
VERTEX
8
1
10
4.00
20
171.81
0
VERTEX
8
1
10
4.00
20
180.07
0
VERTEX
8
1
10
0.00
20
180.07
0
VERTEX
8
1
10
0.00
20
188.32
0
VERTEX
8
1
10
4.00
20
188.32
0
VERTEX
8
1
10
4.00
20
196.58
0
VERTEX
8
1
10
0.00
20
196.58
0
VERTEX
8
1
10
0.00
20
204.83
0
VERTEX
8
1
10
4.00
20
204.83
0
VERTEX
8
1
10
4.00
20
213.09
0
VERTEX
8
1
10
0.00
20
213.09
0
VERTEX
8
1
10
0.00
20
221.34
0
VERTEX
8
1
10
4.00
20
221.34
0
VERTEX
8
1
10
4.00
20
229.59
0
VERTEX
8
1
10
0.00
20
229.59
0
VERTEX
8
1
10
0.00
20
237.85
0
VERTEX
8
1
10
4.00
20
237.85
0
VERTEX
8
1
10
4.00
20
246.10
0
VERTEX
8
1
10
0.00
20
246.10
0
VERTEX
8
1
10
0.00
20
254.36
0
VERTEX
8
1
10
4.00
20
254.36
0
VERTEX
8
1
10
4.00
20
262.61
0
VERTEX
8
1
10
0.00
20
262.61
0
VERTEX
8
1
10
0.00
20
270.86
0
VERTEX
8
1
10
4.00
20
270.86
0
VERTEX
8
1
10
4.00
20
279.12
0
VERTEX
8
1
10
0.00
20
279.12
0
VERTEX
8
1
10
0.00
20
287.37
0
VERTEX
8
1
10
4.00
20
287.37
0
VERTEX
8
1
10
4.00
20
295.63
0
VERTEX
8
1
10
0.00
20
295.63
0
VERTEX
8
1
10
0.00
20
303.88
0
VERTEX
8
1
10
4.00
20
303.88
0
VERTEX
8
1
10
4.00
20
312.14
0
VERTEX
8
1
10
0.00
20
312.14
0
VERTEX
8
1
10
0.00
20
320.39
0
VERTEX
8
1
10
4.00
20
320.39
0
VERTEX
8
1
10
4.00
20
328.64
0
VERTEX
8
1
10
0.00
20
328.64
0
VERTEX
8
1
10
0.00
20
336.90
0
VERTEX
8
1
10
4.00
20
336.90
0
VERTEX
8
1
10
4.00
20
345.15
0
VERTEX
8
1
10
0.00
20
345.15
0
VERTEX
8
1
10
0.00
20
353.41
0
VERTEX
8
1
10
4.00
20
353.41
0
VERTEX
8
1
10
4.00
20
361.66
0
VERTEX
8
1
10
0.00
20
361.66
0
VERTEX
8
1
10
0.00
20
369.92
0
VERTEX
8
1
10
4.00
20
369.92
0
VERTEX
8
1
10
4.00
20
378.17
0
VERTEX
8
1
10
0.00
20
378.17
0
VERTEX
8
1
10
0.00
20
386.42
0
VERTEX
8
1
10
4.00
20
386.42
0
VERTEX
8
1
10
4.00
20
394.68
0
VERTEX
8
1
10
0.00
20
394.68
0
VERTEX
8
1
10
0.00
20
402.93
0
VERTEX
8
1
10
4.00
20
402.93
0
VERTEX
8
1
10
4.00
20
411.19
0
VERTEX
8
1
10
0.00
20
411.19
0
VERTEX
8
1
10
0.00
20
419.44
0
VERTEX
8
1
10
4.00
20
419.44
0
VERTEX
8
1
10
4.00
20
427.69
0
VERTEX
8
1
10
0.00
20
427.69
0
VERTEX
8
1
10
0.00
20
435.95
0
VERTEX
8
1
10
4.00
20
435.95
0
VERTEX
8
1
10
4.00
20
444.20
0
VERTEX
8
1
10
0.00
20
444.20
0
VERTEX
8
1
10
0.00
20
452.46
0
VERTEX
8
1
10
4.00
20
452.46
0
VERTEX
8
1
10
4.00
20
460.71
0
VERTEX
8
1
10
0.00
20
460.71
0
VERTEX
8
1
10
0.00
20
468.97
0
VERTEX
8
1
10
4.00
20
468.97
0
VERTEX
8
1
10
4.00
20
477.22
0
VERTEX
8
1
10
0.00
20
477.22
0
VERTEX
8
1
10
0.00
20
485.48
0
VERTEX
8
1
10
4.00
20
485.48
0
VERTEX
8
1
10
4.00
20
493.73
0
VERTEX
8
1
10
0.00
20
493.73
0
VERTEX
8
1
10
0.00
20
501.98
0
VERTEX
8
1
10
4.00
20
501.98
0
VERTEX
8
1
10
4.00
20
510.24
0
VERTEX
8
1
10
0.00
20
510.24
0
VERTEX
8
1
10
0.00
20
518.49
0
VERTEX
8
1
10
4.00
20
518.49
0
VERTEX
8
1
10
4.00
20
526.75
0
VERTEX
8
1
10
0.00
20
526.75
0
VERTEX
8
1
10
0.00
20
535.00
0
VERTEX
8
1
10
8.00
20
535.00
0
VERTEX
8
1
10
8.00
20
539.00
0
VERTEX
8
1
10
16.00
20
539.00
0
VERTEX
8
1
10
16.00
20
535.00
0
VERTEX
8
1
10
24.00
20
535.00
0
VERTEX
8
1
10
24.00
20
539.00
0
VERTEX
8
1
10
32.00
20
539.00
0
VERTEX
8
1
10
32.00
20
535.00
0
VERTEX
8
1
10
40.00
20
535.00
0
VERTEX
8
1
10
40.00
20
526.75
0
VERTEX
8
1
10
36.00
20
526.75
0
VERTEX
8
1
10
36.00
20
518.49
0
VERTEX
8
1
10
40.00
20
518.49
0
VERTEX
8
1
10
40.00
20
510.24
0
VERTEX
8
1
10
36.00
20
510.24
0
VERTEX
8
1
10
36.00
20
501.98
0
VERTEX
8
1
10
40.00
20
501.98
0
VERTEX
8
1
10
40.00
20
493.73
0
VERTEX
8
1
10
36.00
20
493.73
0
VERTEX
8
1
10
36.00
20
485.48
0
VERTEX
8
1
10
40.00
20
485.48
0
VERTEX
8
1
10
40.00
20
477.22
0
VERTEX
8
1
10
36.00
20
477.22
0
VERTEX
8
1
10
36.00
20
468.97
0
VERTEX
8
1
10
40.00
20
468.97
0
VERTEX
8
1
10
40.00
20
460.71
0
VERTEX
8
1
10
36.00
20
460.71
0
VERTEX
8
1
10
36.00
20
452.46
0
VERTEX
8
1
10
40.00
20
452.46
0
VERTEX
8
1
10
40.00
20
444.20
0
VERTEX
8
1
10
36.00
20
444.20
0
VERTEX
8
1
10
36.00
20
435.95
0
VERTEX
8
1
10
40.00
20
435.95
0
VERTEX
8
1
10
40.00
20
427.69
0
VERTEX
8
1
10
36.00
20
427.69
0
VERTEX
8
1
10
36.00
20
419.44
0
VERTEX
8
1
10
40.00
20
419.44
0
VERTEX
8
1
10
40.00
20
411.19
0
VERTEX
8
1
10
36.00
20
411.19
0
VERTEX
8
1
10
36.00
20
402.93
0
VERTEX
8
1
10
40.00
20
402.93
0
VERTEX
8
1
10
40.00
20
394.68
0
VERTEX
8
1
10
36.00
20
394.68
0
VERTEX
8
1
10
36.00
20
386.42
0
VERTEX
8
1
10
40.00
20
386.42
0
VERTEX
8
1
10
40.00
20
378.17
0
VERTEX
8
1
10
36.00
20
378.17
0
VERTEX
8
1
10
36.00
20
369.92
0
VERTEX
8
1
10
40.00
20
369.92
0
VERTEX
8
1
10
40.00
20
361.66
0
VERTEX
8
1
10
36.00
20
361.66
0
VERTEX
8
1
10
36.00
20
353.41
0
VERTEX
8
1
10
40.00
20
353.41
0
VERTEX
8
1
10
40.00
20
345.15
0
VERTEX
8
1
10
36.00
20
345.15
0
VERTEX
8
1
10
36.00
20
336.90
0
VERTEX
8
1
10
40.00
20
336.90
0
VERTEX
8
1
10
40.00
20
328.64
0
VERTEX
8
1
10
36.00
20
328.64
0
VERTEX
8
1
10
36.00
20
320.39
0
VERTEX
8
1
10
40.00
20
320.39
0
VERTEX
8
1
10
40.00
20
312.14
0
VERTEX
8
1
10
36.00
20
312.14
0
VERTEX
8
1
10
36.00
20
303.88
0
VERTEX
8
1
10
40.00
20
303.88
0
VERTEX
8
1
10
40.00
20
295.63
0
VERTEX
8
1
10
36.00
20
295.63
0
VERTEX
8
1
10
36.00
20
287.37
0
VERTEX
8
1
10
40.00
20
287.37
0
VERTEX
8
1
10
40.00
20
279.12
0
VERTEX
8
1
10
36.00
20
279.12
0
VERTEX
8
1
10
36.00
20
270.86
0
VERTEX
8
1
10
40.00
20
270.86
0
VERTEX
8
1
10
40.00
20
262.61
0
VERTEX
8
1
10
36.00
20
262.61
0
VERTEX
8
1
10
36.00
20
254.36
0
VERTEX
8
1
10
40.00
20
254.36
0
VERTEX
8
1
10
40.00
20
246.10
0
VERTEX
8
1
10
36.00
20
246.10
0
VERTEX
8
1
10
36.00
20
237.85
0
VERTEX
8
1
10
40.00
20
237.85
0
VERTEX
8
1
10
40.00
20
229.59
0
VERTEX
8
1
10
36.00
20
229.59
0
VERTEX
8
1
10
36.00
20
221.34
0
VERTEX
8
1
10
40.00
20
221.34
0
VERTEX
8
1
10
40.00
20
213.09
0
VERTEX
8
1
10
36.00
20
213.09
0
VERTEX
8
1
10
36.00
20
204.83
0
VERTEX
8
1
10
40.00
20
204.83
0
VERTEX
8
1
10
40.00
20
196.58
0
VERTEX
8
1
10
36.00
20
196.58
0
VERTEX
8
1
10
36.00
20
188.32
0
VERTEX
8
1
10
40.00
20
188.32
0
VERTEX
8
1
10
40.00
20
180.07
0
VERTEX
8
1
10
36.00
20
180.07
0
VERTEX
8
1
10
36.00
20
171.81
0
VERTEX
8
1
10
40.00
20
171.81
0
VERTEX
8
1
10
40.00
20
163.56
0
VERTEX
8
1
10
36.00
20
163.56
0
VERTEX
8
1
10
36.00
20
155.31
0
VERTEX
8
1
10
40.00
20
155.31
0
VERTEX
8
1
10
40.00
20
147.05
0
VERTEX
8
1
10
36.00
20
147.05
0
VERTEX
8
1
10
36.00
20
138.80
0
VERTEX
8
1
10
40.00
20
138.80
0
VERTEX
8
1
10
40.00
20
130.54
0
VERTEX
8
1
10
36.00
20
130.54
0
VERTEX
8
1
10
36.00
20
122.29
0
VERTEX
8
1
10
40.00
20
122.29
0
VERTEX
8
1
10
40.00
20
114.03
0
VERTEX
8
1
10
36.00
20
114.03
0
VERTEX
8
1
10
36.00
20
105.78
0
VERTEX
8
1
10
40.00
20
105.78
0
VERTEX
8
1
10
40.00
20
97.53
0
VERTEX
8
1
10
36.00
20
97.53
0
VERTEX
8
1
10
36.00
20
89.27
0
VERTEX
8
1
10
40.00
20
89.27
0
VERTEX
8
1
10
40.00
20
81.02
0
VERTEX
8
1
10
36.00
20
81.02
0
VERTEX
8
1
10
36.00
20
72.76
0
VERTEX
8
1
10
40.00
20
72.76
0
VERTEX
8
1
10
40.00
20
64.51
0
VERTEX
8
1
10
36.00
20
64.51
0
VERTEX
8
1
10
36.00
20
56.25
0
VERTEX
8
1
10
40.00
20
56.25
0
VERTEX
8
1
10
40.00
20
48.00
0
VERTEX
8
1
10
32.00
20
48.00
0
VERTEX
8
1
10
32.00
20
44.00
0
VERTEX
8
1
10
24.00
20
44.00
0
VERTEX
8
1
10
24.00
20
48.00
0
VERTEX
8
1
10
16.00
20
48.00
0
VERTEX
8
1
10
16.00
20
44.00
0
VERTEX
8
1
10
8.00
20
44.00
0
VERTEX
8
1
10
8.00
20
48.00
0
VERTEX
8
1
10
0.00
20
48.00
0
SEQEND
0
POLYLINE
8
1
66
1
70
0
0
VERTEX
8
1
10
281.00
20
48.00
0
VERTEX
8
1
10
281.00
20
56.25
0
VERTEX
8
1
10
277.00
20
56.25
0
VERTEX
8
1
10
277.00
20
64.51
0
VERTEX
8
1
10
281.00
20
64.51
0
VERTEX
8
1
10
281.00
20
72.76
0
VERTEX
8
1
10
277.00
20
72.76
0
VERTEX
8
1
10
277.00
20
81.02
0
VERTEX
8
1
10
281.00
20
81.02
0
VERTEX
8
1
10
281.00
20
89.27
0
VERTEX
8
1
10
277.00
20
89.27
0
VERTEX
8
1
10
277.00
20
97.53
0
VERTEX
8
1
10
281.00
20
97.53
0
VERTEX
8
1
10
281.00
20
105.78
0
VERTEX
8
1
10
277.00
20
105.78
0
VERTEX
8
1
10
277.00
20
114.03
0
VERTEX
8
1
10
281.00
20
114.03
0
VERTEX
8
1
10
281.00
20
122.29
0
VERTEX
8
1
10
277.00
20
122.29
0
VERTEX
8
1
10
277.00
20
130.54
0
VERTEX
8
1
10
281.00
20
130.54
0
VERTEX
8
1
10
281.00
20
138.80
0
VERTEX
8
1
10
277.00
20
138.80
0
VERTEX
8
1
10
277.00
20
147.05
0
VERTEX
8
1
10
281.00
20
147.05
0
VERTEX
8
1
10
281.00
20
155.31
0
VERTEX
8
1
10
277.00
20
155.31
0
VERTEX
8
1
10
277.00
20
163.56
0
VERTEX
8
1
10
281.00
20
163.56
0
VERTEX
8
1
10
281.00
20
171.81
0
VERTEX
8
1
10
277.00
20
171.81
0
VERTEX
8
1
10
277.00
20
180.07
0
VERTEX
8
1
10
281.00
20
180.07
0
VERTEX
8
1
10
281.00
20
188.32
0
VERTEX
8
1
10
277.00
20
188.32
0
VERTEX
8
1
10
277.00
20
196.58
0
VERTEX
8
1
10
281.00
20
196.58
0
VERTEX
8
1
10
281.00
20
204.83
0
VERTEX
8
1
10
277.00
20
204.83
0
VERTEX
8
1
10
277.00
20
213.09
0
VERTEX
8
1
10
281.00
20
213.09
0
VERTEX
8
1
10
281.00
20
221.34
0
VERTEX
8
1
10
277.00
20
221.34
0
VERTEX
8
1
10
277.00
20
229.59
0
VERTEX
8
1
10
281.00
20
229.59
0
VERTEX
8
1
10
281.00
20
237.85
0
VERTEX
8
1
10
277.00
20
237.85
0
VERTEX
8
1
10
277.00
20
246.10
0
VERTEX
8
1
10
281.00
20
246.10
0
VERTEX
8
1
10
281.00
20
254.36
0
VERTEX
8
1
10
277.00
20
254.36
0
VERTEX
8
1
10
277.00
20
262.61
0
VERTEX
8
1
10
281.00
20
262.61
0
VERTEX
8
1
10
281.00
20
270.86
0
VERTEX
8
1
10
277.00
20
270.86
0
VERTEX
8
1
10
277.00
20
279.12
0
VERTEX
8
1
10
281.00
20
279.12
0
VERTEX
8
1
10
281.00
20
287.37
0
VERTEX
8
1
10
277.00
20
287.37
0
VERTEX
8
1
10
277.00
20
295.63
0
VERTEX
8
1
10
281.00
20
295.63
0
VERTEX
8
1
10
281.00
20
303.88
0
VERTEX
8
1
10
277.00
20
303.88
0
VERTEX
8
1
10
277.00
20
312.14
0
VERTEX
8
1
10
281.00
20
312.14
0
VERTEX
8
1
10
281.00
20
320.39
0
VERTEX
8
1
10
277.00
20
320.39
0
VERTEX
8
1
10
277.00
20
328.64
0
VERTEX
8
1
10
281.00
20
328.64
0
VERTEX
8
1
10
281.00
20
336.90
0
VERTEX
8
1
10
277.00
20
336.90
0
VERTEX
8
1
10
277.00
20
345.15
0
VERTEX
8
1
10
281.00
20
345.15
0
VERTEX
8
1
10
281.00
20
353.41
0
VERTEX
8
1
10
277.00
20
353.41
0
VERTEX
8
1
10
277.00
20
361.66
0
VERTEX
8
1
10
281.00
20
361.66
0
VERTEX
8
1
10
281.00
20
369.92
0
VERTEX
8
1
10
277.00
20
369.92
0
VERTEX
8
1
10
277.00
20
378.17
0
VERTEX
8
1
10
281.00
20
378.17
0
VERTEX
8
1
10
281.00
20
386.42
0
VERTEX
8
1
10
277.00
20
386.42
0
VERTEX
8
1
10
277.00
20
394.68
0
VERTEX
8
1
10
281.00
20
394.68
0
VERTEX
8
1
10
281.00
20
402.93
0
VERTEX
8
1
10
277.00
20
402.93
0
VERTEX
8
1
10
277.00
20
411.19
0
VERTEX
8
1
10
281.00
20
411.19
0
VERTEX
8
1
10
281.00
20
419.44
0
VERTEX
8
1
10
277.00
20
419.44
0
VERTEX
8
1
10
277.00
20
427.69
0
VERTEX
8
1
10
281.00
20
427.69
0
VERTEX
8
1
10
281.00
20
435.95
0
VERTEX
8
1
10
277.00
20
435.95
0
VERTEX
8
1
10
277.00
20
444.20
0
VERTEX
8
1
10
281.00
20
444.20
0
VERTEX
8
1
10
281.00
20
452.46
0
VERTEX
8
1
10
277.00
20
452.46
0
VERTEX
8
1
10
277.00
20
460.71
0
VERTEX
8
1
10
281.00
20
460.71
0
VERTEX
8
1
10
281.00
20
468.97
0
VERTEX
8
1
10
277.00
20
468.97
0
VERTEX
8
1
10
277.00
20
477.22
0
VERTEX
8
1
10
281.00
20
477.22
0
VERTEX
8
1
10
281.00
20
485.48
0
VERTEX
8
1
10
277.00
20
485.48
0
VERTEX
8
1
10
277.00
20
493.73
0
VERTEX
8
1
10
281.00
20
493.73
0
VERTEX
8
1
10
281.00
20
501.98
0
VERTEX
8
1
10
277.00
20
501.98
0
VERTEX
8
1
10
277.00
20
510.24
0
VERTEX
8
1
10
281.00
20
510.24
0
VERTEX
8
1
10
281.00
20
518.49
0
VERTEX
8
1
10
277.00
20
518.49
0
VERTEX
8
1
10
277.00
20
526.75
0
VERTEX
8
1
10
281.00
20
526.75
0
VERTEX
8
1
10
281.00
20
535.00
0
VERTEX
8
1
10
273.00
20
535.00
0
VERTEX
8
1
10
273.00
20
539.00
0
VERTEX
8
1
10
265.00
20
539.00
0
VERTEX
8
1
10
265.00
20
535.00
0
VERTEX
8
1
10
257.00
20
535.00
0
VERTEX
8
1
10
257.00
20
539.00
0
VERTEX
8
1
10
249.00
20
539.00
0
VERTEX
8
1
10
249.00
20
535.00
0
VERTEX
8
1
10
241.00
20
535.00
0
VERTEX
8
1
10
241.00
20
526.75
0
VERTEX
8
1
10
245.00
20
526.75
0
VERTEX
8
1
10
245.00
20
518.49
0
VERTEX
8
1
10
241.00
20
518.49
0
VERTEX
8
1
10
241.00
20
510.24
0
VERTEX
8
1
10
245.00
20
510.24
0
VERTEX
8
1
10
245.00
20
501.98
0
VERTEX
8
1
10
241.00
20
501.98
0
VERTEX
8
1
10
241.00
20
493.73
0
VERTEX
8
1
10
245.00
20
493.73
0
VERTEX
8
1
10
245.00
20
485.48
0
VERTEX
8
1
10
241.00
20
485.48
0
VERTEX
8
1
10
241.00
20
477.22
0
VERTEX
8
1
10
245.00
20
477.22
0
VERTEX
8
1
10
245.00
20
468.97
0
VERTEX
8
1
10
241.00
20
468.97
0
VERTEX
8
1
10
241.00
20
460.71
0
VERTEX
8
1
10
245.00
20
460.71
0
VERTEX
8
1
10
245.00
20
452.46
0
VERTEX
8
1
10
241.00
20
452.46
0
VERTEX
8
1
10
241.00
20
444.20
0
VERTEX
8
1
10
245.00
20
444.20
0
VERTEX
8
1
10
245.00
20
435.95
0
VERTEX
8
1
10
241.00
20
435.95
0
VERTEX
8
1
10
241.00
20
427.69
0
VERTEX
8
1
10
245.00
20
427.69
0
VERTEX
8
1
10
245.00
20
419.44
0
VERTEX
8
1
10
241.00
20
419.44
0
VERTEX
8
1
10
241.00
20
411.19
0
VERTEX
8
1
10
245.00
20
411.19
0
VERTEX
8
1
10
245.00
20
402.93
0
VERTEX
8
1
10
241.00
20
402.93
0
VERTEX
8
1
10
241.00
20
394.68
0
VERTEX
8
1
10
245.00
20
394.68
0
VERTEX
8
1
10
245.00
20
386.42
0
VERTEX
8
1
10
241.00
20
386.42
0
VERTEX
8
1
10
241.00
20
378.17
0
VERTEX
8
1
10
245.00
20
378.17
0
VERTEX
8
1
10
245.00
20
369.92
0
VERTEX
8
1
10
241.00
20
369.92
0
VERTEX
8
1
10
241.00
20
361.66
0
VERTEX
8
1
10
245.00
20
361.66
0
VERTEX
8
1
10
245.00
20
353.41
0
VERTEX
8
1
10
241.00
20
353.41
0
VERTEX
8
1
10
241.00
20
345.15
0
VERTEX
8
1
10
245.00
20
345.15
0
VERTEX
8
1
10
245.00
20
336.90
0
VERTEX
8
1
10
241.00
20
336.90
0
VERTEX
8
1
10
241.00
20
328.64
0
VERTEX
8
1
10
245.00
20
328.64
0
VERTEX
8
1
10
245.00
20
320.39
0
VERTEX
8
1
10
241.00
20
320.39
0
VERTEX
8
1
10
241.00
20
312.14
0
VERTEX
8
1
10
245.00
20
312.14
0
VERTEX
8
1
10
245.00
20
303.88
0
VERTEX
8
1
10
241.00
20
303.88
0
VERTEX
8
1
10
241.00
20
295.63
0
VERTEX
8
1
10
245.00
20
295.63
0
VERTEX
8
1
10
245.00
20
287.37
0
VERTEX
8
1
10
241.00
20
287.37
0
VERTEX
8
1
10
241.00
20
279.12
0
VERTEX
8
1
10
245.00
20
279.12
0
VERTEX
8
1
10
245.00
20
270.86
0
VERTEX
8
1
10
241.00
20
270.86
0
VERTEX
8
1
10
241.00
20
262.61
0
VERTEX
8
1
10
245.00
20
262.61
0
VERTEX
8
1
10
245.00
20
254.36
0
VERTEX
8
1
10
241.00
20
254.36
0
VERTEX
8
1
10
241.00
20
246.10
0
VERTEX
8
1
10
245.00
20
246.10
0
VERTEX
8
1
10
245.00
20
237.85
0
VERTEX
8
1
10
241.00
20
237.85
0
VERTEX
8
1
10
241.00
20
229.59
0
VERTEX
8
1
10
245.00
20
229.59
0
VERTEX
8
1
10
245.00
20
221.34
0
VERTEX
8
1
10
241.00
20
221.34
0
VERTEX
8
1
10
241.00
20
213.09
0
VERTEX
8
1
10
245.00
20
213.09
0
VERTEX
8
1
10
245.00
20
204.83
0
VERTEX
8
1
10
241.00
20
204.83
0
VERTEX
8
1
10
241.00
20
196.58
0
VERTEX
8
1
10
245.00
20
196.58
0
VERTEX
8
1
10
245.00
20
188.32
0
VERTEX
8
1
10
241.00
20
188.32
0
VERTEX
8
1
10
241.00
20
180.07
0
VERTEX
8
1
10
245.00
20
180.07
0
VERTEX
8
1
10
245.00
20
171.81
0
VERTEX
8
1
10
241.00
20
171.81
0
VERTEX
8
1
10
241.00
20
163.56
0
VERTEX
8
1
10
245.00
20
163.56
0
VERTEX
8
1
10
245.00
20
155.31
0
VERTEX
8
1
10
241.00
20
155.31
0
VERTEX
8
1
10
241.00
20
147.05
0
VERTEX
8
1
10
245.00
20
147.05
0
VERTEX
8
1
10
245.00
20
138.80
0
VERTEX
8
1
10
241.00
20
138.80
0
VERTEX
8
1
10
241.00
20
130.54
0
VERTEX
8
1
10
245.00
20
130.54
0
VERTEX
8
1
10
245.00
20
122.29
0
VERTEX
8
1
10
241.00
20
122.29
0
VERTEX
8
1
10
241.00
20
114.03
0
VERTEX
8
1
10
245.00
20
114.03
0
VERTEX
8
1
10
245.00
20
105.78
0
VERTEX
8
1
10
241.00
20
105.78
0
VERTEX
8
1
10
241.00
20
97.53
0
VERTEX
8
1
10
245.00
20
97.53
0
VERTEX
8
1
10
245.00
20
89.27
0
VERTEX
8
1
10
241.00
20
89.27
0
VERTEX
8
1
10
241.00
20
81.02
0
VERTEX
8
1
10
245.00
20
81.02
0
VERTEX
8
1
10
245.00
20
72.76
0
VERTEX
8
1
10
241.00
20
72.76
0
VERTEX
8
1
10
241.00
20
64.51
0
VERTEX
8
1
10
245.00
20
64.51
0
VERTEX
8
1
10
245.00
20
56.25
0
VERTEX
8
1
10
241.00
20
56.25
0
VERTEX
8
1
10
241.00
20
48.00
0
VERTEX
8
1
10
249.00
20
48.00
0
VERTEX
8
1
10
249.00
20
44.00
0
VERTEX
8
1
10
257.00
20
44.00
0
VERTEX
8
1
10
257.00
20
48.00
0
VERTEX
8
1
10
265.00
20
48.00
0
VERTEX
8
1
10
265.00
20
44.00
0
VERTEX
8
1
10
273.00
20
44.00
0
VERTEX
8
1
10
273.00
20
48.00
0
VERTEX
8
1
10
281.00
20
48.00
0
SEQEND
0
POLYLINE
8
1
66
1
70
0
0
VERTEX
8
1
10
48.00
20
591.00
0
VERTEX
8
1
10
56.04
20
591.00
0
VERTEX
8
1
10
56.04
20
587.00
0
VERTEX
8
1
10
64.09
20
587.00
0
VERTEX
8
1
10
64.09
20
591.00
0
VERTEX
8
1
10
72.13
20
591.00
0
VERTEX
8
1
10
72.13
20
587.00
0
VERTEX
8
1
10
80.17
20
587.00
0
VERTEX
8
1
10
80.17
20
591.00
0
VERTEX
8
1
10
88.22
20
591.00
0
VERTEX
8
1
10
88.22
20
587.00
0
VERTEX
8
1
10
96.26
20
587.00
0
VERTEX
8
1
10
96.26
20
591.00
0
VERTEX
8
1
10
104.30
20
591.00
0
VERTEX
8
1
10
104.30
20
587.00
0
VERTEX
8
1
10
112.35
20
587.00
0
VERTEX
8
1
10
112.35
20
591.00
0
VERTEX
8
1
10
120.39
20
591.00
0
VERTEX
8
1
10
120.39
20
587.00
0
VERTEX
8
1
10
128.44
20
587.00
0
VERTEX
8
1
10
128.44
20
591.00
0
VERTEX
8
1
10
136.48
20
591.00
0
VERTEX
8
1
10
136.48
20
587.00
0
VERTEX
8
1
10
144.52
20
587.00
0
VERTEX
8
1
10
144.52
20
591.00
0
VERTEX
8
1
10
152.56
20
591.00
0
VERTEX
8
1
10
152.56
20
587.00
0
VERTEX
8
1
10
160.61
20
587.00
0
VERTEX
8
1
10
160.61
20
591.00
0
VERTEX
8
1
10
168.65
20
591.00
0
VERTEX
8
1
10
168.65
20
587.00
0
VERTEX
8
1
10
176.70
20
587.00
0
VERTEX
8
1
10
176.70
20
591.00
0
VERTEX
8
1
10
184.74
20
591.00
0
VERTEX
8
1
10
184.74
20
587.00
0
VERTEX
8
1
10
192.78
20
587.00
0
VERTEX
8
1
10
192.78
20
591.00
0
VERTEX
8
1
10
200.83
20
591.00
0
VERTEX
8
1
10
200.83
20
587.00
0
VERTEX
8
1
10
208.87
20
587.00
0
VERTEX
8
1
10
208.87
20
591.00
0
VERTEX
8
1
10
216.91
20
591.00
0
VERTEX
8
1
10
216.91
20
587.00
0
VERTEX
8
1
10
224.96
20
587.00
0
VERTEX
8
1
10
224.96
20
591.00
0
VERTEX
8
1
10
233.00
20
591.00
0
VERTEX
8
1
10
233.00
20
599.25
0
VERTEX
8
1
10
237.00
20
599.25
0
VERTEX
8
1
10
237.00
20
607.51
0
VERTEX
8
1
10
233.00
20
607.51
0
VERTEX
8
1
10
233.00
20
615.76
0
VERTEX
8
1
10
237.00
20
615.76
0
VERTEX
8
1
10
237.00
20
624.02
0
VERTEX
8
1
10
233.00
20
624.02
0
VERTEX
8
1
10
233.00
20
632.27
0
VERTEX
8
1
10
237.00
20
632.27
0
VERTEX
8
1
10
237.00
20
640.52
0
VERTEX
8
1
10
233.00
20
640.52
0
VERTEX
8
1
10
233.00
20
648.78
0
VERTEX
8
1
10
237.00
20
648.78
0
VERTEX
8
1
10
237.00
20
657.03
0
VERTEX
8
1
10
233.00
20
657.03
0
VERTEX
8
1
10
233.00
20
665.29
0
VERTEX
8
1
10
237.00
20
665.29
0
VERTEX
8
1
10
237.00
20
673.54
0
VERTEX
8
1
10
233.00
20
673.54
0
VERTEX
8
1
10
233.00
20
681.80
0
VERTEX
8
1
10
237.00
20
681.80
0
VERTEX
8
1
10
237.00
20
690.05
0
VERTEX
8
1
10
233.00
20
690.05
0
VERTEX
8
1
10
233.00
20
698.31
0
VERTEX
8
1
10
237.00
20
698.31
0
VERTEX
8
1
10
237.00
20
706.56
0
VERTEX
8
1
10
233.00
20
706.56
0
VERTEX
8
1
10
233.00
20
714.81
0
VERTEX
8
1
10
237.00
20
714.81
0
VERTEX
8
1
10
237.00
20
723.07
0
VERTEX
8
1
10
233.00
20
723.07
0
VERTEX
8
1
10
233.00
20
731.32
0
VERTEX
8
1
10
237.00
20
731.32
0
VERTEX
8
1
10
237.00
20
739.58
0
VERTEX
8
1
10
233.00
20
739.58
0
VERTEX
8
1
10
233.00
20
747.83
0
VERTEX
8
1
10
237.00
20
747.83
0
VERTEX
8
1
10
237.00
20
756.09
0
VERTEX
8
1
10
233.00
20
756.09
0
VERTEX
8
1
10
233.00
20
764.34
0
VERTEX
8
1
10
237.00
20
764.34
0
VERTEX
8
1
10
237.00
20
772.59
0
VERTEX
8
1
10
233.00
20
772.59
0
VERTEX
8
1
10
233.00
20
780.85
0
VERTEX
8
1
10
237.00
20
780.85
0
VERTEX
8
1
10
237.00
20
789.10
0
VERTEX
8
1
10
233.00
20
789.10
0
VERTEX
8
1
10
233.00
20
797.36
0
VERTEX
8
1
10
237.00
20
797.36
0
VERTEX
8
1
10
237.00
20
805.61
0
VERTEX
8
1
10
233.00
20
805.61
0
VERTEX
8
1
10
233.00
20
813.86
0
VERTEX
8
1
10
237.00
20
813.86
0
VERTEX
8
1
10
237.00
20
822.12
0
VERTEX
8
1
10
233.00
20
822.12
0
VERTEX
8
1
10
233.00
20
830.37
0
VERTEX
8
1
10
237.00
20
830.37
0
VERTEX
8
1
10
237.00
20
838.63
0
VERTEX
8
1
10
233.00
20
838.63
0
VERTEX
8
1
10
233.00
20
846.88
0
VERTEX
8
1
10
237.00
20
846.88
0
VERTEX
8
1
10
237.00
20
855.14
0
VERTEX
8
1
10
233.00
20
855.14
0
VERTEX
8
1
10
233.00
20
863.39
0
VERTEX
8
1
10
237.00
20
863.39
0
VERTEX
8
1
10
237.00
20
871.64
0
VERTEX
8
1
10
233.00
20
871.64
0
VERTEX
8
1
10
233.00
20
879.90
0
VERTEX
8
1
10
237.00
20
879.90
0
VERTEX
8
1
10
237.00
20
888.15
0
VERTEX
8
1
10
233.00
20
888.15
0
VERTEX
8
1
10
233.00
20
896.41
0
VERTEX
8
1
10
237.00
20
896.41
0
VERTEX
8
1
10
237.00
20
904.66
0
VERTEX
8
1
10
233.00
20
904.66
0
VERTEX
8
1
10
233.00
20
912.91
0
VERTEX
8
1
10
237.00
20
912.91
0
VERTEX
8
1
10
237.00
20
921.17
0
VERTEX
8
1
10
233.00
20
921.17
0
VERTEX
8
1
10
233.00
20
929.42
0
VERTEX
8
1
10
237.00
20
929.42
0
VERTEX
8
1
10
237.00
20
937.68
0
VERTEX
8
1
10
233.00
20
937.68
0
VERTEX
8
1
10
233.00
20
945.93
0
VERTEX
8
1
10
237.00
20
945.93
0
VERTEX
8
1
10
237.00
20
954.19
0
VERTEX
8
1
10
233.00
20
954.19
0
VERTEX
8
1
10
233.00
20
962.44
0
VERTEX
8
1
10
237.00
20
962.44
0
VERTEX
8
1
10
237.00
20
970.69
0
VERTEX
8
1
10
233.00
20
970.69
0
VERTEX
8
1
10
233.00
20
978.95
0
VERTEX
8
1
10
237.00
20
978.95
0
VERTEX
8
1
10
237.00
20
987.20
0
VERTEX
8
1
10
233.00
20
987.20
0
VERTEX
8
1
10
233.00
20
995.46
0
VERTEX
8
1
10
237.00
20
995.46
0
VERTEX
8
1
10
237.00
20
1003.71
0
VERTEX
8
1
10
233.00
20
1003.71
0
VERTEX
8
1
10
233.00
20
1011.97
0
VERTEX
8
1
10
237.00
20
1011.97
0
VERTEX
8
1
10
237.00
20
1020.22
0
VERTEX
8
1
10
233.00
20
1020.22
0
VERTEX
8
1
10
233.00
20
1028.47
0
VERTEX
8
1
10
237.00
20
1028.47
0
VERTEX
8
1
10
237.00
20
1036.73
0
VERTEX
8
1
10
233.00
20
1036.73
0
VERTEX
8
1
10
233.00
20
1044.98
0
VERTEX
8
1
10
237.00
20
1044.98
0
VERTEX
8
1
10
237.00
20
1053.24
0
VERTEX
8
1
10
233.00
20
1053.24
0
VERTEX
8
1
10
233.00
20
1061.49
0
VERTEX
8
1
10
237.00
20
1061.49
0
VERTEX
8
1
10
237.00
20
1069.75
0
VERTEX
8
1
10
233.00
20
1069.75
0
VERTEX
8
1
10
233.00
20
1078.00
0
VERTEX
8
1
10
224.96
20
1078.00
0
VERTEX
8
1
10
224.96
20
1082.00
0
VERTEX
8
1
10
216.91
20
1082.00
0
VERTEX
8
1
10
216.91
20
1078.00
0
VERTEX
8
1
10
208.87
20
1078.00
0
VERTEX
8
1
10
208.87
20
1082.00
0
VERTEX
8
1
10
200.83
20
1082.00
0
VERTEX
8
1
10
200.83
20
1078.00
0
VERTEX
8
1
10
192.78
20
1078.00
0
VERTEX
8
1
10
192.78
20
1082.00
0
VERTEX
8
1
10
184.74
20
1082.00
0
VERTEX
8
1
10
184.74
20
1078.00
0
VERTEX
8
1
10
176.70
20
1078.00
0
VERTEX
8
1
10
176.70
20
1082.00
0
VERTEX
8
1
10
168.65
20
1082.00
0
VERTEX
8
1
10
168.65
20
1078.00
0
VERTEX
8
1
10
160.61
20
1078.00
0
VERTEX
8
1
10
160.61
20
1082.00
0
VERTEX
8
1
10
152.56
20
1082.00
0
VERTEX
8
1
10
152.56
20
1078.00
0
VERTEX
8
1
10
144.52
20
1078.00
0
VERTEX
8
1
10
144.52
20
1082.00
0
VERTEX
8
1
10
136.48
20
1082.00
0
VERTEX
8
1
10
136.48
20
1078.00
0
VERTEX
8
1
10
128.44
20
1078.00
0
VERTEX
8
1
10
128.44
20
1082.00
0
VERTEX
8
1
10
120.39
20
1082.00
0
VERTEX
8
1
10
120.39
20
1078.00
0
VERTEX
8
1
10
112.35
20
1078.00
0
VERTEX
8
1
10
112.35
20
1082.00
0
VERTEX
8
1
10
104.30
20
1082.00
0
VERTEX
8
1
10
104.30
20
1078.00
0
VERTEX
8
1
10
96.26
20
1078.00
0
VERTEX
8
1
10
96.26
20
1082.00
0
VERTEX
8
1
10
88.22
20
1082.00
0
VERTEX
8
1
10
88.22
20
1078.00
0
VERTEX
8
1
10
80.17
20
1078.00
0
VERTEX
8
1
10
80.17
20
1082.00
0
VERTEX
8
1
10
72.13
20
1082.00
0
VERTEX
8
1
10
72.13
20
1078.00
0
VERTEX
8
1
10
64.09
20
1078.00
0
VERTEX
8
1
10
64.09
20
1082.00
0
VERTEX
8
1
10
56.04
20
1082.00
0
VERTEX
8
1
10
56.04
20
1078.00
0
VERTEX
8
1
10
48.00
20
1078.00
0
VERTEX
8
1
10
48.00
20
1069.75
0
VERTEX
8
1
10
44.00
20
1069.75
0
VERTEX
8
1
10
44.00
20
1061.49
0
VERTEX
8
1
10
48.00
20
1061.49
0
VERTEX
8
1
10
48.00
20
1053.24
0
VERTEX
8
1
10
44.00
20
1053.24
0
VERTEX
8
1
10
44.00
20
1044.98
0
VERTEX
8
1
10
48.00
20
1044.98
0
VERTEX
8
1
10
48.00
20
1036.73
0
VERTEX
8
1
10
44.00
20
1036.73
0
VERTEX
8
1
10
44.00
20
1028.47
0
VERTEX
8
1
10
48.00
20
1028.47
0
VERTEX
8
1
10
48.00
20
1020.22
0
VERTEX
8
1
10
44.00
20
1020.22
0
VERTEX
8
1
10
44.00
20
1011.97
0
VERTEX
8
1
10
48.00
20
1011.97
0
VERTEX
8
1
10
48.00
20
1003.71
0
VERTEX
8
1
10
44.00
20
1003.71
0
VERTEX
8
1
10
44.00
20
995.46
0
VERTEX
8
1
10
48.00
20
995.46
0
VERTEX
8
1
10
48.00
20
987.20
0
VERTEX
8
1
10
44.00
20
987.20
0
VERTEX
8
1
10
44.00
20
978.95
0
VERTEX
8
1
10
48.00
20
978.95
0
VERTEX
8
1
10
48.00
20
970.69
0
VERTEX
8
1
10
44.00
20
970.69
0
VERTEX
8
1
10
44.00
20
962.44
0
VERTEX
8
1
10
48.00
20
962.44
0
VERTEX
8
1
10
48.00
20
954.19
0
VERTEX
8
1
10
44.00
20
954.19
0
VERTEX
8
1
10
44.00
20
945.93
0
VERTEX
8
1
10
48.00
20
945.93
0
VERTEX
8
1
10
48.00
20
937.68
0
VERTEX
8
1
10
44.00
20
937.68
0
VERTEX
8
1
10
44.00
20
929.42
0
VERTEX
8
1
10
48.00
20
929.42
0
VERTEX
8
1
10
48.00
20
921.17
0
VERTEX
8
1
10
44.00
20
921.17
0
VERTEX
8
1
10
44.00
20
912.91
0
VERTEX
8
1
10
48.00
20
912.91
0
VERTEX
8
1
10
48.00
20
904.66
0
VERTEX
8
1
10
44.00
20
904.66
0
VERTEX
8
1
10
44.00
20
896.41
0
VERTEX
8
1
10
48.00
20
896.41
0
VERTEX
8
1
10
48.00
20
888.15
0
VERTEX
8
1
10
44.00
20
888.15
0
VERTEX
8
1
10
44.00
20
879.90
0
VERTEX
8
1
10
48.00
20
879.90
0
VERTEX
8
1
10
48.00
20
871.64
0
VERTEX
8
1
10
44.00
20
871.64
0
VERTEX
8
1
10
44.00
20
863.39
0
VERTEX
8
1
10
48.00
20
863.39
0
VERTEX
8
1
10
48.00
20
855.14
0
VERTEX
8
1
10
44.00
20
855.14
0
VERTEX
8
1
10
44.00
20
846.88
0
VERTEX
8
1
10
48.00
20
846.88
0
VERTEX
8
1
10
48.00
20
838.63
0
VERTEX
8
1
10
44.00
20
838.63
0
VERTEX
8
1
10
44.00
20
830.37
0
VERTEX
8
1
10
48.00
20
830.37
0
VERTEX
8
1
10
48.00
20
822.12
0
VERTEX
8
1
10
44.00
20
822.12
0
VERTEX
8
1
10
44.00
20
813.86
0
VERTEX
8
1
10
48.00
20
813.86
0
VERTEX
8
1
10
48.00
20
805.61
0
VERTEX
8
1
10
44.00
20
805.61
0
VERTEX
8
1
10
44.00
20
797.36
0
VERTEX
8
1
10
48.00
20
797.36
0
VERTEX
8
1
10
48.00
20
789.10
0
VERTEX
8
1
10
44.00
20
789.10
0
VERTEX
8
1
10
44.00
20
780.85
0
VERTEX
8
1
10
48.00
20
780.85
0
VERTEX
8
1
10
48.00
20
772.59
0
VERTEX
8
1
10
44.00
20
772.59
0
VERTEX
8
1
10
44.00
20
764.34
0
VERTEX
8
1
10
48.00
20
764.34
0
VERTEX
8
1
10
48.00
20
756.09
0
VERTEX
8
1
10
44.00
20
756.09
0
VERTEX
8
1
10
44.00
20
747.83
0
VERTEX
8
1
10
48.00
20
747.83
0
VERTEX
8
1
10
48.00
20
739.58
0
VERTEX
8
1
10
44.00
20
739.58
0
VERTEX
8
1
10
44.00
20
731.32
0
VERTEX
8
1
10
48.00
20
731.32
0
VERTEX
8
1
10
48.00
20
723.07
0
VERTEX
8
1
10
44.00
20
723.07
0
VERTEX
8
1
10
44.00
20
714.81
0
VERTEX
8
1
10
48.00
20
714.81
0
VERTEX
8
1
10
48.00
20
706.56
0
VERTEX
8
1
10
44.00
20
706.56
0
VERTEX
8
1
10
44.00
20
698.31
0
VERTEX
8
1
10
48.00
20
698.31
0
VERTEX
8
1
10
48.00
20
690.05
0
VERTEX
8
1
10
44.00
20
690.05
0
VERTEX
8
1
10
44.00
20
681.80
0
VERTEX
8
1
10
48.00
20
681.80
0
VERTEX
8
1
10
48.00
20
673.54
0
VERTEX
8
1
10
44.00
20
673.54
0
VERTEX
8
1
10
44.00
20
665.29
0
VERTEX
8
1
10
48.00
20
665.29
0
VERTEX
8
1
10
48.00
20
657.03
0
VERTEX
8
1
10
44.00
20
657.03
0
VERTEX
8
1
10
44.00
20
648.78
0
VERTEX
8
1
10
48.00
20
648.78
0
VERTEX
8
1
10
48.00
20
640.52
0
VERTEX
8
1
10
44.00
20
640.52
0
VERTEX
8
1
10
44.00
20
632.27
0
VERTEX
8
1
10
48.00
20
632.27
0
VERTEX
8
1
10
48.00
20
624.02
0
VERTEX
8
1
10
44.00
20
624.02
0
VERTEX
8
1
10
44.00
20
615.76
0
VERTEX
8
1
10
48.00
20
615.76
0
VERTEX
8
1
10
48.00
20
607.51
0
VERTEX
8
1
10
44.00
20
607.51
0
VERTEX
8
1
10
44.00
20
599.25
0
VERTEX
8
1
10
48.00
20
599.25
0
VERTEX
8
1
10
48.00
20
591.00
0
SEQEND
0
ENDSEC
0
EOF
